<?xml version="1.0" encoding="UTF-8"?>
<svg width="425px" height="382px" viewBox="0 0 425 382" version="1.1" xmlns="http://www.w3.org/2000/svg" xmlns:xlink="http://www.w3.org/1999/xlink">
    <!-- Generator: Sketch 57.1 (83088) - https://sketch.com -->
    <title>Mailbox-bro</title>
    <desc>Created with Sketch.</desc>
    <g id="Webdesign-quick-fix" stroke="none" stroke-width="1" fill="none" fill-rule="evenodd">
        <g id="Contact---UI" transform="translate(-731.000000, -173.000000)">
            <g id="Mailbox-bro" transform="translate(731.000000, 173.000000)">
                <g id="freepik--background-simple--inject-1--inject-209" transform="translate(11.000000, 28.000000)" fill-rule="nonzero">
                    <path d="M341.022472,58.3547287 C323.45191,48.711938 305.14736,44.8412403 285.171573,47.319845 C260.566011,50.3643411 241.132247,53.952093 217.588146,44.7620155 C197.793034,37.0432558 179.714326,25.5217054 160.833876,15.9694574 C122.214775,-3.66697674 83.8779775,-9.74465116 54.9249438,28.9849612 C39.5224719,49.5947287 27.8238202,73.2603101 19.7499438,98.2274419 C6.69623596,138.507597 -4.03129213,183.111163 1.85191011,225.179535 C9.29342697,278.509147 54.9249438,303.544186 109.511124,284.224651 C131.587247,276.415349 152.895506,264.984341 176.439607,261.713488 C225.707191,254.854884 266.313708,300.194109 325.394157,289.170543 C427.226629,270.20186 419.706067,101.532248 341.022472,58.3547287 Z" id="Path" fill="#4788D8"></path>
                    <path d="M341.022472,58.3547287 C323.45191,48.711938 305.14736,44.8412403 285.171573,47.319845 C260.566011,50.3643411 241.132247,53.952093 217.588146,44.7620155 C197.793034,37.0432558 179.714326,25.5217054 160.833876,15.9694574 C122.214775,-3.66697674 83.8779775,-9.74465116 54.9249438,28.9849612 C39.5224719,49.5947287 27.8238202,73.2603101 19.7499438,98.2274419 C6.69623596,138.507597 -4.03129213,183.111163 1.85191011,225.179535 C9.29342697,278.509147 54.9249438,303.544186 109.511124,284.224651 C131.587247,276.415349 152.895506,264.984341 176.439607,261.713488 C225.707191,254.854884 266.313708,300.194109 325.394157,289.170543 C427.226629,270.20186 419.706067,101.532248 341.022472,58.3547287 Z" id="Path" fill="#FFFFFF" opacity="0.7"></path>
                </g>
                <g id="freepik--Clouds--inject-1--inject-209" transform="translate(68.000000, 0.000000)" fill-rule="nonzero">
                    <path d="M299.959041,43.2154598 C292.78893,39.2867816 289.536974,42.5587931 286.928635,39.2867816 C284.320295,36.0147701 294.098745,27.5233908 274.50797,19.0320115 C274.50797,19.0320115 273.209446,0.73591954 246.482435,0.0792528736 C219.755424,-0.577413793 226.95941,18.3753448 219.789299,22.9493678 C212.619188,27.5233908 210.665756,20.3793103 203.495646,24.908046 C196.325535,29.4367816 199.588782,38.6301149 193.728487,39.9321264 C187.868192,41.2341379 180.031882,34.056092 172.861771,38.6301149 C165.691661,43.2041379 165.691661,47.1214943 162.439705,47.1214943 C159.187749,47.1214943 152.661255,44.5061494 148.754391,47.1214943 C144.847528,49.7368391 140.274465,53.0088506 140.274465,53.0088506 L305.130554,53.0088506 C305.130554,53.0088506 307.129151,47.1328161 299.959041,43.2154598 Z" id="Path" fill="#4788D8"></path>
                    <path d="M299.959041,43.2154598 C292.78893,39.2867816 289.536974,42.5587931 286.928635,39.2867816 C284.320295,36.0147701 294.098745,27.5233908 274.50797,19.0320115 C274.50797,19.0320115 273.209446,0.73591954 246.482435,0.0792528736 C219.755424,-0.577413793 226.95941,18.3753448 219.789299,22.9493678 C212.619188,27.5233908 210.665756,20.3793103 203.495646,24.908046 C196.325535,29.4367816 199.588782,38.6301149 193.728487,39.9321264 C187.868192,41.2341379 180.031882,34.056092 172.861771,38.6301149 C165.691661,43.2041379 165.691661,47.1214943 162.439705,47.1214943 C159.187749,47.1214943 152.661255,44.5061494 148.754391,47.1214943 C144.847528,49.7368391 140.274465,53.0088506 140.274465,53.0088506 L305.130554,53.0088506 C305.130554,53.0088506 307.129151,47.1328161 299.959041,43.2154598 Z" id="Path" fill="#FFFFFF" opacity="0.5"></path>
                    <path d="M113.005461,190.093678 C107.969446,187.342471 105.677269,189.629483 103.848044,187.342471 C102.018819,185.05546 108.884059,179.077529 95.1535793,173.11092 C95.1535793,173.11092 94.2389668,160.260632 75.4611808,159.796437 C56.6833948,159.332241 61.7307011,172.646724 56.6946863,175.862126 C51.6586716,179.077529 50.2923985,174.027989 45.2563838,177.243391 C40.220369,180.458793 42.5012546,186.878276 38.3911439,187.795345 C34.2810332,188.712414 28.7707749,183.662874 23.7121771,186.878276 C18.6535793,190.093678 18.6761624,192.844885 16.3952768,192.844885 C14.1143911,192.844885 9.51874539,191.010747 6.77490775,192.844885 C4.03107011,194.679023 0.824280443,196.977356 0.824280443,196.977356 L116.663911,196.977356 C116.663911,196.977356 118.041476,192.844885 113.005461,190.093678 Z" id="Path" fill="#FFFFFF"></path>
                    <path d="M113.005461,190.093678 C107.969446,187.342471 105.677269,189.629483 103.848044,187.342471 C102.018819,185.05546 108.884059,179.077529 95.1535793,173.11092 C95.1535793,173.11092 94.2389668,160.260632 75.4611808,159.796437 C56.6833948,159.332241 61.7307011,172.646724 56.6946863,175.862126 C51.6586716,179.077529 50.2923985,174.027989 45.2563838,177.243391 C40.220369,180.458793 42.5012546,186.878276 38.3911439,187.795345 C34.2810332,188.712414 28.7707749,183.662874 23.7121771,186.878276 C18.6535793,190.093678 18.6761624,192.844885 16.3952768,192.844885 C14.1143911,192.844885 9.51874539,191.010747 6.77490775,192.844885 C4.03107011,194.679023 0.824280443,196.977356 0.824280443,196.977356 L116.663911,196.977356 C116.663911,196.977356 118.041476,192.844885 113.005461,190.093678 Z" id="Path" fill="#FFFFFF" opacity="0.5"></path>
                </g>
                <g id="freepik--Plants--inject-1--inject-209" transform="translate(274.000000, 98.000000)">
                    <path d="M50.6331193,282.85284 L121.95055,282.85284 C120.585138,274.10248 114.976789,275.642 114.232018,262.08064 C113.859633,255.28864 120.167615,246.79864 119.614679,237.8332 C119.163303,230.44124 111.907431,222.86816 111.343211,214.41212 C110.835413,206.78244 116.985413,198.31508 116.432477,190.09676 C115.856972,182.33124 108.533394,174.87136 107.845046,166.78888 C107.213119,158.86488 113.284128,150.36356 112.561927,142.39428 C111.839725,134.425 104.358165,127.10096 103.534404,119.24488 C102.710642,111.17372 108.589817,102.47996 107.687064,94.75972 C106.739174,86.55272 99.0206422,79.4664 97.9711927,71.90464 C96.8427523,63.49388 102.27055,54.5058 100.995413,47.23836 C99.4268807,38.34084 91.1666972,31.89976 89.4288991,25.33416 C86.1902752,13.09724 86.5965138,1.31312 82.7711009,0.54336 C78.6974312,-0.27168 77.7608257,11.28604 74.6688991,24.20216 C73.1116514,30.68852 65.0433028,37.26544 63.7117431,46.17428 C62.6397248,53.38512 68.349633,62.15812 67.4130275,70.53492 C66.5779817,78.04008 59.0512844,85.25092 58.3177982,93.41264 C57.6294495,101.0876 63.7343119,109.54364 63.1362385,117.56952 C62.5494495,125.369 55.237156,132.80624 54.7519266,140.73024 C54.2666972,148.65424 60.5408257,156.94048 60.1120183,164.7626 C59.6719266,172.77716 52.5063303,180.35024 52.133945,188.05916 C51.7502752,196.22088 58.1711009,204.45052 57.8551376,212.01228 C57.5053211,220.4004 50.4412844,228.07536 50.1817431,235.41072 C49.8657798,244.30824 56.3768807,252.51524 56.1737615,259.29592 C55.7449541,274.01192 49.0307339,270.9442 48.7937615,282.78492 L50.6331193,282.85284 Z" id="Path" fill="#4788D8" fill-rule="nonzero"></path>
                    <path d="M81.2477064,24.055 L81.2477064,279.5474" id="Path" stroke="#000000"></path>
                    <polyline id="Path" stroke="#000000" points="92.3854128 50.83812 80.7737615 60.9016 71.2722936 48.18924"></polyline>
                    <polyline id="Path" stroke="#000000" points="92.3854128 95.3144 80.7737615 105.36656 71.2722936 92.66552"></polyline>
                    <polyline id="Path" stroke="#000000" points="92.3854128 137.13048 80.7737615 147.19396 71.2722936 134.4816"></polyline>
                    <polyline id="Path" stroke="#000000" points="92.3854128 186.90452 80.7737615 196.95668 71.2722936 184.25564"></polyline>
                    <polyline id="Path" stroke="#000000" points="92.3854128 237.19928 80.7737615 247.25144 71.2722936 234.5504"></polyline>
                    <path d="M2.05376147,282.85284 L57.110367,282.85284 C56.049633,276.06084 51.7277064,277.2834 51.1522018,266.82372 C50.8588073,261.5486 55.7223853,255.02828 55.3048624,248.10044 C54.9550459,242.44044 49.3579817,236.54272 48.9178899,229.98844 C48.5229358,224.10204 53.3075229,217.53644 52.8448624,211.21988 C52.4047706,205.22028 46.7287156,199.46972 46.2209174,193.2324 C45.7131193,186.99508 50.4187156,180.54268 49.8657798,174.39592 C49.312844,168.24916 43.523945,162.58916 42.9145872,156.53296 C42.2826606,150.29564 46.8189908,143.5942 46.1193578,137.61724 C45.3858716,131.28936 39.4277064,125.8218 38.6265138,119.992 C37.7237615,113.49432 41.9441284,106.55516 40.9511009,100.95176 C39.7436697,94.08052 33.3679817,89.09972 32.036422,84.03968 C29.5312844,74.5988 29.8472477,65.4862 26.8907339,64.89756 C23.7423853,64.26364 23.0201835,73.1838 20.6391743,83.16804 C19.4430275,88.17148 13.2027523,93.25416 12.1758716,100.14804 C11.3521101,105.71748 15.7530275,112.48684 15.0308257,118.95056 C14.3876147,124.7464 8.58743119,130.27056 8.01192661,136.60976 C7.48155963,142.53012 12.1984404,149.06176 11.7357798,155.2538 C11.2844037,161.27604 5.65348624,167.01528 5.25853211,173.12808 C4.86357798,179.24088 9.77229358,185.648 9.39990826,191.68156 C9.02752294,197.71512 3.53201835,203.71472 3.24990826,209.66904 C2.94522936,215.96296 7.89908257,222.31348 7.66211009,228.1546 C7.3912844,234.62964 1.94091743,240.6066 1.73779817,246.2666 C1.48954128,253.12652 6.52238532,259.47704 6.36440367,264.69556 C6.02587156,276.01556 0.846330275,273.69496 0.665779817,282.80756 L2.05376147,282.85284 Z" id="Path" fill="#4788D8" fill-rule="nonzero"></path>
                    <path d="M25.6945872,83.0888 L25.6945872,280.30584" id="Path" stroke="#000000"></path>
                    <polyline id="Path" stroke="#000000" points="34.2820183 103.75912 25.3222018 111.52464 17.9873394 101.7102"></polyline>
                    <polyline id="Path" stroke="#000000" points="34.2820183 138.08136 25.3222018 145.84688 17.9873394 136.04376"></polyline>
                    <polyline id="Path" stroke="#000000" points="34.2820183 170.366 25.3222018 178.13152 17.9873394 168.3284"></polyline>
                    <polyline id="Path" stroke="#000000" points="34.2820183 208.78608 25.3222018 216.5516 17.9873394 206.73716"></polyline>
                    <polyline id="Path" stroke="#000000" points="34.2820183 247.61368 25.3222018 255.36788 17.9873394 245.56476"></polyline>
                </g>
                <g id="freepik--Mailbox--inject-1--inject-209" transform="translate(83.000000, 40.000000)">
                    <polyline id="Path" stroke="#2E353A" fill="#2E353A" fill-rule="nonzero" stroke-linecap="round" stroke-linejoin="round" points="143.71901 340.322772 143.71901 112.119604 155.762376 112.119604 155.762376 340.322772"></polyline>
                    <polyline id="Path" stroke="#2E353A" fill="#4788D8" fill-rule="nonzero" stroke-linecap="round" stroke-linejoin="round" points="137.70297 340.322772 137.70297 112.119604 149.746337 112.119604 149.746337 340.322772"></polyline>
                    <rect id="Rectangle" fill="#2E353A" fill-rule="nonzero" opacity="0.3" style="mix-blend-mode: multiply;" x="137.70297" y="112.119604" width="12.0433663" height="27.0891089"></rect>
                    <path d="M189.093267,23.0302954 L99.8572277,23.0302954 L138.752673,118.564554 L228,118.564554 L228,61.9257426 C228,51.6080731 223.90055,41.7131534 216.603797,34.4185179 C209.307045,27.1238824 199.410936,23.0273029 189.093267,23.0302954 Z" id="Path" stroke="#2E353A" fill="#4788D8" fill-rule="nonzero" stroke-linecap="round" stroke-linejoin="round"></path>
                    <path d="M131.946535,101.83703 L138.718812,118.564554 L228,118.564554 L228,61.9257426 C228,61.0679208 228,60.210099 227.909703,59.3635644 L131.969109,59.3635644 L131.946535,101.83703 Z" id="Path" fill="#000000" fill-rule="nonzero" opacity="0.3" style="mix-blend-mode: multiply;"></path>
                    <path d="M188.438614,59.3635644 L179.047723,59.3635644" id="Path" stroke="#2E353A" stroke-linecap="round" stroke-linejoin="round"></path>
                    <path d="M227.909703,59.3635644 L199.488713,59.3635644" id="Path" stroke="#2E353A" stroke-linecap="round" stroke-linejoin="round"></path>
                    <path d="M99.8572277,23.030297 L99.8572277,23.030297 C121.344823,23.030297 138.76396,40.4494346 138.76396,61.9370297 L138.76396,118.575842 L60.950495,118.575842 L60.950495,61.9257426 C60.9567275,40.4425555 78.3740397,23.030297 99.8572277,23.030297 Z" id="Path" stroke="#2E353A" fill="#2E353A" fill-rule="nonzero" stroke-linecap="round" stroke-linejoin="round"></path>
                    <rect id="Rectangle" stroke="#2E353A" fill="#4788D8" fill-rule="nonzero" stroke-linecap="round" stroke-linejoin="round" x="71.7071287" y="112.119604" width="67.0455446" height="6.4449505"></rect>
                    <rect id="Rectangle" stroke="#2E353A" fill="#4788D8" fill-rule="nonzero" stroke-linecap="round" stroke-linejoin="round" x="0" y="112.119604" width="138.752673" height="6.4449505"></rect>
                    <rect id="Rectangle" fill="#000000" fill-rule="nonzero" opacity="0.3" x="71.7071287" y="112.119604" width="67.0455446" height="6.4449505"></rect>
                    <rect id="Rectangle" stroke="#2E353A" fill="#2E353A" fill-rule="nonzero" stroke-linecap="round" stroke-linejoin="round" x="167.049505" y="0.00455445545" width="27.8453465" height="19.5605941"></rect>
                    <rect id="Rectangle" stroke="#2E353A" fill="#FFFFFF" fill-rule="nonzero" stroke-linecap="round" stroke-linejoin="round" x="163.290891" y="0.00455445545" width="6.0160396" height="60.950495"></rect>
                    <circle id="Oval" stroke="#2E353A" fill="#2E353A" fill-rule="nonzero" stroke-linecap="round" stroke-linejoin="round" cx="166.293267" cy="62.4562376" r="6.77227723"></circle>
                </g>
                <g id="freepik--paper-planes--inject-1--inject-209" transform="translate(0.000000, 24.000000)" stroke-linecap="round" stroke-linejoin="round">
                    <path d="M149.54069,54.3230769 C165.26992,62.2994872 192.615279,75.0820513 217.836286,81.5128205" id="Path" stroke="#FFFFFF" stroke-dasharray="2,4"></path>
                    <path d="M136.342599,47.3846154 C136.342599,47.3846154 141.382281,50.2276923 149.54069,54.3682051" id="Path" stroke="#2E353A" stroke-dasharray="2,4"></path>
                    <polygon id="Path" stroke="#2E353A" stroke-width="1.2629" fill="#FFFFFF" fill-rule="nonzero" points="130.681432 46.9671795 141.992467 20.1384615 59.9676923 0.157948718"></polygon>
                    <polygon id="Path" stroke="#2E353A" stroke-width="1.2629" fill="#4788D8" fill-rule="nonzero" points="136.195703 23.3876923 130.681432 46.9671795 59.9676923 0.157948718"></polygon>
                    <polygon id="Path" stroke="#2E353A" stroke-width="1.2629" fill="#FFFFFF" fill-rule="nonzero" points="136.195703 23.3876923 123.325305 34.3989744 59.9676923 0.157948718"></polygon>
                    <polygon id="Path" stroke="#2E353A" stroke-width="1.2629" fill="#FFFFFF" fill-rule="nonzero" points="141.992467 20.1384615 153.450398 15.4902564 59.9676923 0.157948718"></polygon>
                    <path d="M114.748806,42.7928205 L117.404244,44.4174359" id="Path" stroke="#2E353A"></path>
                    <path d="M100.262546,33.9251282 L109.155438,39.3630769" id="Path" stroke="#2E353A"></path>
                    <polygon id="Path" stroke="#2E353A" stroke-width="1.2629" fill="#FFFFFF" fill-rule="nonzero" points="90.2735809 98.3230769 90.2735809 69.2266667 173.643024 82.6071795"></polygon>
                    <polygon id="Path" stroke="#2E353A" stroke-width="1.2629" fill="#4788D8" fill-rule="nonzero" points="94.3527851 74.4615385 90.2735809 98.3230769 173.643024 82.6071795"></polygon>
                    <polygon id="Path" stroke="#2E353A" stroke-width="1.2629" fill="#FFFFFF" fill-rule="nonzero" points="94.3527851 74.4615385 101.934907 89.5907692 173.643024 82.6071795"></polygon>
                    <polygon id="Path" stroke="#2E353A" stroke-width="1.2629" fill="#FFFFFF" fill-rule="nonzero" points="90.2735809 69.2266667 81.5275862 60.494359 173.643024 82.6071795"></polygon>
                    <path d="M120.12748,97.7815385 L127.35931,96.3148718" id="Path" stroke="#2E353A"></path>
                    <path d="M94.7256764,102.937436 L112.90695,99.2482051" id="Path" stroke="#2E353A"></path>
                    <path d="M80.2281167,96.5292308 C80.2281167,96.5292308 14.6896552,107.811282 2.25994695,166.477949 C-10.1697613,225.144615 55.3687003,228.529231 66.668435,200.324103 C77.9681698,172.118974 28.2493369,160.836923 16.9496021,187.913846 C5.64986737,214.990769 39.5490716,261.247179 85.8779841,263.50359 C124.37618,265.37641 232.311247,220.507692 299.442971,209.169231 C299.442971,209.169231 349.161804,195.427692 426,198.44" id="Path" stroke="#2E353A" stroke-dasharray="2,4"></path>
                </g>
                <g id="freepik--Fence--inject-1--inject-209" transform="translate(7.000000, 235.000000)" stroke="#2E353A" stroke-linecap="round" stroke-linejoin="round">
                    <path d="M397.155652,69.6101538 L416,69.6101538" id="Path" fill="#FFFFFF" fill-rule="nonzero"></path>
                    <path d="M397.155652,97.4949231 L416,97.4949231" id="Path" fill="#FFFFFF" fill-rule="nonzero"></path>
                    <polyline id="Path" fill="#FFFFFF" fill-rule="nonzero" points="0.373043478 96.7486154 394.894783 96.7486154 394.894783 70.3564615 0.373043478 70.3564615"></polyline>
                    <path d="M27.7973913,145.371692 L27.7973913,12.5967692 C27.7978325,11.93873 28.0674123,11.3095243 28.5434783,10.8553846 L38.8530435,1.14207692 C39.8194565,0.238271787 41.3338363,0.283716619 42.2443478,1.24384615 L51.2878261,10.8666923 C51.6981092,11.3146005 51.9277025,11.8988263 51.9321739,12.5063077 L51.9321739,145.371692" id="Path" fill="#2E353A" fill-rule="nonzero"></path>
                    <path d="M24.869564,146.502462 L24.869564,12.5967692 C24.8689014,11.9361975 25.1433441,11.3052024 25.6269565,10.8553846 L35.9365217,1.14207692 C36.399412,0.705083315 37.0170743,0.470232983 37.6532768,0.488245429 C38.2894792,0.508416423 38.8919566,0.779881778 39.3278261,1.24384615 L48.3713043,10.8666923 C48.7863482,11.3116122 49.0167014,11.8977718 49.0156557,12.5063077 L49.0156557,146.502462" id="Path" fill="#FFFFFF" fill-rule="nonzero"></path>
                    <path d="M114.727826,145.371692 L114.727826,12.5967692 C114.728267,11.93873 114.997847,11.3095243 115.473913,10.8553846 L125.794783,1.14207692 C126.257673,0.705083315 126.875335,0.470232983 127.511538,0.488245429 C128.14774,0.508416423 128.750217,0.779881778 129.186087,1.24384615 L138.229565,10.8666923 C138.644609,11.3116122 138.874962,11.8977718 138.873917,12.5063077 L138.873917,145.371692" id="Path" fill="#2E353A" fill-rule="nonzero"></path>
                    <path d="M112.286086,146.502462 L112.286086,12.5967692 C112.285423,11.9361975 112.559866,11.3052024 113.043478,10.8553846 L123.353043,1.14207692 C124.319457,0.238271787 125.833836,0.283716619 126.744348,1.24384615 L135.787826,10.8666923 C136.206018,11.3104859 136.440333,11.8964464 136.443478,12.5063077 L136.443478,146.502462" id="Path" fill="#FFFFFF" fill-rule="nonzero"></path>
                    <path d="M202.144347,145.371692 L202.144347,12.5967692 C202.143684,11.9361975 202.418127,11.3052024 202.901739,10.8553846 L213.211304,1.14207692 C214.177717,0.238271787 215.692097,0.283716619 216.602609,1.24384615 L225.646087,10.8666923 C226.064279,11.3104859 226.298594,11.8964464 226.301739,12.5063077 L226.301739,146.502462" id="Path" fill="#2E353A" fill-rule="nonzero"></path>
                    <path d="M199.713913,146.502462 L199.713913,12.5967692 C199.714354,11.93873 199.983934,11.3095243 200.46,10.8553846 L210.78087,1.14207692 C211.24376,0.705083315 211.861422,0.470232983 212.497625,0.488245429 C213.133827,0.508416423 213.736304,0.779881778 214.172174,1.24384615 L223.215652,10.8666923 C223.630696,11.3116122 223.861049,11.8977718 223.860004,12.5063077 L223.860004,146.502462" id="Path" fill="#FFFFFF" fill-rule="nonzero"></path>
                    <path d="M289.572174,145.371692 L289.572174,12.5967692 C289.572615,11.93873 289.842195,11.3095243 290.318261,10.8553846 L300.627826,1.14207692 C301.594239,0.238271787 303.108619,0.283716619 304.01913,1.24384615 L313.062609,10.8666923 C313.472892,11.3146005 313.702485,11.8988263 313.706957,12.5063077 L313.706957,145.371692" id="Path" fill="#2E353A" fill-rule="nonzero"></path>
                    <path d="M287.130434,146.502462 L287.130434,12.5967692 C287.129771,11.9361975 287.404214,11.3052024 287.887826,10.8553846 L298.197391,1.14207692 C298.660282,0.705083315 299.277944,0.470232983 299.914146,0.488245429 C300.550349,0.508416423 301.152826,0.779881778 301.588696,1.24384615 L310.632174,10.8666923 C311.047218,11.3116122 311.277571,11.8977718 311.276525,12.5063077 L311.276525,146.502462" id="Path" fill="#FFFFFF" fill-rule="nonzero"></path>
                    <path d="M376.988696,145.371692 L376.988696,12.5967692 C376.989137,11.93873 377.258717,11.3095243 377.734783,10.8553846 L388.055652,1.14207692 C388.518542,0.705083315 389.136205,0.470232983 389.772407,0.488245429 C390.40861,0.508416423 391.011087,0.779881778 391.446957,1.24384615 L400.490435,10.8666923 C400.905479,11.3116122 401.135832,11.8977718 401.134786,12.5063077 L401.134786,145.371692" id="Path" fill="#2E353A" fill-rule="nonzero"></path>
                    <path d="M374.546955,146.502462 L374.546955,12.5967692 C374.546293,11.9361975 374.820735,11.3052024 375.304348,10.8553846 L385.613913,1.14207692 C386.580326,0.238271787 388.094706,0.283716619 389.005217,1.24384615 L398.048696,10.8666923 C398.466888,11.3104859 398.701202,11.8964464 398.704348,12.5063077 L398.704348,146.502462" id="Path" fill="#FFFFFF" fill-rule="nonzero"></path>
                    <path d="M39.3165217,1.24384615 L39.3165217,10.9232308" id="Path"></path>
                    <path d="M43.193913,6.24184615 L43.193913,29.1512308" id="Path"></path>
                    <path d="M117.045217,8.11892308 L117.045217,37.1005385" id="Path"></path>
                    <path d="M120.786957,4.37607692 L120.786957,16.9954615" id="Path"></path>
                    <path d="M210.78087,1.14207692 L210.78087,29.6261538" id="Path"></path>
                    <path d="M216.150435,3.43753846 L216.150435,45.5247692" id="Path"></path>
                    <path d="M291.403478,8.11892308 L291.403478,39.9048462" id="Path"></path>
                    <path d="M303.555652,4.37607692 L303.555652,12.3253846" id="Path"></path>
                    <path d="M382.550435,3.90115385 L382.550435,20.7383077" id="Path"></path>
                    <path d="M392.837391,5.77823077 L392.837391,54.4013077" id="Path"></path>
                    <path d="M374.14,76.8470769 L363.853043,76.8470769" id="Path"></path>
                    <path d="M374.14,84.7963846 L338.146957,84.7963846" id="Path"></path>
                    <path d="M239.98,84.7963846 L223.622609,84.7963846" id="Path"></path>
                    <path d="M153.976522,84.7963846 L137.61913,84.7963846" id="Path"></path>
                    <path d="M24.4965217,80.5899231 L8.13913043,80.5899231" id="Path"></path>
                    <path d="M24.4965217,88.0643077 L17.9513043,88.0643077" id="Path"></path>
                    <path d="M231.569565,80.5899231 L223.622609,80.5899231" id="Path"></path>
                    <path d="M144.627826,89.4664615 L136.68087,89.4664615" id="Path"></path>
                    <path d="M111.438261,89.4664615 L103.491304,89.4664615" id="Path"></path>
                    <path d="M405.916522,84.7963846 L398.907826,84.7963846" id="Path"></path>
                    <path d="M415.265217,84.7963846 L411.06,84.7963846" id="Path"></path>
                    <path d="M48.6086957,36.1846154 C48.6086957,36.1846154 45.7826087,60.4848462 42.3913043,85.3504615 C39,110.216077 45.2173913,135.658385 46.9130435,137.919923" id="Path"></path>
                    <path d="M37.4286957,85.3730769 C37.9713043,80.5220769 38.4234783,77.4576923 38.4234783,77.4576923" id="Path"></path>
                    <path d="M45.7713043,135.093 C45.7713043,135.093 35.5973913,132.831462 35.5973913,114.739154 C35.5973913,107.31 36.0721739,99.6999231 36.6373913,93.2545385" id="Path"></path>
                    <path d="M131.130435,7.35 C131.130435,7.35 133.391304,9.04615385 129.434783,28.2692308 C125.478261,47.4923077 126.043478,75.7615385 131.130435,91.5923077" id="Path"></path>
                    <path d="M136.782609,42.9692308 C136.782609,42.9692308 131.130435,59.9307692 135.086957,83.6769231" id="Path"></path>
                    <path d="M201.217391,53.7002308 C201.217391,53.7002308 204.043478,70.0963846 206.869565,87.0466154 C209.695652,103.996846 207.434783,127.754308 205.173913,133.962231 C202.913043,140.170154 200.652174,145.269923 200.652174,145.269923" id="Path"></path>
                    <path d="M211.866087,136.958769 C209.345217,144.693231 206.213913,135.658385 206.213913,135.658385" id="Path"></path>
                    <path d="M211.764348,79.1538462 C211.764348,79.1538462 217.088696,106.642846 214.081739,127.335923" id="Path"></path>
                    <path d="M200.086957,88.2 C200.086957,88.2 205.73913,100.073077 200.652174,111.380769" id="Path"></path>
                    <path d="M305.556522,89.8735385 C306.313066,93.3300277 307.306425,96.7303624 308.529565,100.050462" id="Path"></path>
                    <path d="M310.225217,31.0961538 C306.638435,42.4845835 304.362839,54.2453108 303.442609,66.15 C303.105004,72.1731266 303.442467,78.2151287 304.448696,84.1631538" id="Path"></path>
                    <path d="M299.486087,83.0889231 C299.486087,83.0889231 304.573043,102.312 307.39913,109.096615 C310.225217,115.881231 309.094783,132.266077 305.703478,140.181462" id="Path"></path>
                    <path d="M375.767826,39.5769231 C375.767826,39.5769231 387.072174,59.9307692 376.333043,93.2771538" id="Path"></path>
                    <path d="M386.156522,74.3367692 C386.224348,80.6916923 385.65913,88.7427692 383.115652,95.5273846 C378.028696,109.096615 375.767826,113.619692 375.767826,113.619692" id="Path"></path>
                    <path d="M385.376522,63.3230769 C385.376522,63.3230769 385.749565,65.7542308 385.975652,69.4970769" id="Path"></path>
                </g>
            </g>
        </g>
    </g>
</svg>