<?xml version="1.0" encoding="UTF-8"?>
<svg width="95px" height="16px" viewBox="0 0 95 16" version="1.1" xmlns="http://www.w3.org/2000/svg" xmlns:xlink="http://www.w3.org/1999/xlink">
    <!-- Generator: Sketch 57.1 (83088) - https://sketch.com -->
    <title>LEAFTECH</title>
    <desc>Created with Sketch.</desc>
    <g id="Symbols" stroke="none" stroke-width="1" fill="none" fill-rule="evenodd">
        <g id="Menu/Contact-us" transform="translate(-167.000000, -68.000000)" fill="#3087DF" fill-rule="nonzero">
            <path d="M170.3,82.9 C169.206661,82.9 168.383336,82.6433359 167.83,82.13 C167.276664,81.6166641 167,80.7733392 167,79.6 L167,68.14 L169.46,68.14 L169.46,79.2 C169.46,79.7466694 169.589999,80.1266656 169.85,80.34 C170.110001,80.5533344 170.466664,80.66 170.92,80.66 L175.82,80.66 L175.82,82.9 L170.3,82.9 Z M181.1,83 C180.166662,83 179.363337,82.7933354 178.69,82.38 C178.016663,81.9666646 177.68,81.1333396 177.68,79.88 L177.68,71.36 C177.68,70.226661 177.986664,69.4066692 178.6,68.9 C179.213336,68.3933308 179.953329,68.14 180.82,68.14 C182.07334,68.14 183.153329,68.1599998 184.06,68.2 C184.966671,68.2400002 186.006661,68.293333 187.18,68.36 L187.18,70.42 L181.6,70.42 C181.133331,70.42 180.773335,70.5366655 180.52,70.77 C180.266665,71.0033345 180.14,71.353331 180.14,71.82 L180.14,74.44 L186.28,74.58 L186.28,76.52 L180.14,76.66 L180.14,79.2 C180.14,80.1866716 180.619995,80.68 181.58,80.68 L187.18,80.68 L187.18,82.74 C185.499992,82.8866674 183.473345,82.9733332 181.1,83 Z M193.44,68.14 L196.56,68.14 L201.36,82.9 L198.78,82.9 L197.64,79.4 L192.3,79.4 L191.18,82.9 L188.64,82.9 L193.44,68.14 Z M197.04,77.18 L194.96,70.26 L192.88,77.18 L197.04,77.18 Z M203.18,71.36 C203.18,70.226661 203.486664,69.4066692 204.1,68.9 C204.713336,68.3933308 205.453329,68.14 206.32,68.14 C208.94668,68.14 211.066659,68.2133326 212.68,68.36 L212.68,70.42 L207.04,70.42 C206.599998,70.42 206.256668,70.5399988 206.01,70.78 C205.763332,71.0200012 205.64,71.3599978 205.64,71.8 L205.64,74.78 L211.78,74.92 L211.78,76.86 L205.64,77 L205.64,82.9 L203.18,82.9 L203.18,71.36 Z M217.9,70.36 L213.66,70.36 L213.66,68.14 L224.6,68.14 L224.6,70.36 L220.38,70.36 L220.38,82.9 L217.9,82.9 L217.9,70.36 Z M229.72,83 C228.786662,83 227.983337,82.7933354 227.31,82.38 C226.636663,81.9666646 226.3,81.1333396 226.3,79.88 L226.3,71.36 C226.3,70.226661 226.606664,69.4066692 227.22,68.9 C227.833336,68.3933308 228.573329,68.14 229.44,68.14 C230.69334,68.14 231.773329,68.1599998 232.68,68.2 C233.586671,68.2400002 234.626661,68.293333 235.8,68.36 L235.8,70.42 L230.22,70.42 C229.753331,70.42 229.393335,70.5366655 229.14,70.77 C228.886665,71.0033345 228.76,71.353331 228.76,71.82 L228.76,74.44 L234.9,74.58 L234.9,76.52 L228.76,76.66 L228.76,79.2 C228.76,80.1866716 229.239995,80.68 230.2,80.68 L235.8,80.68 L235.8,82.74 C234.119992,82.8866674 232.093345,82.9733332 229.72,83 Z M243.1,83.02 C241.84666,83.02 240.84667,82.8233353 240.1,82.43 C239.35333,82.0366647 238.783335,81.2933388 238.39,80.2 C237.996665,79.1066612 237.8,77.526677 237.8,75.46 C237.8,73.5 237.999998,71.9766721 238.4,70.89 C238.8,69.8033279 239.386663,69.0500021 240.16,68.63 C240.933337,68.2099979 241.933327,68 243.16,68 C243.960004,68 244.763329,68.0633327 245.57,68.19 C246.376671,68.3166673 247.066664,68.4666658 247.64,68.64 L247.64,70.54 C247.239998,70.4599996 246.670004,70.386667 245.93,70.32 C245.189996,70.253333 244.433337,70.22 243.66,70.22 C242.779996,70.22 242.103336,70.3566653 241.63,70.63 C241.156664,70.9033347 240.813334,71.4133296 240.6,72.16 C240.386666,72.9066704 240.28,74.0199926 240.28,75.5 C240.28,76.9800074 240.379999,78.0933296 240.58,78.84 C240.780001,79.5866704 241.113331,80.0999986 241.58,80.38 C242.046669,80.6600014 242.733329,80.8 243.64,80.8 C245.160008,80.8 246.493328,80.7266674 247.64,80.58 L247.64,82.48 C246.426661,82.8400018 244.913342,83.02 243.1,83.02 Z M249.86,68.14 L252.32,68.14 L252.32,74.52 L258.54,74.52 L258.54,68.14 L261.02,68.14 L261.02,82.9 L258.54,82.9 L258.54,76.74 L252.32,76.74 L252.32,82.9 L249.86,82.9 L249.86,68.14 Z" id="LEAFTECH"></path>
        </g>
    </g>
</svg>