<?xml version="1.0" encoding="UTF-8"?>
<svg width="375px" height="364px" viewBox="0 0 375 364" version="1.1" xmlns="http://www.w3.org/2000/svg" xmlns:xlink="http://www.w3.org/1999/xlink">
    <!-- Generator: Sketch 57.1 (83088) - https://sketch.com -->
    <title>Walk in the city-bro</title>
    <desc>Created with Sketch.</desc>
    <g id="Webdesign-quick-fix" stroke="none" stroke-width="1" fill="none" fill-rule="evenodd">
        <g id="Features/Services---UI" transform="translate(-225.000000, -2400.000000)">
            <g id="Building-energy-forecast" transform="translate(0.000000, 2259.000000)">
                <g id="Walk-in-the-city-bro" transform="translate(225.000000, 141.000000)">
                    <g id="freepik--background-simple--inject-63" fill-rule="nonzero">
                        <path d="M323,43.39 C323,43.39 265.4,-5.7 190.08,1.07 C114.76,7.84 93.6,44.23 69.9,84 C51.25,115.31 41.7,152.15 29.9,186.37 C19.14,217.7 -2.81,248.61 0.43,283.16 C4.54,326.86 47.53,355.33 87.58,362.38 C143.47,372.21 177.58,332.93 219.79,303.71 L220.03,303.54 C226.096665,299.278599 232.478369,295.484343 239.12,292.19 C291.6,266.8 345.76,288.8 366.92,228.72 C388.08,168.64 361,84.85 323,43.39 Z" id="Path" fill="#3087DF"></path>
                        <path d="M323,43.39 C323,43.39 265.4,-5.7 190.08,1.07 C114.76,7.84 93.6,44.23 69.9,84 C51.25,115.31 41.7,152.15 29.9,186.37 C19.14,217.7 -2.81,248.61 0.43,283.16 C4.54,326.86 47.53,355.33 87.58,362.38 C143.47,372.21 177.58,332.93 219.79,303.71 L220.03,303.54 C226.096665,299.278599 232.478369,295.484343 239.12,292.19 C291.6,266.8 345.76,288.8 366.92,228.72 C388.08,168.64 361,84.85 323,43.39 Z" id="Path" fill="#FFFFFF" opacity="0.75"></path>
                    </g>
                    <g id="freepik--Clouds--inject-63" transform="translate(83.000000, 18.000000)" fill-rule="nonzero">
                        <path d="M185.59,86.51 C181.38,84.22 179.46,86.13 177.93,84.22 C176.4,82.31 182.14,77.32 170.65,72.35 C170.65,72.35 169.89,61.62 154.19,61.24 C138.49,60.86 142.7,71.96 138.49,74.64 C134.28,77.32 133.13,73.11 128.92,75.79 C124.71,78.47 126.62,83.79 123.17,84.6 C119.72,85.41 115.17,81.15 110.92,83.83 C106.67,86.51 106.71,88.83 104.79,88.83 C102.87,88.83 99.05,87.3 96.79,88.83 C94.53,90.36 91.79,92.28 91.79,92.28 L188.67,92.28 C188.67,92.28 189.8,88.81 185.59,86.51 Z" id="Path" fill="#3087DF"></path>
                        <path d="M149.36,17.3 C146.52,15.74 145.22,17.04 144.19,15.74 C143.16,14.44 147.03,11.09 139.28,7.74 C139.28,7.74 138.76,0.51 128.17,0.25 C117.58,-0.01 120.41,7.49 117.57,9.25 C114.73,11.01 113.95,8.25 111.11,10.03 C108.27,11.81 109.56,15.46 107.23,15.97 C104.9,16.48 101.81,13.65 98.96,15.46 C96.11,17.27 96.12,18.82 94.83,18.82 C93.54,18.82 90.95,17.82 89.4,18.82 C87.85,19.82 86.04,21.14 86.04,21.14 L151.43,21.14 C151.43,21.14 152.2,18.85 149.36,17.3 Z" id="Path" fill="#3087DF"></path>
                        <path d="M221.14,26.3 C216.92,24 215.01,25.92 213.48,24 C211.95,22.08 217.69,17.11 206.2,12.13 C206.2,12.13 205.44,1.41 189.74,1.03 C174.04,0.65 178.25,11.75 174,14.43 C169.75,17.11 168.64,12.9 164.43,15.58 C160.22,18.26 162.13,23.58 158.68,24.38 C155.23,25.18 150.68,20.94 146.43,23.62 C142.18,26.3 142.22,28.62 140.3,28.62 C138.38,28.62 134.56,27.08 132.3,28.62 C130.04,30.16 127.3,32.06 127.3,32.06 L224.2,32.06 C224.2,32.06 225.35,28.6 221.14,26.3 Z" id="Path" fill="#3087DF"></path>
                        <path d="M94.18,51.69 C89.97,49.39 88.05,51.31 86.52,49.39 C84.99,47.47 90.73,42.5 79.24,37.52 C79.24,37.52 78.48,26.8 62.78,26.42 C47.08,26.04 51.29,37.14 47.08,39.82 C42.87,42.5 41.72,38.29 37.51,40.97 C33.3,43.65 35.21,48.97 31.76,49.78 C28.31,50.59 23.76,46.33 19.51,49.01 C15.26,51.69 15.3,54.01 13.38,54.01 C11.46,54.01 7.64,52.48 5.38,54.01 C3.12,55.54 0.38,57.45 0.38,57.45 L97.26,57.45 C97.26,57.45 98.39,54 94.18,51.69 Z" id="Path" fill="#3087DF"></path>
                        <g id="Group" opacity="0.4" fill="#FFFFFF">
                            <path d="M185.59,86.51 C181.38,84.22 179.46,86.13 177.93,84.22 C176.4,82.31 182.14,77.32 170.65,72.35 C170.65,72.35 169.89,61.62 154.19,61.24 C138.49,60.86 142.7,71.96 138.49,74.64 C134.28,77.32 133.13,73.11 128.92,75.79 C124.71,78.47 126.62,83.79 123.17,84.6 C119.72,85.41 115.17,81.15 110.92,83.83 C106.67,86.51 106.71,88.83 104.79,88.83 C102.87,88.83 99.05,87.3 96.79,88.83 C94.53,90.36 91.79,92.28 91.79,92.28 L188.67,92.28 C188.67,92.28 189.8,88.81 185.59,86.51 Z" id="Path"></path>
                            <path d="M149.36,17.3 C146.52,15.74 145.22,17.04 144.19,15.74 C143.16,14.44 147.03,11.09 139.28,7.74 C139.28,7.74 138.76,0.51 128.17,0.25 C117.58,-0.01 120.41,7.49 117.57,9.25 C114.73,11.01 113.95,8.25 111.11,10.03 C108.27,11.81 109.56,15.46 107.23,15.97 C104.9,16.48 101.81,13.65 98.96,15.46 C96.11,17.27 96.12,18.82 94.83,18.82 C93.54,18.82 90.95,17.82 89.4,18.82 C87.85,19.82 86.04,21.14 86.04,21.14 L151.43,21.14 C151.43,21.14 152.2,18.85 149.36,17.3 Z" id="Path"></path>
                            <path d="M221.14,26.3 C216.92,24 215.01,25.92 213.48,24 C211.95,22.08 217.69,17.11 206.2,12.13 C206.2,12.13 205.44,1.41 189.74,1.03 C174.04,0.65 178.25,11.75 174,14.43 C169.75,17.11 168.64,12.9 164.43,15.58 C160.22,18.26 162.13,23.58 158.68,24.38 C155.23,25.18 150.68,20.94 146.43,23.62 C142.18,26.3 142.22,28.62 140.3,28.62 C138.38,28.62 134.56,27.08 132.3,28.62 C130.04,30.16 127.3,32.06 127.3,32.06 L224.2,32.06 C224.2,32.06 225.35,28.6 221.14,26.3 Z" id="Path"></path>
                            <path d="M94.18,51.69 C89.97,49.39 88.05,51.31 86.52,49.39 C84.99,47.47 90.73,42.5 79.24,37.52 C79.24,37.52 78.48,26.8 62.78,26.42 C47.08,26.04 51.29,37.14 47.08,39.82 C42.87,42.5 41.72,38.29 37.51,40.97 C33.3,43.65 35.21,48.97 31.76,49.78 C28.31,50.59 23.76,46.33 19.51,49.01 C15.26,51.69 15.3,54.01 13.38,54.01 C11.46,54.01 7.64,52.48 5.38,54.01 C3.12,55.54 0.38,57.45 0.38,57.45 L97.26,57.45 C97.26,57.45 98.39,54 94.18,51.69 Z" id="Path"></path>
                        </g>
                    </g>
                    <g id="freepik--Buildings--inject-63" transform="translate(25.000000, 60.000000)" stroke-linecap="round" stroke-linejoin="round">
                        <rect id="Rectangle" stroke="#263238" fill="#FFFFFF" fill-rule="nonzero" x="156.51" y="140.34" width="49.48" height="118.29"></rect>
                        <rect id="Rectangle" stroke="#263238" fill="#FFFFFF" fill-rule="nonzero" x="156.51" y="140.34" width="49.48" height="5.85"></rect>
                        <path d="M156.51,153.11 L169,153.11 C173.031679,153.11 176.3,156.378321 176.3,160.41 L176.3,166.68 L156.51,166.68 L156.51,153.11 Z" id="Path" stroke="#263238" fill="#263238" fill-rule="nonzero"></path>
                        <path d="M185.88,153.11 L205,153.11 L205,166.68 L178.58,166.68 L178.58,160.41 C178.58,156.378321 181.848321,153.11 185.88,153.11 Z" id="Path" stroke="#263238" fill="#263238" fill-rule="nonzero"></path>
                        <rect id="Rectangle" stroke="#263238" fill="#FFFFFF" fill-rule="nonzero" x="156.51" y="166.34" width="49.48" height="5.85"></rect>
                        <path d="M156.51,175.18 L169,175.18 C173.031679,175.18 176.3,178.448321 176.3,182.48 L176.3,188.75 L156.51,188.75 L156.51,175.18 Z" id="Path" stroke="#263238" fill="#263238" fill-rule="nonzero"></path>
                        <path d="M185.88,175.18 L205,175.18 L205,188.75 L178.58,188.75 L178.58,182.48 C178.58,178.448321 181.848321,175.18 185.88,175.18 Z" id="Path" stroke="#263238" fill="#263238" fill-rule="nonzero"></path>
                        <rect id="Rectangle" stroke="#263238" fill="#FFFFFF" fill-rule="nonzero" x="156.51" y="188.4" width="49.48" height="5.85"></rect>
                        <path d="M156.51,197.25 L169,197.25 C173.031679,197.25 176.3,200.518321 176.3,204.55 L176.3,210.82 L156.51,210.82 L156.51,197.25 Z" id="Path" stroke="#263238" fill="#263238" fill-rule="nonzero"></path>
                        <path d="M185.88,197.25 L205,197.25 L205,210.82 L178.58,210.82 L178.58,204.55 C178.58,200.518321 181.848321,197.25 185.88,197.25 Z" id="Path" stroke="#263238" fill="#263238" fill-rule="nonzero"></path>
                        <rect id="Rectangle" stroke="#263238" fill="#FFFFFF" fill-rule="nonzero" x="156.51" y="210.47" width="49.48" height="5.85"></rect>
                        <path d="M156.51,219.32 L169,219.32 C173.031679,219.32 176.3,222.588321 176.3,226.62 L176.3,232.89 L156.51,232.89 L156.51,219.32 Z" id="Path" stroke="#263238" fill="#263238" fill-rule="nonzero"></path>
                        <path d="M185.88,219.32 L205,219.32 L205,232.89 L178.58,232.89 L178.58,226.62 C178.58,222.588321 181.848321,219.32 185.88,219.32 L185.88,219.32 Z" id="Path" stroke="#263238" fill="#263238" fill-rule="nonzero"></path>
                        <rect id="Rectangle" stroke="#263238" fill="#FFFFFF" fill-rule="nonzero" x="156.51" y="232.54" width="49.48" height="5.85"></rect>
                        <rect id="Rectangle" stroke="#263238" fill="#FFFFFF" fill-rule="nonzero" x="124.61" y="105.25" width="37.3" height="155.47"></rect>
                        <rect id="Rectangle" stroke="#263238" fill="#263238" fill-rule="nonzero" x="152.69" y="233.06" width="4.44" height="5.92"></rect>
                        <rect id="Rectangle" stroke="#263238" fill="#263238" fill-rule="nonzero" x="140.47" y="233.06" width="4.44" height="5.92"></rect>
                        <rect id="Rectangle" stroke="#263238" fill="#263238" fill-rule="nonzero" x="128.26" y="233.06" width="4.44" height="5.92"></rect>
                        <rect id="Rectangle" stroke="#263238" fill="#263238" fill-rule="nonzero" x="152.69" y="209.74" width="4.44" height="5.92"></rect>
                        <rect id="Rectangle" stroke="#263238" fill="#263238" fill-rule="nonzero" x="140.47" y="209.74" width="4.44" height="5.92"></rect>
                        <rect id="Rectangle" stroke="#263238" fill="#263238" fill-rule="nonzero" x="128.26" y="209.74" width="4.44" height="5.92"></rect>
                        <rect id="Rectangle" stroke="#263238" fill="#263238" fill-rule="nonzero" x="152.69" y="186.05" width="4.44" height="5.92"></rect>
                        <rect id="Rectangle" stroke="#263238" fill="#263238" fill-rule="nonzero" x="140.47" y="186.05" width="4.44" height="5.92"></rect>
                        <rect id="Rectangle" stroke="#263238" fill="#263238" fill-rule="nonzero" x="128.26" y="186.05" width="4.44" height="5.92"></rect>
                        <rect id="Rectangle" stroke="#263238" fill="#263238" fill-rule="nonzero" x="152.69" y="162.36" width="4.44" height="5.92"></rect>
                        <rect id="Rectangle" stroke="#263238" fill="#263238" fill-rule="nonzero" x="140.47" y="162.36" width="4.44" height="5.92"></rect>
                        <rect id="Rectangle" stroke="#263238" fill="#263238" fill-rule="nonzero" x="128.26" y="162.36" width="4.44" height="5.92"></rect>
                        <rect id="Rectangle" stroke="#263238" fill="#263238" fill-rule="nonzero" x="152.69" y="138.67" width="4.44" height="5.92"></rect>
                        <rect id="Rectangle" stroke="#263238" fill="#263238" fill-rule="nonzero" x="140.47" y="138.67" width="4.44" height="5.92"></rect>
                        <rect id="Rectangle" stroke="#263238" fill="#263238" fill-rule="nonzero" x="128.26" y="138.67" width="4.44" height="5.92"></rect>
                        <rect id="Rectangle" stroke="#263238" fill="#263238" fill-rule="nonzero" x="152.69" y="114.98" width="4.44" height="5.92"></rect>
                        <rect id="Rectangle" stroke="#263238" fill="#263238" fill-rule="nonzero" x="140.47" y="114.98" width="4.44" height="5.92"></rect>
                        <rect id="Rectangle" stroke="#263238" fill="#263238" fill-rule="nonzero" x="128.26" y="114.98" width="4.44" height="5.92"></rect>
                        <rect id="Rectangle" stroke="#263238" fill="#FFFFFF" fill-rule="nonzero" x="123.45" y="105.25" width="39.61" height="4.55"></rect>
                        <rect id="Rectangle" stroke="#263238" fill="#FFFFFF" fill-rule="nonzero" x="123.45" y="128.57" width="39.61" height="4.55"></rect>
                        <rect id="Rectangle" stroke="#263238" fill="#FFFFFF" fill-rule="nonzero" x="123.45" y="151.89" width="39.61" height="4.55"></rect>
                        <rect id="Rectangle" stroke="#263238" fill="#FFFFFF" fill-rule="nonzero" x="123.45" y="175.21" width="39.61" height="4.55"></rect>
                        <rect id="Rectangle" stroke="#263238" fill="#FFFFFF" fill-rule="nonzero" x="123.45" y="198.53" width="39.61" height="4.55"></rect>
                        <rect id="Rectangle" stroke="#263238" fill="#FFFFFF" fill-rule="nonzero" x="123.45" y="221.85" width="39.61" height="4.55"></rect>
                        <rect id="Rectangle" stroke="#263238" fill="#FFFFFF" fill-rule="nonzero" x="124.61" y="242.58" width="37.3" height="4.55"></rect>
                        <rect id="Rectangle" stroke="#263238" fill="#FFFFFF" fill-rule="nonzero" x="122.64" y="236.64" width="83.35" height="22"></rect>
                        <rect id="Rectangle" stroke="#263238" fill="#263238" fill-rule="nonzero" x="122.64" y="236.64" width="33.62" height="22"></rect>
                        <rect id="Rectangle" stroke="#263238" fill="#263238" fill-rule="nonzero" x="192.33" y="0" width="140.27" height="258.64"></rect>
                        <rect id="Rectangle" stroke="#263238" fill="#FFFFFF" fill-rule="nonzero" x="229.4" y="0" width="103.2" height="258.64"></rect>
                        <rect id="Rectangle" stroke="#263238" fill="#263238" fill-rule="nonzero" x="253.87" y="233.92" width="78.73" height="24.72"></rect>
                        <rect id="Rectangle" stroke="#263238" fill="#FFFFFF" fill-rule="nonzero" x="272.08" y="233.92" width="4.28" height="24.72"></rect>
                        <rect id="Rectangle" stroke="#263238" fill="#FFFFFF" fill-rule="nonzero" x="294.19" y="233.92" width="4.28" height="24.72"></rect>
                        <rect id="Rectangle" stroke="#263238" fill="#FFFFFF" fill-rule="nonzero" x="316.29" y="233.92" width="4.28" height="24.72"></rect>
                        <path d="M268.69,233.92 L268.69,0.6" id="Path" stroke="#263238"></path>
                        <path d="M216.02,259.52 L216.02,0.6" id="Path" stroke="#FFFFFF"></path>
                        <path d="M203.26,259.52 L203.26,0.6" id="Path" stroke="#FFFFFF"></path>
                        <path d="M307.88,233.92 L307.88,0.6" id="Path" stroke="#263238"></path>
                        <path d="M229.93,27.13 L332,27.13" id="Path" stroke="#263238"></path>
                        <path d="M229.93,61.49 L332,61.49" id="Path" stroke="#263238"></path>
                        <path d="M229.93,95.86 L332,95.86" id="Path" stroke="#263238"></path>
                        <path d="M229.93,130.22 L332,130.22" id="Path" stroke="#263238"></path>
                        <path d="M229.93,164.59 L332,164.59" id="Path" stroke="#263238"></path>
                        <path d="M229.93,198.95 L332,198.95" id="Path" stroke="#263238"></path>
                        <path d="M229.93,27.13 L192.16,27.13" id="Path" stroke="#FFFFFF"></path>
                        <path d="M229.93,61.49 L192.16,61.49" id="Path" stroke="#FFFFFF"></path>
                        <path d="M229.93,95.86 L192.16,95.86" id="Path" stroke="#FFFFFF"></path>
                        <path d="M229.93,130.22 L192.16,130.22" id="Path" stroke="#FFFFFF"></path>
                        <path d="M229.93,164.59 L192.16,164.59" id="Path" stroke="#FFFFFF"></path>
                        <path d="M229.93,198.95 L192.16,198.95" id="Path" stroke="#FFFFFF"></path>
                        <path d="M192.73,233.32 L332,233.32" id="Path" stroke="#263238"></path>
                        <rect id="Rectangle" stroke="#263238" fill="#263238" fill-rule="nonzero" x="5.13" y="15.47" width="123.15" height="243.16"></rect>
                        <path d="M40.47,41.48 L5.75,41.48" id="Path" stroke="#FFFFFF"></path>
                        <path d="M40.47,82.81 L5.75,82.81" id="Path" stroke="#FFFFFF"></path>
                        <path d="M40.47,125.73 L5.75,125.73" id="Path" stroke="#FFFFFF"></path>
                        <path d="M40.47,170.25 L5.75,170.25" id="Path" stroke="#FFFFFF"></path>
                        <path d="M40.47,211.58 L5.75,211.58" id="Path" stroke="#FFFFFF"></path>
                        <rect id="Rectangle" stroke="#263238" fill="#FFFFFF" fill-rule="nonzero" x="40.36" y="15.47" width="87.92" height="243.16"></rect>
                        <rect id="Rectangle" stroke="#263238" fill="#263238" fill-rule="nonzero" x="40.36" y="15.47" width="87.92" height="13.68"></rect>
                        <rect id="Rectangle" stroke="#263238" fill="#263238" fill-rule="nonzero" x="40.36" y="58.04" width="87.92" height="13.68"></rect>
                        <rect id="Rectangle" stroke="#263238" fill="#263238" fill-rule="nonzero" x="40.36" y="101.66" width="87.92" height="13.68"></rect>
                        <rect id="Rectangle" stroke="#263238" fill="#263238" fill-rule="nonzero" x="40.36" y="144.22" width="87.92" height="13.68"></rect>
                        <rect id="Rectangle" stroke="#263238" fill="#263238" fill-rule="nonzero" x="40.36" y="231.32" width="87.92" height="11.7"></rect>
                        <rect id="Rectangle" stroke="#263238" fill="#263238" fill-rule="nonzero" x="40.36" y="186.79" width="87.92" height="13.68"></rect>
                        <rect id="Rectangle" stroke="#263238" fill="#263238" fill-rule="nonzero" x="64.69" y="234.72" width="35.15" height="23.92"></rect>
                        <path d="M56.58,22.94 L56.58,233.37" id="Path" stroke="#263238"></path>
                        <path d="M83.62,22.94 L83.62,233.37" id="Path" stroke="#263238"></path>
                        <path d="M110.65,22.94 L110.65,233.37" id="Path" stroke="#263238"></path>
                        <path d="M14.68,22.94 L14.68,233.37" id="Path" stroke="#FFFFFF"></path>
                        <path d="M23.24,22.94 L23.24,233.37" id="Path" stroke="#FFFFFF"></path>
                        <path d="M31.8,22.94 L31.8,233.37" id="Path" stroke="#FFFFFF"></path>
                        <rect id="Rectangle" stroke="#263238" fill="#263238" fill-rule="nonzero" x="0.42" y="12.68" width="131.86" height="11.62"></rect>
                        <rect id="Rectangle" stroke="#263238" fill="#FFFFFF" fill-rule="nonzero" x="36.3" y="12.68" width="95.97" height="11.62"></rect>
                        <rect id="Rectangle" stroke="#263238" fill="#263238" fill-rule="nonzero" x="0.42" y="55.93" width="131.86" height="11.62"></rect>
                        <rect id="Rectangle" stroke="#263238" fill="#FFFFFF" fill-rule="nonzero" x="36.3" y="55.93" width="95.97" height="11.62"></rect>
                        <rect id="Rectangle" stroke="#263238" fill="#263238" fill-rule="nonzero" x="0.42" y="99.19" width="131.86" height="11.62"></rect>
                        <rect id="Rectangle" stroke="#263238" fill="#FFFFFF" fill-rule="nonzero" x="36.3" y="99.19" width="95.97" height="11.62"></rect>
                        <rect id="Rectangle" stroke="#263238" fill="#263238" fill-rule="nonzero" x="0.42" y="142.44" width="131.86" height="11.62"></rect>
                        <rect id="Rectangle" stroke="#263238" fill="#FFFFFF" fill-rule="nonzero" x="36.3" y="142.44" width="95.97" height="11.62"></rect>
                        <rect id="Rectangle" stroke="#263238" fill="#263238" fill-rule="nonzero" x="0.42" y="185.7" width="131.86" height="11.62"></rect>
                        <rect id="Rectangle" stroke="#263238" fill="#FFFFFF" fill-rule="nonzero" x="36.3" y="185.7" width="95.97" height="11.62"></rect>
                        <rect id="Rectangle" stroke="#263238" fill="#263238" fill-rule="nonzero" x="0.42" y="228.96" width="131.86" height="11.62"></rect>
                        <rect id="Rectangle" stroke="#263238" fill="#FFFFFF" fill-rule="nonzero" x="36.3" y="228.96" width="95.97" height="11.62"></rect>
                        <path d="M40.47,41.48 L127.53,41.48" id="Path" stroke="#263238"></path>
                        <path d="M40.47,82.81 L127.53,82.81" id="Path" stroke="#263238"></path>
                        <path d="M40.47,125.73 L127.53,125.73" id="Path" stroke="#263238"></path>
                        <path d="M40.47,170.25 L127.53,170.25" id="Path" stroke="#263238"></path>
                        <path d="M40.47,211.58 L127.53,211.58" id="Path" stroke="#263238"></path>
                        <rect id="Rectangle" stroke="#263238" fill="#3087DF" fill-rule="nonzero" x="40.71" y="252.39" width="81.51" height="2.87"></rect>
                        <rect id="Rectangle" stroke="#263238" fill="#3087DF" fill-rule="nonzero" x="40.71" y="255.26" width="105.56" height="4.31"></rect>
                    </g>
                    <g id="freepik--Trees--inject-63" transform="translate(50.000000, 230.000000)" fill-rule="nonzero">
                        <path d="M6.59,60.72 C6.59,60.72 20.99,62.15 28.29,71.08 C28.29,71.08 36,60.73 49.86,60.94 C59.2728802,49.5778211 58.2534481,32.8608923 47.529675,22.7266871 C36.8059019,12.592482 20.0580798,12.5189587 9.24574301,22.55862 C-1.56659377,32.5982812 -2.73275898,49.3056152 6.58,60.75 L6.59,60.72 Z" id="Path" fill="#3087DF"></path>
                        <path d="M6.59,60.72 C6.59,60.72 20.99,62.15 28.29,71.08 C28.29,71.08 36,60.73 49.86,60.94 C59.2728802,49.5778211 58.2534481,32.8608923 47.529675,22.7266871 C36.8059019,12.592482 20.0580798,12.5189587 9.24574301,22.55862 C-1.56659377,32.5982812 -2.73275898,49.3056152 6.58,60.75 L6.59,60.72 Z" id="Path" fill="#FFFFFF" opacity="0.5"></path>
                        <polygon id="Path" fill="#263238" points="27.81 17.06 27.33 89.26 29.76 89.26"></polygon>
                        <path d="M28.54,68.35 C28.54,68.35 33.41,59.6 42.16,56.93 C42.16,56.93 32.92,59.12 28.3,66.65 L28.54,68.35 Z" id="Path" fill="#263238"></path>
                        <path d="M28.54,43.56 C28.54,43.56 33.41,34.8 42.16,32.13 C42.16,32.13 32.92,34.32 28.3,41.85 L28.54,43.56 Z" id="Path" fill="#263238"></path>
                        <path d="M28.54,56 C28.54,56 33.41,47.24 42.16,44.57 C42.16,44.57 32.92,46.76 28.3,54.29 L28.54,56 Z" id="Path" fill="#263238"></path>
                        <path d="M27.82,49.88 C27.82,49.88 23.13,41.13 14.69,38.45 C14.69,38.45 23.6,40.64 28.06,48.18 L27.82,49.88 Z" id="Path" fill="#263238"></path>
                        <path d="M27.82,62 C27.82,62 23.13,53.25 14.69,50.58 C14.69,50.58 23.6,52.77 28.06,60.3 L27.82,62 Z" id="Path" fill="#263238"></path>
                        <path d="M74.43,55.25 C74.43,55.25 91.59,56.95 100.3,67.59 C100.3,67.59 109.49,55.26 126,55.51 C137.208981,41.9719173 135.991328,22.0592398 123.216333,9.98776787 C110.441338,-2.08370401 90.4916642,-2.17266146 77.6095238,9.78440288 C64.7273833,21.7414672 63.3321978,41.6424939 74.42,55.28 L74.43,55.25 Z" id="Path" fill="#3087DF"></path>
                        <path d="M74.43,55.25 C74.43,55.25 91.59,56.95 100.3,67.59 C100.3,67.59 109.49,55.26 126,55.51 C137.208981,41.9719173 135.991328,22.0592398 123.216333,9.98776787 C110.441338,-2.08370401 90.4916642,-2.17266146 77.6095238,9.78440288 C64.7273833,21.7414672 63.3321978,41.6424939 74.42,55.28 L74.43,55.25 Z" id="Path" fill="#FFFFFF" opacity="0.5"></path>
                        <polygon id="Path" fill="#263238" points="99.73 3.21 99.15 89.26 102.04 89.26"></polygon>
                        <path d="M100.6,64.34 C100.6,64.34 106.39,53.91 116.82,50.73 C116.82,50.73 105.82,53.33 100.31,62.32 L100.6,64.34 Z" id="Path" fill="#263238"></path>
                        <path d="M100.6,34.79 C100.6,34.79 106.39,24.36 116.82,21.17 C116.82,21.17 105.82,23.78 100.31,32.76 L100.6,34.79 Z" id="Path" fill="#263238"></path>
                        <path d="M100.6,49.57 C100.6,49.57 106.39,39.14 116.82,35.95 C116.82,35.95 105.82,38.56 100.31,47.54 L100.6,49.57 Z" id="Path" fill="#263238"></path>
                        <path d="M99.74,42.32 C99.74,42.32 94.15,31.89 84.08,28.71 C84.08,28.71 94.71,31.31 100.02,40.3 L99.74,42.32 Z" id="Path" fill="#263238"></path>
                        <path d="M99.74,56.81 C99.74,56.81 94.15,46.38 84.08,43.19 C84.08,43.19 94.71,45.8 100.02,54.78 L99.74,56.81 Z" id="Path" fill="#263238"></path>
                        <path d="M143.52,65.19 C143.52,65.19 155.68,66.39 161.83,73.92 C166.311179,68.489609 172.989418,65.3523043 180.03,65.37 C187.970261,55.7851049 187.110122,41.6832552 178.0638,33.1344531 C169.017478,24.5856509 154.889556,24.5237372 145.768655,32.9929241 C136.647754,41.4621109 135.664051,55.5558802 143.52,65.21 L143.52,65.19 Z" id="Path" fill="#3087DF"></path>
                        <path d="M143.52,65.19 C143.52,65.19 155.68,66.39 161.83,73.92 C166.311179,68.489609 172.989418,65.3523043 180.03,65.37 C187.970261,55.7851049 187.110122,41.6832552 178.0638,33.1344531 C169.017478,24.5856509 154.889556,24.5237372 145.768655,32.9929241 C136.647754,41.4621109 135.664051,55.5558802 143.52,65.21 L143.52,65.19 Z" id="Path" fill="#FFFFFF" opacity="0.5"></path>
                        <polygon id="Path" fill="#263238" points="161.43 28.35 161.02 89.26 163.07 89.26"></polygon>
                        <path d="M162.05,71.62 C162.05,71.62 166.15,64.24 173.53,61.99 C173.53,61.99 165.74,63.83 161.84,70.19 L162.05,71.62 Z" id="Path" fill="#263238"></path>
                        <path d="M162.05,50.71 C162.05,50.71 166.15,43.32 173.53,41.07 C173.53,41.07 165.74,42.91 161.84,49.27 L162.05,50.71 Z" id="Path" fill="#263238"></path>
                        <path d="M162.05,61.17 C162.05,61.17 166.15,53.78 173.53,51.53 C173.53,51.53 165.74,53.37 161.84,59.73 L162.05,61.17 Z" id="Path" fill="#263238"></path>
                        <path d="M161.44,56 C161.44,56 157.44,48.61 150.36,46.36 C150.36,46.36 157.88,48.2 161.64,54.56 L161.44,56 Z" id="Path" fill="#263238"></path>
                        <path d="M161.44,66.29 C161.44,66.29 157.44,58.91 150.36,56.65 C150.36,56.65 157.88,58.5 161.64,64.86 L161.44,66.29 Z" id="Path" fill="#263238"></path>
                    </g>
                    <g id="freepik--Streetlights--inject-63" transform="translate(36.000000, 260.000000)" fill="#FFFFFF" fill-rule="nonzero" stroke="#263238" stroke-linecap="round" stroke-linejoin="round">
                        <rect id="Rectangle" x="230.04" y="2.05" width="1.78" height="56.22"></rect>
                        <path d="M227.87,2.44 C227.807414,2.57491877 227.77337,2.72131011 227.77,2.87 C227.77,3.87 229.22,4.7 231,4.7 C232.78,4.7 234.22,3.88 234.22,2.87 C234.21663,2.72131011 234.182586,2.57491877 234.12,2.44 L227.87,2.44 Z" id="Path"></path>
                        <polygon id="Path" points="230.93 0.52 224.51 2.66 237.35 2.66"></polygon>
                        <rect id="Rectangle" x="304.75" y="2.05" width="1.78" height="56.22"></rect>
                        <path d="M302.57,2.44 C302.507414,2.57491877 302.47337,2.72131011 302.47,2.87 C302.47,3.87 303.92,4.7 305.7,4.7 C307.48,4.7 308.92,3.88 308.92,2.87 C308.91663,2.72131011 308.882586,2.57491877 308.82,2.44 L302.57,2.44 Z" id="Path"></path>
                        <polygon id="Path" points="305.63 0.52 299.21 2.66 312.06 2.66"></polygon>
                        <rect id="Rectangle" x="80.64" y="2.05" width="1.78" height="56.22"></rect>
                        <path d="M78.47,2.44 C78.4074143,2.57491877 78.3733698,2.72131011 78.37,2.87 C78.37,3.87 79.81,4.7 81.6,4.7 C83.39,4.7 84.82,3.88 84.82,2.87 C84.8166302,2.72131011 84.7825857,2.57491877 84.72,2.44 L78.47,2.44 Z" id="Path"></path>
                        <polygon id="Path" points="81.53 0.52 75.11 2.66 87.95 2.66"></polygon>
                        <rect id="Rectangle" x="5.94" y="2.05" width="1.78" height="56.22"></rect>
                        <path d="M3.77,2.44 C3.70741435,2.57491877 3.67336985,2.72131011 3.67,2.87 C3.67,3.87 5.11,4.7 6.89,4.7 C8.67,4.7 10.12,3.88 10.12,2.87 C10.1166302,2.72131011 10.0825857,2.57491877 10.02,2.44 L3.77,2.44 Z" id="Path"></path>
                        <polygon id="Path" points="6.83 0.52 0.41 2.66 13.25 2.66"></polygon>
                        <rect id="Rectangle" x="155.34" y="2.05" width="1.78" height="56.22"></rect>
                        <path d="M153.17,2.44 C153.107414,2.57491877 153.07337,2.72131011 153.07,2.87 C153.07,3.87 154.52,4.7 156.3,4.7 C158.08,4.7 159.52,3.88 159.52,2.87 C159.51663,2.72131011 159.482586,2.57491877 159.42,2.44 L153.17,2.44 Z" id="Path"></path>
                        <polygon id="Path" points="156.23 0.52 149.81 2.66 162.65 2.66"></polygon>
                    </g>
                </g>
            </g>
        </g>
    </g>
</svg>