<?xml version="1.0" encoding="UTF-8"?>
<svg width="365px" height="313px" viewBox="0 0 365 313" version="1.1" xmlns="http://www.w3.org/2000/svg" xmlns:xlink="http://www.w3.org/1999/xlink">
    <!-- Generator: Sketch 57.1 (83088) - https://sketch.com -->
    <title>Ordinary day-bro</title>
    <desc>Created with Sketch.</desc>
    <g id="Webdesign-quick-fix" stroke="none" stroke-width="1" fill="none" fill-rule="evenodd">
        <g id="Features/Services---UI" transform="translate(-240.000000, -770.000000)" fill-rule="nonzero">
            <g id="Shading-automation" transform="translate(0.000000, 631.000000)">
                <g id="Ordinary-day-bro" transform="translate(240.000000, 139.000000)">
                    <g id="freepik--background-simple--inject-214">
                        <path d="M323.208486,58.2791411 C323.208486,58.2791411 301.024703,8.58588957 252.035514,1.22392638 C203.046324,-6.13803681 168.846324,29.7515337 132.797676,48.1564417 C113.91373,57.8006135 92.3492432,54.0552147 72.3098919,58.7208589 C8.22648649,73.6196319 -15.9076216,167.09816 10.7868649,220.242331 C33.894973,266.254601 74.5652432,290.180982 136.494973,295.702454 C198.424703,301.223926 241.867946,307.665644 297.327405,262.57362 C352.786865,217.481595 349.089568,123.616564 323.208486,58.2791411 Z" id="Path" fill="#4788D8"></path>
                        <path d="M323.208486,58.2791411 C323.208486,58.2791411 301.024703,8.58588957 252.035514,1.22392638 C203.046324,-6.13803681 168.846324,29.7515337 132.797676,48.1564417 C113.91373,57.8006135 92.3492432,54.0552147 72.3098919,58.7208589 C8.22648649,73.6196319 -15.9076216,167.09816 10.7868649,220.242331 C33.894973,266.254601 74.5652432,290.180982 136.494973,295.702454 C198.424703,301.223926 241.867946,307.665644 297.327405,262.57362 C352.786865,217.481595 349.089568,123.616564 323.208486,58.2791411 Z" id="Path" fill="#FFFFFF" opacity="0.7"></path>
                    </g>
                    <g id="freepik--Wall--inject-214" transform="translate(4.000000, 17.000000)" fill="#263238">
                        <path d="M345.304348,109.297167 L312.68509,109.297167 C312.430135,109.297167 312.223453,109.090118 312.223453,108.83471 L312.223453,100.8157 C312.223453,100.560292 312.430135,100.353242 312.68509,100.353242 C312.940044,100.353242 313.146726,100.560292 313.146726,100.8157 L313.146726,108.372253 L345.304348,108.372253 C345.559303,108.372253 345.765985,108.579302 345.765985,108.83471 C345.765985,109.090118 345.559303,109.297167 345.304348,109.297167 Z" id="Path"></path>
                        <path d="M328.685422,120.396143 L308.373402,120.396143 C308.118447,120.396143 307.911765,120.189094 307.911765,119.933686 C307.911765,119.678278 308.118447,119.471229 308.373402,119.471229 L328.223785,119.471229 L328.223785,110.684539 C328.223785,110.429131 328.430467,110.222082 328.685422,110.222082 C328.940377,110.222082 329.147059,110.429131 329.147059,110.684539 L329.147059,119.933686 C329.147059,120.189094 328.940377,120.396143 328.685422,120.396143 Z" id="Path"></path>
                        <path d="M339.764706,130.875427 L313.29445,130.875427 C313.039495,130.875427 312.832813,130.668377 312.832813,130.412969 L312.832813,123.013652 C312.832813,122.758244 313.039495,122.551195 313.29445,122.551195 C313.549405,122.551195 313.756087,122.758244 313.756087,123.013652 L313.756087,129.950512 L339.764706,129.950512 C340.019661,129.950512 340.226343,130.157561 340.226343,130.412969 C340.226343,130.668377 340.019661,130.875427 339.764706,130.875427 Z" id="Path"></path>
                        <path d="M352.071944,121.006587 L337.299565,121.006587 C337.04461,121.006587 336.837928,120.799538 336.837928,120.54413 C336.84284,120.290788 337.046673,120.086593 337.299565,120.081672 L352.071944,120.081672 C352.326899,120.081672 352.533581,120.288722 352.533581,120.54413 C352.533581,120.799538 352.326899,121.006587 352.071944,121.006587 L352.071944,121.006587 Z" id="Path"></path>
                        <path d="M328.685422,145.054369 C328.430467,145.054369 328.223785,144.847319 328.223785,144.591911 L328.223785,134.112628 C328.223785,133.85722 328.430467,133.650171 328.685422,133.650171 C328.940377,133.650171 329.147059,133.85722 329.147059,134.112628 L329.147059,144.591911 C329.147059,144.847319 328.940377,145.054369 328.685422,145.054369 Z" id="Path"></path>
                        <path d="M348.997442,108.057782 C348.742487,108.057782 348.535806,107.850732 348.535806,107.595324 L348.535806,99.5855631 C348.535806,99.330155 348.742487,99.1231058 348.997442,99.1231058 C349.252397,99.1231058 349.459079,99.330155 349.459079,99.5855631 L349.459079,107.595324 C349.459079,107.850732 349.252397,108.057782 348.997442,108.057782 Z" id="Path"></path>
                        <path d="M329.913376,97.5784983 C329.658421,97.5784983 329.451739,97.3714491 329.451739,97.116041 L329.451739,88.486587 C329.451739,88.2311789 329.658421,88.0241297 329.913376,88.0241297 C330.168331,88.0241297 330.375013,88.2311789 330.375013,88.486587 L330.375013,97.116041 C330.375013,97.3714491 330.168331,97.5784983 329.913376,97.5784983 Z" id="Path"></path>
                        <path d="M360.076726,98.8086348 L340.99266,98.8086348 C340.737705,98.8086348 340.531023,98.6015856 340.531023,98.3461775 C340.535935,98.0928355 340.739767,97.8886408 340.99266,97.8837201 L360.076726,97.8837201 C360.331681,97.8837201 360.538363,98.0907693 360.538363,98.3461775 C360.538363,98.6015856 360.331681,98.8086348 360.076726,98.8086348 Z" id="Path"></path>
                        <path d="M315.759591,21.7354949 L289.289335,21.7354949 C289.03438,21.7354949 288.827698,21.5284457 288.827698,21.2730375 C288.827698,21.0176294 289.03438,20.8105802 289.289335,20.8105802 L315.759591,20.8105802 C316.014546,20.8105802 316.221228,21.0176294 316.221228,21.2730375 C316.221228,21.5284457 316.014546,21.7354949 315.759591,21.7354949 Z" id="Path"></path>
                        <path d="M299.140665,32.834471 L288.061381,32.834471 C287.806426,32.834471 287.599744,32.6274218 287.599744,32.3720137 C287.599744,32.1166055 287.806426,31.9095563 288.061381,31.9095563 L298.679028,31.9095563 L298.679028,23.1228669 C298.679028,22.8674588 298.88571,22.6604096 299.140665,22.6604096 C299.39562,22.6604096 299.602302,22.8674588 299.602302,23.1228669 L299.602302,32.3720137 C299.602302,32.6274218 299.39562,32.834471 299.140665,32.834471 Z" id="Path"></path>
                        <path d="M310.219949,43.3137543 L288.061381,43.3137543 C287.806426,43.3137543 287.599744,43.1067051 287.599744,42.8512969 C287.599744,42.5958888 287.806426,42.3888396 288.061381,42.3888396 L310.219949,42.3888396 C310.474904,42.3888396 310.681586,42.5958888 310.681586,42.8512969 C310.681586,43.1067051 310.474904,43.3137543 310.219949,43.3137543 Z" id="Path"></path>
                        <path d="M322.527187,33.4541638 L307.754808,33.4541638 C307.501916,33.4492432 307.298083,33.2450484 307.293171,32.9917065 C307.293171,32.7362983 307.499853,32.5292491 307.754808,32.5292491 L322.527187,32.5292491 C322.782142,32.5292491 322.988824,32.7362983 322.988824,32.9917065 C322.988824,33.1143578 322.940187,33.2319856 322.853613,33.3187132 C322.76704,33.4054408 322.64962,33.4541638 322.527187,33.4541638 Z" id="Path"></path>
                        <path d="M299.140665,57.5019454 C298.88571,57.5019454 298.679028,57.2948962 298.679028,57.0394881 L298.679028,46.5509556 C298.679028,46.2955475 298.88571,46.0884983 299.140665,46.0884983 C299.39562,46.0884983 299.602302,46.2955475 299.602302,46.5509556 L299.602302,57.0394881 C299.602302,57.2948962 299.39562,57.5019454 299.140665,57.5019454 L299.140665,57.5019454 Z" id="Path"></path>
                        <path d="M319.452685,20.5053584 C319.19773,20.5053584 318.991049,20.2983092 318.991049,20.042901 L318.991049,12.0238908 C318.991049,11.7684826 319.19773,11.5614334 319.452685,11.5614334 C319.70764,11.5614334 319.914322,11.7684826 319.914322,12.0238908 L319.914322,20.042901 C319.914322,20.2983092 319.70764,20.5053584 319.452685,20.5053584 Z" id="Path"></path>
                        <path d="M300.368619,10.0168259 C300.113664,10.0168259 299.906982,9.80977674 299.906982,9.5543686 L299.906982,0.924914676 C299.906982,0.669506541 300.113664,0.462457338 300.368619,0.462457338 C300.623574,0.462457338 300.830256,0.669506541 300.830256,0.924914676 L300.830256,9.5543686 C300.830256,9.80977674 300.623574,10.0168259 300.368619,10.0168259 Z" id="Path"></path>
                        <path d="M330.531969,11.2562116 L311.447903,11.2562116 C311.19501,11.251291 310.991178,11.0470962 310.986266,10.7937543 C310.986266,10.5383461 311.192948,10.3312969 311.447903,10.3312969 L330.531969,10.3312969 C330.786924,10.3312969 330.993606,10.5383461 330.993606,10.7937543 C330.993606,11.0491624 330.786924,11.2562116 330.531969,11.2562116 Z" id="Path"></path>
                        <path d="M70.7873913,190.069966 L38.1589003,190.069966 C37.9039453,190.069966 37.6972634,189.862917 37.6972634,189.607509 L37.6972634,181.588498 C37.7021753,181.335156 37.9060078,181.130962 38.1589003,181.126041 C38.4138552,181.126041 38.6205371,181.33309 38.6205371,181.588498 L38.6205371,189.145051 L70.7873913,189.145051 C71.0423463,189.145051 71.2490281,189.3521 71.2490281,189.607509 C71.2490281,189.862917 71.0423463,190.069966 70.7873913,190.069966 L70.7873913,190.069966 Z" id="Path"></path>
                        <path d="M54.1684655,201.168942 L33.856445,201.168942 C33.60149,201.168942 33.3948082,200.961893 33.3948082,200.706485 C33.3948082,200.451077 33.60149,200.244027 33.856445,200.244027 L53.7068286,200.244027 L53.7068286,191.457338 C53.7068286,191.20193 53.9135105,190.994881 54.1684655,190.994881 C54.4234205,190.994881 54.6301023,191.20193 54.6301023,191.457338 L54.6301023,200.706485 C54.6301023,200.961893 54.4234205,201.168942 54.1684655,201.168942 Z" id="Path"></path>
                        <path d="M65.2477494,211.648225 L38.7774936,211.648225 C38.5225386,211.648225 38.3158568,211.441176 38.3158568,211.185768 L38.3158568,203.786451 C38.3158568,203.531042 38.5225386,203.323993 38.7774936,203.323993 C39.0324486,203.323993 39.2391304,203.531042 39.2391304,203.786451 L39.2391304,210.723311 L65.2477494,210.723311 C65.5006418,210.728231 65.7044743,210.932426 65.7093862,211.185768 C65.7093862,211.308419 65.6607496,211.426047 65.5741759,211.512775 C65.4876022,211.599502 65.3701831,211.648225 65.2477494,211.648225 Z" id="Path"></path>
                        <path d="M77.5549872,201.788635 L62.7826087,201.788635 C62.5276537,201.788635 62.3209719,201.581586 62.3209719,201.326177 C62.3209719,201.070769 62.5276537,200.86372 62.7826087,200.86372 L77.5549872,200.86372 C77.8099422,200.86372 78.016624,201.070769 78.016624,201.326177 C78.016624,201.581586 77.8099422,201.788635 77.5549872,201.788635 Z" id="Path"></path>
                        <path d="M54.1684655,225.836416 C53.9135105,225.836416 53.7068286,225.629367 53.7068286,225.373959 L53.7068286,214.885427 C53.7068286,214.630018 53.9135105,214.422969 54.1684655,214.422969 C54.4213579,214.42789 54.6251904,214.632085 54.6301023,214.885427 L54.6301023,225.373959 C54.6251904,225.627301 54.4213579,225.831496 54.1684655,225.836416 L54.1684655,225.836416 Z" id="Path"></path>
                        <path d="M74.4804859,188.839829 C74.225531,188.839829 74.0188491,188.63278 74.0188491,188.377372 L74.0188491,180.358362 C74.0188491,180.102954 74.225531,179.895904 74.4804859,179.895904 C74.7354409,179.895904 74.9421228,180.102954 74.9421228,180.358362 L74.9421228,188.377372 C74.9372108,188.630714 74.7333784,188.834909 74.4804859,188.839829 Z" id="Path"></path>
                        <path d="M55.3964194,178.351297 C55.1414645,178.351297 54.9347826,178.144248 54.9347826,177.88884 L54.9347826,169.259386 C54.9347826,169.003978 55.1414645,168.796928 55.3964194,168.796928 C55.6513744,168.796928 55.8580563,169.003978 55.8580563,169.259386 L55.8580563,177.88884 C55.8580563,178.144248 55.6513744,178.351297 55.3964194,178.351297 Z" id="Path"></path>
                        <path d="M79.4015345,179.590683 L66.4757033,179.590683 C66.2207483,179.590683 66.0140665,179.383633 66.0140665,179.128225 C66.0140665,178.872817 66.2207483,178.665768 66.4757033,178.665768 L79.4015345,178.665768 C79.6564895,178.665768 79.8631714,178.872817 79.8631714,179.128225 C79.8631714,179.383633 79.6564895,179.590683 79.4015345,179.590683 Z" id="Path"></path>
                        <path d="M37.5495396,109.297167 L4.92104859,109.297167 C4.66815613,109.292247 4.46432368,109.088052 4.45941176,108.83471 L4.45941176,100.8157 C4.45941176,100.560292 4.66609361,100.353242 4.92104859,100.353242 C5.17600357,100.353242 5.38268542,100.560292 5.38268542,100.8157 L5.38268542,108.372253 L37.5495396,108.372253 C37.8044946,108.372253 38.0111765,108.579302 38.0111765,108.83471 C38.0062646,109.088052 37.8024321,109.292247 37.5495396,109.297167 Z" id="Path"></path>
                        <path d="M20.9306138,120.396143 L0.61859335,120.396143 C0.36363837,120.396143 0.156956522,120.189094 0.156956522,119.933686 C0.156956522,119.678278 0.36363837,119.471229 0.61859335,119.471229 L20.468977,119.471229 L20.468977,110.684539 C20.468977,110.429131 20.6756588,110.222082 20.9306138,110.222082 C21.1855688,110.222082 21.3922506,110.429131 21.3922506,110.684539 L21.3922506,119.933686 C21.3873387,120.187028 21.1835063,120.391223 20.9306138,120.396143 L20.9306138,120.396143 Z" id="Path"></path>
                        <path d="M32.0098977,130.875427 L5.53964194,130.875427 C5.28468696,130.875427 5.07800512,130.668377 5.07800512,130.412969 L5.07800512,123.013652 C5.07800512,122.758244 5.28468696,122.551195 5.53964194,122.551195 C5.79459692,122.551195 6.00127877,122.758244 6.00127877,123.013652 L6.00127877,129.950512 L32.0098977,129.950512 C32.2648527,129.950512 32.4715345,130.157561 32.4715345,130.412969 C32.4715345,130.668377 32.2648527,130.875427 32.0098977,130.875427 Z" id="Path"></path>
                        <path d="M44.3171355,121.006587 L29.544757,121.006587 C29.2898021,121.006587 29.0831202,120.799538 29.0831202,120.54413 C29.0831202,120.288722 29.2898021,120.081672 29.544757,120.081672 L44.3171355,120.081672 C44.5720905,120.081672 44.7787724,120.288722 44.7787724,120.54413 C44.7787724,120.799538 44.5720905,121.006587 44.3171355,121.006587 Z" id="Path"></path>
                        <path d="M20.9306138,145.054369 C20.6756588,145.054369 20.468977,144.847319 20.468977,144.591911 L20.468977,134.112628 C20.468977,133.85722 20.6756588,133.650171 20.9306138,133.650171 C21.1855688,133.650171 21.3922506,133.85722 21.3922506,134.112628 L21.3922506,144.591911 C21.3922506,144.847319 21.1855688,145.054369 20.9306138,145.054369 Z" id="Path"></path>
                        <path d="M41.2426343,108.057782 C40.9876793,108.057782 40.7809974,107.850732 40.7809974,107.595324 L40.7809974,99.5855631 C40.7809974,99.330155 40.9876793,99.1231058 41.2426343,99.1231058 C41.4975893,99.1231058 41.7042711,99.330155 41.7042711,99.5855631 L41.7042711,107.595324 C41.7042711,107.850732 41.4975893,108.057782 41.2426343,108.057782 Z" id="Path"></path>
                        <path d="M22.1585678,97.5784983 C21.9036128,97.5784983 21.6969309,97.3714491 21.6969309,97.116041 L21.6969309,88.486587 C21.6969309,88.2311789 21.9036128,88.0241297 22.1585678,88.0241297 C22.4135228,88.0241297 22.6202046,88.2311789 22.6202046,88.486587 L22.6202046,97.116041 C22.6202046,97.3714491 22.4135228,97.5784983 22.1585678,97.5784983 Z" id="Path"></path>
                        <path d="M52.3219182,98.8086348 L33.2378517,98.8086348 C32.9828967,98.8086348 32.7762148,98.6015856 32.7762148,98.3461775 C32.7762148,98.0907693 32.9828967,97.8837201 33.2378517,97.8837201 L52.3219182,97.8837201 C52.5748106,97.8886408 52.7786431,98.0928355 52.783555,98.3461775 C52.783555,98.6015856 52.5768731,98.8086348 52.3219182,98.8086348 Z" id="Path"></path>
                        <path d="M78.1735806,51.3327645 L45.5450895,51.3327645 C45.2901345,51.3327645 45.0834527,51.1257153 45.0834527,50.8703072 L45.0834527,42.8512969 C45.0883646,42.597955 45.2921971,42.3937602 45.5450895,42.3888396 C45.8000445,42.3888396 46.0067263,42.5958888 46.0067263,42.8512969 L46.0067263,50.4078498 L78.1735806,50.4078498 C78.4285355,50.4078498 78.6352174,50.614899 78.6352174,50.8703072 C78.6352174,51.1257153 78.4285355,51.3327645 78.1735806,51.3327645 L78.1735806,51.3327645 Z" id="Path"></path>
                        <path d="M61.5546547,62.4317406 L41.2426343,62.4317406 C40.9876793,62.4317406 40.7809974,62.2246914 40.7809974,61.9692833 C40.7809974,61.7138751 40.9876793,61.5068259 41.2426343,61.5068259 L61.0930179,61.5068259 L61.0930179,52.7201365 C61.0930179,52.4647284 61.2996998,52.2576792 61.5546547,52.2576792 C61.6770884,52.2576792 61.7945076,52.3064022 61.8810813,52.3931298 C61.967655,52.4798574 62.0162916,52.5974852 62.0162916,52.7201365 L62.0162916,61.9692833 C62.0162916,62.0919346 61.967655,62.2095624 61.8810813,62.29629 C61.7945076,62.3830176 61.6770884,62.4317406 61.5546547,62.4317406 Z" id="Path"></path>
                        <path d="M72.6339386,72.9110239 L46.1636829,72.9110239 C45.9087279,72.9110239 45.702046,72.7039747 45.702046,72.4485666 L45.702046,65.0492491 C45.702046,64.793841 45.9087279,64.5867918 46.1636829,64.5867918 C46.4186378,64.5867918 46.6253197,64.793841 46.6253197,65.0492491 L46.6253197,71.9861092 L72.6339386,71.9861092 C72.8868311,71.9910299 73.0906635,72.1952246 73.0955754,72.4485666 C73.0955754,72.5712179 73.0469388,72.6888457 72.9603652,72.7755733 C72.8737915,72.8623008 72.7563723,72.9110239 72.6339386,72.9110239 Z" id="Path"></path>
                        <path d="M78.7829412,63.0514334 L70.168798,63.0514334 C69.913843,63.0514334 69.7071611,62.8443842 69.7071611,62.5889761 C69.7071611,62.333568 69.913843,62.1265188 70.168798,62.1265188 L78.7829412,62.1265188 C79.0378962,62.1265188 79.244578,62.333568 79.244578,62.5889761 C79.244578,62.8443842 79.0378962,63.0514334 78.7829412,63.0514334 Z" id="Path"></path>
                        <path d="M61.5546547,87.099215 C61.2996998,87.099215 61.0930179,86.8921658 61.0930179,86.6367577 L61.0930179,76.1482253 C61.0930179,75.8928171 61.2996998,75.6857679 61.5546547,75.6857679 C61.8075472,75.6906886 62.0113796,75.8948833 62.0162916,76.1482253 L62.0162916,86.6367577 C62.0113796,86.8900996 61.8075472,87.0942944 61.5546547,87.099215 L61.5546547,87.099215 Z" id="Path"></path>
                        <path d="M62.7826087,39.6140956 C62.5276537,39.6140956 62.3209719,39.4070464 62.3209719,39.1516382 L62.3209719,30.5221843 C62.3209719,30.2667762 62.5276537,30.059727 62.7826087,30.059727 C63.0375637,30.059727 63.2442455,30.2667762 63.2442455,30.5221843 L63.2442455,39.1516382 C63.2442455,39.4070464 63.0375637,39.6140956 62.7826087,39.6140956 Z" id="Path"></path>
                        <path d="M77.5549872,40.8534812 L73.8618926,40.8534812 C73.6069376,40.8534812 73.4002558,40.646432 73.4002558,40.3910239 C73.4002558,40.1356158 73.6069376,39.9285666 73.8618926,39.9285666 L77.5549872,39.9285666 C77.8099422,39.9285666 78.016624,40.1356158 78.016624,40.3910239 C78.016624,40.646432 77.8099422,40.8534812 77.5549872,40.8534812 Z" id="Path"></path>
                        <path d="M336.690205,215.347884 L304.061714,215.347884 C303.806759,215.347884 303.600077,215.140835 303.600077,214.885427 L303.600077,206.875666 C303.600077,206.620257 303.806759,206.413208 304.061714,206.413208 C304.316669,206.413208 304.52335,206.620257 304.52335,206.875666 L304.52335,214.422969 L336.690205,214.422969 C336.943097,214.42789 337.14693,214.632085 337.151841,214.885427 C337.151841,215.140835 336.94516,215.347884 336.690205,215.347884 Z" id="Path"></path>
                        <path d="M320.071279,226.44686 L299.759258,226.44686 C299.504303,226.44686 299.297621,226.239811 299.297621,225.984403 C299.297621,225.728995 299.504303,225.521945 299.759258,225.521945 L319.609642,225.521945 L319.609642,216.735256 C319.609642,216.479848 319.816324,216.272799 320.071279,216.272799 C320.324171,216.277719 320.528004,216.481914 320.532916,216.735256 L320.532916,225.984403 C320.532916,226.239811 320.326234,226.44686 320.071279,226.44686 L320.071279,226.44686 Z" id="Path"></path>
                        <path d="M331.150563,236.935392 L304.680307,236.935392 C304.425352,236.935392 304.21867,236.728343 304.21867,236.472935 L304.21867,229.073618 C304.21867,228.81821 304.425352,228.61116 304.680307,228.61116 C304.935262,228.61116 305.141944,228.81821 305.141944,229.073618 L305.141944,236.010478 L331.150563,236.010478 C331.405518,236.010478 331.612199,236.217527 331.612199,236.472935 C331.607288,236.726277 331.403455,236.930472 331.150563,236.935392 Z" id="Path"></path>
                        <path d="M343.457801,227.066553 L328.685422,227.066553 C328.430467,227.066553 328.223785,226.859504 328.223785,226.604096 C328.223785,226.348687 328.430467,226.141638 328.685422,226.141638 L343.457801,226.141638 C343.712755,226.141638 343.919437,226.348687 343.919437,226.604096 C343.919437,226.859504 343.712755,227.066553 343.457801,227.066553 Z" id="Path"></path>
                        <path d="M320.071279,251.114334 C319.816324,251.114334 319.609642,250.907285 319.609642,250.651877 L319.609642,240.172594 C319.609642,239.917186 319.816324,239.710137 320.071279,239.710137 C320.326234,239.710137 320.532916,239.917186 320.532916,240.172594 L320.532916,250.651877 C320.532916,250.907285 320.326234,251.114334 320.071279,251.114334 Z" id="Path"></path>
                        <path d="M340.383299,214.117747 C340.128344,214.117747 339.921662,213.910698 339.921662,213.65529 L339.921662,205.63628 C339.921662,205.380872 340.128344,205.173823 340.383299,205.173823 C340.636192,205.178743 340.840024,205.382938 340.844936,205.63628 L340.844936,213.65529 C340.844936,213.910698 340.638254,214.117747 340.383299,214.117747 Z" id="Path"></path>
                        <path d="M321.299233,203.638464 C321.044278,203.638464 320.837596,203.431415 320.837596,203.176007 L320.837596,194.537304 C320.837596,194.281896 321.044278,194.074846 321.299233,194.074846 C321.554188,194.074846 321.76087,194.281896 321.76087,194.537304 L321.76087,203.176007 C321.76087,203.431415 321.554188,203.638464 321.299233,203.638464 Z" id="Path"></path>
                        <path d="M351.462583,204.868601 L332.378517,204.868601 C332.123562,204.868601 331.91688,204.661551 331.91688,204.406143 C331.91688,204.150735 332.123562,203.943686 332.378517,203.943686 L351.462583,203.943686 C351.717538,203.943686 351.92422,204.150735 351.92422,204.406143 C351.92422,204.661551 351.717538,204.868601 351.462583,204.868601 Z" id="Path"></path>
                        <rect id="Rectangle" x="80.9434015" y="9.24914676" width="202.501611" height="261.13116"></rect>
                    </g>
                    <g id="freepik--Window--inject-214" transform="translate(66.000000, 25.000000)">
                        <g id="Group" opacity="0.5" transform="translate(15.771863, 1.846154)" fill="#FFFFFF">
                            <polygon id="Path" points="206.583574 144.461538 206.583574 127.532308 48.5402281 255.646154 52.6038023 260.612308 63.2822814 260.612308"></polygon>
                            <polygon id="Path" points="101.607909 0 80.733384 0 0 65.4461538 0 82.3661538"></polygon>
                            <polygon id="Path" points="0 22.9015385 0 55.6984615 68.7096578 0 28.2594677 0"></polygon>
                            <polygon id="Path" points="206.583574 231.193846 206.583574 160.107692 82.5888973 260.612308 170.289734 260.612308"></polygon>
                        </g>
                        <path d="M222.253384,0 L17.6273764,0 C16.6026047,0 15.7718631,0.826551231 15.7718631,1.84615385 L15.7718631,251.076923 C15.7718631,252.096526 16.6026047,252.923077 17.6273764,252.923077 L222.253384,252.923077 C223.278156,252.923077 224.108897,252.096526 224.108897,251.076923 L224.108897,1.84615385 C224.108897,0.826551231 223.278156,0 222.253384,0 Z M220.397871,194.169231 L126.174905,194.169231 L126.174905,3.69230769 L220.397871,3.69230769 L220.397871,194.169231 Z M119.059011,3.69230769 L119.059011,194.169231 L19.4828897,194.169231 L19.4828897,3.69230769 L119.059011,3.69230769 Z M19.4828897,197.861538 L119.059011,197.861538 L119.059011,249.230769 L19.4828897,249.230769 L19.4828897,197.861538 Z M126.174905,249.230769 L126.174905,197.861538 L220.397871,197.861538 L220.397871,249.230769 L126.174905,249.230769 Z" id="Shape" fill="#FFFFFF"></path>
                        <rect id="Rectangle" fill="#263238" x="1.11330798" y="261.710769" width="242.265095" height="25.8184615"></rect>
                        <rect id="Rectangle" fill="#4788D8" x="1.11330798" y="252.886154" width="242.265095" height="25.8184615"></rect>
                        <path d="M243.378403,279.166177 L1.12258555,279.166177 C0.866392626,279.166177 0.658707224,278.959516 0.658707224,278.704615 L0.658707224,252.923077 C0.658707224,252.668176 0.866392626,252.461538 1.12258555,252.461538 L243.378403,252.461538 C243.634596,252.461538 243.842281,252.668176 243.842281,252.923077 L243.842281,278.769231 C243.809694,278.998623 243.611238,279.168434 243.378403,279.166177 L243.378403,279.166177 Z M1.58646388,278.243077 L242.914525,278.243077 L242.914525,253.32 L1.58646388,253.32 L1.58646388,278.243077 Z" id="Shape" fill="#263238"></path>
                        <path d="M14.4637262,257.852308 L1.21536122,257.852308 C0.959168291,257.852308 0.75148289,257.64567 0.75148289,257.390769 C0.75148289,257.135869 0.959168291,256.929231 1.21536122,256.929231 L14.4637262,256.929231 C14.7199192,256.929231 14.9276046,257.135869 14.9276046,257.390769 C14.9276046,257.64567 14.7199192,257.852308 14.4637262,257.852308 Z" id="Path" fill="#263238"></path>
                        <path d="M19.3901141,261.230769 L4.91711027,261.230769 C4.66091734,261.230769 4.45323194,261.024131 4.45323194,260.769231 C4.45323194,260.51433 4.66091734,260.307692 4.91711027,260.307692 L19.3901141,260.307692 C19.646307,260.307692 19.8539924,260.51433 19.8539924,260.769231 C19.8539924,261.024131 19.646307,261.230769 19.3901141,261.230769 Z" id="Path" fill="#263238"></path>
                        <path d="M21.8579468,272.870769 L6.49429658,272.870769 C6.23810365,272.870769 6.03041825,272.664131 6.03041825,272.409231 C6.03041825,272.15433 6.23810365,271.947692 6.49429658,271.947692 L21.895057,271.947692 C22.15125,271.947692 22.3589354,272.15433 22.3589354,272.409231 C22.3589354,272.664131 22.15125,272.870769 21.895057,272.870769 L21.8579468,272.870769 Z" id="Path" fill="#263238"></path>
                        <path d="M24.9380989,270.461538 L5.22326996,270.461538 C4.96707704,270.461538 4.75939163,270.254901 4.75939163,270 C4.75939163,269.745099 4.96707704,269.538462 5.22326996,269.538462 L24.9380989,269.538462 C25.1922192,269.543372 25.3970414,269.747161 25.4019772,270 C25.4019772,270.254901 25.1942918,270.461538 24.9380989,270.461538 Z" id="Path" fill="#263238"></path>
                        <path d="M13.2298099,275.326154 L6.73551331,275.326154 C6.47932038,275.326154 6.27163498,275.119516 6.27163498,274.864615 C6.27163498,274.609715 6.47932038,274.403077 6.73551331,274.403077 L13.2298099,274.403077 C13.4860028,274.403077 13.6936882,274.609715 13.6936882,274.864615 C13.6936882,275.119516 13.4860028,275.326154 13.2298099,275.326154 Z" id="Path" fill="#263238"></path>
                        <path d="M22.4702662,266.132308 L11.6897338,266.132308 C11.4356135,266.127397 11.2307913,265.923608 11.2258555,265.670769 C11.2258555,265.415869 11.4335409,265.209231 11.6897338,265.209231 L22.4702662,265.209231 C22.7264591,265.209231 22.9341445,265.415869 22.9341445,265.670769 C22.9341445,265.793177 22.8852717,265.910571 22.7982777,265.997126 C22.7112836,266.083681 22.5932943,266.132308 22.4702662,266.132308 Z" id="Path" fill="#263238"></path>
                        <path d="M13.2298099,263.372308 L8.34980989,263.372308 C8.09361696,263.372308 7.88593156,263.16567 7.88593156,262.910769 C7.88593156,262.655869 8.09361696,262.449231 8.34980989,262.449231 L13.2761977,262.449231 C13.5323906,262.449231 13.7400819,262.655869 13.7400819,262.910769 C13.7407354,263.04161 13.6855481,263.16658 13.5882419,263.254594 C13.4909357,263.342608 13.360656,263.385394 13.2298099,263.372308 Z" id="Path" fill="#263238"></path>
                        <path d="M24.9380989,256.929231 L20.2993156,256.929231 C20.0431227,256.929231 19.8354373,256.722593 19.8354373,256.467692 C19.8354373,256.212792 20.0431227,256.006154 20.2993156,256.006154 L24.9380989,256.006154 C25.1922192,256.011065 25.3970414,256.214854 25.4019772,256.467692 C25.4019772,256.722593 25.1942918,256.929231 24.9380989,256.929231 Z" id="Path" fill="#263238"></path>
                        <rect id="Rectangle" fill="#4788D8" x="25.6710266" y="252.886154" width="217.716654" height="25.8184615"></rect>
                        <path d="M243.378403,279.166177 L25.6710266,279.166177 C25.4148337,279.166177 25.2071483,278.959516 25.2071483,278.704615 L25.2071483,252.923077 C25.2071483,252.668176 25.4148337,252.461538 25.6710266,252.461538 L243.378403,252.461538 C243.634596,252.461538 243.842281,252.668176 243.842281,252.923077 L243.842281,278.769231 C243.809694,278.998623 243.611238,279.168434 243.378403,279.166177 L243.378403,279.166177 Z M26.1349049,278.243077 L242.914525,278.243077 L242.914525,253.32 L26.1349049,253.32 L26.1349049,278.243077 Z" id="Shape" fill="#263238"></path>
                        <path d="M38.418403,261.018462 L26.3575665,261.018462 C26.1013736,261.018462 25.8936882,260.811824 25.8936882,260.556923 C25.898624,260.304085 26.1034462,260.100295 26.3575665,260.095385 L38.418403,260.095385 C38.6725234,260.100295 38.8773456,260.304085 38.8822814,260.556923 C38.8822814,260.811824 38.674596,261.018462 38.418403,261.018462 Z" id="Path" fill="#263238"></path>
                        <path d="M34.716654,264.701538 L25.6431939,264.701538 C25.387001,264.701538 25.1793156,264.494901 25.1793156,264.24 C25.1793156,263.985099 25.387001,263.778462 25.6431939,263.778462 L34.716654,263.778462 C34.9728469,263.778462 35.1805323,263.985099 35.1805323,264.24 C35.1805323,264.494901 34.9728469,264.701538 34.716654,264.701538 Z" id="Path" fill="#263238"></path>
                        <path d="M242.821749,267.378462 L219.627833,267.378462 C219.37164,267.378462 219.163954,267.171824 219.163954,266.916923 C219.163954,266.662022 219.37164,266.455385 219.627833,266.455385 L242.821749,266.455385 C243.077942,266.455385 243.285627,266.662022 243.285627,266.916923 C243.285627,267.171824 243.077942,267.378462 242.821749,267.378462 Z" id="Path" fill="#263238"></path>
                        <path d="M224.665551,270.055385 L218.616578,270.055385 C218.360385,270.055385 218.1527,269.848747 218.1527,269.593846 C218.1527,269.338946 218.360385,269.132308 218.616578,269.132308 L224.665551,269.132308 C224.921744,269.132308 225.12943,269.338946 225.12943,269.593846 C225.12943,269.848747 224.921744,270.055385 224.665551,270.055385 Z" id="Path" fill="#263238"></path>
                        <path d="M88.1368821,275.741538 L51.4904943,275.741538 C51.2343014,275.741538 51.026616,275.534901 51.026616,275.28 C51.026616,275.025099 51.2343014,274.818462 51.4904943,274.818462 L88.1368821,274.818462 C88.3930751,274.818462 88.6007605,275.025099 88.6007605,275.28 C88.5958247,275.532839 88.3910025,275.736628 88.1368821,275.741538 L88.1368821,275.741538 Z" id="Path" fill="#263238"></path>
                        <path d="M56.9085932,271.726154 L47.4918631,271.726154 C47.2377427,271.721243 47.0329206,271.517454 47.0279848,271.264615 C47.0279848,271.009715 47.2356702,270.803077 47.4918631,270.803077 L56.9085932,270.803077 C57.1647861,270.803077 57.3724715,271.009715 57.3724715,271.264615 C57.3675357,271.517454 57.1627135,271.721243 56.9085932,271.726154 Z" id="Path" fill="#263238"></path>
                    </g>
                    <g id="freepik--Plant--inject-214" transform="translate(218.000000, 167.000000)">
                        <path d="M38.9344,76.298843 C38.6991208,76.2996329 38.5028053,76.1182418 38.4836,75.882314 C38.4836,75.7342149 36.6988,60.3133884 26.4592,48.7894215 C16.0356,37.0247934 12.9996,20.5209917 12.9628,20.3636364 C12.9414873,20.242046 12.9693472,20.1169282 13.0401839,20.0161081 C13.1110205,19.915288 13.2189609,19.8471246 13.34,19.8267769 C13.587631,19.7868858 13.8226632,19.9499671 13.8736,20.1970248 C13.8736,20.3636364 16.9004,36.6267769 27.1492,48.1785124 C37.582,59.9338843 39.376,75.6416529 39.3944,75.7990083 C39.4213211,76.0517553 39.2405949,76.279043 38.9896,76.3080992 L38.9344,76.298843 Z" id="Path" fill="#263238"></path>
                        <path d="M42.7064,77.983491 C42.4932916,77.9854473 42.3067391,77.8398902 42.2556,77.6317355 C42.1912,77.3540496 40.5904,70.6433058 42.6696,56.4072727 C44.7488,42.1712397 57.316,29.3328926 57.4356,29.2033058 C57.6175886,29.0257874 57.9068114,29.0257874 58.0888,29.2033058 C58.1758838,29.290206 58.2248672,29.4084983 58.2248672,29.5319008 C58.2248672,29.6553033 58.1758838,29.7735956 58.0888,29.8604959 C57.9692,29.9900826 45.6228,42.5507438 43.5804,56.5368595 C41.538,70.5229752 43.1296,77.3447934 43.148,77.4095868 C43.1812514,77.5275932 43.1645354,77.6541801 43.101812,77.7593576 C43.0390887,77.8645351 42.9359389,77.9389449 42.8168,77.9649587 L42.7064,77.983491 Z" id="Path" fill="#263238"></path>
                        <path d="M42.7064,83.8796694 C42.4917481,83.8772602 42.3060961,83.7285938 42.2556,83.5186777 C42.2556,83.3520661 38.042,66.0429752 35.558,48.5395041 C33.074,31.0360331 34.2884,21.5669421 34.2976,21.4743802 C34.335542,21.2242208 34.5627931,21.0486584 34.8128,21.0763636 C35.0641046,21.1099507 35.2410291,21.3417714 35.2084,21.5947107 C35.2084,21.6872727 33.994,31.0175207 36.4688,48.437686 C38.9436,65.8578512 43.1112,83.157686 43.148,83.3335537 C43.1785169,83.4514504 43.1606087,83.5767422 43.0983087,83.6812097 C43.0360087,83.7856773 42.9345558,83.860536 42.8168,83.8889256 L42.7064,83.8796694 Z" id="Path" fill="#263238"></path>
                        <path d="M14.2508,24.0661157 C14.2508,24.0661157 9.2368,25.3249587 8.8136,16.0687603 C8.3904,6.81256198 14.72,0.490578512 14.72,0.490578512 C14.72,0.490578512 14.72,5.54446281 17.2316,9.33024793 C19.7432,13.1160331 19.32,24.9084298 14.2508,24.0661157 Z" id="Path" fill="#4788D8"></path>
                        <path d="M34.7576,25.7507438 C34.7576,25.7507438 29.7344,27.0095868 29.3204,17.7441322 C28.9064,8.47867769 35.1716,2.17520661 35.1716,2.17520661 C35.1716,2.17520661 35.1716,7.22909091 37.6832,11.014876 C40.1948,14.8006612 39.7716,26.5838017 34.7576,25.7507438 Z" id="Path" fill="#4788D8"></path>
                        <path d="M55.4668,34.2479339 C55.4668,34.2479339 50.5724,32.5355372 55.2644,24.5566942 C59.9564,16.5778512 68.6504,14.7543802 68.6504,14.7543802 C68.6504,14.7543802 65.8904,18.9844628 65.9364,23.5385124 C65.9824,28.092562 59.202,37.6819835 55.4668,34.2479339 Z" id="Path" fill="#4788D8"></path>
                        <path d="M40.6088,73.734876 C40.6088,73.734876 43.9576,58.5824793 51.0692,51.4181818 C55.288606,47.1678961 60.9963972,44.7518591 66.9668,44.6889256 C66.9668,44.6889256 58.604,48.0581818 56.0924,54.787438 C53.5808,61.5166942 53.5808,76.2618182 53.5808,76.2618182 L25.1344,76.2618182 C25.1344,76.2618182 25.9716,70.7821488 18.86,64.4694215 C11.7484,58.1566942 0,53.945124 0,53.945124 C0,53.945124 12.972,49.3170248 22.172,53.1028099 C31.372,56.888595 38.0788,72.892562 38.0788,72.892562 L40.6088,73.734876 Z" id="Path" fill="#4788D8"></path>
                        <polygon id="Path" fill="#FFFFFF" points="53.176 110.778182 24.702 110.778182 21.3716 78.3629752 56.5064 78.3629752"></polygon>
                        <path d="M53.1668,111.231887 L24.702,111.231887 C24.469941,111.232954 24.2748766,111.056724 24.2512,110.824463 L20.9116,78.4277686 C20.8968667,78.2972241 20.9368736,78.1664076 21.022,78.0667769 C21.1110588,77.9733693 21.2337566,77.9199867 21.3624,77.9186212 L56.5064,77.9186212 C56.6357299,77.916625 56.7597055,77.9705635 56.8468,78.0667769 C56.9384567,78.1629733 56.9823579,78.2954816 56.9664,78.4277686 L53.6268,110.824463 C53.602832,111.060315 53.4023653,111.237804 53.1668,111.231887 Z M25.116,110.306116 L52.716,110.306116 L55.9636,78.8350413 L21.8776,78.8350413 L25.116,110.306116 Z" id="Shape" fill="#263238"></path>
                        <polygon id="Path" fill="#263238" points="22.0248 84.7219835 55.8532 84.7219835 56.5064 78.3629752 21.3716 78.3629752"></polygon>
                        <path d="M55.8532,85.1570307 L22.0248,85.1570307 C21.7876801,85.1582203 21.5885093,84.9778717 21.5648,84.7404959 L20.9116,78.3814876 C20.8968667,78.2509431 20.9368736,78.1201266 21.022,78.0204959 C21.1110588,77.9270883 21.2337566,77.8737057 21.3624,77.8723402 L56.5064,77.8723402 C56.6357299,77.870344 56.7597055,77.9242825 56.8468,78.0204959 C56.9384567,78.1166923 56.9823579,78.2492006 56.9664,78.3814876 L56.3132,84.7404959 C56.2894907,84.9778717 56.0903199,85.1582203 55.8532,85.1570307 Z M22.4388,84.231405 L55.4392,84.231405 L56.0004,78.7980165 L21.8776,78.7980165 L22.4388,84.231405 Z" id="Shape" fill="#263238"></path>
                        <rect id="Rectangle" fill="#FFFFFF" x="18.0228" y="72.0502479" width="41.8416" height="7.58082645"></rect>
                        <path d="M59.8552,80.0846282 L18.0228,80.0846282 C17.768749,80.0846282 17.5628,79.877421 17.5628,79.6218182 L17.5628,72.0502479 C17.5628,71.7946451 17.768749,71.587438 18.0228,71.587438 L59.8552,71.587438 C60.109251,71.587438 60.3155686,71.7946451 60.3155686,72.0502479 L60.3155686,79.6033058 C60.3202103,79.7292256 60.2739671,79.851756 60.1871514,79.9425959 C60.1003356,80.0334358 59.9804555,80.084729 59.8552,80.0846282 Z M18.4552,79.1590083 L59.3676,79.1590083 L59.3676,72.5130579 L18.4828,72.5130579 L18.4552,79.1590083 Z" id="Shape" fill="#263238"></path>
                    </g>
                </g>
            </g>
        </g>
    </g>
</svg>