<?xml version="1.0" encoding="UTF-8"?>
<svg width="389px" height="305px" viewBox="0 0 389 305" version="1.1" xmlns="http://www.w3.org/2000/svg" xmlns:xlink="http://www.w3.org/1999/xlink">
    <!-- Generator: Sketch 57.1 (83088) - https://sketch.com -->
    <title>Select-bro</title>
    <desc>Created with Sketch.</desc>
    <g id="Webdesign-quick-fix" stroke="none" stroke-width="1" fill="none" fill-rule="evenodd">
        <g id="Features/Services---UI" transform="translate(-210.000000, -1478.000000)">
            <g id="Single-room-forecast" transform="translate(0.000000, 1331.000000)">
                <g id="Select-bro" transform="translate(210.000000, 147.000000)">
                    <g id="freepik--background-simple--inject-1--inject-52" transform="translate(29.000000, 0.000000)" fill-rule="nonzero">
                        <path d="M335.690323,183.483 C358.645161,147.581 368.787097,94.1243333 347.303226,55.187 C327.406452,19.2753333 284.516129,1.93333333 245.003226,0.966666667 C210.822581,0.135333333 183.687097,10.237 157.016129,30.073 C143.264516,40.31 129.367742,51.2623333 112.809677,57.2266667 C99.8806452,61.886 86.583871,65.0953333 73.2483871,68.6526667 C25.0258065,81.5383333 -4.69354839,125.241333 1.78064516,172.231 C6.77419355,208.345667 34.8387097,241.937333 70.6451613,255.354667 C98.4096774,265.756 127.587097,258.071 154.412903,248.984333 C168.870968,244.083333 183.445161,239.018 198.706452,236.736667 C213.464516,234.523 227.73871,237.287667 242.351613,235.692667 C278.36129,231.768 315.483871,215.122 335.690323,183.483 Z" id="Path" fill="#3087DF"></path>
                        <path d="M335.690323,183.483 C358.645161,147.581 368.787097,94.1243333 347.303226,55.187 C327.406452,19.2753333 284.516129,1.93333333 245.003226,0.966666667 C210.822581,0.135333333 183.687097,10.237 157.016129,30.073 C143.264516,40.31 129.367742,51.2623333 112.809677,57.2266667 C99.8806452,61.886 86.583871,65.0953333 73.2483871,68.6526667 C25.0258065,81.5383333 -4.69354839,125.241333 1.78064516,172.231 C6.77419355,208.345667 34.8387097,241.937333 70.6451613,255.354667 C98.4096774,265.756 127.587097,258.071 154.412903,248.984333 C168.870968,244.083333 183.445161,239.018 198.706452,236.736667 C213.464516,234.523 227.73871,237.287667 242.351613,235.692667 C278.36129,231.768 315.483871,215.122 335.690323,183.483 Z" id="Path" fill="#FFFFFF" opacity="0.7"></path>
                    </g>
                    <g id="freepik--Desk--inject-1--inject-52" transform="translate(182.000000, 200.000000)" fill-rule="nonzero">
                        <polygon id="Path" fill="#3087DF" points="194.660448 0.9590625 190.556716 0.9590625 4.79253731 0.9590625 0.68880597 0.9590625 0.68880597 9.1740625 4.79253731 9.1740625 4.79253731 92.670625 190.556716 92.670625 190.556716 9.1740625 194.660448 9.1740625"></polygon>
                        <polygon id="Path" fill="#FFFFFF" opacity="0.5" points="194.660448 0.9590625 190.556716 0.9590625 4.79253731 0.9590625 0.68880597 0.9590625 0.68880597 9.1740625 4.79253731 9.1740625 4.79253731 92.670625 190.556716 92.670625 190.556716 9.1740625 194.660448 9.1740625"></polygon>
                        <path d="M9.76940299,44.5625 L60.430597,44.5625 L60.430597,17.55375 L9.76940299,17.55375 L9.76940299,44.5625 Z M10.7977612,18.5515625 L59.4022388,18.5515625 L59.4022388,43.59375 L10.7977612,43.59375 L10.7977612,18.5515625 Z" id="Shape" fill="#FFFFFF"></path>
                        <path d="M72.6835821,44.5625 L123.354478,44.5625 L123.354478,17.55375 L72.6835821,17.55375 L72.6835821,44.5625 Z M73.7313433,18.580625 L122.345522,18.580625 L122.345522,43.59375 L73.7313433,43.59375 L73.7313433,18.580625 Z" id="Shape" fill="#FFFFFF"></path>
                        <path d="M135.607463,17.55375 L135.607463,44.5625 L186.268657,44.5625 L186.268657,17.55375 L135.607463,17.55375 Z M185.240299,43.59375 L136.635821,43.59375 L136.635821,18.580625 L185.240299,18.580625 L185.240299,43.59375 Z" id="Shape" fill="#FFFFFF"></path>
                        <path d="M9.76940299,80.87125 L60.430597,80.87125 L60.430597,53.8334375 L9.76940299,53.8334375 L9.76940299,80.87125 Z M10.7977612,54.8603125 L59.4022388,54.8603125 L59.4022388,79.844375 L10.7977612,79.844375 L10.7977612,54.8603125 Z" id="Shape" fill="#FFFFFF"></path>
                        <path d="M72.6835821,80.87125 L123.354478,80.87125 L123.354478,53.8334375 L72.6835821,53.8334375 L72.6835821,80.87125 Z M73.7313433,54.8603125 L122.345522,54.8603125 L122.345522,79.844375 L73.7313433,79.844375 L73.7313433,54.8603125 Z" id="Shape" fill="#FFFFFF"></path>
                        <path d="M135.607463,80.87125 L186.268657,80.87125 L186.268657,53.8334375 L135.607463,53.8334375 L135.607463,80.87125 Z M136.635821,54.8603125 L185.240299,54.8603125 L185.240299,79.844375 L136.635821,79.844375 L136.635821,54.8603125 Z" id="Shape" fill="#FFFFFF"></path>
                        <ellipse id="Oval" fill="#FFFFFF" cx="35.6432836" cy="31.4165625" rx="8.22686567" ry="3.080625"></ellipse>
                        <ellipse id="Oval" fill="#FFFFFF" cx="98.2567164" cy="31.4165625" rx="8.22686567" ry="3.080625"></ellipse>
                        <ellipse id="Oval" fill="#FFFFFF" cx="162.684328" cy="31.4165625" rx="8.22686567" ry="3.080625"></ellipse>
                        <path d="M35.6432836,64.615625 C31.1029851,64.615625 27.4164179,65.99125 27.4164179,67.69625 C27.4164179,69.40125 31.1029851,70.7671875 35.6432836,70.7671875 C40.1835821,70.7671875 43.8701493,69.3915625 43.8701493,67.69625 C43.8701493,66.0009375 40.1835821,64.615625 35.6432836,64.615625 Z" id="Path" fill="#FFFFFF"></path>
                        <path d="M98.2567164,64.615625 C93.7164179,64.615625 90.0298507,65.99125 90.0298507,67.69625 C90.0298507,69.40125 93.7164179,70.7671875 98.2567164,70.7671875 C102.797015,70.7671875 106.483582,69.3915625 106.483582,67.69625 C106.483582,66.0009375 102.835821,64.615625 98.2567164,64.615625 Z" id="Path" fill="#FFFFFF"></path>
                        <path d="M162.684328,64.615625 C158.14403,64.615625 154.467164,65.99125 154.467164,67.69625 C154.467164,69.40125 158.14403,70.7671875 162.684328,70.7671875 C167.224627,70.7671875 170.911194,69.3915625 170.911194,67.69625 C170.911194,66.0009375 167.234328,64.615625 162.684328,64.615625 Z" id="Path" fill="#FFFFFF"></path>
                    </g>
                    <g id="freepik--Plants--inject-1--inject-52" transform="translate(58.000000, 137.000000)" fill-rule="nonzero">
                        <path d="M101.644538,56.7719753 C97.9142857,62.3251235 92.7151261,69.5451852 89.9415966,75.3406173 C90.994958,71.5222222 92.0289916,67.9073457 92.9663866,64.6801235 C94.3869748,61.879321 98.1945378,54.814321 102.630252,50.1430864 C108.206303,44.1538272 110.593277,40.306358 107.587815,39.9768519 C105.510084,39.7442593 99.4218487,47.8753086 95.6046218,55.9482099 C96.4357143,53.1861728 97.0928571,51.1025309 97.537395,49.8523457 C97.7210084,49.2902469 97.894958,48.6796914 98.0689076,48.0303704 C102.017462,42.4906318 105.613137,36.7062958 108.834454,30.7119136 C114.468487,20.1580247 116.285294,10.1953086 112.52605,14.4788889 C109.066387,18.4232716 103.045798,38.0385802 98.2621849,47.2647531 C98.6680672,45.6753704 99.0546218,43.9212346 99.3928571,42.1864815 C100.069328,40.5098765 100.958403,38.8041975 101.460924,37.2535802 C102.243697,34.8695062 102.929832,32.4660494 103.480672,30.0141358 C104.389206,26.2046025 104.849765,22.3014782 104.852941,18.3845062 C104.949892,13.7837249 103.700055,9.25533788 101.257983,5.35932099 C100.610504,4.39018519 96.6483193,-1.55061728 95.4596639,1.48277778 C95.3048087,1.98809024 95.2749575,2.52361402 95.3726891,3.04308642 C95.952521,8.09228395 97.7789916,12.7344444 98.9096639,17.647963 C100.60084,25.0037037 99.4798319,37.3504938 98.9096639,42.6032099 C98.6970588,43.4366667 98.4264706,44.4639506 98.107563,45.6559877 C98.8903361,36.5073457 94.9378151,25.662716 91.2752101,23.7632099 C86.7428571,21.4179012 91.1882353,30.6246914 94.6865546,38.6685185 C96.3436983,42.1887249 97.1230596,46.0600332 96.957563,49.9492593 C96.242437,52.5853086 95.4210084,55.5605556 94.5705882,58.5648765 C94.3966387,58.9719136 94.2420168,59.388642 94.087395,59.795679 C94.4805565,57.8348387 94.6395184,55.8340281 94.5609244,53.8354938 C94.2323529,48.5827778 88.2987395,38.0676543 84.3558824,39.5504321 C80.4130252,41.0332099 87.0907563,46.5766667 90.6567227,53.0311111 C92.5277154,56.6001763 93.2469899,60.6639552 92.7151261,64.6607407 C92.7151261,64.9030247 92.6378151,65.1356173 92.6088235,65.3585185 C92.1932773,66.7346914 91.787395,68.052716 91.4008403,69.3125926 C90.4344538,72.22 89.6130252,75.0111111 88.7915966,77.7053086 C89.8007521,73.796432 90.2433894,69.7621957 90.1058824,65.7267901 C89.6130252,58.0318519 85.1193277,50.7633333 81.4084034,49.7651235 C77.697479,48.7669136 84.7810924,61.3269136 87.1584034,68.3822222 C88.4510054,72.502928 88.6705756,76.8868086 87.7962185,81.1166667 C86.6462185,84.9350617 85.5638655,88.705 84.452521,92.6881481 C84.76292,87.4703959 84.6498022,82.2359725 84.1142857,77.0366049 C83.3894958,68.4694444 78.3159664,63.0035185 74.8176471,63.2264198 C71.3193277,63.449321 74.9722689,68.3143827 80.0168067,78.7325926 C82.6804237,84.2027297 83.8666764,90.2778493 83.4571429,96.3514815 C83.0029412,98.0280864 82.4907563,99.7531481 82.0655462,101.555741 C81.5243697,103.610309 81.0991597,105.849012 80.712605,108.136173 C80.210084,106.091296 79.4563025,103.106358 78.5768908,99.8112963 C77.5527933,96.1686219 76.8097037,92.4523239 76.3542017,88.6953086 C75.8806723,84.3245062 74.7306723,78.8682716 70.4592437,76.6004938 C69.8715799,76.1899902 69.1330617,76.0609035 68.4415654,76.2478209 C67.7500692,76.4347383 67.1762845,76.9185517 66.8739496,77.5696296 C66.4820592,78.5072396 66.3941582,79.5447097 66.6226891,80.5351852 C67.1897896,83.5084071 68.1654772,86.3883508 69.5218487,89.0926543 C68.6826746,90.7061409 68.3015832,92.5197984 68.4201681,94.335679 C68.4201681,95.0140741 68.4781513,95.6924691 68.5264706,96.3708642 C68.1495798,95.6730864 67.7920168,95.0334568 67.4537815,94.4325926 C66.8396894,93.404963 66.0850101,92.4687167 65.2117647,91.6511728 C65.4306923,90.0452832 65.5404693,88.426322 65.5403361,86.8054938 C65.5403361,84.6830864 63.0567227,79.2656173 60.8147059,83.2778395 C59.9159664,84.8866049 60.089916,88.0362963 60.0029412,90.1296296 C59.3941176,90.7111111 59.2105042,91.8934568 59.7226891,93.7541975 C59.3747899,98.5998765 59.3071429,103.561852 60.4764706,108.291235 L59.7033613,106.944136 C58.6141205,101.337746 57.9678558,95.6538803 57.7705882,89.9454938 C57.4903361,80.5158025 58.9882353,72.7820988 56.4273109,69.8746914 C53.8663866,66.967284 52.4361345,77.1916667 53.5281513,88.3367284 C54.0426115,93.4222376 55.3945688,98.3869674 57.5289916,103.028827 C55.0163866,98.502963 52.5327731,93.8898765 50.1844538,89.4609259 C49.2180672,87.0865432 46.8214286,80.6611728 47.4109244,74.1485802 C48.155042,65.94 48.6962185,59.2141975 45.5844538,54.5914198 C42.4726891,49.968642 41.8252101,52.972963 43.3521008,62.6061728 C44.3957983,69.215679 45.5071429,78.0541975 47.4205882,84.1888272 C45.6037815,80.6708642 43.8932773,77.3273457 42.3663866,74.303642 C41.4966387,71.2799383 39.4672269,63.5171605 39.4672269,57.0724074 C39.4672269,48.8735185 38.597479,44.473642 36.1815126,46.2471605 C34.5,47.4973457 35.5823529,57.6151235 38.2882353,66.1241358 C37.0222689,63.5365432 36.0655462,61.5498148 35.5147059,60.3771605 C35.2634454,59.8441358 34.9831933,59.2723457 34.6642857,58.6811728 C33.7800703,51.931282 32.4728614,45.2439323 30.7504202,38.6588272 C27.6869748,27.0873457 22.2268908,18.5589506 22.4008403,24.2671605 C22.5554622,29.5198765 31.5042017,47.9722222 34.2970588,57.9930864 C33.5046218,56.5490741 32.5865546,55.0081481 31.6588235,53.5059877 C31.0113445,51.81 30.4991597,49.9589506 29.8130252,48.4858642 C28.7596639,46.2083951 27.6289916,43.9793827 26.3630252,41.8085185 C24.4297204,38.3949912 22.1041978,35.2204206 19.4340336,32.3497531 C16.3408586,28.8174683 12.2654362,26.2930353 7.73109244,25.1006173 C6.5907563,24.8292593 -0.328571429,23.1623457 0.850420168,26.2635802 C1.07085726,26.7366632 1.40247407,27.1490379 1.81680672,27.4653086 C5.68235294,30.7603704 10.1663866,32.9021605 14.3798319,35.7223457 C20.6226891,39.9477778 28.2088235,49.7360494 31.339916,53.9905556 L32.8281513,56.7719753 C27.1747899,49.5422222 16.9021008,44.3282716 12.939916,45.4524691 C8.03067227,46.8383333 17.539916,50.5210494 25.5705882,54.0002469 C29.1789795,55.4381653 32.3833012,57.7368044 34.9058824,60.6969753 C36.1815126,63.1198148 37.6021008,65.8430864 39.0226891,68.6245062 C39.1869748,69.0412346 39.3415966,69.4482716 39.5058824,69.8553086 C38.4615854,68.1533326 37.2191018,66.5819831 35.8046218,65.1743827 C31.987395,61.5691975 20.487395,57.9349383 18.6222689,61.7145679 C16.7571429,65.4941975 25.3869748,64.9902469 32.4029412,67.2580247 C36.1816669,68.5877607 39.4588055,71.0551455 41.7865546,74.3230247 C41.9218487,74.5168519 42.047479,74.7203704 42.1827731,74.9045062 C42.8205882,76.1837654 43.4197479,77.4339506 43.989916,78.6162963 C45.3042017,81.397716 46.5605042,84.0046914 47.7878151,86.5341358 C45.8721703,82.9738397 43.4537854,79.7096878 40.607563,76.8427778 C35.002521,71.5512963 26.7689076,69.322284 23.357563,71.163642 C19.9462185,73.005 33.6882353,77.2982716 40.2306723,80.855 C43.980708,82.9835475 47.1247012,86.0397281 49.3630252,89.732284 C51.1218487,93.3083951 52.8903361,96.8069753 54.7941176,100.48 C51.4701122,96.4549116 47.8279209,92.7051302 43.9029412,89.2670988 C37.5344538,83.5007407 30.1029412,82.9774074 27.6966387,85.5359259 C25.2903361,88.0944444 31.2722689,89.1508025 42.0378151,93.2890123 C47.7031046,95.4632941 52.7011276,99.0888156 56.5336134,103.804136 C57.3453782,105.345062 58.1764706,106.924753 59.0655462,108.572284 C60.0319328,110.433025 61.2592437,112.371296 62.5542017,114.299877 C60.7953782,113.156296 58.2054622,111.489383 55.3256303,109.68679 C52.0939048,107.725393 49.0209872,105.512171 46.1352941,103.067593 C42.8109244,100.208642 38.2592437,97.0008025 33.5722689,98.2703704 C32.8658987,98.3736742 32.2417252,98.7861611 31.8684359,99.3963535 C31.4951467,100.006546 31.411278,100.751451 31.6394958,101.429753 C31.9808157,102.388247 32.6213599,103.210748 33.4659664,103.775062 C37.8726891,107.196111 43.7966387,108.843642 48.9281513,110.869136 C53.6306582,112.724718 58.4505994,114.265789 63.3563025,115.482222 C64.5739496,117.236358 65.839916,118.971111 67.1155462,120.618642 L64.8155462,120.686481 C62.0903361,120.773704 49.7978992,115.18179 43.555042,113.388889 C37.3121849,111.595988 31.4752101,114.987963 38.0176471,118.515617 C44.560084,122.043272 62.3512605,121.258272 62.3512605,121.258272 L67.4827731,121.10321 C68.6907563,122.653827 69.8697479,124.126914 70.9907563,125.474012 L46.6088235,125.474012 L46.6088235,132.257963 L51.4407563,132.257963 L55.3063025,156.379753 L87.7092437,156.379753 L91.6231092,132.257963 L96.455042,132.257963 L96.455042,125.474012 L80.3067227,125.474012 C80.1761816,122.542182 80.253688,119.604754 80.5386555,116.683951 C81.6161237,115.585201 82.8121347,114.610068 84.1046218,113.776543 C91.1978992,108.863025 103.219748,108.455988 106.418487,98.9875309 C107.191597,96.7100617 106.312185,93.7832716 103.596639,93.9092593 C101.663866,93.9964815 99.5668067,95.7215432 98.3491597,97.1267901 C94.2903361,101.827099 91.2365546,106.701852 85.960084,110.268272 C84.1473099,111.665787 82.405623,113.153667 80.7415966,114.726296 C80.9252101,113.18537 81.1571429,111.53784 81.4567227,109.774012 C82.7317491,107.506237 84.1859858,105.344603 85.8054622,103.309877 C90.1252101,97.9311728 96.6966387,94.7814815 101.364286,89.6547531 C102.794538,88.0847531 104.678992,82.4443827 100.310924,83.8399383 C98.3781513,84.4601852 96.0781513,87.4160494 94.512605,88.7631481 C90.2121849,92.6396914 85.8151261,96.7682099 83.012605,101.865864 C83.1285714,101.361914 83.2542017,100.896728 83.3701681,100.354012 C86.3850506,95.505995 89.7814354,90.9073454 93.5268908,86.6019753 C99.7310924,79.527284 106.089916,74.8948148 106.196218,71.0182716 C106.302521,67.1417284 98.3008403,73.6349383 91.5071429,82.5122222 C88.425337,86.5846804 86.0352069,91.1395017 84.4331933,95.9929012 C85.6798319,90.9727778 87.0037815,85.8945062 88.2987395,81.0294444 C89.1878151,78.6066049 91.8260504,72.3072222 96.6869748,67.9364198 C102.823529,62.4414198 107.790756,57.9058642 108.670168,52.4302469 C109.54958,46.9546296 107.085294,48.6893827 101.644538,56.7719753 Z M67.3281513,119.10679 C66.410084,117.856605 65.4533613,116.499815 64.4289916,114.997654 C63.8188158,112.449747 63.4116501,109.857213 63.2113445,107.244568 C63.0875464,105.020479 63.191168,102.789523 63.5205882,100.586605 C65.1698912,102.634821 66.9212812,104.598206 68.7680672,106.469259 C68.7239996,108.406872 68.4876801,110.335271 68.062605,112.225926 C67.7006496,114.505447 67.4555097,116.802085 67.3281513,119.10679 Z M72.5852941,125.493395 C71.3386555,124.165679 69.9760504,122.585988 68.497479,120.647716 C68.5346042,119.110481 68.7453326,117.582418 69.1256303,116.092778 C69.7157091,113.744164 70.564927,111.468806 71.657563,109.308827 C73.9478992,111.489383 75.6294118,112.933395 75.6294118,112.933395 L79.494958,116.335062 C79.1953782,119.717346 79.0214286,122.896111 78.9151261,125.474012 L72.5852941,125.493395 Z M79.5432773,115.743889 L77.8134454,114.222346 C76.8470588,113.350123 75.107563,109.977531 73.2134454,106.091296 C74.021378,104.456048 74.7376192,102.776829 75.3588235,101.061481 C77.407563,104.870185 79.2243697,107.845432 80.2970588,109.425123 C79.9878151,111.528148 79.7462185,113.669938 79.5432773,115.743889 L79.5432773,115.743889 Z" id="Shape" fill="#3087DF"></path>
                        <path d="M101.644538,56.7719753 C97.9142857,62.3251235 92.7151261,69.5451852 89.9415966,75.3406173 C90.994958,71.5222222 92.0289916,67.9073457 92.9663866,64.6801235 C94.3869748,61.879321 98.1945378,54.814321 102.630252,50.1430864 C108.206303,44.1538272 110.593277,40.306358 107.587815,39.9768519 C105.510084,39.7442593 99.4218487,47.8753086 95.6046218,55.9482099 C96.4357143,53.1861728 97.0928571,51.1025309 97.537395,49.8523457 C97.7210084,49.2902469 97.894958,48.6796914 98.0689076,48.0303704 C102.017462,42.4906318 105.613137,36.7062958 108.834454,30.7119136 C114.468487,20.1580247 116.285294,10.1953086 112.52605,14.4788889 C109.066387,18.4232716 103.045798,38.0385802 98.2621849,47.2647531 C98.6680672,45.6753704 99.0546218,43.9212346 99.3928571,42.1864815 C100.069328,40.5098765 100.958403,38.8041975 101.460924,37.2535802 C102.243697,34.8695062 102.929832,32.4660494 103.480672,30.0141358 C104.389206,26.2046025 104.849765,22.3014782 104.852941,18.3845062 C104.949892,13.7837249 103.700055,9.25533788 101.257983,5.35932099 C100.610504,4.39018519 96.6483193,-1.55061728 95.4596639,1.48277778 C95.3048087,1.98809024 95.2749575,2.52361402 95.3726891,3.04308642 C95.952521,8.09228395 97.7789916,12.7344444 98.9096639,17.647963 C100.60084,25.0037037 99.4798319,37.3504938 98.9096639,42.6032099 C98.6970588,43.4366667 98.4264706,44.4639506 98.107563,45.6559877 C98.8903361,36.5073457 94.9378151,25.662716 91.2752101,23.7632099 C86.7428571,21.4179012 91.1882353,30.6246914 94.6865546,38.6685185 C96.3436983,42.1887249 97.1230596,46.0600332 96.957563,49.9492593 C96.242437,52.5853086 95.4210084,55.5605556 94.5705882,58.5648765 C94.3966387,58.9719136 94.2420168,59.388642 94.087395,59.795679 C94.4805565,57.8348387 94.6395184,55.8340281 94.5609244,53.8354938 C94.2323529,48.5827778 88.2987395,38.0676543 84.3558824,39.5504321 C80.4130252,41.0332099 87.0907563,46.5766667 90.6567227,53.0311111 C92.5277154,56.6001763 93.2469899,60.6639552 92.7151261,64.6607407 C92.7151261,64.9030247 92.6378151,65.1356173 92.6088235,65.3585185 C92.1932773,66.7346914 91.787395,68.052716 91.4008403,69.3125926 C90.4344538,72.22 89.6130252,75.0111111 88.7915966,77.7053086 C89.8007521,73.796432 90.2433894,69.7621957 90.1058824,65.7267901 C89.6130252,58.0318519 85.1193277,50.7633333 81.4084034,49.7651235 C77.697479,48.7669136 84.7810924,61.3269136 87.1584034,68.3822222 C88.4510054,72.502928 88.6705756,76.8868086 87.7962185,81.1166667 C86.6462185,84.9350617 85.5638655,88.705 84.452521,92.6881481 C84.76292,87.4703959 84.6498022,82.2359725 84.1142857,77.0366049 C83.3894958,68.4694444 78.3159664,63.0035185 74.8176471,63.2264198 C71.3193277,63.449321 74.9722689,68.3143827 80.0168067,78.7325926 C82.6804237,84.2027297 83.8666764,90.2778493 83.4571429,96.3514815 C83.0029412,98.0280864 82.4907563,99.7531481 82.0655462,101.555741 C81.5243697,103.610309 81.0991597,105.849012 80.712605,108.136173 C80.210084,106.091296 79.4563025,103.106358 78.5768908,99.8112963 C77.5527933,96.1686219 76.8097037,92.4523239 76.3542017,88.6953086 C75.8806723,84.3245062 74.7306723,78.8682716 70.4592437,76.6004938 C69.8715799,76.1899902 69.1330617,76.0609035 68.4415654,76.2478209 C67.7500692,76.4347383 67.1762845,76.9185517 66.8739496,77.5696296 C66.4820592,78.5072396 66.3941582,79.5447097 66.6226891,80.5351852 C67.1897896,83.5084071 68.1654772,86.3883508 69.5218487,89.0926543 C68.6826746,90.7061409 68.3015832,92.5197984 68.4201681,94.335679 C68.4201681,95.0140741 68.4781513,95.6924691 68.5264706,96.3708642 C68.1495798,95.6730864 67.7920168,95.0334568 67.4537815,94.4325926 C66.8396894,93.404963 66.0850101,92.4687167 65.2117647,91.6511728 C65.4306923,90.0452832 65.5404693,88.426322 65.5403361,86.8054938 C65.5403361,84.6830864 63.0567227,79.2656173 60.8147059,83.2778395 C59.9159664,84.8866049 60.089916,88.0362963 60.0029412,90.1296296 C59.3941176,90.7111111 59.2105042,91.8934568 59.7226891,93.7541975 C59.3747899,98.5998765 59.3071429,103.561852 60.4764706,108.291235 L59.7033613,106.944136 C58.6141205,101.337746 57.9678558,95.6538803 57.7705882,89.9454938 C57.4903361,80.5158025 58.9882353,72.7820988 56.4273109,69.8746914 C53.8663866,66.967284 52.4361345,77.1916667 53.5281513,88.3367284 C54.0426115,93.4222376 55.3945688,98.3869674 57.5289916,103.028827 C55.0163866,98.502963 52.5327731,93.8898765 50.1844538,89.4609259 C49.2180672,87.0865432 46.8214286,80.6611728 47.4109244,74.1485802 C48.155042,65.94 48.6962185,59.2141975 45.5844538,54.5914198 C42.4726891,49.968642 41.8252101,52.972963 43.3521008,62.6061728 C44.3957983,69.215679 45.5071429,78.0541975 47.4205882,84.1888272 C45.6037815,80.6708642 43.8932773,77.3273457 42.3663866,74.303642 C41.4966387,71.2799383 39.4672269,63.5171605 39.4672269,57.0724074 C39.4672269,48.8735185 38.597479,44.473642 36.1815126,46.2471605 C34.5,47.4973457 35.5823529,57.6151235 38.2882353,66.1241358 C37.0222689,63.5365432 36.0655462,61.5498148 35.5147059,60.3771605 C35.2634454,59.8441358 34.9831933,59.2723457 34.6642857,58.6811728 C33.7800703,51.931282 32.4728614,45.2439323 30.7504202,38.6588272 C27.6869748,27.0873457 22.2268908,18.5589506 22.4008403,24.2671605 C22.5554622,29.5198765 31.5042017,47.9722222 34.2970588,57.9930864 C33.5046218,56.5490741 32.5865546,55.0081481 31.6588235,53.5059877 C31.0113445,51.81 30.4991597,49.9589506 29.8130252,48.4858642 C28.7596639,46.2083951 27.6289916,43.9793827 26.3630252,41.8085185 C24.4297204,38.3949912 22.1041978,35.2204206 19.4340336,32.3497531 C16.3408586,28.8174683 12.2654362,26.2930353 7.73109244,25.1006173 C6.5907563,24.8292593 -0.328571429,23.1623457 0.850420168,26.2635802 C1.07085726,26.7366632 1.40247407,27.1490379 1.81680672,27.4653086 C5.68235294,30.7603704 10.1663866,32.9021605 14.3798319,35.7223457 C20.6226891,39.9477778 28.2088235,49.7360494 31.339916,53.9905556 L32.8281513,56.7719753 C27.1747899,49.5422222 16.9021008,44.3282716 12.939916,45.4524691 C8.03067227,46.8383333 17.539916,50.5210494 25.5705882,54.0002469 C29.1789795,55.4381653 32.3833012,57.7368044 34.9058824,60.6969753 C36.1815126,63.1198148 37.6021008,65.8430864 39.0226891,68.6245062 C39.1869748,69.0412346 39.3415966,69.4482716 39.5058824,69.8553086 C38.4615854,68.1533326 37.2191018,66.5819831 35.8046218,65.1743827 C31.987395,61.5691975 20.487395,57.9349383 18.6222689,61.7145679 C16.7571429,65.4941975 25.3869748,64.9902469 32.4029412,67.2580247 C36.1816669,68.5877607 39.4588055,71.0551455 41.7865546,74.3230247 C41.9218487,74.5168519 42.047479,74.7203704 42.1827731,74.9045062 C42.8205882,76.1837654 43.4197479,77.4339506 43.989916,78.6162963 C45.3042017,81.397716 46.5605042,84.0046914 47.7878151,86.5341358 C45.8721703,82.9738397 43.4537854,79.7096878 40.607563,76.8427778 C35.002521,71.5512963 26.7689076,69.322284 23.357563,71.163642 C19.9462185,73.005 33.6882353,77.2982716 40.2306723,80.855 C43.980708,82.9835475 47.1247012,86.0397281 49.3630252,89.732284 C51.1218487,93.3083951 52.8903361,96.8069753 54.7941176,100.48 C51.4701122,96.4549116 47.8279209,92.7051302 43.9029412,89.2670988 C37.5344538,83.5007407 30.1029412,82.9774074 27.6966387,85.5359259 C25.2903361,88.0944444 31.2722689,89.1508025 42.0378151,93.2890123 C47.7031046,95.4632941 52.7011276,99.0888156 56.5336134,103.804136 C57.3453782,105.345062 58.1764706,106.924753 59.0655462,108.572284 C60.0319328,110.433025 61.2592437,112.371296 62.5542017,114.299877 C60.7953782,113.156296 58.2054622,111.489383 55.3256303,109.68679 C52.0939048,107.725393 49.0209872,105.512171 46.1352941,103.067593 C42.8109244,100.208642 38.2592437,97.0008025 33.5722689,98.2703704 C32.8658987,98.3736742 32.2417252,98.7861611 31.8684359,99.3963535 C31.4951467,100.006546 31.411278,100.751451 31.6394958,101.429753 C31.9808157,102.388247 32.6213599,103.210748 33.4659664,103.775062 C37.8726891,107.196111 43.7966387,108.843642 48.9281513,110.869136 C53.6306582,112.724718 58.4505994,114.265789 63.3563025,115.482222 C64.5739496,117.236358 65.839916,118.971111 67.1155462,120.618642 L64.8155462,120.686481 C62.0903361,120.773704 49.7978992,115.18179 43.555042,113.388889 C37.3121849,111.595988 31.4752101,114.987963 38.0176471,118.515617 C44.560084,122.043272 62.3512605,121.258272 62.3512605,121.258272 L67.4827731,121.10321 C68.6907563,122.653827 69.8697479,124.126914 70.9907563,125.474012 L46.6088235,125.474012 L46.6088235,132.257963 L51.4407563,132.257963 L55.3063025,156.379753 L87.7092437,156.379753 L91.6231092,132.257963 L96.455042,132.257963 L96.455042,125.474012 L80.3067227,125.474012 C80.1761816,122.542182 80.253688,119.604754 80.5386555,116.683951 C81.6161237,115.585201 82.8121347,114.610068 84.1046218,113.776543 C91.1978992,108.863025 103.219748,108.455988 106.418487,98.9875309 C107.191597,96.7100617 106.312185,93.7832716 103.596639,93.9092593 C101.663866,93.9964815 99.5668067,95.7215432 98.3491597,97.1267901 C94.2903361,101.827099 91.2365546,106.701852 85.960084,110.268272 C84.1473099,111.665787 82.405623,113.153667 80.7415966,114.726296 C80.9252101,113.18537 81.1571429,111.53784 81.4567227,109.774012 C82.7317491,107.506237 84.1859858,105.344603 85.8054622,103.309877 C90.1252101,97.9311728 96.6966387,94.7814815 101.364286,89.6547531 C102.794538,88.0847531 104.678992,82.4443827 100.310924,83.8399383 C98.3781513,84.4601852 96.0781513,87.4160494 94.512605,88.7631481 C90.2121849,92.6396914 85.8151261,96.7682099 83.012605,101.865864 C83.1285714,101.361914 83.2542017,100.896728 83.3701681,100.354012 C86.3850506,95.505995 89.7814354,90.9073454 93.5268908,86.6019753 C99.7310924,79.527284 106.089916,74.8948148 106.196218,71.0182716 C106.302521,67.1417284 98.3008403,73.6349383 91.5071429,82.5122222 C88.425337,86.5846804 86.0352069,91.1395017 84.4331933,95.9929012 C85.6798319,90.9727778 87.0037815,85.8945062 88.2987395,81.0294444 C89.1878151,78.6066049 91.8260504,72.3072222 96.6869748,67.9364198 C102.823529,62.4414198 107.790756,57.9058642 108.670168,52.4302469 C109.54958,46.9546296 107.085294,48.6893827 101.644538,56.7719753 Z M67.3281513,119.10679 C66.410084,117.856605 65.4533613,116.499815 64.4289916,114.997654 C63.8188158,112.449747 63.4116501,109.857213 63.2113445,107.244568 C63.0875464,105.020479 63.191168,102.789523 63.5205882,100.586605 C65.1698912,102.634821 66.9212812,104.598206 68.7680672,106.469259 C68.7239996,108.406872 68.4876801,110.335271 68.062605,112.225926 C67.7006496,114.505447 67.4555097,116.802085 67.3281513,119.10679 Z M72.5852941,125.493395 C71.3386555,124.165679 69.9760504,122.585988 68.497479,120.647716 C68.5346042,119.110481 68.7453326,117.582418 69.1256303,116.092778 C69.7157091,113.744164 70.564927,111.468806 71.657563,109.308827 C73.9478992,111.489383 75.6294118,112.933395 75.6294118,112.933395 L79.494958,116.335062 C79.1953782,119.717346 79.0214286,122.896111 78.9151261,125.474012 L72.5852941,125.493395 Z M79.5432773,115.743889 L77.8134454,114.222346 C76.8470588,113.350123 75.107563,109.977531 73.2134454,106.091296 C74.021378,104.456048 74.7376192,102.776829 75.3588235,101.061481 C77.407563,104.870185 79.2243697,107.845432 80.2970588,109.425123 C79.9878151,111.528148 79.7462185,113.669938 79.5432773,115.743889 L79.5432773,115.743889 Z" id="Shape" fill="#FFFFFF" opacity="0.5"></path>
                    </g>
                    <g id="freepik--Frames--inject-1--inject-52" transform="translate(64.000000, 12.000000)" fill-rule="nonzero">
                        <path d="M0.531498471,0.25168 L0.531498471,98.40688 L74.9412844,98.40688 L74.9412844,0.25168 L0.531498471,0.25168 Z M69.7809174,91.56312 L5.73051988,91.56312 L5.73051988,7.10512 L69.7809174,7.10512 L69.7809174,91.56312 Z" id="Shape" fill="#3087DF"></path>
                        <path d="M0.531498471,0.25168 L0.531498471,98.40688 L74.9412844,98.40688 L74.9412844,0.25168 L0.531498471,0.25168 Z M69.7809174,91.56312 L5.73051988,91.56312 L5.73051988,7.10512 L69.7809174,7.10512 L69.7809174,91.56312 Z" id="Shape" fill="#FFFFFF" opacity="0.5"></path>
                        <path d="M260.917431,48.13864 L260.917431,120.62248 L315.884037,120.62248 L315.884037,48.13864 L260.917431,48.13864 Z M312.047584,115.55984 L264.782875,115.55984 L264.782875,53.24 L312.076575,53.24 L312.047584,115.55984 Z" id="Shape" fill="#3087DF"></path>
                        <path d="M260.917431,48.13864 L260.917431,120.62248 L315.884037,120.62248 L315.884037,48.13864 L260.917431,48.13864 Z M312.047584,115.55984 L264.782875,115.55984 L264.782875,53.24 L312.076575,53.24 L312.047584,115.55984 Z" id="Shape" fill="#FFFFFF" opacity="0.5"></path>
                    </g>
                    <g id="freepik--Device--inject-1--inject-52" transform="translate(0.000000, 39.000000)">
                        <path d="M10.4261111,264.858618 C13.2018939,255.456727 41.9559091,157.723491 41.8591919,156.988364 C41.7624747,156.253236 44.2094192,143.127345 49.9350758,132.187491 C55.6607323,121.247636 63.6108838,109.06 64.6070707,107.5704 C66.1230783,105.143141 67.1360813,102.436035 67.5859596,99.6097455 C68.3306818,95.6342545 76.2905051,84.6847273 78.7761364,81.7055273 C81.2617677,78.7263273 88.7186616,63.0565091 89.2215909,60.5706182 C89.7245202,58.0847273 92.6937374,56.0921455 96.6784848,55.3473455 C100.663232,54.6025455 106.127753,53.8577455 106.127753,53.8577455 C107.139041,55.0480019 107.748356,56.5274375 107.868662,58.0847273 C107.868662,60.3191273 98.9126515,113.780291 98.4193939,122.737236 C97.9261364,131.694182 99.1641162,136.656291 95.1890404,145.864727 C91.2139646,155.073164 79.5208586,160.780073 73.8048737,164.513745 C68.0888889,168.247418 68.5241162,169.021236 68.5241162,169.021236 C68.5241162,169.021236 71.7544697,258.522982 71.677096,265.555055" id="Path" fill="#FFFFFF" fill-rule="nonzero"></path>
                        <path d="M111.505227,112.503491 C110.470354,107.870255 103.767854,110.4432 103.767854,110.4432 C99.203629,115.396851 93.5845184,119.26122 87.3259343,121.750618 C76.8501716,125.71234 66.7267695,130.549689 57.0631313,136.211345 C58.1657071,133.996291 59.365,131.761891 60.6610101,129.440436 C67.3441667,117.620364 79.1630051,101.689382 85.8074747,99.6290909 C89.9082828,98.3716364 93.9994192,100.9736 96.5527525,103.178982 L96.842904,55.2989818 L96.6784848,55.2989818 C92.6937374,56.0437818 89.7148485,58.0363636 89.2215909,60.5222545 C88.7283333,63.0081455 81.2617677,78.6682909 78.7761364,81.6571636 C76.2905051,84.6460364 68.3306818,95.5858909 67.5859596,99.5613818 C67.1360813,102.387672 66.1230783,105.094777 64.6070707,107.522036 C63.639899,109.011636 55.6510606,121.1896 49.9350758,132.139127 C44.2190909,143.088655 41.7624747,156.1952 41.8591919,156.94 C41.9268939,157.481673 30.8624495,197.565455 23.8311111,222.791927 C29.6341414,211.378109 38.6578535,192.912873 44.1417172,179.264655 C46.2985101,179.051855 50.4766919,173.209527 53.9391667,168.450545 C58.0496465,162.801673 64.2105303,161.254036 76.5516414,152.006909 C88.8927525,142.759782 102.752323,129.904727 104.812399,124.768509 C106.872475,119.632291 112.530429,117.127055 111.505227,112.503491 Z" id="Path" fill="#3087DF" fill-rule="nonzero" opacity="0.7" style="mix-blend-mode: multiply;"></path>
                        <path d="M10.4261111,264.858618 C13.2018939,255.456727 41.9559091,157.723491 41.8591919,156.988364 C41.7624747,156.253236 44.2094192,143.127345 49.9350758,132.187491 C55.6607323,121.247636 63.6108838,109.06 64.6070707,107.5704 C66.1230783,105.143141 67.1360813,102.436035 67.5859596,99.6097455 C68.3306818,95.6342545 76.2905051,84.6847273 78.7761364,81.7055273 C81.2617677,78.7263273 88.7186616,63.0565091 89.2215909,60.5706182 C89.7245202,58.0847273 92.6937374,56.0921455 96.6784848,55.3473455 C100.663232,54.6025455 106.127753,53.8577455 106.127753,53.8577455 C107.139041,55.0480019 107.748356,56.5274375 107.868662,58.0847273 C107.868662,60.3191273 98.9126515,113.780291 98.4193939,122.737236 C97.9261364,131.694182 99.1641162,136.656291 95.1890404,145.864727 C91.2139646,155.073164 79.5208586,160.780073 73.8048737,164.513745 C68.0888889,168.247418 68.5241162,169.021236 68.5241162,169.021236 C68.5241162,169.021236 71.7544697,258.522982 71.677096,265.555055" id="Path" stroke="#2E353A" stroke-linecap="round" stroke-linejoin="round"></path>
                        <path d="M96.1755556,114.776582 C96.1755556,114.776582 93.4481313,114.525091 90.7110354,109.553309" id="Path" stroke="#2E353A" stroke-linecap="round" stroke-linejoin="round"></path>
                        <path d="M93.1966667,82.7018182 C93.1966667,82.7018182 100.93404,84.1914182 101.901212,90.6528" id="Path" stroke="#2E353A" stroke-linecap="round" stroke-linejoin="round"></path>
                        <path d="M95.682298,62.5535273 C99.1438518,65.1877244 101.315231,69.1754553 101.649747,73.5127273" id="Path" stroke="#2E353A" stroke-linecap="round" stroke-linejoin="round"></path>
                        <path d="M346.392555,114.795927 L345.783232,11.5202182 C345.777894,5.25237083 340.695831,0.174109091 334.428636,0.174109091 L108.448965,0.174109091 C102.183336,0.174109091 97.1040404,5.25393516 97.1040404,11.5202182 L96.4850464,114.795927 C96.4824815,117.836674 97.6891496,120.753618 99.8390584,122.903751 C101.988967,125.053884 104.905606,126.260678 107.946035,126.258113 L334.931566,126.258113 C337.971995,126.260678 340.888634,125.053884 343.038543,122.903751 C345.188451,120.753618 346.39512,117.836674 346.392555,114.795927 Z" id="Path" stroke="#363636" stroke-width="0.868674" fill="#2E353A" fill-rule="nonzero" stroke-linecap="round" stroke-linejoin="round"></path>
                        <polygon id="Path" stroke="#363636" stroke-width="0.651505" fill="#FFFFFF" fill-rule="nonzero" stroke-linecap="round" stroke-linejoin="round" points="333.693586 120.647927 333.200328 5.72625455 109.677273 5.72625455 109.193687 120.647927"></polygon>
                        <polygon id="Path" stroke="#2E353A" fill="#3087DF" fill-rule="nonzero" stroke-linecap="round" stroke-linejoin="round" points="333.200328 5.72625455 109.677273 5.72625455 109.657929 11.4621818 131.129141 11.4621818 136.622677 19.3164364 333.258359 19.3164364"></polygon>
                        <polygon id="Path" fill="#3087DF" fill-rule="nonzero" opacity="0.5" style="mix-blend-mode: multiply;" points="333.200328 28.5925818 176.083283 120.647927 333.693586 120.647927"></polygon>
                        <ellipse id="Oval" fill="#FFFFFF" fill-rule="nonzero" transform="translate(339.451515, 63.133722) rotate(-89.260000) translate(-339.451515, -63.133722) " cx="339.451515" cy="63.1337219" rx="1.73141815" ry="1.7312374"></ellipse>
                        <ellipse id="Oval" stroke="#2E353A" fill="#3087DF" fill-rule="nonzero" stroke-linecap="round" stroke-linejoin="round" cx="126.892929" cy="38.4587636" rx="9.25583333" ry="9.2568"></ellipse>
                        <ellipse id="Oval" stroke="#2E353A" fill="#FFFFFF" fill-rule="nonzero" stroke-linecap="round" stroke-linejoin="round" cx="126.892929" cy="76.5209455" rx="9.25583333" ry="9.2568"></ellipse>
                        <ellipse id="Oval" stroke="#2E353A" fill="#FFFFFF" fill-rule="nonzero" stroke-linecap="round" stroke-linejoin="round" cx="190.14596" cy="38.4587636" rx="9.25583333" ry="9.2568"></ellipse>
                        <ellipse id="Oval" stroke="#2E353A" fill="#3087DF" fill-rule="nonzero" stroke-linecap="round" stroke-linejoin="round" cx="190.14596" cy="76.5209455" rx="9.25583333" ry="9.2568"></ellipse>
                        <ellipse id="Oval" stroke="#2E353A" fill="#3087DF" fill-rule="nonzero" stroke-linecap="round" stroke-linejoin="round" cx="253.408662" cy="38.4587636" rx="9.25583333" ry="9.2568"></ellipse>
                        <ellipse id="Oval" stroke="#2E353A" stroke-width="2" fill="#3087DF" fill-rule="nonzero" stroke-linecap="round" stroke-linejoin="round" cx="253.408662" cy="76.5209455" rx="9.25583333" ry="9.2568"></ellipse>
                        <ellipse id="Oval" stroke="#2E353A" fill="#3087DF" fill-rule="nonzero" stroke-linecap="round" stroke-linejoin="round" cx="316.661692" cy="38.4587636" rx="9.25583333" ry="9.2568"></ellipse>
                        <ellipse id="Oval" stroke="#2E353A" fill="#FFFFFF" fill-rule="nonzero" stroke-linecap="round" stroke-linejoin="round" cx="316.661692" cy="76.5209455" rx="9.25583333" ry="9.2568"></ellipse>
                        <path d="M142.976995,50.9946182 L173.297828,50.9946182" id="Path" stroke="#2E353A" stroke-linecap="round" stroke-linejoin="round"></path>
                        <path d="M142.976995,57.988 L173.297828,57.988" id="Path" stroke="#2E353A" stroke-linecap="round" stroke-linejoin="round"></path>
                        <path d="M142.976995,64.9910545 L173.297828,64.9910545" id="Path" stroke="#2E353A" stroke-linecap="round" stroke-linejoin="round"></path>
                        <path d="M205.369242,50.9946182 L235.690076,50.9946182" id="Path" stroke="#2E353A" stroke-linecap="round" stroke-linejoin="round"></path>
                        <path d="M205.369242,57.988 L235.690076,57.988" id="Path" stroke="#2E353A" stroke-linecap="round" stroke-linejoin="round"></path>
                        <path d="M205.369242,64.9910545 L235.690076,64.9910545" id="Path" stroke="#2E353A" stroke-linecap="round" stroke-linejoin="round"></path>
                        <path d="M271.842955,50.9946182 L302.163788,50.9946182" id="Path" stroke="#2E353A" stroke-linecap="round" stroke-linejoin="round"></path>
                        <path d="M271.842955,57.988 L302.163788,57.988" id="Path" stroke="#2E353A" stroke-linecap="round" stroke-linejoin="round"></path>
                        <path d="M271.842955,64.9910545 L302.163788,64.9910545" id="Path" stroke="#2E353A" stroke-linecap="round" stroke-linejoin="round"></path>
                        <path d="M142.976995,90.5947636 L173.297828,90.5947636" id="Path" stroke="#2E353A" stroke-linecap="round" stroke-linejoin="round"></path>
                        <path d="M142.976995,97.5978182 L173.297828,97.5978182" id="Path" stroke="#2E353A" stroke-linecap="round" stroke-linejoin="round"></path>
                        <path d="M142.976995,104.5912 L173.297828,104.5912" id="Path" stroke="#2E353A" stroke-linecap="round" stroke-linejoin="round"></path>
                        <path d="M205.369242,90.5947636 L235.690076,90.5947636" id="Path" stroke="#2E353A" stroke-linecap="round" stroke-linejoin="round"></path>
                        <path d="M205.369242,97.5978182 L235.690076,97.5978182" id="Path" stroke="#2E353A" stroke-linecap="round" stroke-linejoin="round"></path>
                        <path d="M205.369242,104.5912 L235.690076,104.5912" id="Path" stroke="#2E353A" stroke-linecap="round" stroke-linejoin="round"></path>
                        <path d="M271.842955,90.5947636 L302.163788,90.5947636" id="Path" stroke="#2E353A" stroke-linecap="round" stroke-linejoin="round"></path>
                        <path d="M271.842955,97.5978182 L302.163788,97.5978182" id="Path" stroke="#2E353A" stroke-linecap="round" stroke-linejoin="round"></path>
                        <path d="M271.842955,104.5912 L302.163788,104.5912" id="Path" stroke="#2E353A" stroke-linecap="round" stroke-linejoin="round"></path>
                        <path d="M235.14846,76.9949091 L240.89346,76.9949091" id="Path" stroke="#2E353A" fill="#FFFFFF" fill-rule="nonzero" stroke-linecap="round" stroke-linejoin="round"></path>
                        <path d="M254.01798,65.5133818 L254.01798,58.3362182" id="Path" stroke="#2E353A" fill="#FFFFFF" fill-rule="nonzero" stroke-linecap="round" stroke-linejoin="round"></path>
                        <path d="M241.299672,66.3355636 L244.994268,69.2083636" id="Path" stroke="#2E353A" fill="#FFFFFF" fill-rule="nonzero" stroke-linecap="round" stroke-linejoin="round"></path>
                        <path d="M245.816364,84.3752 L241.299672,86.8417455" id="Path" stroke="#2E353A" fill="#FFFFFF" fill-rule="nonzero" stroke-linecap="round" stroke-linejoin="round"></path>
                        <path d="M273.293712,76.9949091 L267.548712,76.9949091" id="Path" stroke="#2E353A" fill="#FFFFFF" fill-rule="nonzero" stroke-linecap="round" stroke-linejoin="round"></path>
                        <path d="M267.132828,66.3355636 L263.447904,69.2083636" id="Path" stroke="#2E353A" fill="#FFFFFF" fill-rule="nonzero" stroke-linecap="round" stroke-linejoin="round"></path>
                        <path d="M249.549646,96.0114909 L254.385505,113.286982" id="Path" stroke="#2E353A" stroke-linecap="round" stroke-linejoin="round"></path>
                        <path d="M244.704116,93.9318545 L247.470227,102.917818" id="Path" stroke="#2E353A" stroke-linecap="round" stroke-linejoin="round"></path>
                        <path d="M363.888687,258.455273 C363.888687,258.455273 340.918359,216.088727 337.649318,208.660073 C334.380278,201.231418 331.91399,189.527418 331.111237,186.316073 C329.950149,182.547845 329.843112,178.53356 330.801742,174.7088 C332.010707,169.292073 331.295,153.835055 331.836616,150.285164 C332.378232,146.735273 330.182753,135.630982 328.935101,129.411418 C327.687449,123.191855 324.863308,118.771418 321.052652,118.287782 C318.80173,118.018232 316.5653,118.89329 315.094874,120.618909 C315.094874,120.618909 313.508712,107.376945 311.970909,104.629891 C310.433106,101.882836 305.423157,102.279418 302.744091,102.937164 C300.065025,103.594909 298.778687,112.164945 298.778687,112.164945 C298.778687,112.164945 296.457475,103.933455 296.389773,100.257818 C296.322071,96.5821818 291.853737,93.4192 288.371919,94.2897455 C284.890101,95.1602909 283.013788,96.7562909 282.06596,104.3784 C281.118131,112.000509 282.907399,123.791564 282.907399,123.791564 L281.098788,124.526691 C281.098788,124.526691 274.580051,101.699055 272.510303,95.6729455 C270.440556,89.6468364 268.448182,82.7501818 267.055455,78.2620364 C265.662727,73.7738909 263.59298,66.6547636 257.896338,67.7477818 C252.199697,68.8408 253.602096,81.2896 253.602096,81.2896 C253.602096,81.2896 262.509747,119.438836 262.97399,122.447055 C263.438232,125.455273 264.908333,135.901818 264.618182,139.384 C264.32803,142.866182 264.337702,151.958545 264.337702,151.958545 L255.855606,141.840873 C254.810515,139.103382 253.491696,136.47843 251.919217,134.005964 C249.017702,129.324364 242.566667,124.961964 238.378813,126.267782 C234.19096,127.5736 237.498687,131.887636 239.229924,134.296145 C240.961162,136.704655 242.363561,143.465891 242.363561,146.870691 C242.363561,150.275491 245.265076,152.674327 248.766237,158.922909 C252.267399,165.171491 269.840909,186.761018 272.500631,190.649455 C274.470202,193.262315 276.947372,195.450216 279.783434,197.081818 C279.783434,197.081818 289.938737,205.932364 294.677879,216.978618 C299.41702,228.024873 313.953611,259.741745 313.953611,259.741745" id="Path" fill="#FFFFFF" fill-rule="nonzero"></path>
                        <path d="M329.109192,248.376291 C333.858005,244.023564 335.037955,208.8632 334.438308,195.776 C334.438308,195.6696 334.438308,195.543855 334.438308,195.427782 C332.745758,191.055709 331.430404,187.505818 331.130581,186.316073 C329.969492,182.547845 329.862456,178.53356 330.821086,174.7088 C332.030051,169.292073 331.314343,153.835055 331.85596,150.285164 C332.175126,148.186182 331.527121,143.407855 330.695354,138.571491 C327.252222,138.271636 320.946263,141.376582 320.946263,141.376582 C320.946263,141.376582 315.975,134.141382 312.734975,133.889891 C309.494949,133.6384 303.875682,138.726255 303.875682,138.726255 C303.875682,138.726255 300.655,127.873455 294.039545,128.985818 C287.424091,130.098182 285.567121,128.985818 282.955758,129.101891 C280.344394,129.217964 278.226288,122.862982 275.614924,116.624073 C273.003561,110.385164 269.260606,87.0545455 267.045783,82.2181818 C267.045783,82.2181818 263.573636,72.4874182 259.076288,75.7277818 C254.578939,78.9681455 258.80548,89.5597818 260.913914,95.9147636 C263.022348,102.269745 264.153939,114.341309 265.865833,120.096582 C267.800177,126.5096 266.833005,136.037236 268.602929,143.020945 C270.372854,150.004655 274.918561,152.268073 272.413586,161.399127 C269.908611,170.530182 264.434419,167.618691 258.331566,162.250327 C252.228712,156.881964 249.211136,144.587927 245.758333,145.806691 C244.561892,146.109517 243.405969,146.554399 242.315202,147.131855 C242.392576,150.478618 245.216717,152.935491 248.717879,159.048655 C252.21904,165.161818 269.840909,186.761018 272.500631,190.649455 C274.470202,193.262315 276.947372,195.450216 279.783434,197.081818 C279.783434,197.081818 289.938737,205.932364 294.677879,216.978618 C295.52899,218.961527 296.88303,221.892364 298.546566,225.374545 C300.480909,226.922182 296.380101,219.570909 297.38596,220.789673 C304.08846,228.6536 324.370051,252.738691 329.109192,248.376291 Z" id="Path" fill="#3087DF" fill-rule="nonzero" opacity="0.7" style="mix-blend-mode: multiply;"></path>
                        <path d="M363.888687,258.455273 C363.888687,258.455273 340.918359,216.088727 337.649318,208.660073 C334.380278,201.231418 331.91399,189.527418 331.111237,186.316073 C329.950149,182.547845 329.843112,178.53356 330.801742,174.7088 C332.010707,169.292073 331.295,153.835055 331.836616,150.285164 C332.378232,146.735273 330.182753,135.630982 328.935101,129.411418 C327.687449,123.191855 324.863308,118.771418 321.052652,118.287782 C318.80173,118.018232 316.5653,118.89329 315.094874,120.618909 C315.094874,120.618909 313.508712,107.376945 311.970909,104.629891 C310.433106,101.882836 305.423157,102.279418 302.744091,102.937164 C300.065025,103.594909 298.778687,112.164945 298.778687,112.164945 C298.778687,112.164945 296.457475,103.933455 296.389773,100.257818 C296.322071,96.5821818 291.853737,93.4192 288.371919,94.2897455 C284.890101,95.1602909 283.013788,96.7562909 282.06596,104.3784 C281.118131,112.000509 282.907399,123.791564 282.907399,123.791564 L281.098788,124.526691 C281.098788,124.526691 274.580051,101.699055 272.510303,95.6729455 C270.440556,89.6468364 268.448182,82.7501818 267.055455,78.2620364 C265.662727,73.7738909 263.59298,66.6547636 257.896338,67.7477818 C252.199697,68.8408 253.602096,81.2896 253.602096,81.2896 C253.602096,81.2896 262.509747,119.438836 262.97399,122.447055 C263.438232,125.455273 264.908333,135.901818 264.618182,139.384 C264.32803,142.866182 264.337702,151.958545 264.337702,151.958545 L255.855606,141.840873 C254.810515,139.103382 253.491696,136.47843 251.919217,134.005964 C249.017702,129.324364 242.566667,124.961964 238.378813,126.267782 C234.19096,127.5736 237.498687,131.887636 239.229924,134.296145 C240.961162,136.704655 242.363561,143.465891 242.363561,146.870691 C242.363561,150.275491 245.265076,152.674327 248.766237,158.922909 C252.267399,165.171491 269.840909,186.761018 272.500631,190.649455 C274.470202,193.262315 276.947372,195.450216 279.783434,197.081818 C279.783434,197.081818 289.938737,205.932364 294.677879,216.978618 C299.41702,228.024873 313.953611,259.741745 313.953611,259.741745" id="Path" stroke="#2E353A" stroke-linecap="round" stroke-linejoin="round"></path>
                        <path d="M254.878763,70.5141818 C254.878763,70.5141818 255.93298,77.0529455 256.136086,77.8751273 C256.590657,79.7226182 264.231313,78.8424 264.840631,77.4205091 C265.382247,76.1533818 264.985707,73.4063273 264.985707,73.4063273" id="Path" stroke="#2E353A" stroke-linecap="round" stroke-linejoin="round"></path>
                        <path d="M241.792929,134.596 C243.102441,133.265167 243.300193,131.198639 242.266843,129.643564 C240.467904,126.964218 239.462045,126.364509 239.462045,126.364509" id="Path" stroke="#2E353A" stroke-linecap="round" stroke-linejoin="round"></path>
                        <path d="M263.718712,108.402255 C263.718712,108.402255 267.132828,109.543636 270.343838,105.336" id="Path" stroke="#2E353A" stroke-width="0.75" stroke-linecap="round" stroke-linejoin="round"></path>
                        <path d="M264.124924,105.432727 C264.124924,105.432727 268.680303,102.018255 272.162121,102.298764" id="Path" stroke="#2E353A" stroke-width="0.75" stroke-linecap="round" stroke-linejoin="round"></path>
                        <path d="M259.405126,87.5865455 C259.405126,87.5865455 262.819242,84.1817455 265.556338,84.9168727" id="Path" stroke="#2E353A" stroke-width="0.75" stroke-linecap="round" stroke-linejoin="round"></path>
                        <path d="M262.616136,86.7837091 C264.019529,87.0197329 265.457112,86.9537818 266.833005,86.5902545" id="Path" stroke="#2E353A" stroke-width="0.75" stroke-linecap="round" stroke-linejoin="round"></path>
                        <path d="M298.769015,112.193964 L300.567955,122.843636" id="Path" stroke="#2E353A" stroke-linecap="round" stroke-linejoin="round"></path>
                        <path d="M315.085202,120.647927 L317.009874,131.8296" id="Path" stroke="#2E353A" stroke-linecap="round" stroke-linejoin="round"></path>
                        <path d="M264.32803,152.026255 C264.32803,152.026255 263.844444,160.393164 264.647197,163.633527" id="Path" stroke="#2E353A" stroke-linecap="round" stroke-linejoin="round"></path>
                        <path d="M300.577626,128.511855 C300.577626,128.511855 302.560328,133.764145 302.076742,137.217309" id="Path" stroke="#2E353A" stroke-width="0.75" stroke-linecap="round" stroke-linejoin="round"></path>
                        <path d="M316.797096,133.938255 C316.797096,133.938255 318.141465,136.646618 317.338712,141.579709" id="Path" stroke="#2E353A" stroke-width="0.75" stroke-linecap="round" stroke-linejoin="round"></path>
                        <path d="M86.9777525,118.752073 C86.9777525,118.752073 95.1890404,117.262473 99.6573737,111.797382 C104.125707,106.332291 114.822626,99.3582545 118.304444,98.1201455 C121.786263,96.8820364 127.260455,96.6208727 129.252828,98.3619636 C131.245202,100.103055 132.231717,104.330036 129.252828,109.311491 C126.273939,114.292945 114.126263,118.974545 111.592273,121.237964 C109.058283,123.501382 106.872475,124.971636 103.854899,131.684509 C100.917708,138.187521 96.6893771,144.025531 91.4267424,148.843927 C86.6972727,153.070909 78.002399,160.286764 73.5243939,163.014473" id="Path" fill="#FFFFFF" fill-rule="nonzero"></path>
                        <path d="M111.505227,112.503491 C110.470354,107.870255 103.767854,110.4432 103.767854,110.4432 C99.203629,115.396851 93.5845184,119.26122 87.3259343,121.750618 C76.8501716,125.71234 66.7267695,130.549689 57.0631313,136.211345 C58.1657071,133.996291 59.365,131.761891 60.6610101,129.440436 C67.3441667,117.620364 79.1630051,101.689382 85.8074747,99.6290909 C89.9082828,98.3716364 93.9994192,100.9736 96.5527525,103.178982 L96.842904,55.2989818 L96.6784848,55.2989818 C92.6937374,56.0437818 89.7148485,58.0363636 89.2215909,60.5222545 C88.7283333,63.0081455 81.2617677,78.6682909 78.7761364,81.6571636 C76.2905051,84.6460364 68.3306818,95.5858909 67.5859596,99.5613818 C67.1360813,102.387672 66.1230783,105.094777 64.6070707,107.522036 C63.639899,109.011636 55.6510606,121.1896 49.9350758,132.139127 C44.2190909,143.088655 41.7624747,156.1952 41.8591919,156.94 C41.9268939,157.481673 30.8624495,197.565455 23.8311111,222.791927 C29.6341414,211.378109 38.6578535,192.912873 44.1417172,179.264655 C46.2985101,179.051855 50.4766919,173.209527 53.9391667,168.450545 C58.0496465,162.801673 64.2105303,161.254036 76.5516414,152.006909 C88.8927525,142.759782 102.752323,129.904727 104.812399,124.768509 C106.872475,119.632291 112.530429,117.127055 111.505227,112.503491 Z" id="Path" fill="#3087DF" fill-rule="nonzero" opacity="0.7" style="mix-blend-mode: multiply;"></path>
                        <path d="M86.9777525,118.752073 C86.9777525,118.752073 95.1890404,117.262473 99.6573737,111.797382 C104.125707,106.332291 114.822626,99.3582545 118.304444,98.1201455 C121.786263,96.8820364 127.260455,96.6208727 129.252828,98.3619636 C131.245202,100.103055 132.231717,104.330036 129.252828,109.311491 C126.273939,114.292945 114.126263,118.974545 111.592273,121.237964 C109.058283,123.501382 106.872475,124.971636 103.854899,131.684509 C100.917708,138.187521 96.6893771,144.025531 91.4267424,148.843927 C86.6972727,153.070909 78.002399,160.286764 73.5243939,163.014473" id="Path" stroke="#2E353A" stroke-linecap="round" stroke-linejoin="round"></path>
                        <path d="M129.494621,107.367273 C128.005177,109.601673 124.271894,109.853164 124.271894,109.853164 C124.271894,109.853164 122.782449,106.622473 121.786263,104.629891 C121.010397,103.289079 119.896581,102.175146 118.555909,101.3992 C118.555909,101.3992 119.803561,98.1685091 122.289192,98.1685091" id="Path" stroke="#2E353A" stroke-linecap="round" stroke-linejoin="round"></path>
                        <path d="M32.1584596,169.195345 C41.3344419,167.207493 50.7331612,166.443158 60.1097222,166.922255 C75.9810101,167.6864 79.7529798,176.749745 79.7529798,176.749745 L78.9985859,197.149527 C78.9985859,197.149527 70.6905808,191.104073 53.3105051,188.840655 C35.9304293,186.577236 26.8680303,188.086182 26.8680303,188.086182 L32.1584596,169.195345 Z" id="Path" stroke="#2E353A" fill="#FFFFFF" fill-rule="nonzero" stroke-linecap="round" stroke-linejoin="round"></path>
                        <path d="M79.9077273,264.384655 L83.9988636,198.909964 C57.5563889,183.037018 26.8680303,188.086182 26.8680303,188.086182 L0.754393939,264.384655 L79.9077273,264.384655 Z" id="Path" stroke="#2E353A" fill="#2E353A" fill-rule="nonzero" stroke-linecap="round" stroke-linejoin="round"></path>
                        <path d="M286.282828,214.086473 C286.282828,214.086473 288.865177,203.775345 303.043914,195.389091 C317.222652,187.002836 338.510101,190.233527 338.510101,190.233527 L341.730783,198.610109 C341.730783,198.610109 324.321692,197.971709 311.429293,205.061818 C298.536894,212.151927 292.085859,220.538182 292.085859,220.538182 L286.282828,214.086473 Z" id="Path" stroke="#2E353A" fill="#FFFFFF" fill-rule="nonzero" stroke-linecap="round" stroke-linejoin="round"></path>
                        <path d="M382.274621,264.384655 L344.013308,195.979127 C344.013308,195.979127 329.505732,192.168073 312.096641,199.258182 C294.687551,206.348291 287.58851,219.890109 287.58851,219.890109 L294.91,264.384655 L382.274621,264.384655 Z" id="Path" stroke="#2E353A" fill="#2E353A" fill-rule="nonzero" stroke-linecap="round" stroke-linejoin="round"></path>
                        <path d="M295.896515,221.960073 C296.380101,224.039709 295.799798,225.954909 294.581162,226.235418 C293.362525,226.515927 291.989141,225.065018 291.505556,222.985382 C291.02197,220.905745 291.602273,218.990545 292.811237,218.710036 C294.020202,218.429527 295.403258,219.880436 295.896515,221.960073 Z" id="Path" fill="#FFFFFF" fill-rule="nonzero"></path>
                    </g>
                </g>
            </g>
        </g>
    </g>
</svg>