<?xml version="1.0" encoding="UTF-8"?>
<svg width="261px" height="228px" viewBox="0 0 261 228" version="1.1" xmlns="http://www.w3.org/2000/svg" xmlns:xlink="http://www.w3.org/1999/xlink">
    <!-- Generator: Sketch 57.1 (83088) - https://sketch.com -->
    <title>Create-bro</title>
    <desc>Created with Sketch.</desc>
    <g id="Webdesign-quick-fix" stroke="none" stroke-width="1" fill="none" fill-rule="evenodd">
        <g id="Features/Services---UI" transform="translate(-376.000000, -3032.000000)">
            <g id="Visit-our-lab-" transform="translate(377.000000, 3033.000000)">
                <g id="Create-bro">
                    <g id="freepik--background-simple--inject-1" transform="translate(1.850000, 31.384615)" fill-rule="nonzero">
                        <path d="M243.226647,193.784615 L13.5832518,193.784615 C13.5832518,193.784615 6.29151528,181.538462 1.23484108,156.923077 C-3.82183313,132.307692 20.2760905,141.292308 26.4379474,120.073846 C32.5998044,98.8553846 5.71731418,103.329231 7.95855073,74.2953846 C10.1997873,45.2615385 47.1647549,44.7076923 65.0884731,48.6153846 C83.0121913,52.5230769 80.7709548,39.1261538 101.516285,16.7938462 C122.261615,-5.53846154 153.608056,-3.30461538 169.290537,14.0061538 C184.973019,31.3169231 179.928693,49.1753846 199.544144,49.1753846 C219.159594,49.1753846 237.089487,53.1015385 248.820477,90.5046154 C260.551467,127.907692 239.083755,145.003077 239.47273,161.889231 C239.793942,172.60939 241.04998,183.281395 243.226647,193.784615 Z" id="Path" fill="#3087DF"></path>
                        <path d="M243.226647,193.784615 L13.5832518,193.784615 C13.5832518,193.784615 6.29151528,181.538462 1.23484108,156.923077 C-3.82183313,132.307692 20.2760905,141.292308 26.4379474,120.073846 C32.5998044,98.8553846 5.71731418,103.329231 7.95855073,74.2953846 C10.1997873,45.2615385 47.1647549,44.7076923 65.0884731,48.6153846 C83.0121913,52.5230769 80.7709548,39.1261538 101.516285,16.7938462 C122.261615,-5.53846154 153.608056,-3.30461538 169.290537,14.0061538 C184.973019,31.3169231 179.928693,49.1753846 199.544144,49.1753846 C219.159594,49.1753846 237.089487,53.1015385 248.820477,90.5046154 C260.551467,127.907692 239.083755,145.003077 239.47273,161.889231 C239.793942,172.60939 241.04998,183.281395 243.226647,193.784615 Z" id="Path" fill="#FFFFFF" opacity="0.7"></path>
                    </g>
                    <g id="freepik--Bulb--inject-1" transform="translate(33.300000, 0.000000)" stroke="#2E353A" stroke-linecap="round" stroke-linejoin="round">
                        <path d="M75.0140357,225.169398 C69.3853571,216.657271 45.3568929,180.865831 38.3256786,179.908447 C31.4736429,178.975611 7.12389286,215.165961 0.537535714,225.169398 L75.0140357,225.169398 Z" id="Path" fill="#2E353A" fill-rule="nonzero"></path>
                        <path d="M105.826571,16.0361853 L105.826571,98.5737497" id="Path" stroke-width="3"></path>
                        <path d="M115.699929,18.2516705 L115.699929,98.5737497" id="Path" stroke-width="3"></path>
                        <path d="M126.524786,62.2054244 L126.524786,140.005165" id="Path" stroke-width="3"></path>
                        <path d="M137.986036,18.2516705 L137.986036,140.005165" id="Path" stroke-width="3"></path>
                        <path d="M149.447286,18.2516705 L149.447286,100.789235" id="Path" stroke-width="3"></path>
                        <path d="M97.2321786,27.1013372 L149.768571,27.1013372" id="Path" stroke-width="3"></path>
                        <path d="M97.2321786,45.4450639 L154.204786,45.4450639" id="Path" stroke-width="3"></path>
                        <path d="M96.2806786,62.2054244 L159.63575,62.2054244" id="Path" stroke-width="3"></path>
                        <path d="M95.323,80.8682792 L159.63575,80.8682792" id="Path" stroke-width="3"></path>
                        <path d="M107.420643,101.102226 L156.1325,101.102226" id="Path" stroke-width="3"></path>
                        <path d="M120.154679,120.710191 L151.992857,120.710191" id="Path" stroke-width="3"></path>
                        <path d="M36.3361786,23.8732341 L47.575,32.6124335" id="Path" stroke-width="2"></path>
                        <path d="M58.8138214,14.6553427 L62.7248571,20.4794299" id="Path" stroke-width="2"></path>
                        <path d="M78.8509286,0.576885349 L82.2738571,11.2554014" id="Path" stroke-width="2"></path>
                        <path d="M142.972143,137.801953 L124.436429,137.801953 L124.436429,94.0261748 L99.2896429,94.0261748 L99.2896429,16.4964661 C77.7367193,16.7078405 57.852499,28.0603341 46.820469,46.4526803 C35.788439,64.8450265 35.2033488,87.6184957 45.2765714,106.545814 C47.2907857,111.203857 52.0235714,122.612685 56.7625357,137.366221 C61.1431429,150.984397 63.4292143,164.676219 63.4292143,166.744414 C63.4292143,166.946938 63.4292143,167.155598 63.4292143,167.358122 C63.3856607,168.601948 63.8524268,169.810031 64.7225615,170.705562 C65.5926961,171.601092 66.7916149,172.10822 68.0446071,172.10822 L131.838357,172.10822 C133.090805,172.105592 134.288698,171.598839 135.158456,170.703696 C136.028214,169.808553 136.495557,168.601468 136.45375,167.358122 C136.45375,167.137187 136.45375,166.928527 136.45375,166.744414 C136.441393,164.700767 138.684214,151.27284 142.972143,137.801953 Z" id="Path" stroke-width="2" fill="#3087DF" fill-rule="nonzero"></path>
                        <path d="M78.3504643,26.3894362 C80.1383787,25.588734 81.9725132,24.8940254 83.8432143,24.3089667" id="Path" stroke-width="2"></path>
                        <path d="M57.7758214,41.9407923 C57.7758214,41.9407923 62.8113571,33.9625907 73.8771786,28.5926472" id="Path" stroke-width="2"></path>
                        <path d="M59.0980357,130.265621 C61.3902857,137.70376 64.4239643,148.007914 65.4743214,153.764494 C67.25375,163.473351 66.0921786,168.493481 69.9228929,169.358809" id="Path" stroke-width="2"></path>
                        <path d="M56.2929643,121.391406 C56.2929643,121.391406 56.9108214,123.385957 57.9055714,126.442222" id="Path" stroke-width="2"></path>
                        <path d="M96.0273571,171.512924 L96.0273571,112.842457 C96.0273571,112.842457 98.4987857,97.4997611 90.4666429,97.4997611 C82.4345,97.4997611 83.0523571,105.477963 92.3202143,114.069872 C101.588071,122.661782 115.798786,114.68358 117.652357,107.932794 C119.505929,101.182008 114.563071,98.1134689 111.473786,103.636839 C108.3845,109.16021 111.473786,171.758407 111.473786,171.758407" id="Path" stroke-width="2"></path>
                        <rect id="Rectangle" stroke-width="2" fill="#FFFFFF" fill-rule="nonzero" x="66.778" y="171.75227" width="66.6729643" height="15.3672438"></rect>
                        <rect id="Rectangle" stroke-width="2" fill="#FFFFFF" fill-rule="nonzero" x="66.778" y="190.777212" width="66.6729643" height="15.3672438"></rect>
                        <rect id="Rectangle" fill="#2E353A" fill-rule="nonzero" x="66.778" y="187.119514" width="66.6729643" height="3.6576986"></rect>
                        <rect id="Rectangle" stroke-width="2" fill="#FFFFFF" fill-rule="nonzero" x="66.778" y="209.802155" width="66.6729643" height="15.3672438"></rect>
                        <path d="M126.475357,185.063593 L131.430571,185.063593" id="Path"></path>
                        <path d="M69.3977143,185.063593 L124.090429,185.063593" id="Path"></path>
                        <path d="M113.623929,204.389252 L129.595536,204.389252" id="Path"></path>
                        <path d="M79.2957857,204.389252 L111.788893,204.389252" id="Path"></path>
                        <path d="M73.9760357,204.389252 L76.7255,204.389252" id="Path"></path>
                        <rect id="Rectangle" fill="#2E353A" fill-rule="nonzero" x="66.778" y="206.144456" width="66.6729643" height="3.6576986"></rect>
                        <rect id="Rectangle" fill="#3087DF" fill-rule="nonzero" x="75.4588929" y="213.171411" width="22.8236429" height="11.8016013"></rect>
                        <rect id="Rectangle" fill="#3087DF" fill-rule="nonzero" x="105.159286" y="213.171411" width="22.8236429" height="11.8016013"></rect>
                    </g>
                    <g id="freepik--Ground--inject-1" transform="translate(0.000000, 204.923077)" fill-rule="nonzero" stroke="#2E353A" stroke-linecap="round" stroke-linejoin="round">
                        <path d="M181.528167,20.5635165 C177.162167,16.7965714 158.520333,0.958417582 153.093667,0.545934066 C147.778,0.127384615 128.908,16.1475165 123.802,20.5635165 L181.528167,20.5635165 Z" id="Path" fill="#2E353A"></path>
                        <path d="M253.499333,20.5635165 L258.852,20.5635165" id="Path" fill="#FFFFFF"></path>
                        <path d="M8.473,20.5635165 L248.146667,20.5635165" id="Path" fill="#FFFFFF"></path>
                        <path d="M0.148,20.5635165 L4.3105,20.5635165" id="Path" fill="#FFFFFF"></path>
                    </g>
                    <g id="freepik--Trucks--inject-1" transform="translate(10.175000, 32.307692)" stroke-linecap="round" stroke-linejoin="round">
                        <polygon id="Path" stroke="#2E353A" fill="#2E353A" fill-rule="nonzero" points="232.542115 158.049231 216.518994 158.049231 216.518994 180.449231 223.156703 180.449231 232.542115 180.449231 239.185999 180.449231 239.185999 169.249231"></polygon>
                        <rect id="Rectangle" stroke="#2E353A" fill="#FFFFFF" fill-rule="nonzero" x="231.844384" y="180.449231" width="7.34161534" height="5.08923077"></rect>
                        <path d="M204.608164,180.196923 C204.608164,180.196923 212.635162,175.889231 209.856586,154.350769 L199.668474,148.812308 L182.070825,146.043077 L166.325561,146.658462 L166.325561,155.581538 C166.325561,155.581538 175.278751,163.273846 176.204943,165.735385 C176.785822,167.420081 177.098341,169.185062 177.131135,170.966154 L177.131135,179.581538 L204.608164,180.196923 Z" id="Path" stroke="#2E353A" fill="#3087DF" fill-rule="nonzero"></path>
                        <path d="M209.856586,154.350769 L204.608164,180.196923" id="Path" stroke="#2E353A"></path>
                        <path d="M199.668474,148.812308 L193.802591,180.196923" id="Path" stroke="#2E353A"></path>
                        <path d="M182.070825,146.043077 L177.748596,169.427692" id="Path" stroke="#2E353A"></path>
                        <path d="M166.943023,154.350769 C166.943023,154.350769 177.131135,158.658462 181.144633,161.427692 C185.158132,164.196923 184.540671,170.043077 184.540671,170.043077" id="Path" stroke="#2E353A"></path>
                        <rect id="Rectangle" stroke="#2E353A" fill="#FFFFFF" fill-rule="nonzero" x="168.789232" y="180.609231" width="47.8717777" height="4"></rect>
                        <polygon id="Path" stroke="#2E353A" fill="#FFFFFF" fill-rule="nonzero" points="226.219311 170.350769 236.21601 170.350769 230.850271 161.12 226.219311 161.12"></polygon>
                        <rect id="Rectangle" stroke="#2E353A" fill="#FFFFFF" fill-rule="nonzero" x="220.353428" y="161.12" width="4.32222938" height="9.23076923"></rect>
                        <rect id="Rectangle" stroke="#2E353A" fill="#FFFFFF" fill-rule="nonzero" x="169.042391" y="180.449231" width="29.1441753" height="6.93538462"></rect>
                        <ellipse id="Oval" stroke="#2E353A" fill="#2E353A" fill-rule="nonzero" transform="translate(224.705713, 187.043436) rotate(-10.240000) translate(-224.705713, -187.043436) " cx="224.705713" cy="187.043436" rx="6.13074048" ry="6.11142203"></ellipse>
                        <ellipse id="Oval" stroke="#2E353A" fill="#FFFFFF" fill-rule="nonzero" cx="224.694182" cy="187.064615" rx="3.57510116" ry="3.56307692"></ellipse>
                        <ellipse id="Oval" stroke="#2E353A" fill="#2E353A" fill-rule="nonzero" transform="translate(177.470794, 187.052604) rotate(-10.040000) translate(-177.470794, -187.052604) " cx="177.470794" cy="187.052604" rx="6.13076539" ry="6.11139704"></ellipse>
                        <ellipse id="Oval" stroke="#2E353A" fill="#FFFFFF" fill-rule="nonzero" cx="177.458389" cy="187.064615" rx="3.57510116" ry="3.56307692"></ellipse>
                        <ellipse id="Oval" stroke="#2E353A" fill="#2E353A" fill-rule="nonzero" transform="translate(192.261992, 187.038343) rotate(-42.560000) translate(-192.261992, -187.038343) " cx="192.261992" cy="187.038343" rx="6.12196612" ry="6.12021184"></ellipse>
                        <ellipse id="Oval" stroke="#2E353A" fill="#FFFFFF" fill-rule="nonzero" cx="192.258938" cy="187.064615" rx="3.57510116" ry="3.56307692"></ellipse>
                        <rect id="Rectangle" stroke="#2E353A" fill="#2E353A" fill-rule="nonzero" x="172.808905" y="169.735385" width="19.4500322" height="10.4615385" rx="3.25"></rect>
                        <polyline id="Path" stroke="#2E353A" points="165.090639 180.196923 165.090639 149.766154 171.265252 149.766154 171.265252 180.196923"></polyline>
                        <path d="M165.133861,153.796923 L171.197331,153.796923" id="Path" stroke="#2E353A"></path>
                        <path d="M165.133861,158.547692 L171.197331,158.547692" id="Path" stroke="#2E353A"></path>
                        <path d="M165.133861,163.298462 L171.197331,163.298462" id="Path" stroke="#2E353A"></path>
                        <path d="M165.133861,168.055385 L171.197331,168.055385" id="Path" stroke="#2E353A"></path>
                        <path d="M165.133861,172.806154 L171.197331,172.806154" id="Path" stroke="#2E353A"></path>
                        <path d="M165.133861,177.556923 L171.197331,177.556923" id="Path" stroke="#2E353A"></path>
                        <polygon id="Path" stroke="#2E353A" points="41.5921959 193.766154 30.4778918 193.766154 30.4778918 0.535384615 41.5921959 13.4153846"></polygon>
                        <polygon id="Path" stroke="#2E353A" points="30.5890348 153.150769 41.4872274 153.150769 30.5890348 142.646154 41.4872274 142.646154"></polygon>
                        <polygon id="Path" stroke="#2E353A" points="30.5890348 142.381538 41.4872274 142.381538 30.5890348 131.876923 41.4872274 131.876923"></polygon>
                        <polygon id="Path" stroke="#2E353A" points="30.5890348 131.612308 41.4872274 131.612308 30.5890348 121.107692 41.4872274 121.107692"></polygon>
                        <polygon id="Path" stroke="#2E353A" points="30.5890348 120.843077 41.4872274 120.843077 30.5890348 110.338462 41.4872274 110.338462"></polygon>
                        <polygon id="Path" stroke="#2E353A" points="30.5890348 110.073846 41.4872274 110.073846 30.5890348 99.5692308 41.4872274 99.5692308"></polygon>
                        <polygon id="Path" stroke="#2E353A" points="30.5890348 99.3046154 41.4872274 99.3046154 30.5890348 88.8 41.4872274 88.8"></polygon>
                        <polygon id="Path" stroke="#2E353A" points="30.5890348 88.5353846 41.4872274 88.5353846 30.5890348 78.0307692 41.4872274 78.0307692"></polygon>
                        <polygon id="Path" stroke="#2E353A" points="30.5890348 77.7661538 41.4872274 77.7661538 30.5890348 67.2615385 41.4872274 67.2615385"></polygon>
                        <polygon id="Path" stroke="#2E353A" points="30.5890348 66.9969231 41.4872274 66.9969231 30.5890348 56.4923077 41.4872274 56.4923077"></polygon>
                        <polygon id="Path" stroke="#2E353A" points="30.5890348 56.2276923 41.4872274 56.2276923 30.5890348 45.7230769 41.4872274 45.7230769"></polygon>
                        <polygon id="Path" stroke="#2E353A" points="30.5890348 45.4584615 41.4872274 45.4584615 30.5890348 34.9538462 41.4872274 34.9538462"></polygon>
                        <polygon id="Path" stroke="#2E353A" points="30.5890348 34.6892308 41.4872274 34.6892308 30.5890348 24.1846154 41.4872274 24.1846154"></polygon>
                        <polygon id="Path" stroke="#2E353A" points="30.5890348 23.92 41.4872274 23.92 30.5890348 13.4153846 41.4872274 13.4153846"></polygon>
                        <polygon id="Path" stroke="#2E353A" points="93.1934401 24.2092308 87.8091772 20.8307692 49.384558 20.8307692 44.6918518 24.2092308"></polygon>
                        <rect id="Rectangle" stroke="#2E353A" fill="#2E353A" fill-rule="nonzero" x="0.228460696" y="23.92" width="93.8541237" height="2.46153846"></rect>
                        <polyline id="Path" stroke="#2E353A" points="87.8091772 20.8307692 30.4778918 0.535384615 49.384558 20.8307692"></polyline>
                        <path d="M30.4840664,0.535384615 L0.228460696,23.92" id="Path" stroke="#2E353A"></path>
                        <rect id="Rectangle" stroke="#2E353A" fill="#2E353A" fill-rule="nonzero" x="26.4705677" y="29.1507692" width="23.1548003" height="14.7692308"></rect>
                        <rect id="Rectangle" stroke="#2E353A" fill="#FFFFFF" fill-rule="nonzero" x="31.2929407" y="32.2276923" width="13.5038795" height="4.30769231"></rect>
                        <path d="M94.0825844,26.3815385 L94.0825844,52.9169231" id="Path" stroke="#2E353A" fill="#FFFFFF" fill-rule="nonzero"></path>
                        <rect id="Rectangle" stroke="#2E353A" fill="#2E353A" fill-rule="nonzero" x="90.7421186" y="61.9815385" width="6.85999549" height="7.74769231"></rect>
                        <polyline id="Path" stroke="#2E353A" points="90.7421186 61.9815385 94.1752036 52.4123077 97.6082887 61.9815385"></polyline>
                        <path d="M75.577268,155.476923 L90.3963402,178.824615 L94.1011082,176.123077 L83.196741,154.387692 C82.197214,152.394841 80.1529235,151.136648 77.9174465,151.13846 L77.9174465,151.13846 C76.8930203,151.157287 75.9585527,151.725707 75.4734006,152.625131 C74.9882485,153.524555 75.0279617,154.614923 75.577268,155.476923 Z" id="Path" stroke="#2E353A" fill="#3087DF" fill-rule="nonzero"></path>
                        <path d="M92.7982648,173.083077 L77.5531443,183.889231 C77.5531443,183.889231 78.9115593,189.624615 87.716558,189.286154 C96.5215567,188.947692 96.1881276,179.833846 96.1881276,179.833846 L92.7982648,173.083077 Z" id="Path" stroke="#FFFFFF" fill="#2E353A" fill-rule="nonzero"></path>
                        <path d="M50.4527661,165.993846 L78.0656372,153.593846 C79.9420709,152.75238 82.15328,153.328948 83.3758048,154.978462 L83.3758048,154.978462 C84.0761706,155.922943 84.3636723,157.109497 84.172965,158.268436 C83.9822576,159.427375 83.3295408,160.460252 82.3631682,161.132308 L52.1507848,182.209231 L50.4527661,165.993846 Z" id="Path" stroke="#2E353A" fill="#3087DF" fill-rule="nonzero"></path>
                        <rect id="Rectangle" stroke="#2E353A" fill="#FFFFFF" fill-rule="nonzero" x="17.9310773" y="181.187692" width="28.4587932" height="4.38769231"></rect>
                        <rect id="Rectangle" stroke="#2E353A" fill="#2E353A" fill-rule="nonzero" x="7.76766366" y="168.695385" width="24.7293267" height="10.1292308"></rect>
                        <path d="M29.2800168,157.212297 L50.2737023,157.212297 C51.2967458,157.212297 52.1260863,158.038859 52.1260863,159.058462 L52.1260863,178.812308 L27.4214581,178.812308 L27.4214581,159.058462 C27.4214581,158.567763 27.6174641,158.097252 27.9661901,157.750853 C28.3149161,157.404455 28.787665,157.210672 29.2800168,157.212297 L29.2800168,157.212297 Z" id="Path" stroke="#2E353A" fill="#3087DF" fill-rule="nonzero"></path>
                        <path d="M7.51450451,193.169231 L48.0014446,193.169231 C50.6647677,193.169231 52.8238177,191.017442 52.8238177,188.363077 L52.8238177,188.363077 C52.8238177,185.707714 50.6657662,183.554165 48.0014446,183.550769 L7.51450451,183.550769 C4.85018292,183.554165 2.69213144,185.707714 2.69213144,188.363077 L2.69213144,188.363077 C2.69213144,191.017442 4.85118141,193.169231 7.51450451,193.169231 L7.51450451,193.169231 Z" id="Path" stroke="#2E353A" fill="#2E353A" fill-rule="nonzero"></path>
                        <path d="M13.6150226,193.169231 L54.095788,193.169231 C56.7601118,193.169231 58.9209286,191.018438 58.9243357,188.363077 L58.9243357,188.363077 C58.9243357,185.705313 56.7625213,183.550769 54.095788,183.550769 L13.6150226,183.550769 C10.9482893,183.550769 8.78647487,185.705313 8.78647487,188.363077 L8.78647487,188.363077 C8.78988193,191.018438 10.9506988,193.169231 13.6150226,193.169231 L13.6150226,193.169231 Z" id="Path" stroke="#2E353A" fill="#FFFFFF" fill-rule="nonzero"></path>
                        <rect id="Rectangle" stroke="#2E353A" fill="#FFFFFF" fill-rule="nonzero" x="7.76766366" y="178.824615" width="44.3769465" height="3.37846154"></rect>
                        <path d="M16.9184407,188.363077 C16.9184407,189.592642 16.175269,190.701136 15.0354653,191.171671 C13.8956616,191.642205 12.5836908,191.382115 11.7113229,190.512682 C10.8389549,189.643248 10.5779877,188.335689 11.0501098,187.199719 C11.522232,186.063749 12.6344671,185.323077 13.8681817,185.323077 C15.5527932,185.323077 16.9184407,186.684131 16.9184407,188.363077 L16.9184407,188.363077 Z" id="Path" stroke="#2E353A" fill="#2E353A" fill-rule="nonzero"></path>
                        <ellipse id="Oval" stroke="#2E353A" fill="#2E353A" fill-rule="nonzero" cx="22.0001476" cy="188.363077" rx="3.05025902" ry="3.04"></ellipse>
                        <ellipse id="Oval" stroke="#2E353A" fill="#2E353A" fill-rule="nonzero" cx="30.1259388" cy="188.363077" rx="3.05025902" ry="3.04"></ellipse>
                        <path d="M41.3081637,188.363077 C41.3081637,190.042023 39.9425162,191.403077 38.2579046,191.403077 C36.5732931,191.403077 35.2076456,190.042023 35.2076456,188.363077 C35.2076456,186.684131 36.5732931,185.323077 38.2579046,185.323077 C39.9425162,185.323077 41.3081637,186.684131 41.3081637,188.363077 L41.3081637,188.363077 Z" id="Path" stroke="#2E353A" fill="#2E353A" fill-rule="nonzero"></path>
                        <path d="M49.4401295,188.363077 C49.4401295,190.042023 48.074482,191.403077 46.3898705,191.403077 C44.7052589,191.403077 43.3396115,190.042023 43.3396115,188.363077 C43.3396115,186.684131 44.7052589,185.323077 46.3898705,185.323077 C48.074482,185.323077 49.4401295,186.684131 49.4401295,188.363077 L49.4401295,188.363077 Z" id="Path" stroke="#2E353A" fill="#2E353A" fill-rule="nonzero"></path>
                        <path d="M57.565927,188.363077 C57.565927,189.593202 56.8220766,190.702083 55.6815147,191.172255 C54.5409528,191.642426 53.2284989,191.381207 52.3566187,190.510496 C51.4847385,189.639786 51.2252976,188.33122 51.6993659,187.195449 C52.1734341,186.059678 53.2875629,185.320587 54.5218363,185.323071 C55.3302487,185.323071 56.1054607,185.643556 56.6765151,186.213844 C57.2475695,186.784133 57.5675605,187.557385 57.565927,188.363077 Z" id="Path" stroke="#2E353A" fill="#2E353A" fill-rule="nonzero"></path>
                        <path d="M81.2826221,157.212308 C81.2826221,156.527274 80.868226,155.909812 80.2329616,155.648239 C79.5976971,155.386667 78.866867,155.532585 78.3817266,156.017858 C77.8965861,156.503132 77.7528389,157.23203 78.0176065,157.864201 C78.2823742,158.496372 78.9034259,158.907106 79.5907668,158.904627 C80.0405436,158.904627 80.4718091,158.726126 80.7892695,158.408579 C81.1067299,158.091031 81.2842523,157.660569 81.2826221,157.212308 Z" id="Path" stroke="#2E353A" fill="#2E353A" fill-rule="nonzero"></path>
                        <rect id="Rectangle" stroke="#2E353A" fill="#FFFFFF" fill-rule="nonzero" x="30.4655425" y="159.913846" width="17.9557758" height="10.8061538"></rect>
                        <rect id="Rectangle" stroke="#2E353A" fill="#FFFFFF" fill-rule="nonzero" x="38.5975084" y="159.913846" width="9.82380992" height="10.8061538"></rect>
                    </g>
                </g>
            </g>
        </g>
    </g>
</svg>