<?xml version="1.0" encoding="UTF-8"?>
<svg width="210px" height="198px" viewBox="0 0 210 198" version="1.1" xmlns="http://www.w3.org/2000/svg" xmlns:xlink="http://www.w3.org/1999/xlink">
    <!-- Generator: Sketch 57.1 (83088) - https://sketch.com -->
    <title>Grades-bro</title>
    <desc>Created with Sketch.</desc>
    <g id="Webdesign-quick-fix" stroke="none" stroke-width="1" fill="none" fill-rule="evenodd">
        <g id="Home-page---UI" transform="translate(-882.000000, -759.000000)">
            <g id="Group-4" transform="translate(0.000000, 716.000000)">
                <g id="Group-2" transform="translate(160.000000, 43.000000)">
                    <g id="Grades-bro" transform="translate(722.000000, 0.000000)">
                        <g id="freepik--background-simple--inject-66" transform="translate(0.000000, 27.000000)" fill="#EDF3FA" fill-rule="nonzero">
                            <path d="M194.473088,83.1438762 C192.052238,70.3328013 184.228895,60.9751466 174.045779,53.4500326 C166.777677,48.0749511 160.875467,41.04557 155.811671,33.5594463 C148.737904,23.093355 142.869008,9.99820847 131.431048,3.52583062 C115.162493,-5.67586319 99.5213598,6.84 86.3343909,15.6685016 C79.4160907,20.3027687 72.0369405,25.137557 63.6639093,26.4743648 C51.7262323,28.390456 39.6053258,23.1323453 27.7675921,26.2961238 C25.4687197,26.4004818 23.2084619,26.9272209 21.0991501,27.8501629 C21.0991501,27.8501629 6.10764873,32.8631922 1.66572238,58.485342 C-2.77620397,84.1074919 1.11048159,122.540717 22.2096317,144.820847 C43.3087819,167.100977 59.9660057,169.885993 71.0708215,170.442997 C71.376204,170.442997 71.676034,170.442997 71.975864,170.442997 C79.3439093,171.557003 88.077847,171 98.0721813,168.214984 C130.209518,159.258371 128.421643,138.660391 156.988782,134.182085 C185.555921,129.703779 199.381416,109.111368 194.473088,83.1438762 Z" id="Path"></path>
                            <path d="M194.473088,83.1438762 C192.052238,70.3328013 184.228895,60.9751466 174.045779,53.4500326 C166.777677,48.0749511 160.875467,41.04557 155.811671,33.5594463 C148.737904,23.093355 142.869008,9.99820847 131.431048,3.52583062 C115.162493,-5.67586319 99.5213598,6.84 86.3343909,15.6685016 C79.4160907,20.3027687 72.0369405,25.137557 63.6639093,26.4743648 C51.7262323,28.390456 39.6053258,23.1323453 27.7675921,26.2961238 C25.4687197,26.4004818 23.2084619,26.9272209 21.0991501,27.8501629 C21.0991501,27.8501629 6.10764873,32.8631922 1.66572238,58.485342 C-2.77620397,84.1074919 1.11048159,122.540717 22.2096317,144.820847 C43.3087819,167.100977 59.9660057,169.885993 71.0708215,170.442997 C71.376204,170.442997 71.676034,170.442997 71.975864,170.442997 C79.3439093,171.557003 88.077847,171 98.0721813,168.214984 C130.209518,159.258371 128.421643,138.660391 156.988782,134.182085 C185.555921,129.703779 199.381416,109.111368 194.473088,83.1438762 Z" id="Path" opacity="0.7"></path>
                        </g>
                        <g id="freepik--Plants--inject-66" transform="translate(53.000000, 0.000000)" fill-rule="nonzero">
                            <path d="M37.1481761,11.0130841 C37.1481761,11.0130841 39.6830189,8.98317757 40.3361006,7.68224299 C40.8895597,6.56074766 41.2880503,5.00186916 40.7179874,3.82429907 C40.469114,3.24991624 39.9904358,2.81021076 39.4019172,2.61537964 C38.8133986,2.42054852 38.1708195,2.48905792 37.6352201,2.80373832 C36.0689308,3.79065421 35.9028931,7.14392523 36.3013836,8.7588785 C36.3345912,8.91588785 37.1205031,11.035514 37.1481761,11.0130841 Z" id="Path" fill="#4788D8"></path>
                            <path d="M13.6981132,27.9196262 C13.8032704,28.0205607 15.6130818,29.3495327 15.6186164,29.3158879 C15.6241509,29.282243 16.6314465,26.2037383 16.4654088,24.7570093 C16.3215094,23.5233645 15.8012579,21.9869159 14.6832704,21.3252336 C14.162431,20.9883222 13.5245065,20.8924191 12.9295501,21.0615861 C12.3345937,21.2307532 11.8390669,21.6489364 11.5672956,22.211215 C10.7979874,23.9046729 12.4860377,26.7981308 13.6981132,27.9196262 Z" id="Path" fill="#4788D8"></path>
                            <path d="M66.8467925,14.0859813 C66.8467925,14.0859813 57.5597484,23.7981308 57.6095597,35.7252336 C57.6593711,47.6523364 67.0183648,57.2859813 67.0183648,57.2859813 C67.0183648,57.2859813 76.3054088,47.5738318 76.2555975,35.646729 C76.2057862,23.7196262 66.8467925,14.0859813 66.8467925,14.0859813 Z" id="Path" fill="#4788D8"></path>
                            <path d="M53.6080503,42.8747664 C53.7280136,42.7384136 53.8389474,42.5941738 53.9401258,42.4429907 C54.6153459,41.4056075 55.1909434,39.8971963 54.7592453,38.6579439 C54.5739147,38.0603582 54.1463408,37.5709153 53.5833982,37.3119544 C53.0204557,37.0529935 52.3753423,37.0489864 51.8093082,37.3009346 C50.5474214,37.9065421 49.9330818,39.953271 49.8002516,41.6299065 C49.2966038,41.5121495 48.8427673,41.4224299 48.4498113,41.3551402 C48.2837736,40.9794393 48.1177358,40.5925234 47.9461635,40.2336449 C47.7745912,39.8747664 47.6362264,39.4373832 47.4757233,39.0336449 C47.2543396,38.4392523 47.0550943,37.811215 46.8503145,37.188785 C47.5864151,36.8523364 49.7283019,35.8429907 50.525283,34.9457944 C51.3222642,34.0485981 52.1413836,32.6186916 51.8978616,31.328972 C51.804048,30.7100271 51.4547715,30.1607452 50.9372871,29.8183457 C50.4198027,29.4759463 49.7829815,29.3727654 49.1859119,29.5345794 C47.4203774,30.0953271 46.3854088,33.2579439 46.3466667,34.9233645 C46.3466667,34.9794393 46.3466667,35.3327103 46.4130818,35.7476636 C46.2359748,35.1308411 46.0533333,34.5196262 45.8983648,33.8915888 C45.4445283,32.1028037 45.0349686,30.2691589 44.6198742,28.435514 C44.5368553,28.0485981 44.4427673,27.6728972 44.3542138,27.3140187 C44.9740881,27.0392523 47.2986164,25.9626168 48.1343396,25.0261682 C48.9700629,24.0897196 49.7559748,22.6990654 49.5124528,21.4093458 C49.4172159,20.789976 49.0667827,20.2407491 48.5484538,19.8984893 C48.0301248,19.5562295 47.3926974,19.4531584 46.7949686,19.6149533 C45.0349686,20.1757009 44,23.3383178 43.9612579,25.0037383 C43.9612579,25.0598131 43.9944654,25.4803738 44.0387421,25.9514019 C43.7952201,24.9588785 43.5461635,23.9719626 43.269434,22.9962617 C42.7994371,21.3249284 42.2188352,19.6875758 41.5315723,18.0953271 C41.752956,18 44.5036478,16.7943925 45.4334591,15.7514019 C46.2581132,14.8317757 47.0495597,13.4242991 46.8060377,12.1345794 C46.7122241,11.5156346 46.3629476,10.9663527 45.8454632,10.6239532 C45.3279788,10.2815537 44.6911576,10.1783729 44.0940881,10.3401869 C42.3340881,10.9009346 41.2935849,14.0635514 41.2603774,15.728972 C41.2603774,15.846729 41.3932075,17.3663551 41.4596226,17.9102804 L41.4596226,17.8542056 C40.7499739,16.3051554 39.9034188,14.82435 38.9303145,13.4299065 C38.0778433,12.1781339 37.1538334,10.9779534 36.1630189,9.83551402 C35.2498113,8.77009346 34.347673,7.84485981 33.5451572,7.0317757 C33.1023899,6.6 32.6928302,6.20747664 32.3109434,5.84859813 L32.3496855,5.84859813 C32.3828931,5.84859813 31.4862893,3.7682243 31.4143396,3.64485981 C30.5952201,2.20373832 28.1655346,-0.0841121495 26.3667925,0.280373832 C25.7671327,0.431763033 25.2590354,0.833834657 24.9688166,1.38663109 C24.6785979,1.93942753 24.6335164,2.59102758 24.8447799,3.17943925 C25.248805,4.42990654 26.6103145,5.27102804 27.7725786,5.67476636 C28.9348428,6.07850467 31.5527044,5.89345794 32.2002516,5.8317757 C32.5932075,6.21308411 33.0083019,6.62803738 33.4566038,7.08785047 C34.2425157,7.91214953 35.1169811,8.85420561 36.0135849,9.9364486 C36.2460377,10.2224299 36.4895597,10.5476636 36.7330818,10.8504673 C36.2183648,10.4186916 35.5099371,9.8411215 35.4324528,9.79065421 C34.048805,8.89906542 30.8498113,8.00186916 29.4384906,9.19065421 C28.9721588,9.60209095 28.7012683,10.1955866 28.6938696,10.8220486 C28.6864709,11.4485106 28.9432672,12.0484037 29.3997484,12.471028 C30.3240252,13.3962617 31.923522,13.5028037 33.1355975,13.3233645 C34.347673,13.1439252 36.6611321,11.7028037 37.1537107,11.3831776 C37.6794969,12.0672897 38.205283,12.7850467 38.7089308,13.564486 C39.6345868,14.965 40.4365199,16.4455026 41.1054088,17.988785 C41.1441509,18.0785047 41.1718239,18.1738318 41.210566,18.2635514 C40.994717,18.0056075 39.6996226,16.6878505 39.6,16.5813084 C38.3215094,15.5383178 35.2442767,14.2878505 33.7056604,15.3140187 C33.1986581,15.6723769 32.8661102,16.232383 32.7911236,16.8540861 C32.7161371,17.4757892 32.9057966,18.100451 33.3127044,18.5719626 C34.1373585,19.5925234 35.7091824,19.8785047 36.932327,19.8336449 C38.3491824,19.7831776 41.1275472,18.3588785 41.2327044,18.3084112 C41.8598623,19.8641473 42.3849458,21.4601423 42.8045283,23.0859813 C43.12,24.2859813 43.3967296,25.5196262 43.6568553,26.753271 C43.3690566,26.4280374 42.1680503,25.2 42.0684277,25.1214953 C40.7899371,24.0785047 37.7127044,22.8280374 36.1740881,23.8542056 C35.6670857,24.2125638 35.3345378,24.7725699 35.2595513,25.394273 C35.1845648,26.0159761 35.3742243,26.6406379 35.7811321,27.1121495 C36.6057862,28.1327103 38.1776101,28.4186916 39.4007547,28.3738318 C40.7844025,28.3233645 43.4520755,26.9719626 43.6789937,26.8598131 C43.8007547,27.4205607 43.9169811,27.9813084 44.0332075,28.5420561 C44.4095597,30.3813084 44.7803774,32.2317757 45.1954717,34.0429907 C45.3393711,34.671028 45.5054088,35.282243 45.6714465,35.8990654 C45.2176101,35.4224299 44.3818868,34.5700935 44.3044025,34.5028037 C43.0259119,33.4654206 39.9431447,32.2149533 38.4100629,33.235514 C37.9030606,33.5938722 37.5705127,34.1538783 37.4955261,34.7755814 C37.4205396,35.3972845 37.6101991,36.0219463 38.0171069,36.4934579 C38.8362264,37.5140187 40.4135849,37.8056075 41.6367296,37.7551402 C42.8598742,37.7046729 45.1401258,36.6336449 45.7766038,36.3084112 C46.0533333,37.328972 46.3300629,38.3383178 46.6953459,39.3140187 C46.8503145,39.7345794 46.9831447,40.1719626 47.154717,40.564486 L47.4148428,41.1869159 L47.0606289,41.153271 C47.0606289,41.153271 47.0606289,41.7140187 47.0883019,42.6841121 C45.7378616,41.7084112 43.7675472,40.8672897 42.5222642,41.4616822 C41.9685894,41.738371 41.557048,42.2404065 41.3902364,42.8426322 C41.2234249,43.444858 41.31706,44.090533 41.6477987,44.6186916 C41.7304894,44.7593272 41.8249229,44.8925247 41.9300629,45.0168224 C42.1753316,46.4542462 42.7771455,47.8049344 43.6789937,48.9420561 C43.7454088,49.0261682 44.6641509,49.8841121 45.1456604,50.3102804 C44.6807547,50.0579439 44.2213836,49.8056075 43.7454088,49.5364486 C43.0535849,49.1439252 42.3396226,48.7121495 41.6422642,48.2971963 L40.5685535,47.6074766 C40.2032704,47.3775701 39.8767296,47.1196262 39.5225157,46.8728972 C39.0133333,46.4971963 38.5041509,46.0878505 38.0005031,45.6785047 C38.4322013,44.9943925 39.6608805,42.953271 39.843522,41.753271 C40.0261635,40.553271 39.9210063,38.9046729 39.0188679,37.9626168 C38.605302,37.4965424 38.0158213,37.2303596 37.3972327,37.2303596 C36.7786441,37.2303596 36.1891634,37.4965424 35.7755975,37.9626168 C34.5967296,39.3925234 35.471195,42.6336449 36.3290566,44.0411215 C36.3290566,44.0859813 36.5725786,44.3663551 36.8327044,44.6915888 C36.351195,44.2766355 35.8641509,43.8672897 35.3881761,43.4299065 C34.0377358,42.1962617 32.6983648,40.8897196 31.3534591,39.5943925 L30.5066667,38.7869159 C30.8719497,38.2261682 32.2279245,35.9831776 32.4161006,34.7663551 C32.6042767,33.5495327 32.4991195,31.917757 31.5914465,30.9757009 C31.1779742,30.5115054 30.5897267,30.2465564 29.9725786,30.2465564 C29.3554305,30.2465564 28.767183,30.5115054 28.3537107,30.9757009 C27.1748428,32.4056075 28.0437736,35.646729 28.9071698,37.0542056 C28.9403774,37.1046729 29.2005031,37.435514 29.4883019,37.8056075 C28.7522013,37.1102804 27.9994969,36.4261682 27.2412579,35.7700935 C25.9384925,34.6394056 24.5628718,33.5978499 23.123522,32.6523364 C23.2563522,32.4504673 24.8945912,29.9046729 25.0993711,28.5196262 C25.2875472,27.2859813 25.1823899,25.671028 24.2802516,24.728972 C23.8613982,24.2723539 23.2738832,24.0129354 22.6586164,24.0129354 C22.0433495,24.0129354 21.4558345,24.2723539 21.0369811,24.728972 C19.8581132,26.1588785 20.7325786,29.4 21.5904403,30.8074766 C21.6513208,30.9084112 22.5922013,32.0971963 22.9464151,32.4897196 L22.8966038,32.4560748 C21.4603935,31.5637667 19.9490953,30.8019193 18.3803774,30.1794393 C16.9812592,29.6168329 15.5508985,29.1375119 14.0966038,28.7439252 C12.7516981,28.3626168 11.4953459,28.0990654 10.3828931,27.8747664 C9.78515723,27.7570093 9.23169811,27.6616822 8.72251572,27.5775701 L8.75572327,27.5775701 C8.75572327,27.5775701 6.90716981,26.3214953 6.77987421,26.2598131 C5.30767296,25.5196262 2.03672956,24.964486 0.752704403,26.2990654 C0.334321408,26.7598894 0.128577102,27.3789338 0.18662085,28.0022999 C0.244664599,28.6256661 0.561044667,29.1948048 1.05710692,29.5682243 C2.0754717,30.3869159 3.66943396,30.3252336 4.85937107,30.0168224 C6.04930818,29.7084112 8.13031447,28.0766355 8.63949686,27.6728972 C9.19295597,27.7682243 9.74641509,27.8803738 10.3718239,28.0149533 C11.4787421,28.2616822 12.7184906,28.5757009 14.052327,28.9626168 C14.4065409,29.0691589 14.7828931,29.2037383 15.1592453,29.3214953 C14.4950943,29.2485981 13.5874214,29.164486 13.4988679,29.164486 C11.8384906,29.164486 8.70037736,30.2299065 8.1690566,32.0130841 C8.0056021,32.6170579 8.10350067,33.2629668 8.43829092,33.789421 C8.77308116,34.3158752 9.31313866,34.6731455 9.92352201,34.7719626 C11.196478,35.0242991 12.591195,34.211215 13.5044025,33.3925234 C14.4176101,32.5738318 15.5632704,30.0728972 15.8012579,29.528972 C16.6093082,29.8093458 17.4616352,30.0897196 18.2807547,30.482243 C19.8218136,31.1300952 21.3034494,31.9144448 22.7084277,32.8261682 C22.7859119,32.882243 22.8633962,32.9495327 22.9464151,33 C22.6254088,32.9102804 20.8266667,32.528972 20.6993711,32.517757 C19.0389937,32.3607477 15.812327,33.0392523 15.0928302,34.7607477 C14.8664186,35.3430568 14.8943935,35.9953357 15.1698057,36.5555521 C15.4452178,37.1157685 15.9422223,37.5313512 16.5373585,37.6990654 C17.7771069,38.0915888 19.2493082,37.446729 20.2455346,36.728972 C21.3967296,35.8934579 22.9408805,33.1514019 23.0128302,33.0504673 C24.380072,33.9995121 25.6852723,35.0371938 26.9202516,36.1570093 C27.8445283,36.9813084 28.7411321,37.8392523 29.6322013,38.7420561 C29.2115723,38.6299065 27.5401258,38.2766355 27.4183648,38.2654206 C25.7579874,38.1140187 22.5368553,38.7925234 21.8118239,40.5084112 C21.5854123,41.0907204 21.6133872,41.7429993 21.8887994,42.3032157 C22.1642115,42.863432 22.661216,43.2790147 23.2563522,43.446729 C24.4961006,43.8392523 25.9683019,43.2 26.9645283,42.4766355 C28.0714465,41.6635514 29.5823899,39.0392523 29.7318239,38.8205607 L30.949434,40.0261682 C32.2666667,41.3551402 33.5783648,42.6897196 34.9122013,43.9514019 C35.3771069,44.3943925 35.8475472,44.8149533 36.3179874,45.235514 C35.687044,45.0897196 34.5247799,44.8429907 34.4196226,44.8373832 C32.7869182,44.6803738 29.5381132,45.3588785 28.8130818,47.0803738 C28.5868262,47.6634458 28.6155444,48.3164262 28.8920888,48.8767987 C29.1686332,49.4371712 29.6669968,49.8522365 30.2631447,50.0186916 C31.5028931,50.4056075 32.9695597,49.7663551 33.9657862,49.0485981 C34.9620126,48.3308411 36.2737107,46.1439252 36.6334591,45.5271028 C37.4193711,46.2224299 38.2163522,46.8953271 39.0354717,47.517757 C39.3952201,47.7813084 39.7438994,48.0785047 40.0981132,48.3028037 L41.1552201,49.0149533 C41.8913208,49.4803738 42.5776101,49.9121495 43.2749686,50.3271028 L44.3044025,50.9271028 C43.6845283,50.6803738 42.6938365,50.3102804 42.5997484,50.2878505 C41.0057862,49.8841121 37.6961006,50.0523364 36.7220126,51.6392523 C36.4122283,52.1801406 36.3431965,52.8287037 36.5320398,53.424072 C36.7208831,54.0194402 37.1499099,54.5058372 37.7127044,54.7626168 C38.8805031,55.3233645 40.4301887,54.9308411 41.5205031,54.3700935 C42.727044,53.753271 44.5423899,51.4766355 44.7637736,51.1962617 C45.610566,51.6841121 46.4241509,52.1495327 47.2155975,52.5700935 C49.3021384,53.6915888 51.0898113,54.6056075 52.528805,55.2728972 C57.1169811,59.2934579 63.5979874,59.7588785 63.5979874,59.7588785 C63.5979874,59.7588785 63.9411321,51.9084112 59.3861635,46.7719626 C57.7678505,45.0564773 55.7945369,43.7255255 53.6080503,42.8747664 L53.6080503,42.8747664 Z M45.4168553,50.5121495 C45.5607547,50.1869159 46.6566038,47.7084112 46.7340881,46.2953271 C46.9886792,46.2504673 47.248805,46.1943925 47.4978616,46.1383178 C47.9624457,48.6127875 48.9313377,50.9618754 50.3426415,53.035514 C49.5069182,52.6317757 48.6047799,52.188785 47.6472956,51.6953271 C46.9333333,51.3252336 46.1861635,50.9271028 45.4168553,50.5121495 Z" id="Shape" fill="#4788D8"></path>
                            <path d="M87.4465441,41.3719626 C87.4465441,41.3719626 79.6981132,41.6130841 74.9771069,46.5981308 C70.2561006,51.5831776 70.2893049,59.4392523 70.2893049,59.4392523 C70.2893049,59.4392523 78.0377358,59.1981308 82.7587421,54.2130841 C87.4797484,49.2280374 87.4465441,41.3719626 87.4465441,41.3719626 Z" id="Path" fill="#4788D8"></path>
                            <g id="Group" opacity="0.5" fill="#FFFFFF">
                                <path d="M37.1481761,11.0130841 C37.1481761,11.0130841 39.6830189,8.98317757 40.3361006,7.68224299 C40.8895597,6.56074766 41.2880503,5.00186916 40.7179874,3.82429907 C40.469114,3.24991624 39.9904358,2.81021076 39.4019172,2.61537964 C38.8133986,2.42054852 38.1708195,2.48905792 37.6352201,2.80373832 C36.0689308,3.79065421 35.9028931,7.14392523 36.3013836,8.7588785 C36.3345912,8.91588785 37.1205031,11.035514 37.1481761,11.0130841 Z" id="Path"></path>
                                <path d="M13.6981132,27.9196262 C13.8032704,28.0205607 15.6130818,29.3495327 15.6186164,29.3158879 C15.6241509,29.282243 16.6314465,26.2037383 16.4654088,24.7570093 C16.3215094,23.5233645 15.8012579,21.9869159 14.6832704,21.3252336 C14.162431,20.9883222 13.5245065,20.8924191 12.9295501,21.0615861 C12.3345937,21.2307532 11.8390669,21.6489364 11.5672956,22.211215 C10.7979874,23.9046729 12.4860377,26.7981308 13.6981132,27.9196262 Z" id="Path"></path>
                                <path d="M66.8467925,14.0859813 C66.8467925,14.0859813 57.5597484,23.7981308 57.6095597,35.7252336 C57.6593711,47.6523364 67.0183648,57.2859813 67.0183648,57.2859813 C67.0183648,57.2859813 76.3054088,47.5738318 76.2555975,35.646729 C76.2057862,23.7196262 66.8467925,14.0859813 66.8467925,14.0859813 Z" id="Path"></path>
                                <path d="M53.6080503,42.8747664 C53.7280136,42.7384136 53.8389474,42.5941738 53.9401258,42.4429907 C54.6153459,41.4056075 55.1909434,39.8971963 54.7592453,38.6579439 C54.5739147,38.0603582 54.1463408,37.5709153 53.5833982,37.3119544 C53.0204557,37.0529935 52.3753423,37.0489864 51.8093082,37.3009346 C50.5474214,37.9065421 49.9330818,39.953271 49.8002516,41.6299065 C49.2966038,41.5121495 48.8427673,41.4224299 48.4498113,41.3551402 C48.2837736,40.9794393 48.1177358,40.5925234 47.9461635,40.2336449 C47.7745912,39.8747664 47.6362264,39.4373832 47.4757233,39.0336449 C47.2543396,38.4392523 47.0550943,37.811215 46.8503145,37.188785 C47.5864151,36.8523364 49.7283019,35.8429907 50.525283,34.9457944 C51.3222642,34.0485981 52.1413836,32.6186916 51.8978616,31.328972 C51.804048,30.7100271 51.4547715,30.1607452 50.9372871,29.8183457 C50.4198027,29.4759463 49.7829815,29.3727654 49.1859119,29.5345794 C47.4203774,30.0953271 46.3854088,33.2579439 46.3466667,34.9233645 C46.3466667,34.9794393 46.3466667,35.3327103 46.4130818,35.7476636 C46.2359748,35.1308411 46.0533333,34.5196262 45.8983648,33.8915888 C45.4445283,32.1028037 45.0349686,30.2691589 44.6198742,28.435514 C44.5368553,28.0485981 44.4427673,27.6728972 44.3542138,27.3140187 C44.9740881,27.0392523 47.2986164,25.9626168 48.1343396,25.0261682 C48.9700629,24.0897196 49.7559748,22.6990654 49.5124528,21.4093458 C49.4172159,20.789976 49.0667827,20.2407491 48.5484538,19.8984893 C48.0301248,19.5562295 47.3926974,19.4531584 46.7949686,19.6149533 C45.0349686,20.1757009 44,23.3383178 43.9612579,25.0037383 C43.9612579,25.0598131 43.9944654,25.4803738 44.0387421,25.9514019 C43.7952201,24.9588785 43.5461635,23.9719626 43.269434,22.9962617 C42.7994371,21.3249284 42.2188352,19.6875758 41.5315723,18.0953271 C41.752956,18 44.5036478,16.7943925 45.4334591,15.7514019 C46.2581132,14.8317757 47.0495597,13.4242991 46.8060377,12.1345794 C46.7122241,11.5156346 46.3629476,10.9663527 45.8454632,10.6239532 C45.3279788,10.2815537 44.6911576,10.1783729 44.0940881,10.3401869 C42.3340881,10.9009346 41.2935849,14.0635514 41.2603774,15.728972 C41.2603774,15.846729 41.3932075,17.3663551 41.4596226,17.9102804 L41.4596226,17.8542056 C40.7499739,16.3051554 39.9034188,14.82435 38.9303145,13.4299065 C38.0778433,12.1781339 37.1538334,10.9779534 36.1630189,9.83551402 C35.2498113,8.77009346 34.347673,7.84485981 33.5451572,7.0317757 C33.1023899,6.6 32.6928302,6.20747664 32.3109434,5.84859813 L32.3496855,5.84859813 C32.3828931,5.84859813 31.4862893,3.7682243 31.4143396,3.64485981 C30.5952201,2.20373832 28.1655346,-0.0841121495 26.3667925,0.280373832 C25.7671327,0.431763033 25.2590354,0.833834657 24.9688166,1.38663109 C24.6785979,1.93942753 24.6335164,2.59102758 24.8447799,3.17943925 C25.248805,4.42990654 26.6103145,5.27102804 27.7725786,5.67476636 C28.9348428,6.07850467 31.5527044,5.89345794 32.2002516,5.8317757 C32.5932075,6.21308411 33.0083019,6.62803738 33.4566038,7.08785047 C34.2425157,7.91214953 35.1169811,8.85420561 36.0135849,9.9364486 C36.2460377,10.2224299 36.4895597,10.5476636 36.7330818,10.8504673 C36.2183648,10.4186916 35.5099371,9.8411215 35.4324528,9.79065421 C34.048805,8.89906542 30.8498113,8.00186916 29.4384906,9.19065421 C28.9721588,9.60209095 28.7012683,10.1955866 28.6938696,10.8220486 C28.6864709,11.4485106 28.9432672,12.0484037 29.3997484,12.471028 C30.3240252,13.3962617 31.923522,13.5028037 33.1355975,13.3233645 C34.347673,13.1439252 36.6611321,11.7028037 37.1537107,11.3831776 C37.6794969,12.0672897 38.205283,12.7850467 38.7089308,13.564486 C39.6345868,14.965 40.4365199,16.4455026 41.1054088,17.988785 C41.1441509,18.0785047 41.1718239,18.1738318 41.210566,18.2635514 C40.994717,18.0056075 39.6996226,16.6878505 39.6,16.5813084 C38.3215094,15.5383178 35.2442767,14.2878505 33.7056604,15.3140187 C33.1986581,15.6723769 32.8661102,16.232383 32.7911236,16.8540861 C32.7161371,17.4757892 32.9057966,18.100451 33.3127044,18.5719626 C34.1373585,19.5925234 35.7091824,19.8785047 36.932327,19.8336449 C38.3491824,19.7831776 41.1275472,18.3588785 41.2327044,18.3084112 C41.8598623,19.8641473 42.3849458,21.4601423 42.8045283,23.0859813 C43.12,24.2859813 43.3967296,25.5196262 43.6568553,26.753271 C43.3690566,26.4280374 42.1680503,25.2 42.0684277,25.1214953 C40.7899371,24.0785047 37.7127044,22.8280374 36.1740881,23.8542056 C35.6670857,24.2125638 35.3345378,24.7725699 35.2595513,25.394273 C35.1845648,26.0159761 35.3742243,26.6406379 35.7811321,27.1121495 C36.6057862,28.1327103 38.1776101,28.4186916 39.4007547,28.3738318 C40.7844025,28.3233645 43.4520755,26.9719626 43.6789937,26.8598131 C43.8007547,27.4205607 43.9169811,27.9813084 44.0332075,28.5420561 C44.4095597,30.3813084 44.7803774,32.2317757 45.1954717,34.0429907 C45.3393711,34.671028 45.5054088,35.282243 45.6714465,35.8990654 C45.2176101,35.4224299 44.3818868,34.5700935 44.3044025,34.5028037 C43.0259119,33.4654206 39.9431447,32.2149533 38.4100629,33.235514 C37.9030606,33.5938722 37.5705127,34.1538783 37.4955261,34.7755814 C37.4205396,35.3972845 37.6101991,36.0219463 38.0171069,36.4934579 C38.8362264,37.5140187 40.4135849,37.8056075 41.6367296,37.7551402 C42.8598742,37.7046729 45.1401258,36.6336449 45.7766038,36.3084112 C46.0533333,37.328972 46.3300629,38.3383178 46.6953459,39.3140187 C46.8503145,39.7345794 46.9831447,40.1719626 47.154717,40.564486 L47.4148428,41.1869159 L47.0606289,41.153271 C47.0606289,41.153271 47.0606289,41.7140187 47.0883019,42.6841121 C45.7378616,41.7084112 43.7675472,40.8672897 42.5222642,41.4616822 C41.9685894,41.738371 41.557048,42.2404065 41.3902364,42.8426322 C41.2234249,43.444858 41.31706,44.090533 41.6477987,44.6186916 C41.7304894,44.7593272 41.8249229,44.8925247 41.9300629,45.0168224 C42.1753316,46.4542462 42.7771455,47.8049344 43.6789937,48.9420561 C43.7454088,49.0261682 44.6641509,49.8841121 45.1456604,50.3102804 C44.6807547,50.0579439 44.2213836,49.8056075 43.7454088,49.5364486 C43.0535849,49.1439252 42.3396226,48.7121495 41.6422642,48.2971963 L40.5685535,47.6074766 C40.2032704,47.3775701 39.8767296,47.1196262 39.5225157,46.8728972 C39.0133333,46.4971963 38.5041509,46.0878505 38.0005031,45.6785047 C38.4322013,44.9943925 39.6608805,42.953271 39.843522,41.753271 C40.0261635,40.553271 39.9210063,38.9046729 39.0188679,37.9626168 C38.605302,37.4965424 38.0158213,37.2303596 37.3972327,37.2303596 C36.7786441,37.2303596 36.1891634,37.4965424 35.7755975,37.9626168 C34.5967296,39.3925234 35.471195,42.6336449 36.3290566,44.0411215 C36.3290566,44.0859813 36.5725786,44.3663551 36.8327044,44.6915888 C36.351195,44.2766355 35.8641509,43.8672897 35.3881761,43.4299065 C34.0377358,42.1962617 32.6983648,40.8897196 31.3534591,39.5943925 L30.5066667,38.7869159 C30.8719497,38.2261682 32.2279245,35.9831776 32.4161006,34.7663551 C32.6042767,33.5495327 32.4991195,31.917757 31.5914465,30.9757009 C31.1779742,30.5115054 30.5897267,30.2465564 29.9725786,30.2465564 C29.3554305,30.2465564 28.767183,30.5115054 28.3537107,30.9757009 C27.1748428,32.4056075 28.0437736,35.646729 28.9071698,37.0542056 C28.9403774,37.1046729 29.2005031,37.435514 29.4883019,37.8056075 C28.7522013,37.1102804 27.9994969,36.4261682 27.2412579,35.7700935 C25.9384925,34.6394056 24.5628718,33.5978499 23.123522,32.6523364 C23.2563522,32.4504673 24.8945912,29.9046729 25.0993711,28.5196262 C25.2875472,27.2859813 25.1823899,25.671028 24.2802516,24.728972 C23.8613982,24.2723539 23.2738832,24.0129354 22.6586164,24.0129354 C22.0433495,24.0129354 21.4558345,24.2723539 21.0369811,24.728972 C19.8581132,26.1588785 20.7325786,29.4 21.5904403,30.8074766 C21.6513208,30.9084112 22.5922013,32.0971963 22.9464151,32.4897196 L22.8966038,32.4560748 C21.4603935,31.5637667 19.9490953,30.8019193 18.3803774,30.1794393 C16.9812592,29.6168329 15.5508985,29.1375119 14.0966038,28.7439252 C12.7516981,28.3626168 11.4953459,28.0990654 10.3828931,27.8747664 C9.78515723,27.7570093 9.23169811,27.6616822 8.72251572,27.5775701 L8.75572327,27.5775701 C8.75572327,27.5775701 6.90716981,26.3214953 6.77987421,26.2598131 C5.30767296,25.5196262 2.03672956,24.964486 0.752704403,26.2990654 C0.334321408,26.7598894 0.128577102,27.3789338 0.18662085,28.0022999 C0.244664599,28.6256661 0.561044667,29.1948048 1.05710692,29.5682243 C2.0754717,30.3869159 3.66943396,30.3252336 4.85937107,30.0168224 C6.04930818,29.7084112 8.13031447,28.0766355 8.63949686,27.6728972 C9.19295597,27.7682243 9.74641509,27.8803738 10.3718239,28.0149533 C11.4787421,28.2616822 12.7184906,28.5757009 14.052327,28.9626168 C14.4065409,29.0691589 14.7828931,29.2037383 15.1592453,29.3214953 C14.4950943,29.2485981 13.5874214,29.164486 13.4988679,29.164486 C11.8384906,29.164486 8.70037736,30.2299065 8.1690566,32.0130841 C8.0056021,32.6170579 8.10350067,33.2629668 8.43829092,33.789421 C8.77308116,34.3158752 9.31313866,34.6731455 9.92352201,34.7719626 C11.196478,35.0242991 12.591195,34.211215 13.5044025,33.3925234 C14.4176101,32.5738318 15.5632704,30.0728972 15.8012579,29.528972 C16.6093082,29.8093458 17.4616352,30.0897196 18.2807547,30.482243 C19.8218136,31.1300952 21.3034494,31.9144448 22.7084277,32.8261682 C22.7859119,32.882243 22.8633962,32.9495327 22.9464151,33 C22.6254088,32.9102804 20.8266667,32.528972 20.6993711,32.517757 C19.0389937,32.3607477 15.812327,33.0392523 15.0928302,34.7607477 C14.8664186,35.3430568 14.8943935,35.9953357 15.1698057,36.5555521 C15.4452178,37.1157685 15.9422223,37.5313512 16.5373585,37.6990654 C17.7771069,38.0915888 19.2493082,37.446729 20.2455346,36.728972 C21.3967296,35.8934579 22.9408805,33.1514019 23.0128302,33.0504673 C24.380072,33.9995121 25.6852723,35.0371938 26.9202516,36.1570093 C27.8445283,36.9813084 28.7411321,37.8392523 29.6322013,38.7420561 C29.2115723,38.6299065 27.5401258,38.2766355 27.4183648,38.2654206 C25.7579874,38.1140187 22.5368553,38.7925234 21.8118239,40.5084112 C21.5854123,41.0907204 21.6133872,41.7429993 21.8887994,42.3032157 C22.1642115,42.863432 22.661216,43.2790147 23.2563522,43.446729 C24.4961006,43.8392523 25.9683019,43.2 26.9645283,42.4766355 C28.0714465,41.6635514 29.5823899,39.0392523 29.7318239,38.8205607 L30.949434,40.0261682 C32.2666667,41.3551402 33.5783648,42.6897196 34.9122013,43.9514019 C35.3771069,44.3943925 35.8475472,44.8149533 36.3179874,45.235514 C35.687044,45.0897196 34.5247799,44.8429907 34.4196226,44.8373832 C32.7869182,44.6803738 29.5381132,45.3588785 28.8130818,47.0803738 C28.5868262,47.6634458 28.6155444,48.3164262 28.8920888,48.8767987 C29.1686332,49.4371712 29.6669968,49.8522365 30.2631447,50.0186916 C31.5028931,50.4056075 32.9695597,49.7663551 33.9657862,49.0485981 C34.9620126,48.3308411 36.2737107,46.1439252 36.6334591,45.5271028 C37.4193711,46.2224299 38.2163522,46.8953271 39.0354717,47.517757 C39.3952201,47.7813084 39.7438994,48.0785047 40.0981132,48.3028037 L41.1552201,49.0149533 C41.8913208,49.4803738 42.5776101,49.9121495 43.2749686,50.3271028 L44.3044025,50.9271028 C43.6845283,50.6803738 42.6938365,50.3102804 42.5997484,50.2878505 C41.0057862,49.8841121 37.6961006,50.0523364 36.7220126,51.6392523 C36.4122283,52.1801406 36.3431965,52.8287037 36.5320398,53.424072 C36.7208831,54.0194402 37.1499099,54.5058372 37.7127044,54.7626168 C38.8805031,55.3233645 40.4301887,54.9308411 41.5205031,54.3700935 C42.727044,53.753271 44.5423899,51.4766355 44.7637736,51.1962617 C45.610566,51.6841121 46.4241509,52.1495327 47.2155975,52.5700935 C49.3021384,53.6915888 51.0898113,54.6056075 52.528805,55.2728972 C57.1169811,59.2934579 63.5979874,59.7588785 63.5979874,59.7588785 C63.5979874,59.7588785 63.9411321,51.9084112 59.3861635,46.7719626 C57.7678505,45.0564773 55.7945369,43.7255255 53.6080503,42.8747664 L53.6080503,42.8747664 Z M45.4168553,50.5121495 C45.5607547,50.1869159 46.6566038,47.7084112 46.7340881,46.2953271 C46.9886792,46.2504673 47.248805,46.1943925 47.4978616,46.1383178 C47.9624457,48.6127875 48.9313377,50.9618754 50.3426415,53.035514 C49.5069182,52.6317757 48.6047799,52.188785 47.6472956,51.6953271 C46.9333333,51.3252336 46.1861635,50.9271028 45.4168553,50.5121495 Z" id="Shape"></path>
                                <path d="M87.4465441,41.3719626 C87.4465441,41.3719626 79.6981132,41.6130841 74.9771069,46.5981308 C70.2561006,51.5831776 70.2893049,59.4392523 70.2893049,59.4392523 C70.2893049,59.4392523 78.0377358,59.1981308 82.7587421,54.2130841 C87.4797484,49.2280374 87.4465441,41.3719626 87.4465441,41.3719626 Z" id="Path"></path>
                            </g>
                            <polygon id="Path" fill="#FFFFFF" points="67.2286792 46.4242991 74.8221384 39.5046729 74.5011321 39.1345794 67.2231447 45.7626168 67.1844025 36.6953271 67.2231447 36.7233645 73.648805 27.2018692 73.2503145 26.9214953 67.1788679 35.9102804 67.0903145 14.0859813 66.6032704 14.0915888 66.6641509 28.9009346 61.8269182 24.6616822 61.5114465 25.0317757 66.6696855 29.5570093 66.7139623 40.1439252 59.3806289 33.5775701 59.0596226 33.9420561 66.7139623 40.8056075 66.758239 50.4504673 61.2457862 46.071028 60.9469182 46.4579439 66.758239 51.0785047 66.7859119 57.2859813 67.272956 57.2859813 67.2231447 46.4186916"></polygon>
                            <polygon id="Path" fill="#FFFFFF" points="60.2274214 49.0934579 59.7459119 49.0373832 59.1315723 54.5158879 55.8716981 50.8261682 55.8772327 50.8261682 55.047044 44.1925234 54.5655346 44.2542056 55.3071698 50.1869159 47.1989937 41.0018692 46.8337107 41.3327103 52.3350943 47.5626168 48.8538365 47.6074766 48.8593711 48.1009346 52.7667925 48.0504673 56.6244025 52.4186916 51.1783648 52.4242991 51.1783648 52.917757 57.0616352 52.9121495 60.5650314 56.882243 56.7240252 57.117757 56.7572327 57.611215 60.9801258 57.353271 63.3157233 60 63.6810063 59.6691589 59.568805 55.0093458"></polygon>
                            <polygon id="Path" fill="#FFFFFF" points="78.5856604 51.0448598 85.0500629 49.7158879 84.9559748 49.2336449 79.172327 50.4224299 87.607044 41.5457944 87.2528302 41.2037383 81.5300629 47.2261682 81.231195 43.7102804 80.7441509 43.7551402 81.081761 47.6971963 77.0691824 51.9196262 76.6596226 46.4186916 76.1725786 46.4579439 76.6153459 52.3962617 72.9680503 56.2373832 72.4533333 52.3738318 71.9718239 52.4411215 72.5363522 56.6915888 70.1066667 59.2485981 70.4608805 59.5906542 74.7391195 55.0878505 80.6113208 55.317757 80.6334591 54.8242991 75.192956 54.611215 78.5856604 51.0392523"></polygon>
                        </g>
                        <g id="freepik--Grade--inject-66" transform="translate(18.000000, 57.000000)" fill="#263238" fill-rule="nonzero">
                            <path d="M39.2721401,69.20295 C39.7117121,71.3841 44.9643191,72.261 44.9643191,72.261 L48.8592607,70.041 C50.489572,83.694 51.9362646,94.8384 52.4203502,95.80965 C53.7335019,98.42925 63.3651362,94.9383 64.238716,90.57045 C64.5948249,88.80555 62.8699222,76.9008 60.6943191,63.3477 L74.304358,55.6443 C74.304358,55.6443 74.8997276,53.69625 70.6653696,54.45105 C69.1852918,54.71745 64.8674708,56.3214 59.8930739,58.3971 C56.8327626,39.6936 53.29393,19.8468 53.29393,19.8468 C53.29393,19.8468 99.688249,70.0521 101.880545,70.0521 C104.07284,70.0521 107.133152,69.6192 105.82,65.6898 C104.506848,61.7604 53.29393,12.8649 53.29393,12.8649 C53.29393,12.8649 44.5414397,12.42645 42.7942802,16.35585 C42.7942802,16.35585 45.5263035,41.61945 48.1080934,63.66405 C42.983463,66.156 39.105214,68.37045 39.2721401,69.20295 Z" id="Path"></path>
                            <path d="M142.755175,56.3325 C142.697715,54.0731077 142.472677,51.821056 142.081907,49.5948 C141.307863,45.1406734 139.885072,40.8233622 137.858677,36.77985 C136.868885,34.7757736 135.736454,32.8449836 134.470078,31.0023 C133.230895,29.1667727 131.874114,27.41302 130.40821,25.752 C128.967546,24.0950199 127.427124,22.527022 125.795486,21.0567 C122.572935,18.1594103 119.085675,15.5692219 115.3793,13.32 C100.65642,4.40115 83.6633463,0.3108 66.8371984,0.555 C62.6294542,0.671406433 58.4375943,1.12051465 54.3010506,1.8981 C50.1596616,2.65734133 46.1104761,3.85169499 42.2211673,5.4612 C38.3549049,7.07890787 34.7047427,9.16871208 31.3542802,11.68275 C28.0413807,14.1563719 25.0177302,16.9935828 22.3402724,20.14095 L22.3402724,20.14095 C22.2413083,20.247386 22.2413083,20.411914 22.3402724,20.51835 C22.3925109,20.5708843 22.4636203,20.600434 22.5378016,20.600434 C22.6119828,20.600434 22.6830922,20.5708843 22.7353307,20.51835 C25.5397677,17.5876241 28.6661437,14.9812035 32.0553696,12.74835 C35.4171048,10.4763463 39.0462449,8.6253999 42.8610506,7.2372 C50.5007004,4.4622 58.685642,3.41325 66.7871206,3.49095 C74.9239272,3.61256327 83.0079415,4.81833728 90.8244747,7.07625 C98.6503058,9.2926439 106.114605,12.6236581 112.986693,16.96635 C119.791712,21.3453 125.929027,26.8842 130.380389,33.61635 C131.499973,35.2944679 132.496698,37.0509788 133.362802,38.8722 C135.119837,42.5004763 136.336389,46.3651823 136.973969,50.34405 C137.293555,52.3322863 137.466509,54.3412255 137.49144,56.3547 C137.511882,58.3667427 137.40409,60.3780473 137.168716,62.37645 C137.018482,63.3699 136.879377,64.36335 136.68463,65.35125 L136.345214,66.81645 L136.178288,67.54905 L135.961284,68.27055 C134.830342,72.133696 133.125462,75.8060144 130.903424,79.1652 C126.452062,85.8807 120.125564,91.25865 113.125798,95.2602 C106.057117,99.2417897 98.3828223,102.042704 90.4071595,103.5519 C82.4304161,105.094747 74.2819876,105.561423 66.1806226,104.9394 C65.1623735,104.895 64.1552529,104.75625 63.1481323,104.66745 C62.6417899,104.61195 62.1354475,104.56755 61.6346693,104.5065 L60.1323346,104.27895 C59.1307782,104.11245 58.1236576,104.00145 57.1332296,103.79055 L54.1842023,103.23 C53.6867188,103.130961 53.1945838,103.006852 52.7096887,102.85815 L51.2463035,102.453 C50.2670039,102.18105 49.2877043,101.92575 48.3362257,101.5761 L45.4595331,100.59375 L42.6384825,99.456 C42.1710895,99.26175 41.6981323,99.0786 41.2363035,98.87325 L39.8619455,98.235 C38.9494163,97.791 38.0201946,97.38585 37.124358,96.9141 C35.3493774,95.93175 33.5410117,95.01045 31.8494942,93.88935 L30.5641634,93.0846 L29.918716,92.67945 L29.3010895,92.241 L26.8250195,90.465 C25.9959533,89.8767 25.2336576,89.20515 24.4379767,88.578 L23.2583658,87.6234 C22.8577432,87.3126 22.5016342,86.9463 22.1455253,86.6133 L19.9198444,84.5598 L17.8054475,82.35645 C17.4604669,81.9846 17.0987938,81.63495 16.7705058,81.24645 L15.7967704,80.08095 L14.823035,78.91545 C14.5058755,78.5214 14.1608949,78.14955 13.8826848,77.72775 L12.1132685,75.26355 L11.6681323,74.6475 L11.2730739,73.99815 L10.4607004,72.705 C9.41247478,70.9765434 8.4523565,69.19643 7.58400778,67.37145 C5.88533385,63.7034436 4.70378733,59.8185881 4.07299611,55.82745 C3.48403138,51.8291486 3.50466678,47.7649961 4.13420233,43.77285 C4.7692798,39.7729027 5.94279439,35.8767724 7.6229572,32.19 C9.31668422,28.5094837 11.4042535,25.0223349 13.8492996,21.7893 C18.7892517,15.331081 24.7705945,9.73636116 31.5490272,5.23365 C31.6738123,5.15311138 31.7109347,4.98772163 31.6324903,4.8618 C31.553279,4.73267811 31.3849355,4.69069964 31.2541245,4.76745 L31.2541245,4.76745 C27.7053832,6.86968276 24.3252218,9.24293075 21.1439689,11.8659 C17.9487252,14.5304169 15.0041584,17.4804719 12.346965,20.6793 C9.64224414,23.9193173 7.31799088,27.4573168 5.41953307,31.2243 C3.48516691,35.0563794 2.07951124,39.1318974 1.24081712,43.33995 C0.422827605,47.6218147 0.265213073,52.0031699 0.773424125,56.3325 C1.32354791,60.6727845 2.47326199,64.9162422 4.18984436,68.9421 C5.92409665,72.9132218 8.07852841,76.6882733 10.6164981,80.20305 C10.9114008,80.65815 11.2675097,81.0633 11.5957977,81.49065 L12.6084825,82.7616 L13.6156031,84.027 C13.9605837,84.44325 14.3389494,84.83175 14.6950584,85.23135 L16.8873541,87.61785 L19.2187549,89.83785 C19.6138132,90.20415 19.9866148,90.5982 20.3983658,90.94785 L21.6336187,91.99125 C22.4626848,92.6739 23.2583658,93.4065 24.1208171,94.0503 L26.7081712,96.015 L27.3591829,96.49785 L28.0268872,96.94185 L29.3789883,97.82985 C31.1484047,99.0675 33.0624903,100.04985 34.9431907,101.15985 C35.8891051,101.67045 36.8684047,102.12 37.8310117,102.6084 L39.2832685,103.3188 C39.7729183,103.54635 40.2736965,103.74615 40.7689105,103.95705 L43.751323,105.21135 L46.80607,106.32135 C47.8187549,106.70985 48.8592607,106.99845 49.8997665,107.3037 L51.4577432,107.7588 C51.975214,107.9142 52.498249,108.06405 53.0324125,108.17505 L56.2040078,108.9021 C57.2667704,109.1463 58.3517899,109.28505 59.4256809,109.4571 L61.0392996,109.7235 C61.5957198,109.8012 62.1020623,109.85115 62.6306615,109.91775 C63.6934241,110.02875 64.7561868,110.1897 65.8245136,110.2563 C70.0955981,110.647628 74.3897297,110.725537 78.6722568,110.4894 C82.967909,110.270713 87.2436693,109.760786 91.4699222,108.96315 C100.045339,107.390244 108.303256,104.422132 115.913463,100.1775 C123.508599,95.79855 130.44716,89.8434 135.454942,82.251 C137.956515,78.422517 139.867782,74.2411842 141.124864,69.84675 L141.364125,69.02535 L141.558872,68.1873 L141.931673,66.5223 C142.148677,65.4123 142.304475,64.2579 142.488093,63.13125 C142.739155,60.8742229 142.828409,58.6022017 142.755175,56.3325 Z" id="Path"></path>
                            <path d="M66.16393,19.8468 C66.4833276,20.5216048 67.1629597,20.9533866 67.9110895,20.9568 C68.2085403,20.9587281 68.5022077,20.8902538 68.7679767,20.757 L76.5578599,16.94415 L81.6602335,21.27315 C82.1859165,21.7541357 82.933179,21.9099509 83.6080112,21.6792902 C84.2828434,21.4486295 84.7772369,20.8684107 84.8966731,20.1669202 C85.0161092,19.4654298 84.741472,18.754943 84.1808171,18.315 L80.3637743,15.0738 L84.6649027,12.95925 C85.2960604,12.6459638 85.7117102,12.0206163 85.7552809,11.3187698 C85.7988517,10.6169233 85.4637239,9.94520505 84.876137,9.55664477 C84.28855,9.16808449 83.5377724,9.12171377 82.9066148,9.435 L77.0920233,12.29325 L73.0078988,8.8245 C72.1889379,8.1287041 70.9595415,8.22685449 70.261965,9.04372504 C69.5643886,9.86059559 69.6627901,11.086854 70.481751,11.78265 L73.2638521,14.1636 L67.0096887,17.23275 C66.0525412,17.7217307 65.6739128,18.8919858 66.16393,19.8468 Z" id="Path"></path>
                        </g>
                        <g id="freepik--Shadow--inject-66" transform="translate(94.000000, 108.000000)" fill="#000000" fill-rule="nonzero" opacity="0.3">
                            <path d="M112.446078,85.2151899 L76.0035784,69.2081013 C71.5722059,65.4151899 66.3265686,61.0374684 65.4790686,60.8202532 C63.9391667,60.4303797 64.7091176,58.4977215 67.4067157,53.8470886 C70.1043137,49.1964557 51.1048039,40.2906329 46.2469118,40.7640506 C42.3694608,41.1483544 37.7497549,40.363038 36.082451,40.04 C37.4727941,35.8906329 38.907451,31.7746835 38.907451,31.7746835 L20.0242647,23.4648101 L4.98529412,0.395443038 L0.288039216,1.89924051 C0.288039216,1.89924051 6.86862745,17.0040506 14.5847549,34.2977215 C11.737598,33.3843038 5.94911765,32.1422785 5.37303922,36.798481 C4.60308824,42.9918987 9.22279412,47.6425316 13.8425,47.6425316 C16.3905392,47.6425316 18.8277941,47.5255696 20.4895588,47.4197468 C28.9147059,66.0612658 37.1072059,83.5387342 38.5030882,84.4298734 C41.5884314,86.3681013 52.3511275,89.0749367 52.7554902,86.3681013 C53.1598529,83.6612658 41.9706373,63.9058228 41.9706373,63.9058228 C41.9706373,63.9058228 101.284559,87.5265823 107.460784,87.5265823 C113.63701,87.5265823 112.446078,85.2151899 112.446078,85.2151899 Z M56.2230392,51.8977215 C56.2230392,51.8977215 54.5058824,56.8602532 54.7551471,59.8622785 L44.6405392,55.4065823 L56.2230392,51.8977215 Z M28.8759314,31.3736709 L27.5243627,35.0050633 L24.4334804,30.2597468 L28.8759314,31.3736709 Z" id="Shape"></path>
                        </g>
                        <g id="freepik--Character--inject-66" transform="translate(94.000000, 38.000000)">
                            <path d="M88.8086124,35.810424 C88.8086124,35.810424 90.0026316,33.2473852 89.2543062,31.2834982 C88.5059809,29.3196113 74.7389952,26.1518728 74.7389952,26.1518728 C74.7389952,26.1518728 71.5916268,26.1518728 71.7401914,27.960424 C71.888756,29.7689753 83.2677033,36.7146996 84.1645933,37.3193993 C85.0614833,37.9240989 88.5059809,39.2832862 88.8086124,35.810424 Z" id="Path" stroke="#263238" fill="#FFFFFF" fill-rule="nonzero" stroke-linecap="round" stroke-linejoin="round"></path>
                            <path d="M78.6291866,34.3014488 C79.4903955,32.7638446 80.9583202,31.6669414 82.6679426,31.2834982 C85.5126794,30.6787986 89.2708134,32.6426855 89.7055024,35.810424 C90.1401914,38.9781625 87.7576555,40.4871378 86.2610048,40.4871378 C84.7643541,40.4871378 83.4162679,38.3734629 83.4162679,38.3734629 C83.4162679,38.3734629 78.6291866,36.5649117 78.6291866,34.3014488 Z" id="Path" stroke="#263238" fill="#FFFFFF" fill-rule="nonzero" stroke-linecap="round" stroke-linejoin="round"></path>
                            <path d="M74.9425837,49.1970318 C76.1076632,52.0057699 78.4700149,54.1326728 81.369378,54.9832862 C86.4205742,56.6032155 95.8296651,54.2898233 101.33756,54.9832862 L105.464354,59.3826148 L99.0430622,63.5433922 C94.2992096,61.9623688 89.4716232,60.6492241 84.5827751,59.6100707 C76.9564593,58.0289753 72.1913876,50.8169611 72.1913876,50.8169611 L74.9425837,49.1970318 Z" id="Path" fill="#263238" fill-rule="nonzero"></path>
                            <polygon id="Path" stroke="#263238" fill="#263238" fill-rule="nonzero" stroke-linecap="round" stroke-linejoin="round" points="3.33995215 70.2061837 0.291626794 72.3475972 1.74976077 73.4127562 4.13779904 72.6138869"></polygon>
                            <path d="M72.5930622,18.7124028 C72.5930622,18.7124028 71.2834928,18.2297527 70.0949761,17.6306007 C68.9064593,17.0314488 70.2105263,19.7886572 70.6892344,19.9107067 C71.1679426,20.0327562 72.3399522,20.2713074 72.3399522,20.2713074 L72.5930622,18.7124028 Z" id="Path" stroke="#263238" fill="#FFFFFF" fill-rule="nonzero" stroke-linecap="round" stroke-linejoin="round"></path>
                            <path d="M8.72679426,61.8901767 L2.81722488,69.8067491 C2.39988935,70.3623333 2.33162815,71.1086361 2.64114833,71.7318021 L2.64114833,71.7318021 C3.00111837,72.4574611 3.79076683,72.8589197 4.58349282,72.7192933 L13.1562201,71.2158657 L105.888038,17.4641696 C108.03123,16.2058153 109.577675,14.1260671 110.174799,11.6990872 C110.771923,9.27210732 110.368829,6.70476992 109.057416,4.58240283 L109.057416,4.58240283 C107.754921,2.47967983 105.669187,0.992676723 103.268755,0.455434218 C100.868323,-0.0818082867 98.3544543,0.375754541 96.291866,1.72533569 L8.72679426,61.8901767 Z" id="Path" stroke="#263238" fill="#4788D8" fill-rule="nonzero" stroke-linecap="round" stroke-linejoin="round"></path>
                            <path d="M96.291866,1.72533569 L71.5751196,18.9232155 C71.8062201,23.2393286 73.6440191,28.9534629 81.1327751,31.4776678 L105.893541,17.4475265 C108.853755,15.8021524 110.675674,12.647812 110.634145,9.23998508 C110.592616,5.83215819 108.694379,2.72390261 105.694962,1.15235576 C102.695545,-0.419191091 99.0817267,-0.198982178 96.291866,1.72533569 Z" id="Path" stroke="#263238" fill="#263238" fill-rule="nonzero" stroke-linecap="round" stroke-linejoin="round"></path>
                            <path d="M2.64114833,71.7318021 L2.64114833,71.7318021 C3.00111837,72.4574611 3.79076683,72.8589197 4.58349282,72.7192933 L13.1562201,71.2158657 C6.22320574,68.4974912 8.75430622,61.8901767 8.75430622,61.8901767 L2.84473684,69.8067491 C2.41838904,70.356813 2.339425,71.103466 2.64114833,71.7318021 L2.64114833,71.7318021 Z" id="Path" stroke="#263238" fill="#4788D8" fill-rule="nonzero" stroke-linecap="round" stroke-linejoin="round"></path>
                            <path d="M64.988756,21.4696113 C64.988756,21.4696113 63.657177,21.4696113 63.657177,22.0798587 C63.657177,22.690106 63.3105263,24.8537102 64.0808612,24.7926855 C64.8511962,24.7316608 64.7796651,23.3669258 64.8456938,22.8898233 C64.9117225,22.4127208 64.988756,21.4696113 64.988756,21.4696113 Z" id="Path" stroke="#263238" fill="#FFFFFF" fill-rule="nonzero" stroke-linecap="round" stroke-linejoin="round"></path>
                            <path d="M66.44689,19.2560777 C66.44689,19.2560777 65.2528708,18.8899293 64.9832536,19.6277739 C64.7136364,20.3656184 64.4330144,23.8662191 65.2528708,23.7774558 C66.0727273,23.6886926 66.2598086,20.5265018 66.44689,19.2560777 Z" id="Path" stroke="#263238" fill="#FFFFFF" fill-rule="nonzero" stroke-linecap="round" stroke-linejoin="round"></path>
                            <path d="M68.2736842,19.4446996 C68.2736842,19.4446996 66.9035885,18.2463958 66.44689,19.2560777 C65.9901914,20.2657597 65.8966507,23.13947 66.44689,23.13947 C66.9971292,23.13947 67.8169856,21.9411661 67.9985646,21.2976325 C68.1356772,20.6877137 68.2276371,20.0683633 68.2736842,19.4446996 L68.2736842,19.4446996 Z" id="Path" stroke="#263238" fill="#FFFFFF" fill-rule="nonzero" stroke-linecap="round" stroke-linejoin="round"></path>
                            <path d="M70.1940191,19.9717314 C70.1940191,19.9717314 68.4552632,18.4960424 68.1801435,18.7734276 C67.9050239,19.0508127 66.8100478,21.8912367 67.6299043,22.4626502 C68.4497608,23.0340636 69.4952153,20.4876678 69.4952153,20.4876678 L70.1940191,19.9717314 Z" id="Path" stroke="#263238" fill="#FFFFFF" fill-rule="nonzero" stroke-linecap="round" stroke-linejoin="round"></path>
                            <path d="M48.3715311,33.6523675 C48.3715311,33.6523675 48.5641148,36.614841 49.3454545,37.3027562 C49.8170883,37.7175925 50.2448844,38.1805167 50.6220096,38.6841343 C50.7270164,39.4363848 50.7913062,40.1938436 50.8145933,40.9531449 C50.8145933,41.8407774 51.4033493,41.7464664 51.9150718,41.7464664 C52.4267943,41.7464664 53.2851675,43.4107774 53.7748804,44.2096466 C54.3085827,44.9392424 55.0242755,45.513449 55.8492823,45.8739576 C56.7296651,46.3621555 58.1933014,44.4925795 58.1933014,44.4925795 L60.1301435,47.7379859 L67.0796651,43.1999647 L63.657177,36.4927915 C63.4550828,34.1658466 62.7528504,31.911178 61.5992823,29.885477 C59.645933,26.334947 56.9992823,24.3377739 52.5973684,25.6414841 C48.1954545,26.9451943 48.3715311,33.6523675 48.3715311,33.6523675 Z" id="Path" stroke="#263238" fill="#FFFFFF" fill-rule="nonzero" stroke-linecap="round" stroke-linejoin="round"></path>
                            <path d="M59.4258373,45.790742 L56.4490431,42.7727915" id="Path" stroke="#263238" fill="#FFFFFF" fill-rule="nonzero" stroke-linecap="round" stroke-linejoin="round"></path>
                            <path d="M54.2866029,37.1141343 C53.6972694,37.5052786 52.9335919,37.5052786 52.3442584,37.1141343 C51.2047969,36.3394836 50.5512399,35.0195005 50.6220096,33.6357244 C50.6220096,32.110106 48.6796651,32.764735 48.6796651,32.764735 C48.6796651,32.764735 46.5172249,35.1557951 45.0095694,34.2848057 C43.5019139,33.4138163 42.6325359,31.6773852 46.9519139,26.2350883 C51.2712919,20.7927915 55.3705742,21.0146996 58.8205742,23.1893993 C62.2705742,25.3640989 63.6351675,36.5038869 63.6351675,36.5038869 C63.6351675,36.5038869 63.5691388,38.6286572 60.7629187,39.2777385 C57.9566986,39.9268198 54.2866029,39.2888339 54.2866029,37.1141343 Z" id="Path" stroke="#263238" fill="#263238" fill-rule="nonzero" stroke-linecap="round" stroke-linejoin="round"></path>
                            <path d="M53.7528708,38.9837102 C53.7528708,38.9837102 52.773445,35.2334629 54.3361244,35.7272085 C55.8988038,36.2209541 56.784689,39.5717668 56.6856459,39.9656537 C56.5866029,40.3595406 55.8052632,40.559258 55.4145933,40.4593993" id="Path" stroke="#263238" fill="#FFFFFF" fill-rule="nonzero" stroke-linecap="round" stroke-linejoin="round"></path>
                            <path d="M65.0602871,40.3428975 C63.2345624,41.3744175 61.4906163,42.5466222 59.8440191,43.8490459 C58.1933014,45.3302827 56.7131579,49.7684452 56.7131579,49.7684452 C56.7131579,49.7684452 66.7935407,42.8615548 68.5543062,41.8740636 C70.3150718,40.8865724 70.7057416,40.3983746 70.7057416,40.3983746 C70.7057416,40.3983746 67.0191388,39.8491519 65.0602871,40.3428975 Z" id="Path" stroke="#263238" fill="#FFFFFF" fill-rule="nonzero" stroke-linecap="round" stroke-linejoin="round"></path>
                            <path d="M40.2279904,66.8609187 C40.2279904,66.8609187 37.3777512,65.52947 34.0873206,63.7597527 C30.79689,61.9900353 27.2863636,60.0039576 27.2863636,60.0039576 C26.3398354,59.8868248 25.3826526,59.8868248 24.4361244,60.0039576 C22.7776553,60.4209032 21.0913109,60.7157088 19.3904306,60.8860424 C18.2899522,60.8860424 17.6351675,61.995583 18.2899522,62.4338516 C18.9447368,62.8721201 22.4607656,62.4338516 22.4607656,62.4338516 L16.9583732,65.0912014 C16.9583732,65.0912014 16.3035885,66.4171025 17.838756,66.4171025 C19.3739234,66.4171025 20.0397129,66.1951943 21.7839713,66.4171025 C23.5282297,66.6390106 27.0497608,64.425477 27.0497608,64.425477 C27.0497608,64.425477 36.337799,75.2157597 38.4947368,75.3489046 C40.6516746,75.4820495 45.0590909,70.4003534 40.2279904,66.8609187 Z" id="Path" stroke="#263238" fill="#FFFFFF" fill-rule="nonzero" stroke-linecap="round" stroke-linejoin="round"></path>
                            <path d="M43.1552632,64.7860777 C43.1552632,64.7860777 38.3626794,66.145265 37.4657895,68.2589399 C36.5688995,70.3726148 36.7174641,73.5403534 38.511244,75.3489046 C40.3050239,77.1574558 41.0588517,77.6123675 43.0011962,76.8578799 C44.9435407,76.1033922 45.4002392,74.8995406 45.5488038,73.6901413 C45.6973684,72.480742 46.7703349,68.4087279 43.1552632,64.7860777 Z" id="Path" stroke="#263238" fill="#FFFFFF" fill-rule="nonzero" stroke-linecap="round" stroke-linejoin="round"></path>
                            <path d="M107.247129,149.721413 C106.861635,150.35532 106.512576,151.011029 106.201675,151.6853 C106.05311,152.140212 102.757177,152.589576 103.208373,154.098551 C103.659569,155.607527 107.098565,156.816926 108.749282,156.966714 C110.4,157.116502 113.701435,154.853039 114.284689,154.248339 C114.636842,153.893286 115.165072,151.552155 114.88445,149.721413 C114.700114,148.869527 114.284858,148.085951 113.684928,147.457951 C113.684928,147.457951 110.840191,143.080813 107.247129,149.721413 Z" id="Path" stroke="#263238" fill="#FFFFFF" fill-rule="nonzero" stroke-linecap="round" stroke-linejoin="round"></path>
                            <path d="M114.88445,149.721413 C114.730404,148.957084 114.379301,148.247181 113.866507,147.663216 C112.613744,147.67063 111.419428,148.198449 110.565072,149.122261 C109.068421,150.930813 109.816746,155.002827 108.017464,155.607527 C106.680383,156.05689 104.341866,154.409223 103.241388,153.543781 C103.18018,153.723556 103.18018,153.918776 103.241388,154.098551 C103.692584,155.607527 107.131579,156.816926 108.782297,156.966714 C110.433014,157.116502 113.73445,154.853039 114.317703,154.248339 C114.636842,153.893286 115.165072,151.552155 114.88445,149.721413 Z" id="Path" stroke="#263238" fill="#FFFFFF" fill-rule="nonzero" stroke-linecap="round" stroke-linejoin="round"></path>
                            <path d="M110.994258,150.781025 C110.394498,153.493852 111.142823,155.307951 108.749282,156.966714 C110.4,157.116502 113.701435,154.853039 114.284689,154.248339 C114.636842,153.893286 115.165072,151.552155 114.88445,149.721413 C114.820166,149.344904 114.695658,148.981421 114.515789,148.645159 L114.284689,148.645159 C114.284689,148.645159 111.588517,148.06265 110.994258,150.781025 Z" id="Path" stroke="#263238" fill="#263238" fill-rule="nonzero" stroke-linecap="round" stroke-linejoin="round"></path>
                            <path d="M101.931818,129.649823 C99.6868421,125.122898 90.6023923,112.929046 90.6023923,112.929046 C90.6023923,112.929046 86.4150718,86.5275265 86.2610048,84.7078799 C85.9748804,81.2239223 83.7574163,75.9646996 83.7574163,75.9646996 C83.7574163,75.9646996 76.5327751,74.444629 62.7602871,82.5942049 L62.9088517,87.1211307 L72.5105263,99.059788 C72.9727273,98.6769965 73.2423445,98.4439929 73.2423445,98.4439929 C73.2423445,98.4439929 79.377512,113.977562 80.7255981,117.006608 C82.0736842,120.035654 88.7260766,130.759364 92.027512,132.978445 C93.865311,134.215583 107.247129,149.721413 107.247129,149.721413 C107.247129,149.721413 109.794737,147.457951 111.439952,147.457951 L113.684928,147.457951 C113.684928,147.457951 104.176794,134.176749 101.931818,129.649823 Z" id="Path" stroke="#263238" fill="#263238" fill-rule="nonzero" stroke-linecap="round" stroke-linejoin="round"></path>
                            <g id="Group" opacity="0.35" transform="translate(73.181818, 93.756184)" stroke="#FFFFFF" stroke-linecap="round" stroke-linejoin="round">
                                <path d="M31.2315789,49.5909187 C33.0583732,51.9154064 34.2633971,53.6518375 34.2633971,53.6518375" id="Path"></path>
                                <path d="M3.89569378,6.29664311 C3.89569378,6.29664311 6.26722488,12.5156184 9.35406699,19.6887986 C12.4409091,26.8619788 16.2320574,35.4775618 21.9270335,39.7825795 C24.3315789,41.5966784 26.8791866,44.3538869 29.0801435,46.9280212" id="Path"></path>
                                <polyline id="Path" points="10.3885167 0.00554770318 0.0605263158 4.68226148 11.0157895 4.14413428"></polyline>
                            </g>
                            <path d="M81.7710526,33.2473852 C79.2289474,33.5469611 72.6425837,38.0738869 72.1913876,38.5287986 C71.7401914,38.9837102 69.9464115,40.0377739 69.1980861,40.6424735 C69.1980861,40.6424735 53.7913876,50.3010247 52.4322967,51.1831095 C51.0732057,52.0651943 48.3935407,53.8959364 48.5421053,54.5117314 C48.6906699,55.1275265 40.6076555,68.3809894 40.6076555,68.3809894 C40.6076555,68.3809894 38.2141148,71.5487279 40.4590909,74.4168905 C42.704067,77.285053 44.8004785,75.3211661 45.845933,74.7220141 C46.8913876,74.1228622 55.1284689,66.2673145 55.1284689,66.2673145 L62.7272727,84.574735 C62.7272727,84.574735 73.2478469,77.4625795 84.4727273,77.9174912 L76.9894737,48.3371378 C76.9894737,48.3371378 87.3174641,40.4871378 87.6145933,37.7965018 C87.9117225,35.1058657 84.3186603,32.9422615 81.7710526,33.2473852 Z" id="Path" fill="#FFFFFF" fill-rule="nonzero"></path>
                            <g id="Group" transform="translate(39.617225, 32.731449)" fill-rule="nonzero">
                                <path d="M42.1538278,0.515936396 C41.1358852,0.632438163 39.4686603,1.43130742 37.8069378,2.37996466 C38.581953,2.22988884 39.3708028,2.56201128 39.8098086,3.22321555 C41.0478469,4.82650177 38.3956938,9.98586572 38.3956938,9.98586572 C38.3956938,9.98586572 37.2952153,2.85151943 37.3392344,4.99293286 C37.3832536,7.13434629 36.7889952,13.7139223 36.7889952,13.7139223 C36.7889952,13.7139223 33.2564593,9.44219081 33.4325359,10.5128975 C33.6086124,11.5836042 35.90311,21.5472792 37.3172249,25.2864311 C38.7313397,29.025583 36.2552632,39.5273852 34.8466507,42.5564311 C33.4380383,45.585477 34.2964115,29.7412367 32.7282297,33.6523675 C31.1600478,37.5634982 25.861244,48.4425442 24.6232057,49.5132509 C23.3851675,50.5839576 25.019378,34.9949117 25.4595694,32.9644523 C24.9093301,34.6620495 21.2722488,45.4134982 21.2722488,45.4134982 L16.3200957,32.5983039 C16.3200957,32.5983039 7.84641148,25.6525795 8.72679426,26.9008127 C9.60717703,28.1490459 11.7311005,32.0657244 11.7311005,32.0657244 C11.7311005,32.0657244 6.60837321,30.9950177 7.49425837,31.3500707 C8.38014354,31.7051237 12.2593301,33.6634629 12.2593301,33.6634629 C12.2593301,33.6634629 4.31937799,39.3886926 2.02488038,40.0766078 C1.40788614,40.2599002 0.773433632,40.3770503 0.132057416,40.4261131 C0.297578322,40.8912387 0.53733744,41.3259842 0.841866029,41.7131802 C3.08684211,44.5813428 5.18325359,42.6174558 6.22870813,42.0183039 C7.27416268,41.4191519 15.511244,33.5636042 15.511244,33.5636042 L23.1100478,51.8432862 C23.1100478,51.8432862 33.630622,44.7311307 44.8555024,45.1860424 L37.3722488,15.605689 C37.3722488,15.605689 47.7002392,7.75568905 47.9973684,5.065053 C48.2944976,2.37441696 44.7014354,0.210812721 42.1538278,0.515936396 Z" id="Path" fill="#4788D8"></path>
                                <path d="M42.1538278,0.515936396 C41.1358852,0.632438163 39.4686603,1.43130742 37.8069378,2.37996466 C38.581953,2.22988884 39.3708028,2.56201128 39.8098086,3.22321555 C41.0478469,4.82650177 38.3956938,9.98586572 38.3956938,9.98586572 C38.3956938,9.98586572 37.2952153,2.85151943 37.3392344,4.99293286 C37.3832536,7.13434629 36.7889952,13.7139223 36.7889952,13.7139223 C36.7889952,13.7139223 33.2564593,9.44219081 33.4325359,10.5128975 C33.6086124,11.5836042 35.90311,21.5472792 37.3172249,25.2864311 C38.7313397,29.025583 36.2552632,39.5273852 34.8466507,42.5564311 C33.4380383,45.585477 34.2964115,29.7412367 32.7282297,33.6523675 C31.1600478,37.5634982 25.861244,48.4425442 24.6232057,49.5132509 C23.3851675,50.5839576 25.019378,34.9949117 25.4595694,32.9644523 C24.9093301,34.6620495 21.2722488,45.4134982 21.2722488,45.4134982 L16.3200957,32.5983039 C16.3200957,32.5983039 7.84641148,25.6525795 8.72679426,26.9008127 C9.60717703,28.1490459 11.7311005,32.0657244 11.7311005,32.0657244 C11.7311005,32.0657244 6.60837321,30.9950177 7.49425837,31.3500707 C8.38014354,31.7051237 12.2593301,33.6634629 12.2593301,33.6634629 C12.2593301,33.6634629 4.31937799,39.3886926 2.02488038,40.0766078 C1.40788614,40.2599002 0.773433632,40.3770503 0.132057416,40.4261131 C0.297578322,40.8912387 0.53733744,41.3259842 0.841866029,41.7131802 C3.08684211,44.5813428 5.18325359,42.6174558 6.22870813,42.0183039 C7.27416268,41.4191519 15.511244,33.5636042 15.511244,33.5636042 L23.1100478,51.8432862 C23.1100478,51.8432862 33.630622,44.7311307 44.8555024,45.1860424 L37.3722488,15.605689 C37.3722488,15.605689 47.7002392,7.75568905 47.9973684,5.065053 C48.2944976,2.37441696 44.7014354,0.210812721 42.1538278,0.515936396 Z" id="Path" fill="#FFFFFF" opacity="0.5"></path>
                            </g>
                            <path d="M81.7710526,33.2473852 C79.2289474,33.5469611 72.6425837,38.0738869 72.1913876,38.5287986 C71.7401914,38.9837102 69.9464115,40.0377739 69.1980861,40.6424735 C69.1980861,40.6424735 53.7913876,50.3010247 52.4322967,51.1831095 C51.0732057,52.0651943 48.3935407,53.8959364 48.5421053,54.5117314 C48.6906699,55.1275265 40.6076555,68.3809894 40.6076555,68.3809894 C40.6076555,68.3809894 38.2141148,71.5487279 40.4590909,74.4168905 C42.704067,77.285053 44.8004785,75.3211661 45.845933,74.7220141 C46.8913876,74.1228622 55.1284689,66.2673145 55.1284689,66.2673145 L62.7272727,84.574735 C62.7272727,84.574735 73.2478469,77.4625795 84.4727273,77.9174912 L76.9894737,48.3371378 C76.9894737,48.3371378 87.3174641,40.4871378 87.6145933,37.7965018 C87.9117225,35.1058657 84.3186603,32.9422615 81.7710526,33.2473852 Z" id="Path" stroke="#263238" stroke-linecap="round" stroke-linejoin="round"></path>
                            <path d="M62.7272727,84.574735 C62.2848454,80.4157946 62.4965432,76.2125028 63.3545455,72.1201413" id="Path" stroke="#263238" fill="#FFFFFF" fill-rule="nonzero" stroke-linecap="round" stroke-linejoin="round"></path>
                            <path d="M61.3021531,75.3267138 C61.3021531,75.3267138 61.3021531,72.7747703 64.14689,64.7860777" id="Path" stroke="#263238" fill="#FFFFFF" fill-rule="nonzero" stroke-linecap="round" stroke-linejoin="round"></path>
                            <polyline id="Path" stroke="#263238" fill="#FFFFFF" fill-rule="nonzero" stroke-linecap="round" stroke-linejoin="round" points="49.2904306 59.6544523 55.1284689 66.295053 49.141866 61.9179152"></polyline>
                            <polyline id="Path" stroke="#263238" fill="#FFFFFF" fill-rule="nonzero" stroke-linecap="round" stroke-linejoin="round" points="76.9839713 39.8879859 76.9839713 48.3371378 78.9263158 37.4691873"></polyline>
                            <path d="M65.1263158,65.5072792 C65.1034961,65.5682937 65.0869032,65.6314942 65.0767943,65.6959011 C65.142823,65.490636 65.1648325,65.4129682 65.1263158,65.5072792 Z" id="Path" fill="#263238" fill-rule="nonzero"></path>
                            <path d="M68.5488038,29.3307601 C67.7015612,29.3370109 66.9497527,28.7842924 66.6966743,27.9690484 C66.4435959,27.1538044 66.7487029,26.2675589 67.4483254,25.7857244 L89.6394737,10.4407774 C90.2066114,10.0443767 90.9404184,9.98314325 91.5644765,10.2801432 C92.1885346,10.5771431 92.6080346,11.1872549 92.664955,11.8806555 C92.7218753,12.5740562 92.4075684,13.2454014 91.8404306,13.6418021 L69.6492823,28.9922968 C69.3252264,29.215522 68.9412613,29.3335957 68.5488038,29.3307601 L68.5488038,29.3307601 Z" id="Path" fill="#263238" fill-rule="nonzero"></path>
                            <path d="M74.3098086,26.0908481 L91.565311,14.1189046" id="Path" stroke="#FFFFFF" stroke-linecap="round" stroke-linejoin="round"></path>
                            <path d="M72.3619617,22.4404594 L89.6174641,10.4740636" id="Path" stroke="#FFFFFF" stroke-linecap="round" stroke-linejoin="round"></path>
                            <path d="M62.9088517,87.0989399 C62.9088517,87.0989399 46.2861244,106.588021 45.9229665,111.026184 C45.5598086,115.464346 48.8557416,119.902509 52.8889952,121.012049 C56.9222488,122.12159 96.2423445,123.003675 96.2423445,123.003675 L95.8736842,115.608587 L60.9610048,110.288339 L72.5160287,99.0375972" id="Path" stroke="#263238" fill="#263238" fill-rule="nonzero" stroke-linecap="round" stroke-linejoin="round"></path>
                            <g id="Group" opacity="0.35" transform="translate(50.622010, 83.215548)" stroke="#FFFFFF" stroke-linecap="round" stroke-linejoin="round">
                                <path d="M38.2691388,35.6661837 L40.9267943,35.9713074" id="Path"></path>
                                <path d="M0.885885167,26.390424 L0.126555024,27.3612721 C0.126555024,27.3612721 4.86961722,27.1227208 3.92320574,28.0769258 C3.29447869,28.8264296 2.88319674,29.7363971 2.734689,30.7065371 L5.57942584,29.9908834 C5.57942584,29.9908834 3.92870813,33.3195053 5.1062201,33.1031449 C6.00750644,32.8794036 6.88201547,32.5575979 7.71435407,32.1433922 L35.2263158,35.3111307" id="Path"></path>
                                <path d="M16.7327751,0.554770318 C16.7327751,0.554770318 12.2208134,3.6670318 14.361244,4.14413428 C16.5016746,4.62123675 19.1043062,3.90558304 18.3889952,4.85978799 C17.3510321,6.03061763 16.2488267,7.14189944 15.0875598,8.18840989 L4.49545455,21.7469965" id="Path"></path>
                                <path d="M14.361244,4.16077739 C14.361244,4.16077739 16.969378,0.332862191 22.9009569,0.0943109541" id="Path"></path>
                            </g>
                            <path d="M95.1143541,115.542014 C95.1143541,115.542014 99.2466507,114.593357 100.000478,115.919258 C100.754306,117.245159 101.128469,120.462827 101.128469,121.97735 C101.128469,123.491873 102.228947,125.955053 102.063876,128.229611 C101.898804,130.50417 98.4983254,132.961802 97.3703349,132.961802 C96.2423445,132.961802 96.2698565,126.143675 95.1143541,123.491873 C93.9588517,120.840071 93.8047847,117.056537 95.1143541,115.542014 Z" id="Path" stroke="#263238" fill="#FFFFFF" fill-rule="nonzero" stroke-linecap="round" stroke-linejoin="round"></path>
                            <path d="M97.722488,132.900777 C99.0760766,132.523534 101.893301,130.298905 102.063876,128.229611 C102.256459,125.955053 101.128469,123.491873 101.128469,121.97735 C101.128469,120.462827 100.748804,117.245159 100.000478,115.919258 C99.6648325,115.325654 98.6523923,115.186961 97.6344498,115.2147 C97.0815148,115.785263 96.8250105,116.58369 96.9411483,117.372756 C97.2052632,119.541908 99.3566986,128.351661 98.5533493,130.79265 C98.3171106,131.510985 98.0396897,132.21488 97.722488,132.900777 L97.722488,132.900777 Z" id="Path" stroke="#263238" fill="#FFFFFF" fill-rule="nonzero" stroke-linecap="round" stroke-linejoin="round"></path>
                            <path d="M100.000478,115.946996 C99.7970096,115.656339 99.4890112,115.457279 99.1421053,115.392226 C98.4317367,116.371019 98.0885996,117.572061 98.1736842,118.781873 C98.4102871,122.393428 99.1311005,125.289329 99.3677033,128.418233 C99.5396919,129.793728 99.3281966,131.190334 98.7569378,132.451413 C100.16555,131.602615 101.931818,129.888375 102.058373,128.262898 C102.250957,125.988339 101.122967,123.525159 101.122967,122.010636 C101.122967,120.496113 100.748804,117.245159 100.000478,115.946996 Z" id="Path" stroke="#263238" fill="#263238" fill-rule="nonzero" stroke-linecap="round" stroke-linejoin="round"></path>
                        </g>
                    </g>
                </g>
            </g>
        </g>
    </g>
</svg>