<?xml version="1.0" encoding="UTF-8"?>
<svg width="256px" height="216px" viewBox="0 0 256 216" version="1.1" xmlns="http://www.w3.org/2000/svg" xmlns:xlink="http://www.w3.org/1999/xlink">
    <!-- Generator: Sketch 57.1 (83088) - https://sketch.com -->
    <title>Hello-bro</title>
    <desc>Created with Sketch.</desc>
    <g id="Webdesign-quick-fix" stroke="none" stroke-width="1" fill="none" fill-rule="evenodd">
        <g id="Home-page---UI" transform="translate(-385.000000, -3270.000000)">
            <g id="Hello-bro" transform="translate(385.000000, 3270.000000)">
                <g id="freepik--background-simple--inject-114" transform="translate(13.000000, 0.000000)" fill-rule="nonzero">
                    <path d="M140.730404,16.6672862 L140.730404,2.60223048 C129.877278,5.28252788 119.914933,10.0055762 110.142534,16.6542751 L140.730404,16.6672862 Z" id="Path" fill="#4788D8"></path>
                    <rect id="Rectangle" fill="#4788D8" x="144.994367" y="21.7351301" width="74.9042588" height="92.3401487"></rect>
                    <path d="M140.730404,21.7351301 L103.127628,21.7351301 C94.7241509,27.9804833 86.0979784,34.3039033 76.0308356,37.9079926 C72.6642049,39.1180297 69.2582749,40.1784387 65.8261456,41.1607807 L65.8261456,114.075279 L140.730404,114.075279 L140.730404,21.7351301 Z" id="Path" fill="#4788D8"></path>
                    <path d="M234.71442,36.5092937 C231.879149,31.4501944 228.325428,26.8228147 224.162588,22.7695167 L224.162588,114.075279 L231.865229,114.075279 C243.707385,90.5446097 247.584906,59.7016729 234.71442,36.5092937 Z" id="Path" fill="#4788D8"></path>
                    <path d="M61.5687332,42.3513011 C57.4881671,43.4637546 53.3748518,44.5111524 49.2615364,45.6040892 C17.0296496,54.1589219 -2.95398922,82.9265799 0.746684636,114.075279 L61.5687332,114.075279 L61.5687332,42.3513011 Z" id="Path" fill="#4788D8"></path>
                    <path d="M224.162588,119.143123 L224.162588,126.748141 C225.110135,125.490397 226.016199,124.189281 226.880782,122.844796 C227.653666,121.641264 228.40035,120.398699 229.133935,119.136617 L224.162588,119.143123 Z" id="Path" fill="#4788D8"></path>
                    <path d="M219.898625,119.143123 L144.994367,119.143123 L144.994367,158.085502 C151.223288,158.163569 157.399811,158.657993 163.700782,157.974907 C184.385256,155.736989 205.58062,147.331784 219.898625,131.835502 L219.898625,119.143123 Z" id="Path" fill="#4788D8"></path>
                    <path d="M144.994367,16.6672862 L217.003585,16.6672862 C202.390836,5.85501859 183.442075,0.481412639 165.508544,0.0520446097 C158.631548,-0.149548745 151.752906,0.393618657 144.994367,1.67193309 L144.994367,16.6672862 Z" id="Path" fill="#4788D8"></path>
                    <path d="M140.730404,119.143123 L65.8261456,119.143123 L65.8261456,174.570632 C78.8145283,174.791822 91.8618598,171.083643 104.175606,166.933086 C113.961105,163.641264 123.825202,160.232342 134.160889,158.697026 C136.331243,158.383123 138.518309,158.196307 140.710755,158.137546 L140.730404,119.143123 Z" id="Path" fill="#4788D8"></path>
                    <path d="M61.5687332,119.143123 L1.55886792,119.143123 C6.28787062,141.912639 24.5357951,162.671933 47.4865229,171.22026 C52.0138593,172.899961 56.7523734,173.952898 61.5687332,174.349442 L61.5687332,119.143123 Z" id="Path" fill="#4788D8"></path>
                    <g id="Group" opacity="0.7" fill="#FFFFFF">
                        <path d="M140.730404,16.6672862 L140.730404,2.60223048 C129.877278,5.28252788 119.914933,10.0055762 110.142534,16.6542751 L140.730404,16.6672862 Z" id="Path"></path>
                        <rect id="Rectangle" x="144.994367" y="21.7351301" width="74.9042588" height="92.3401487"></rect>
                        <path d="M140.730404,21.7351301 L103.127628,21.7351301 C94.7241509,27.9804833 86.0979784,34.3039033 76.0308356,37.9079926 C72.6642049,39.1180297 69.2582749,40.1784387 65.8261456,41.1607807 L65.8261456,114.075279 L140.730404,114.075279 L140.730404,21.7351301 Z" id="Path"></path>
                        <path d="M234.71442,36.5092937 C231.879149,31.4501944 228.325428,26.8228147 224.162588,22.7695167 L224.162588,114.075279 L231.865229,114.075279 C243.707385,90.5446097 247.584906,59.7016729 234.71442,36.5092937 Z" id="Path"></path>
                        <path d="M61.5687332,42.3513011 C57.4881671,43.4637546 53.3748518,44.5111524 49.2615364,45.6040892 C17.0296496,54.1589219 -2.95398922,82.9265799 0.746684636,114.075279 L61.5687332,114.075279 L61.5687332,42.3513011 Z" id="Path"></path>
                        <path d="M224.162588,119.143123 L224.162588,126.748141 C225.110135,125.490397 226.016199,124.189281 226.880782,122.844796 C227.653666,121.641264 228.40035,120.398699 229.133935,119.136617 L224.162588,119.143123 Z" id="Path"></path>
                        <path d="M219.898625,119.143123 L144.994367,119.143123 L144.994367,158.085502 C151.223288,158.163569 157.399811,158.657993 163.700782,157.974907 C184.385256,155.736989 205.58062,147.331784 219.898625,131.835502 L219.898625,119.143123 Z" id="Path"></path>
                        <path d="M144.994367,16.6672862 L217.003585,16.6672862 C202.390836,5.85501859 183.442075,0.481412639 165.508544,0.0520446097 C158.631548,-0.149548745 151.752906,0.393618657 144.994367,1.67193309 L144.994367,16.6672862 Z" id="Path"></path>
                        <path d="M140.730404,119.143123 L65.8261456,119.143123 L65.8261456,174.570632 C78.8145283,174.791822 91.8618598,171.083643 104.175606,166.933086 C113.961105,163.641264 123.825202,160.232342 134.160889,158.697026 C136.331243,158.383123 138.518309,158.196307 140.710755,158.137546 L140.730404,119.143123 Z" id="Path"></path>
                        <path d="M61.5687332,119.143123 L1.55886792,119.143123 C6.28787062,141.912639 24.5357951,162.671933 47.4865229,171.22026 C52.0138593,172.899961 56.7523734,173.952898 61.5687332,174.349442 L61.5687332,119.143123 Z" id="Path"></path>
                    </g>
                </g>
                <g id="freepik--Desk--inject-114" transform="translate(116.000000, 136.000000)" fill-rule="nonzero">
                    <polygon id="Path" fill="#4788D8" points="130.459055 0.0130526316 127.695672 0.0130526316 2.90676617 0.0130526316 0.143383085 0.0130526316 0.143383085 5.54736842 2.90676617 5.54736842 2.90676617 61.8042105 127.695672 61.8042105 127.695672 5.54736842 130.459055 5.54736842"></polygon>
                    <polygon id="Path" fill="#FFFFFF" opacity="0.5" points="130.459055 0.0130526316 127.695672 0.0130526316 2.90676617 0.0130526316 0.143383085 0.0130526316 0.143383085 5.54736842 2.90676617 5.54736842 2.90676617 61.8042105 127.695672 61.8042105 127.695672 5.54736842 130.459055 5.54736842"></polygon>
                    <path d="M6.24368159,29.4075789 L40.2841294,29.4075789 L40.2841294,11.1991579 L6.24368159,11.1991579 L6.24368159,29.4075789 Z M6.93452736,11.8909474 L39.5932836,11.8909474 L39.5932836,28.7157895 L6.93452736,28.7157895 L6.93452736,11.8909474 Z" id="Shape" fill="#FFFFFF"></path>
                    <path d="M48.5156219,29.4075789 L82.5495522,29.4075789 L82.5495522,11.1991579 L48.5156219,11.1991579 L48.5156219,29.4075789 Z M49.2064677,11.8909474 L81.8587065,11.8909474 L81.8587065,28.7157895 L49.2064677,28.7157895 L49.2064677,11.8909474 Z" id="Shape" fill="#FFFFFF"></path>
                    <path d="M90.7810448,11.1991579 L90.7810448,29.4075789 L124.814975,29.4075789 L124.814975,11.1991579 L90.7810448,11.1991579 Z M124.124129,28.7157895 L91.4718905,28.7157895 L91.4718905,11.8909474 L124.124129,11.8909474 L124.124129,28.7157895 Z" id="Shape" fill="#FFFFFF"></path>
                    <path d="M6.24368159,53.8486316 L40.2841294,53.8486316 L40.2841294,35.6336842 L6.24368159,35.6336842 L6.24368159,53.8486316 Z M6.93452736,36.3254737 L39.5932836,36.3254737 L39.5932836,53.1568421 L6.93452736,53.1568421 L6.93452736,36.3254737 Z" id="Shape" fill="#FFFFFF"></path>
                    <path d="M48.5156219,53.8486316 L82.5495522,53.8486316 L82.5495522,35.6336842 L48.5156219,35.6336842 L48.5156219,53.8486316 Z M49.2064677,36.3254737 L81.8587065,36.3254737 L81.8587065,53.1568421 L49.2064677,53.1568421 L49.2064677,36.3254737 Z" id="Shape" fill="#FFFFFF"></path>
                    <path d="M90.7810448,53.8486316 L124.814975,53.8486316 L124.814975,35.6336842 L90.7810448,35.6336842 L90.7810448,53.8486316 Z M91.4718905,36.3254737 L124.124129,36.3254737 L124.124129,53.1568421 L91.4718905,53.1568421 L91.4718905,36.3254737 Z" id="Shape" fill="#FFFFFF"></path>
                    <ellipse id="Oval" fill="#FFFFFF" cx="23.6256219" cy="20.5317895" rx="5.52676617" ry="2.07536842"></ellipse>
                    <ellipse id="Oval" fill="#FFFFFF" cx="65.689005" cy="20.5317895" rx="5.52676617" ry="2.07536842"></ellipse>
                    <ellipse id="Oval" fill="#FFFFFF" cx="108.977662" cy="20.5317895" rx="5.52676617" ry="2.07536842"></ellipse>
                    <path d="M23.6256219,42.8974737 C20.5754726,42.8974737 18.1053731,43.8242105 18.1053731,44.9728421 C18.1053731,46.1214737 20.5754726,47.0482105 23.6256219,47.0482105 C26.6757711,47.0482105 29.1523881,46.1214737 29.1523881,44.9728421 C29.1523881,43.8242105 26.6822886,42.8974737 23.6256219,42.8974737 Z" id="Path" fill="#FFFFFF"></path>
                    <path d="M65.689005,42.8974737 C62.6388557,42.8974737 60.1687562,43.8242105 60.1687562,44.9728421 C60.1687562,46.1214737 62.6388557,47.0482105 65.689005,47.0482105 C68.7391542,47.0482105 71.2157711,46.1214737 71.2157711,44.9728421 C71.2157711,43.8242105 68.7456716,42.8974737 65.689005,42.8974737 Z" id="Path" fill="#FFFFFF"></path>
                    <path d="M108.977662,42.8974737 C105.927512,42.8974737 103.450896,43.8242105 103.450896,44.9728421 C103.450896,46.1214737 105.927512,47.0482105 108.977662,47.0482105 C112.027811,47.0482105 114.504428,46.1214737 114.504428,44.9728421 C114.504428,43.8242105 112.027811,42.8974737 108.977662,42.8974737 Z" id="Path" fill="#FFFFFF"></path>
                </g>
                <g id="freepik--Plants--inject-114" transform="translate(0.000000, 92.000000)" fill-rule="nonzero">
                    <path d="M69.9448739,38.3562963 C67.3823529,42.0990123 63.8107563,46.9737037 61.9054622,50.8865432 C62.6290756,48.3085185 63.3394118,45.8744444 63.9833613,43.6890123 C64.9592437,41.8045679 67.5748739,37.0280247 70.6220168,33.8741975 C74.452521,29.8304938 76.0922689,27.2393827 74.0276471,27.0103704 C72.6003361,26.8533333 68.4179832,32.3430864 65.7957143,37.8001235 C66.3666387,35.9353086 66.8180672,34.5285185 67.0902521,33.6779012 C67.2163866,33.3049383 67.3358824,32.8861728 67.4553782,32.4477778 C70.1698037,28.7111218 72.6399599,24.8078267 74.8508403,20.7616049 C78.7211765,13.6295062 79.9692437,6.90308642 77.3868067,9.8017284 C75.0101681,12.4648148 70.8742857,25.7017284 67.5947899,31.9374074 C67.8669748,30.864321 68.132521,29.6734568 68.3648739,28.5022222 C68.8295798,27.3702469 69.4403361,26.218642 69.7855462,25.1717284 C70.3232773,23.568642 70.7946218,21.9393827 71.1730252,20.2904938 C71.7966085,17.7183575 72.1129853,15.0831898 72.1157143,12.438642 C72.1815359,9.33247812 71.3230129,6.2753122 69.6461345,3.6445679 C69.2013445,2.99024691 66.4861345,-1.01419753 65.6629412,1.02728395 C65.5568257,1.36849671 65.5363229,1.72999699 65.6031933,2.08074074 C66.0015126,5.48975309 67.2562185,8.62395062 68.0329412,11.941358 C69.1947059,16.9076543 68.4246218,25.2502469 68.0329412,28.7966667 C67.8868908,29.3528395 67.7010084,30.052963 67.4819328,30.8577778 C68.0196639,24.6744444 65.3044538,17.3525926 62.7884034,16.0766667 C59.6748739,14.4932099 62.7286555,20.7092593 65.1318487,26.1335802 C66.2727822,28.5094468 66.8082981,31.1238234 66.6919328,33.7498765 C66.2006723,35.5361728 65.6363866,37.5383951 65.0521849,39.5667901 C64.9393277,39.8481481 64.8264706,40.122963 64.7202521,40.3977778 C64.989199,39.0736938 65.1005954,37.7232181 65.0521849,36.3737037 C64.8198319,32.827284 60.7436975,25.7279012 58.0351261,26.7290123 C55.3265546,27.7301235 59.9138655,31.4793827 62.3635294,35.8371605 C63.615593,38.2269705 64.0929597,40.9380751 63.7310924,43.6039506 C63.7310924,43.7609877 63.6779832,43.9180247 63.6580672,44.0750617 C63.3792437,44.9976543 63.1004202,45.8940741 62.8282353,46.7381481 C62.1643697,48.7011111 61.600084,50.5855556 61.0357983,52.4045679 C61.7291382,49.7676982 62.0332173,47.0460909 61.9386555,44.3237037 C61.600084,39.1218519 58.5131092,34.2144444 55.9638655,33.547037 C53.4146218,32.8796296 58.2807563,41.3530864 59.9138655,46.1165432 C60.8018269,48.8986758 60.9526621,51.8584932 60.3520168,54.714321 C59.5620168,57.2923457 58.8184874,59.8311111 58.055042,62.5269136 C58.2708008,59.0042834 58.1953136,55.4701886 57.8293277,51.9596296 C57.3314286,46.1754321 53.8461345,42.4785185 51.4363025,42.6290123 C49.0264706,42.7795062 51.542521,46.0641975 55.0078992,53.0981481 C56.8370957,56.7915577 57.6519685,60.8930736 57.3712605,64.9937037 C57.0592437,66.1322222 56.707395,67.2969136 56.4152941,68.5139506 C56.0435294,69.9011111 55.7514286,71.4060494 55.492521,72.9502469 C55.1406723,71.5761728 54.6228571,69.5608642 54.0187395,67.3361728 C53.3152022,64.8745757 52.8047341,62.3633063 52.4918487,59.8245679 C52.1665546,56.8735802 51.3765546,53.1962963 48.4422689,51.658642 C48.0403326,51.3792188 47.5330247,51.2907261 47.0582028,51.4172114 C46.5833808,51.5436966 46.1903693,51.8720204 45.9859664,52.312963 C45.7104805,52.9442958 45.6476569,53.6460608 45.8067227,54.3151852 C46.1965557,56.3204252 46.8668128,58.2626501 47.7983193,60.0862963 C47.2172657,61.174201 46.9530307,62.3993825 47.0348739,63.6261728 C47.0348739,64.0907407 47.0747059,64.5487654 47.1078992,65.0002469 C46.8489916,64.535679 46.6033613,64.1038272 46.3710084,63.6916049 C45.950838,62.9985855 45.4321894,62.3684093 44.8308403,61.8202469 C44.980788,60.7359708 45.056198,59.6429441 45.0565546,58.548642 C45.0565546,57.1091358 43.3504202,53.4580247 41.8102521,56.1669136 C41.1994958,57.2465432 41.3123529,59.3796296 41.252605,60.792963 C40.8343697,61.1790123 40.7082353,61.977284 41.060084,63.2401235 C40.7109307,66.5182888 40.8856594,69.8301468 41.5778992,73.0549383 L41.0534454,72.1388889 C40.2991392,68.3546041 39.8551282,64.5166125 39.7257143,60.6620988 C39.4734454,54.308642 40.4957983,49.0740741 38.7431933,47.1111111 C36.9905882,45.1481481 36.0014286,52.0512346 36.7515966,59.5432099 C37.1078966,62.9783076 38.0364889,66.3319829 39.5,69.4692593 C37.7739496,66.4135802 36.0678151,63.2990123 34.4546218,60.3087654 C33.7907563,58.6991358 32.1443697,54.3675309 32.5493277,49.9704938 C33.0605042,44.4218519 33.4322689,39.8874074 31.2946218,36.7662963 C29.1569748,33.6451852 28.7121849,35.667037 29.7610924,42.1709877 C30.4780672,46.64 31.2415126,52.6074074 32.562605,56.7492593 C31.3078992,54.3740741 30.1328571,52.1166667 29.0839496,50.068642 C28.4864706,48.0337037 27.0923529,42.7860494 27.0923529,38.4348148 C27.0923529,32.9058025 26.4882353,29.928642 24.8285714,31.1260494 C23.6734454,31.9766667 24.4169748,38.8012346 26.2757983,44.5461728 C25.4061345,42.7991358 24.7489076,41.4577778 24.3705042,40.6660494 C24.1978992,40.3061728 24.0053782,39.9266667 23.7863025,39.5209877 C23.1930031,34.9660936 22.3060548,30.4530543 21.1308403,26.0092593 C19.0263866,18.1574074 15.2821849,12.438642 15.395042,16.2860494 C15.5012605,19.8324691 21.6486555,32.2907407 23.5672269,39.0564198 C23.0228571,38.0880247 22.3921849,37.0411111 21.7548739,36.0269136 C21.310084,34.8883951 20.9582353,33.638642 20.4868908,32.6375309 C19.7632773,31.1064198 18.9865546,29.5949383 18.1168908,28.1358025 C16.7922088,25.8306125 15.1968041,23.6871376 13.3636134,21.7496296 C11.2594873,19.4346194 8.51285938,17.7784873 5.46361345,16.9861728 C4.6802521,16.802963 -0.0730252101,15.6775309 0.736890756,17.771358 C0.891962995,18.0885097 1.11913488,18.3661529 1.4007563,18.582716 C4.05621849,20.8074074 7.13655462,22.2534568 10.0310084,24.1575309 C14.3195798,27.0038272 19.5309244,33.6190123 21.6818487,36.4849383 L22.7042017,38.3693827 C18.8205882,33.4881481 11.7636975,29.961358 9.04184874,30.7203704 C5.66941176,31.6560494 12.2084874,34.1490123 17.7185714,36.4980247 C20.1986741,37.4665089 22.4004373,39.0188325 24.1315126,41.0193827 C25.0078151,42.648642 25.9836975,44.4938272 26.9595798,46.3717284 C27.072437,46.6530864 27.1786555,46.9279012 27.2981513,47.1961728 C26.5762131,46.0484347 25.7206625,44.9877841 24.7489076,44.0358025 C22.0934454,41.6017284 14.2266387,39.1545679 12.9453782,41.7064198 C11.6641176,44.2582716 17.592437,43.9114815 22.4121008,45.4491358 C25.0095174,46.3405736 27.2619568,48.0050437 28.8582353,50.2125926 L29.1304202,50.6117284 C29.5685714,51.4754321 29.9801681,52.312963 30.3718487,53.1177778 C31.2747059,54.9891358 32.1377311,56.7492593 32.987479,58.4635802 C31.6701055,56.0590004 30.0064634,53.855071 28.0483193,51.9203704 C24.1978992,48.3477778 18.5417647,46.8362963 16.1983193,48.0795062 C13.8548739,49.322716 23.3016807,52.2279012 27.7894118,54.622716 C30.3648886,56.0577686 32.5246546,58.1189049 34.0629412,60.6097531 C35.2711765,63.0241975 36.4860504,65.3862963 37.7938655,67.8661728 C35.4977859,65.1469873 32.982391,62.61524 30.2722689,60.295679 C25.9040336,56.4090123 20.7922689,56.055679 19.1392437,57.7765432 C17.4862185,59.4974074 21.5955462,60.2171605 28.9910084,63.0111111 C32.8822296,64.4833638 36.3151389,66.9330565 38.9489916,70.117037 C39.5066387,71.1574074 40.077563,72.2239506 40.6883193,73.3297531 C41.4190016,74.6586231 42.2189214,75.9493592 43.0848739,77.1967901 C41.8766387,76.4246914 40.097479,75.2992593 38.1191597,74.0822222 C35.9007061,72.7580116 33.7899098,71.2660388 31.8057983,69.6197531 C29.5221008,67.6567901 26.3952941,65.5237037 23.1755462,66.3481481 C22.6914424,66.4200628 22.26425,66.6989724 22.0082384,67.1102717 C21.7522269,67.5215709 21.6935178,68.0232937 21.8478151,68.4812346 C22.0822871,69.1283708 22.5223131,69.6836899 23.102521,70.0646914 C26.1297479,72.3809877 30.1992437,73.4933333 33.7243697,74.854321 C36.9549578,76.1084368 40.2659884,77.1510722 43.6358824,77.9754321 C44.4723529,79.1597531 45.3486555,80.3244444 46.2183193,81.4433333 L44.6383193,81.4891358 C42.7662185,81.5414815 34.3218487,77.7725926 30.0332773,76.5555556 C25.7447059,75.3385185 21.734958,77.6417284 26.2293277,80.0234568 C30.7236975,82.4051852 42.9454622,81.8751852 42.9454622,81.8751852 L46.4705882,81.7901235 C47.3004202,82.837037 48.1169748,83.8250617 48.8804202,84.7345679 L32.1377311,84.7345679 L32.1377311,89.3148148 L35.4570588,89.3148148 L38.112521,105.594321 L60.4117647,105.594321 L63.0672269,89.3279012 L66.3865546,89.3279012 L66.3865546,84.7476543 L55.2867227,84.7476543 C55.1970478,82.770382 55.2502916,80.789326 55.4460504,78.8195062 C56.1855518,78.0769468 57.0072458,77.4185074 57.8957143,76.8565432 C62.7684874,73.5391358 71.0269748,73.264321 73.2243697,66.8781481 C73.7554622,65.3339506 73.1579832,63.3579012 71.2858824,63.442963 C69.9581513,63.5083951 68.517563,64.6665432 67.6810924,65.6218519 C64.8928571,68.7953086 62.795042,72.0865432 59.1703361,74.4879012 C59.0043697,74.5991358 56.7206723,76.3919753 55.5854622,77.504321 C55.7115966,76.4639506 55.8709244,75.3516049 56.0767227,74.1541975 C56.9526104,72.6230881 57.9516078,71.1636409 59.0641176,69.7898765 C62.0315966,66.1649383 66.5458824,64.0383951 69.7523529,60.577037 C70.7348739,59.517037 72.0294118,55.7088889 69.0287395,56.6511111 C67.7010084,57.0764198 66.1210084,59.0655556 65.0787395,59.9816049 C62.1311765,62.5988889 59.1039496,65.3862963 57.1787395,68.8280247 C57.2584034,68.4877778 57.3447059,68.1737037 57.4243697,67.8007407 C59.496107,64.5337648 61.8269126,61.4335104 64.394958,58.5290123 C68.6569748,53.7459259 73.0252101,50.6182716 73.0982353,48.0075309 C73.1712605,45.3967901 67.6744538,49.7741975 63.007479,55.7677778 C60.8904123,58.5173355 59.2484969,61.5925652 58.1479832,64.8693827 C59.0043697,61.4734568 59.9138655,58.051358 60.8034454,54.7666667 C61.4142017,53.1308642 63.2265546,48.8777778 66.5657983,45.9267901 C70.7813445,42.2167901 74.1936134,39.1545679 74.7977311,35.4576543 C75.4018487,31.7607407 73.6890756,32.892716 69.9448739,38.3562963 Z M46.3710084,80.4422222 C45.742549,79.5959671 45.0786835,78.6711934 44.3794118,77.6679012 C43.9614423,75.9587435 43.683933,74.2191597 43.5495798,72.4660494 C43.4586677,70.9646827 43.5276439,69.4580591 43.7553782,67.9708642 C44.8867373,69.3530263 46.0899445,70.6765264 47.3601681,71.9360494 C47.3299403,73.2464094 47.1676012,74.5505607 46.8755462,75.8292593 C46.8556303,76.0190123 46.4307563,78.8653086 46.3710084,80.4422222 L46.3710084,80.4422222 Z M49.982437,84.7476543 C49.1260504,83.8512346 48.19,82.7846914 47.1742857,81.4760494 C47.1997891,80.4381711 47.3445504,79.4064848 47.6057983,78.4007407 C48.0122568,76.8153908 48.5955877,75.2792801 49.3451261,73.8204938 C50.9184874,75.292716 52.0736134,76.2741975 52.0736134,76.2741975 L54.7290756,78.564321 C54.5232773,80.8544444 54.4037815,82.9940741 54.3307563,84.7345679 L49.982437,84.7476543 Z M54.7622689,78.1651852 L53.5739496,77.1379012 C52.910084,76.5490123 51.7151261,74.2719753 50.4139496,71.6546914 C50.9729515,70.5502161 51.4650742,69.4140694 51.8877311,68.2522222 C53.2951261,70.8237037 54.5431933,72.8324691 55.280084,73.8990123 C55.1008403,75.3254321 54.9016807,76.7649383 54.7622689,78.1651852 Z" id="Shape" fill="#4788D8"></path>
                    <path d="M69.9448739,38.3562963 C67.3823529,42.0990123 63.8107563,46.9737037 61.9054622,50.8865432 C62.6290756,48.3085185 63.3394118,45.8744444 63.9833613,43.6890123 C64.9592437,41.8045679 67.5748739,37.0280247 70.6220168,33.8741975 C74.452521,29.8304938 76.0922689,27.2393827 74.0276471,27.0103704 C72.6003361,26.8533333 68.4179832,32.3430864 65.7957143,37.8001235 C66.3666387,35.9353086 66.8180672,34.5285185 67.0902521,33.6779012 C67.2163866,33.3049383 67.3358824,32.8861728 67.4553782,32.4477778 C70.1698037,28.7111218 72.6399599,24.8078267 74.8508403,20.7616049 C78.7211765,13.6295062 79.9692437,6.90308642 77.3868067,9.8017284 C75.0101681,12.4648148 70.8742857,25.7017284 67.5947899,31.9374074 C67.8669748,30.864321 68.132521,29.6734568 68.3648739,28.5022222 C68.8295798,27.3702469 69.4403361,26.218642 69.7855462,25.1717284 C70.3232773,23.568642 70.7946218,21.9393827 71.1730252,20.2904938 C71.7966085,17.7183575 72.1129853,15.0831898 72.1157143,12.438642 C72.1815359,9.33247812 71.3230129,6.2753122 69.6461345,3.6445679 C69.2013445,2.99024691 66.4861345,-1.01419753 65.6629412,1.02728395 C65.5568257,1.36849671 65.5363229,1.72999699 65.6031933,2.08074074 C66.0015126,5.48975309 67.2562185,8.62395062 68.0329412,11.941358 C69.1947059,16.9076543 68.4246218,25.2502469 68.0329412,28.7966667 C67.8868908,29.3528395 67.7010084,30.052963 67.4819328,30.8577778 C68.0196639,24.6744444 65.3044538,17.3525926 62.7884034,16.0766667 C59.6748739,14.4932099 62.7286555,20.7092593 65.1318487,26.1335802 C66.2727822,28.5094468 66.8082981,31.1238234 66.6919328,33.7498765 C66.2006723,35.5361728 65.6363866,37.5383951 65.0521849,39.5667901 C64.9393277,39.8481481 64.8264706,40.122963 64.7202521,40.3977778 C64.989199,39.0736938 65.1005954,37.7232181 65.0521849,36.3737037 C64.8198319,32.827284 60.7436975,25.7279012 58.0351261,26.7290123 C55.3265546,27.7301235 59.9138655,31.4793827 62.3635294,35.8371605 C63.615593,38.2269705 64.0929597,40.9380751 63.7310924,43.6039506 C63.7310924,43.7609877 63.6779832,43.9180247 63.6580672,44.0750617 C63.3792437,44.9976543 63.1004202,45.8940741 62.8282353,46.7381481 C62.1643697,48.7011111 61.600084,50.5855556 61.0357983,52.4045679 C61.7291382,49.7676982 62.0332173,47.0460909 61.9386555,44.3237037 C61.600084,39.1218519 58.5131092,34.2144444 55.9638655,33.547037 C53.4146218,32.8796296 58.2807563,41.3530864 59.9138655,46.1165432 C60.8018269,48.8986758 60.9526621,51.8584932 60.3520168,54.714321 C59.5620168,57.2923457 58.8184874,59.8311111 58.055042,62.5269136 C58.2708008,59.0042834 58.1953136,55.4701886 57.8293277,51.9596296 C57.3314286,46.1754321 53.8461345,42.4785185 51.4363025,42.6290123 C49.0264706,42.7795062 51.542521,46.0641975 55.0078992,53.0981481 C56.8370957,56.7915577 57.6519685,60.8930736 57.3712605,64.9937037 C57.0592437,66.1322222 56.707395,67.2969136 56.4152941,68.5139506 C56.0435294,69.9011111 55.7514286,71.4060494 55.492521,72.9502469 C55.1406723,71.5761728 54.6228571,69.5608642 54.0187395,67.3361728 C53.3152022,64.8745757 52.8047341,62.3633063 52.4918487,59.8245679 C52.1665546,56.8735802 51.3765546,53.1962963 48.4422689,51.658642 C48.0403326,51.3792188 47.5330247,51.2907261 47.0582028,51.4172114 C46.5833808,51.5436966 46.1903693,51.8720204 45.9859664,52.312963 C45.7104805,52.9442958 45.6476569,53.6460608 45.8067227,54.3151852 C46.1965557,56.3204252 46.8668128,58.2626501 47.7983193,60.0862963 C47.2172657,61.174201 46.9530307,62.3993825 47.0348739,63.6261728 C47.0348739,64.0907407 47.0747059,64.5487654 47.1078992,65.0002469 C46.8489916,64.535679 46.6033613,64.1038272 46.3710084,63.6916049 C45.950838,62.9985855 45.4321894,62.3684093 44.8308403,61.8202469 C44.980788,60.7359708 45.056198,59.6429441 45.0565546,58.548642 C45.0565546,57.1091358 43.3504202,53.4580247 41.8102521,56.1669136 C41.1994958,57.2465432 41.3123529,59.3796296 41.252605,60.792963 C40.8343697,61.1790123 40.7082353,61.977284 41.060084,63.2401235 C40.7109307,66.5182888 40.8856594,69.8301468 41.5778992,73.0549383 L41.0534454,72.1388889 C40.2991392,68.3546041 39.8551282,64.5166125 39.7257143,60.6620988 C39.4734454,54.308642 40.4957983,49.0740741 38.7431933,47.1111111 C36.9905882,45.1481481 36.0014286,52.0512346 36.7515966,59.5432099 C37.1078966,62.9783076 38.0364889,66.3319829 39.5,69.4692593 C37.7739496,66.4135802 36.0678151,63.2990123 34.4546218,60.3087654 C33.7907563,58.6991358 32.1443697,54.3675309 32.5493277,49.9704938 C33.0605042,44.4218519 33.4322689,39.8874074 31.2946218,36.7662963 C29.1569748,33.6451852 28.7121849,35.667037 29.7610924,42.1709877 C30.4780672,46.64 31.2415126,52.6074074 32.562605,56.7492593 C31.3078992,54.3740741 30.1328571,52.1166667 29.0839496,50.068642 C28.4864706,48.0337037 27.0923529,42.7860494 27.0923529,38.4348148 C27.0923529,32.9058025 26.4882353,29.928642 24.8285714,31.1260494 C23.6734454,31.9766667 24.4169748,38.8012346 26.2757983,44.5461728 C25.4061345,42.7991358 24.7489076,41.4577778 24.3705042,40.6660494 C24.1978992,40.3061728 24.0053782,39.9266667 23.7863025,39.5209877 C23.1930031,34.9660936 22.3060548,30.4530543 21.1308403,26.0092593 C19.0263866,18.1574074 15.2821849,12.438642 15.395042,16.2860494 C15.5012605,19.8324691 21.6486555,32.2907407 23.5672269,39.0564198 C23.0228571,38.0880247 22.3921849,37.0411111 21.7548739,36.0269136 C21.310084,34.8883951 20.9582353,33.638642 20.4868908,32.6375309 C19.7632773,31.1064198 18.9865546,29.5949383 18.1168908,28.1358025 C16.7922088,25.8306125 15.1968041,23.6871376 13.3636134,21.7496296 C11.2594873,19.4346194 8.51285938,17.7784873 5.46361345,16.9861728 C4.6802521,16.802963 -0.0730252101,15.6775309 0.736890756,17.771358 C0.891962995,18.0885097 1.11913488,18.3661529 1.4007563,18.582716 C4.05621849,20.8074074 7.13655462,22.2534568 10.0310084,24.1575309 C14.3195798,27.0038272 19.5309244,33.6190123 21.6818487,36.4849383 L22.7042017,38.3693827 C18.8205882,33.4881481 11.7636975,29.961358 9.04184874,30.7203704 C5.66941176,31.6560494 12.2084874,34.1490123 17.7185714,36.4980247 C20.1986741,37.4665089 22.4004373,39.0188325 24.1315126,41.0193827 C25.0078151,42.648642 25.9836975,44.4938272 26.9595798,46.3717284 C27.072437,46.6530864 27.1786555,46.9279012 27.2981513,47.1961728 C26.5762131,46.0484347 25.7206625,44.9877841 24.7489076,44.0358025 C22.0934454,41.6017284 14.2266387,39.1545679 12.9453782,41.7064198 C11.6641176,44.2582716 17.592437,43.9114815 22.4121008,45.4491358 C25.0095174,46.3405736 27.2619568,48.0050437 28.8582353,50.2125926 L29.1304202,50.6117284 C29.5685714,51.4754321 29.9801681,52.312963 30.3718487,53.1177778 C31.2747059,54.9891358 32.1377311,56.7492593 32.987479,58.4635802 C31.6701055,56.0590004 30.0064634,53.855071 28.0483193,51.9203704 C24.1978992,48.3477778 18.5417647,46.8362963 16.1983193,48.0795062 C13.8548739,49.322716 23.3016807,52.2279012 27.7894118,54.622716 C30.3648886,56.0577686 32.5246546,58.1189049 34.0629412,60.6097531 C35.2711765,63.0241975 36.4860504,65.3862963 37.7938655,67.8661728 C35.4977859,65.1469873 32.982391,62.61524 30.2722689,60.295679 C25.9040336,56.4090123 20.7922689,56.055679 19.1392437,57.7765432 C17.4862185,59.4974074 21.5955462,60.2171605 28.9910084,63.0111111 C32.8822296,64.4833638 36.3151389,66.9330565 38.9489916,70.117037 C39.5066387,71.1574074 40.077563,72.2239506 40.6883193,73.3297531 C41.4190016,74.6586231 42.2189214,75.9493592 43.0848739,77.1967901 C41.8766387,76.4246914 40.097479,75.2992593 38.1191597,74.0822222 C35.9007061,72.7580116 33.7899098,71.2660388 31.8057983,69.6197531 C29.5221008,67.6567901 26.3952941,65.5237037 23.1755462,66.3481481 C22.6914424,66.4200628 22.26425,66.6989724 22.0082384,67.1102717 C21.7522269,67.5215709 21.6935178,68.0232937 21.8478151,68.4812346 C22.0822871,69.1283708 22.5223131,69.6836899 23.102521,70.0646914 C26.1297479,72.3809877 30.1992437,73.4933333 33.7243697,74.854321 C36.9549578,76.1084368 40.2659884,77.1510722 43.6358824,77.9754321 C44.4723529,79.1597531 45.3486555,80.3244444 46.2183193,81.4433333 L44.6383193,81.4891358 C42.7662185,81.5414815 34.3218487,77.7725926 30.0332773,76.5555556 C25.7447059,75.3385185 21.734958,77.6417284 26.2293277,80.0234568 C30.7236975,82.4051852 42.9454622,81.8751852 42.9454622,81.8751852 L46.4705882,81.7901235 C47.3004202,82.837037 48.1169748,83.8250617 48.8804202,84.7345679 L32.1377311,84.7345679 L32.1377311,89.3148148 L35.4570588,89.3148148 L38.112521,105.594321 L60.4117647,105.594321 L63.0672269,89.3279012 L66.3865546,89.3279012 L66.3865546,84.7476543 L55.2867227,84.7476543 C55.1970478,82.770382 55.2502916,80.789326 55.4460504,78.8195062 C56.1855518,78.0769468 57.0072458,77.4185074 57.8957143,76.8565432 C62.7684874,73.5391358 71.0269748,73.264321 73.2243697,66.8781481 C73.7554622,65.3339506 73.1579832,63.3579012 71.2858824,63.442963 C69.9581513,63.5083951 68.517563,64.6665432 67.6810924,65.6218519 C64.8928571,68.7953086 62.795042,72.0865432 59.1703361,74.4879012 C59.0043697,74.5991358 56.7206723,76.3919753 55.5854622,77.504321 C55.7115966,76.4639506 55.8709244,75.3516049 56.0767227,74.1541975 C56.9526104,72.6230881 57.9516078,71.1636409 59.0641176,69.7898765 C62.0315966,66.1649383 66.5458824,64.0383951 69.7523529,60.577037 C70.7348739,59.517037 72.0294118,55.7088889 69.0287395,56.6511111 C67.7010084,57.0764198 66.1210084,59.0655556 65.0787395,59.9816049 C62.1311765,62.5988889 59.1039496,65.3862963 57.1787395,68.8280247 C57.2584034,68.4877778 57.3447059,68.1737037 57.4243697,67.8007407 C59.496107,64.5337648 61.8269126,61.4335104 64.394958,58.5290123 C68.6569748,53.7459259 73.0252101,50.6182716 73.0982353,48.0075309 C73.1712605,45.3967901 67.6744538,49.7741975 63.007479,55.7677778 C60.8904123,58.5173355 59.2484969,61.5925652 58.1479832,64.8693827 C59.0043697,61.4734568 59.9138655,58.051358 60.8034454,54.7666667 C61.4142017,53.1308642 63.2265546,48.8777778 66.5657983,45.9267901 C70.7813445,42.2167901 74.1936134,39.1545679 74.7977311,35.4576543 C75.4018487,31.7607407 73.6890756,32.892716 69.9448739,38.3562963 Z M46.3710084,80.4422222 C45.742549,79.5959671 45.0786835,78.6711934 44.3794118,77.6679012 C43.9614423,75.9587435 43.683933,74.2191597 43.5495798,72.4660494 C43.4586677,70.9646827 43.5276439,69.4580591 43.7553782,67.9708642 C44.8867373,69.3530263 46.0899445,70.6765264 47.3601681,71.9360494 C47.3299403,73.2464094 47.1676012,74.5505607 46.8755462,75.8292593 C46.8556303,76.0190123 46.4307563,78.8653086 46.3710084,80.4422222 L46.3710084,80.4422222 Z M49.982437,84.7476543 C49.1260504,83.8512346 48.19,82.7846914 47.1742857,81.4760494 C47.1997891,80.4381711 47.3445504,79.4064848 47.6057983,78.4007407 C48.0122568,76.8153908 48.5955877,75.2792801 49.3451261,73.8204938 C50.9184874,75.292716 52.0736134,76.2741975 52.0736134,76.2741975 L54.7290756,78.564321 C54.5232773,80.8544444 54.4037815,82.9940741 54.3307563,84.7345679 L49.982437,84.7476543 Z M54.7622689,78.1651852 L53.5739496,77.1379012 C52.910084,76.5490123 51.7151261,74.2719753 50.4139496,71.6546914 C50.9729515,70.5502161 51.4650742,69.4140694 51.8877311,68.2522222 C53.2951261,70.8237037 54.5431933,72.8324691 55.280084,73.8990123 C55.1008403,75.3254321 54.9016807,76.7649383 54.7622689,78.1651852 Z" id="Shape" fill="#FFFFFF" opacity="0.5"></path>
                </g>
                <g id="freepik--Characters--inject-114" transform="translate(46.000000, 24.000000)">
                    <ellipse id="Oval" fill="#4788D8" fill-rule="nonzero" cx="27.5287137" cy="184.213959" rx="27.5221577" ry="5.92556314"></ellipse>
                    <ellipse id="Oval" fill="#FFFFFF" fill-rule="nonzero" opacity="0.5" cx="27.5287137" cy="184.213959" rx="27.5221577" ry="5.92556314"></ellipse>
                    <ellipse id="Oval" fill="#4788D8" fill-rule="nonzero" cx="127.389959" cy="184.213959" rx="27.5221577" ry="5.92556314"></ellipse>
                    <ellipse id="Oval" fill="#FFFFFF" fill-rule="nonzero" opacity="0.5" cx="127.389959" cy="184.213959" rx="27.5221577" ry="5.92556314"></ellipse>
                    <path d="M81.1962656,76.02843 C82.3052316,76.7186053 83.2529943,77.6365352 83.9760166,78.7206826 C84.8020747,80.2134812 88.2636515,81.1847782 88.2636515,81.1847782 L89.5420747,81.1847782 L90.066556,87.1624915 C88.7485993,87.205197 87.4347264,87.3314832 86.1329461,87.5405802 C85.3655978,87.7089717 84.5843573,87.807163 83.7990041,87.8339249 C83.7990041,87.8339249 79.7408299,82.755802 79.0655602,81.7845051 C78.3902905,80.8132082 78.3181743,78.7989078 78.619751,78.4208191 C78.9213278,78.0427304 81.1962656,76.02843 81.1962656,76.02843 Z" id="Path" stroke="#263238" stroke-width="0.75" fill="#FFFFFF" fill-rule="nonzero" stroke-linecap="round" stroke-linejoin="round"></path>
                    <path d="M75.7875519,86.1911945 C75.7875519,86.1911945 73.5322822,86.9408532 74.5091286,87.5405802 C75.5385782,87.9957103 76.7448154,87.7553108 77.5183402,86.9408532 C77.8920332,86.3411263 76.7053942,85.8913311 75.7875519,86.1911945 Z" id="Path" stroke="#263238" stroke-width="0.75" fill="#FFFFFF" fill-rule="nonzero" stroke-linecap="round" stroke-linejoin="round"></path>
                    <path d="M73.3093776,79.3204096 C73.3093776,79.3204096 79.9965145,76.9280205 80.2980913,77.1496587 C80.599668,77.3712969 81.1241494,79.392116 81.1241494,79.392116 C81.1241494,79.392116 85.7789212,82.1560751 86.1591701,83.2055973 C86.4606049,84.8346563 86.4606049,86.5047294 86.1591701,88.1337884 C85.9297095,88.5118771 84.6578423,88.9551536 84.1923651,89.1050853 C83.723064,89.2207648 83.2324547,89.2207648 82.7631535,89.1050853 C82.540249,89.0333788 78.9278838,86.4975768 78.9278838,86.4975768 C78.9278838,86.4975768 75.2499585,86.8691468 74.4239004,86.8691468 C73.5978423,86.8691468 72.7652282,86.7974403 72.7652282,86.7974403 L73.3093776,79.3204096 Z" id="Path" stroke="#263238" stroke-width="0.75" fill="#FFFFFF" fill-rule="nonzero" stroke-linecap="round" stroke-linejoin="round"></path>
                    <path d="M81.6486307,82.1365188 C81.6486307,82.1365188 84.126805,83.4859044 84.6578423,84.2290444 C85.1888797,84.9721843 85.706805,88.1924573 85.706805,88.1924573" id="Path" stroke="#263238" stroke-width="0.75" stroke-linecap="round" stroke-linejoin="round"></path>
                    <path d="M80.599668,83.5054608 C80.599668,83.5054608 83.5302075,85.0699659 83.8252282,85.8196246 C84.1057485,86.776099 84.3247255,87.7493655 84.4808299,88.7335154" id="Path" stroke="#263238" stroke-width="0.75" stroke-linecap="round" stroke-linejoin="round"></path>
                    <path d="M82.1009959,77.4495222 C82.1009959,77.4495222 78.8688797,81.0348464 78.1149378,81.4129352 C77.3609959,81.7910239 77.2167635,81.3347099 76.8037344,81.0348464 C76.3907054,80.7349829 79.2097925,76.7063823 79.1376763,76.4065188 C79.948052,75.8117349 81.061453,75.8412928 81.8387552,76.4782253" id="Path" stroke="#263238" stroke-width="0.75" fill="#FFFFFF" fill-rule="nonzero" stroke-linecap="round" stroke-linejoin="round"></path>
                    <path d="M77.3609959,85.3959044 L77.2429876,85.8000683 C77.0054682,86.5147355 76.8665256,87.2581316 76.8299585,88.0099317 C76.9807469,88.3097952 77.8854772,88.6096587 78.1870539,88.1598635 C78.4886307,87.7100683 79.0852282,85.4741297 78.9344398,85.1742662 C78.7836515,84.8744027 78.19361,83.5771672 77.3609959,85.3959044 Z" id="Path" stroke="#263238" stroke-width="0.75" fill="#FFFFFF" fill-rule="nonzero" stroke-linecap="round" stroke-linejoin="round"></path>
                    <path d="M80.2194191,85.0699659 C79.9834025,85.3633106 78.9082158,88.5835836 79.1704564,88.9812287 C79.4326971,89.3788737 80.5209959,89.5092491 80.8225726,89.0594539 C81.1241494,88.6096587 82.173112,85.8000683 81.8715353,85.1481911 C81.5699585,84.496314 81.2946058,83.7988055 80.2194191,85.0699659 Z" id="Path" stroke="#263238" stroke-width="0.75" fill="#FFFFFF" fill-rule="nonzero" stroke-linecap="round" stroke-linejoin="round"></path>
                    <path d="M82.1009959,85.7413993 L81.9895436,86.0021502 C81.6617427,86.777884 80.7242324,89.1181229 80.973361,89.5548805 C81.2224896,89.9916382 82.6975934,90.2067577 82.9991701,89.4831741 C83.3007469,88.7595904 84.3562656,85.9695563 83.6547718,85.2981229 C83.4299853,85.0323082 83.0689981,84.922803 82.7332647,85.0185843 C82.3975312,85.1143657 82.149849,85.397518 82.1009959,85.7413993 L82.1009959,85.7413993 Z" id="Path" stroke="#263238" stroke-width="0.75" fill="#FFFFFF" fill-rule="nonzero" stroke-linecap="round" stroke-linejoin="round"></path>
                    <path d="M30.3805809,22.9069625 C30.3805809,22.9069625 30.7739419,25.3123891 30.3215768,26.2706485 C29.8692116,27.2289078 29.1939419,29.2366894 29.1939419,29.2366894 L39.1721992,38.0370307 C39.1721992,38.0370307 42.2141909,34.2235495 42.7780083,33.4738908 C43.3418257,32.7242321 44.0892116,31.7333788 44.0892116,31.7333788 C44.0892116,31.7333788 39.1853112,28.65 38.1887967,26.4075427 C37.1922822,24.1650853 37.6839834,21.3098635 35.56639,20.8600683 C33.4487967,20.410273 31.0034025,21.5640956 30.3805809,22.9069625 Z" id="Path" stroke="#263238" stroke-width="0.75" fill="#FFFFFF" fill-rule="nonzero" stroke-linecap="round" stroke-linejoin="round"></path>
                    <path d="M49.373361,8.05720137 C49.373361,8.05720137 53.5429876,7.99853242 52.6972614,4.02208191 C51.8515353,0.0456313993 42.1027386,-0.801808874 40.299834,1.04952218 C38.4969295,2.90085324 38.7788382,3.65703072 38.7788382,3.65703072 C38.7788382,3.65703072 30.3805809,3.43539249 28.2367635,7.97245734 C26.0929461,12.5095222 27.0566805,18.4024915 28.4662241,21.4793515 C29.8757676,24.5562116 32.2424896,24.8951877 33.4815768,24.5040614 C34.7206639,24.1129352 35.6188382,23.3828328 35.6188382,22.2616041 C35.6188382,21.1403754 36.4121162,18.4546416 37.3692946,19.1260751 C38.326473,19.7975085 39.3360996,20.0191468 41.0341079,18.3959727 C42.7321162,16.7727986 45.1447303,14.7519795 44.246556,13.1288055 C43.3483817,11.5056314 41.8208299,11.4469625 42.666556,10.7168601 C43.5122822,9.98675768 48.3047303,9.4131058 48.7505394,8.92419795 C48.9988157,8.66633365 49.2085637,8.37435477 49.373361,8.05720137 Z" id="Path" stroke="#263238" stroke-width="0.75" fill="#263238" fill-rule="nonzero" stroke-linecap="round" stroke-linejoin="round"></path>
                    <path d="M49.1701245,5.67133106 C49.1701245,5.67133106 49.760166,6.85122867 44.1482158,8.31795222 C38.5362656,9.78467577 29.0693776,10.0780205 28.7874689,13.6046758" id="Path" stroke="#FFFFFF" stroke-width="0.75" stroke-linecap="round" stroke-linejoin="round"></path>
                    <path d="M38.2543568,12.4312969 C38.2543568,12.4312969 31.4623237,14.4847099 29.9806639,16.8379863 C28.4990041,19.1912628 30.5772614,21.238157 30.5772614,21.238157" id="Path" stroke="#FFFFFF" stroke-width="0.75" stroke-linecap="round" stroke-linejoin="round"></path>
                    <path d="M49.373361,8.05720137 C49.373361,8.05720137 50.953361,13.3765188 50.953361,14.4455973 C50.953361,15.5146758 49.8257261,16.5707167 50.3305394,17.7506143 C50.8353527,18.9305119 52.526805,21.2251195 52.526805,21.9552218 C52.526805,22.6853242 50.0486307,23.4089078 50.0486307,23.4089078 C50.0486307,23.4089078 47.9638174,31.2314334 47.5114523,32.2092491 C47.0590871,33.1870648 45.5446473,33.3304778 43.7351867,32.8611263 C41.9257261,32.3917747 37.14639,29.8885666 35.8679668,27.9329352 C34.5895436,25.9773038 35.5270539,22.6592491 35.5270539,22.6592491 C35.5270539,22.6592491 32.9046473,21.4858703 32.37361,19.0217747 C31.8425726,16.5576792 33.7831535,14.9279863 35.4746058,15.4886007 C36.4358217,15.7713961 37.2329724,16.4433503 37.6708714,17.3399317 C37.6708714,17.3399317 37.8413278,17.9526962 38.326473,17.789727 C38.8116183,17.6267577 39.2836515,16.6098294 39.7360166,16.5511604 C40.1883817,16.4924915 43.4008299,15.3777816 43.0140249,14.1457338 C42.6272199,12.913686 38.6149378,12.8419795 38.8968465,11.4534812 C39.1787552,10.0649829 49.373361,8.05720137 49.373361,8.05720137 Z" id="Path" stroke="#263238" stroke-width="0.75" fill="#FFFFFF" fill-rule="nonzero" stroke-linecap="round" stroke-linejoin="round"></path>
                    <path d="M44.3580083,22.2876792 L42.7255602,23.4089078" id="Path" stroke="#263238" stroke-width="0.75" fill="#FFFFFF" fill-rule="nonzero" stroke-linecap="round" stroke-linejoin="round"></path>
                    <path d="M43.7351867,23.0177816 C43.7351867,23.0177816 44.246556,24.3606485 46.3575934,24.8104437" id="Path" stroke="#263238" stroke-width="0.75" fill="#FFFFFF" fill-rule="nonzero" stroke-linecap="round" stroke-linejoin="round"></path>
                    <path d="M43.7941909,23.4089078 C43.7941909,23.4089078 42.8370124,26.0164164 44.0170954,26.6031058 C45.1971784,27.1897952 45.7085477,24.7582935 45.7085477,24.7582935 L43.7941909,23.4089078 Z" id="Path" fill="#000000" fill-rule="nonzero"></path>
                    <path d="M50.160083,18.1743345 C50.0945228,19.5367577 49.7470539,20.6253925 49.386473,20.6058362 C49.0258921,20.5862799 48.7964315,19.47157 48.8685477,18.1091468 C48.9406639,16.7467235 49.2815768,15.6646075 49.6421577,15.6776451 C50.0027386,15.6906826 50.2321992,16.8119113 50.160083,18.1743345 Z" id="Path" stroke="#263238" stroke-width="0.75" fill="#FFFFFF" fill-rule="nonzero" stroke-linecap="round" stroke-linejoin="round"></path>
                    <path d="M48.8685477,16.7988737 L37.3692946,16.7988737" id="Path" stroke="#263238" stroke-width="0.75" fill="#FFFFFF" fill-rule="nonzero" stroke-linecap="round" stroke-linejoin="round"></path>
                    <path d="M48.0752697,15.2865188 C48.2494693,14.6666573 48.7093282,14.1658637 49.3143568,13.9371331 C50.2780913,13.6568259 50.4419917,14.1652901 50.4419917,14.1652901" id="Path" stroke="#263238" stroke-width="0.75" fill="#FFFFFF" fill-rule="nonzero" stroke-linecap="round" stroke-linejoin="round"></path>
                    <path d="M8.98174274,110.25198 L43.9253112,109.208976 C43.9253112,109.208976 46.1019087,133.263242 45.5774274,133.791263 C45.0529461,134.319283 10.4109544,135.746894 10.4109544,135.746894 C10.4109544,135.746894 7.72954357,135.935939 7.34929461,134.743003 C6.96904564,133.550068 8.98174274,110.25198 8.98174274,110.25198 Z" id="Path" stroke="#263238" stroke-width="0.75" fill="#FFFFFF" fill-rule="nonzero" stroke-linecap="round" stroke-linejoin="round"></path>
                    <path d="M8.98174274,110.25198 C8.98174274,110.25198 5.70373444,134.084608 6.27410788,134.76256 C6.84448133,135.440512 9.55211618,135.92942 10.4109544,135.733857 C11.1976763,135.590444 8.98174274,110.25198 8.98174274,110.25198 Z" id="Path" stroke="#263238" stroke-width="0.75" fill="#FFFFFF" fill-rule="nonzero" stroke-linecap="round" stroke-linejoin="round"></path>
                    <path d="M19.2746888,175.557031 C17.3537759,176.723891 16.4228216,178.69256 16.8751867,180.263584 C17.3275519,181.834608 17.4717842,181.984539 18.6780913,182.219215 C19.8843983,182.453891 25.286556,181.619488 31.1345228,180.648191 C36.9824896,179.676894 37.8282158,179.455256 38.3461411,178.633891 C38.8640664,177.812526 39.7753527,176.99116 33.98639,176.026382 C28.1974274,175.061604 27.6729461,174.005563 27.6729461,174.005563 C27.6729461,174.005563 22.3560166,173.686143 19.2746888,175.557031 Z" id="Path" stroke="#263238" stroke-width="0.75" fill="#4788D8" fill-rule="nonzero" stroke-linecap="round" stroke-linejoin="round"></path>
                    <path d="M38.1887967,177.108498 C37.7954357,177.910307 36.5629046,179.350956 32.6882988,179.813788 C28.5907884,180.302696 21.1759336,181.039317 17.2619917,181.371775 C17.5307884,181.92587 17.8585892,182.023652 18.6780913,182.206177 C19.8778423,182.427816 25.286556,181.606451 31.1345228,180.635154 C36.9824896,179.663857 37.8282158,179.442218 38.3461411,178.620853 C38.6804979,178.125427 39.1328631,177.63 38.1887967,177.108498 Z" id="Path" stroke="#263238" stroke-width="0.75" fill="#263238" fill-rule="nonzero" stroke-linecap="round" stroke-linejoin="round"></path>
                    <path d="M29.6463071,177.571331 C29.6463071,177.571331 35.6581743,180.413515 38.9689627,181.084949 C42.279751,181.756382 43.0992531,181.834608 42.7255602,182.877611 C42.3518672,183.920614 42.273195,184.226997 37.2381743,185.419932 C32.2031535,186.612867 26.7157676,185.27 24.3097095,184.820205 C21.9036515,184.37041 21.1562656,185.048362 20.1073029,184.598567 C19.0583402,184.148771 19.353361,181.906314 19.353361,181.906314 L29.6463071,177.571331 Z" id="Path" stroke="#263238" stroke-width="0.75" fill="#4788D8" fill-rule="nonzero" stroke-linecap="round" stroke-linejoin="round"></path>
                    <path d="M37.2381743,185.419932 C41.466805,184.416041 42.1945228,184.044471 42.5419917,183.327406 C37.9527801,185.283038 31.8687967,184.47471 27.2271369,183.946689 C24.2375934,183.601195 21.3857261,183.294812 19.359917,183.131843 C19.3383069,183.720878 19.6295973,184.27787 20.126971,184.598567 C21.1759336,185.048362 21.9298755,184.376928 24.3293776,184.820205 C26.7288797,185.263481 32.2031535,186.612867 37.2381743,185.419932 Z" id="Path" stroke="#263238" stroke-width="0.75" fill="#263238" fill-rule="nonzero" stroke-linecap="round" stroke-linejoin="round"></path>
                    <path d="M22.8870539,122.657201 C22.8870539,122.657201 21.8315353,131.170717 19.7270539,134.834266 C17.6225726,138.497816 14.7707054,141.033618 14.3183402,146.339898 C13.8659751,151.646177 15.3673029,173.314573 15.5180913,175.185461 C15.6688797,177.056348 14.8624896,177.649556 15.6688797,178.842491 C16.1741033,179.574347 16.7259376,180.273285 17.3209959,180.935017 L19.8057261,178.770785 C19.8057261,178.770785 21.6086307,173.01471 21.1562656,162.03058 C20.7039004,151.046451 20.7825726,143.654164 22.7362656,136.327065 C24.6899585,128.999966 25.0636515,127.063891 24.1589212,124.221706 C23.2541909,121.379522 22.8870539,122.657201 22.8870539,122.657201 Z" id="Path" stroke="#263238" stroke-width="0.75" fill="#263238" fill-rule="nonzero" stroke-linecap="round" stroke-linejoin="round"></path>
                    <path d="M18.15361,105.004369 C18.15361,105.004369 20.6317842,109.652253 21.1956017,110.871263 C21.7594191,112.090273 23.0509544,126.229488 22.0413278,130.936041 C21.0317012,135.642594 17.0980913,143.641126 17.4521162,150.661843 C17.8061411,157.68256 18.1077178,176.293652 18.1077178,176.51529 C17.8816776,177.625255 17.8816776,178.769011 18.1077178,179.878976 C18.4814108,181.893276 19.6090456,182.486485 19.6090456,182.486485 C21.522248,181.600931 23.5069768,180.876968 25.5422407,180.322253 C29.226722,179.27273 30.2756846,177.779932 30.2756846,177.779932 C29.9541655,176.812095 29.5776823,175.863176 29.1480498,174.937747 C28.6235685,173.894744 27.7253942,172.252014 27.8761826,171.723993 C28.026971,171.195973 29.0038174,154.01901 30.9575104,148.34116 C32.9112033,142.663311 34.0322822,136.685597 35.6909544,131.451024 C37.3496266,126.216451 41.3029046,112.194573 41.3029046,108.609249 L41.3029046,104.20256 L17.8585892,103.752765 L18.15361,105.004369 Z" id="Path" stroke="#263238" stroke-width="0.75" fill="#263238" fill-rule="nonzero" stroke-linecap="round" stroke-linejoin="round"></path>
                    <path d="M20.0876349,138.484778 C19.4320332,140.486041 18.7043154,142.728498 18.15361,144.508123 C16.8424066,148.745324 18.15361,172.53884 18.15361,172.53884 C18.2970029,174.273295 18.3385949,176.014588 18.2781743,177.753857 C18.15361,179.91157 18.2781743,180.765529 18.8157676,181.3457" id="Path" stroke="#FFFFFF" stroke-width="0.75" stroke-linecap="round" stroke-linejoin="round"></path>
                    <path d="M21.7594191,133.426212 C21.7594191,133.426212 21.2742739,134.86686 20.6252282,136.842048" id="Path" stroke="#FFFFFF" stroke-width="0.75" stroke-linecap="round" stroke-linejoin="round"></path>
                    <path d="M28.4662241,27.2223891 C28.4662241,27.2223891 31.0886307,28.1154608 35.0222407,31.5378157 C38.9558506,34.9601706 42.9681328,38.2065188 42.1224066,39.3603413 C41.2766805,40.5141638 39.6966805,44.5753584 39.6966805,44.5753584 C39.6966805,44.5753584 38.2346888,42.163413 33.8946058,38.7084642 C29.5545228,35.2535154 26.2240664,32.1505802 26.2240664,32.1505802 C26.2240664,32.1505802 28.0138589,27.9524915 28.4662241,27.2223891 Z" id="Path" stroke="#263238" stroke-width="0.75" fill="#FFFFFF" fill-rule="nonzero" stroke-linecap="round" stroke-linejoin="round"></path>
                    <path d="M24.9718672,32.7111945 C24.9718672,32.7111945 16.57361,38.6497952 15.1378423,44.3667577 C13.7020747,50.0837201 13.1054772,52.8867918 13.2234855,63.8122526 C13.3414938,74.7377133 14.0102075,81.6345734 14.0102075,82.1365188 C14.0102075,82.6384642 11.8008299,102.931399 11.8008299,103.153038 C11.8008299,103.374676 15.7344398,106.966519 26.7354357,107.188157 C34.2014476,107.23556 41.6581338,106.655499 49.0258921,105.454164 L44.233444,66.1133788 C44.233444,66.1133788 42.3715353,49.3536177 40.4571784,46.2180887 C38.5428216,43.0825597 24.9718672,32.7111945 24.9718672,32.7111945 Z" id="Path" stroke="#263238" stroke-width="0.75" fill="#4788D8" fill-rule="nonzero" stroke-linecap="round" stroke-linejoin="round"></path>
                    <path d="M29.8167635,87.2407167 C29.8167635,87.2407167 36.8054772,88.6422526 41.6175934,86.9017406" id="Path" stroke="#263238" stroke-width="0.75" stroke-linecap="round" stroke-linejoin="round"></path>
                    <path d="M29.8167635,89.3071672 C29.8167635,89.3071672 36.8054772,90.7087031 41.6175934,88.9747099" id="Path" stroke="#263238" stroke-width="0.75" stroke-linecap="round" stroke-linejoin="round"></path>
                    <polygon id="Path" stroke="#263238" stroke-width="0.75" fill="#FFFFFF" fill-rule="nonzero" stroke-linecap="round" stroke-linejoin="round" points="72.1030705 78.1991809 73.8338589 79.0205461 72.7783402 86.7909215 71.0541079 86.491058"></polygon>
                    <path d="M32.4260581,42.932628 C31.4424893,43.2414238 30.5612616,43.809053 29.8757676,44.5753584 C28.7481328,45.8791126 22.6641494,53.3887372 23.1099585,56.6807167 C23.5557676,59.9726962 31.4688797,71.9933106 34.0912863,75.7350853 C37.3198796,80.4768313 41.9700633,84.0855127 47.380332,86.0477816 C53.9953527,88.4401706 71.2048963,87.2472355 71.2048963,87.2472355 L72.1161826,77.9710239 C72.1161826,77.9710239 62.7279668,74.9854266 56.2637344,73.0428328 C52.6684901,71.9856595 49.1523684,70.6786889 45.7413278,69.13157 C45.7413278,69.13157 44.24,65.4680205 43.1844813,64.8748123 C42.1289627,64.2816041 41.9847303,63.9035154 41.9847303,63.9035154 C41.9847303,63.9035154 39.9589212,52.9193857 38.9034025,49.3275427 C37.8478838,45.7356997 36.4252282,44.8491468 36.4252282,44.8491468" id="Path" stroke="#263238" stroke-width="0.75" fill="#4788D8" fill-rule="nonzero" stroke-linecap="round" stroke-linejoin="round"></path>
                    <path d="M120.27668,173.823038 C117.596132,175.361979 114.809421,176.710387 111.937427,177.858157 C108.102158,179.279249 107.197427,179.813788 107.951369,180.622116 C108.705311,181.430444 115.24166,182.043208 118.919585,181.273993 C122.59751,180.504778 124.033278,180.009352 125.685394,180.081058 C127.33751,180.152765 129.619004,180.60256 130.418838,179.481331 C131.218672,178.360102 131.546473,178.138464 130.94332,176.267577 C130.340166,174.396689 120.27668,173.823038 120.27668,173.823038 Z" id="Path" stroke="#263238" stroke-width="0.75" fill="#4788D8" fill-rule="nonzero" stroke-linecap="round" stroke-linejoin="round"></path>
                    <path d="M118.919585,181.293549 C122.604066,180.55041 124.033278,180.028908 125.685394,180.100614 C127.33751,180.172321 129.619004,180.622116 130.418838,179.500887 C131.00888,178.699078 131.330124,178.353584 131.244896,177.545256 C128.570041,177.323618 123.410456,178.164539 117.260913,179.500887 C114.148615,180.254431 110.921382,180.418083 107.748133,179.983276 C107.674756,180.22145 107.755369,180.480013 107.951369,180.635154 C108.705311,181.443481 115.24166,182.043208 118.919585,181.293549 Z" id="Path" stroke="#263238" stroke-width="0.75" fill="#263238" fill-rule="nonzero" stroke-linecap="round" stroke-linejoin="round"></path>
                    <path d="M134.477012,178.757747 C132.971899,180.376432 131.366945,181.900424 129.671452,183.320887 C127.186722,185.335188 122.905643,188.105666 123.358008,189.298601 C123.810373,190.491536 126.885145,191.612765 133.349378,189.950478 C137.486352,188.826068 141.399757,187.007248 144.920747,184.572491 C145.642901,184.439432 146.287301,184.038679 146.723651,183.451263 C147.254689,182.551672 146.651535,181.137099 146.651535,181.137099 L134.477012,178.757747 Z" id="Path" stroke="#263238" stroke-width="0.75" fill="#4788D8" fill-rule="nonzero" stroke-linecap="round" stroke-linejoin="round"></path>
                    <path d="M133.349378,189.963515 C137.486352,188.839106 141.399757,187.020286 144.920747,184.585529 C145.642901,184.45247 146.287301,184.051717 146.723651,183.4643 C147.009948,182.775489 147.009948,182.001918 146.723651,181.313106 C137.374772,188.34686 128.629046,189.787509 124.000498,189.996109 C125.219917,190.830512 128.222573,191.26727 133.349378,189.963515 Z" id="Path" stroke="#263238" stroke-width="0.75" fill="#263238" fill-rule="nonzero" stroke-linecap="round" stroke-linejoin="round"></path>
                    <path d="M123.253112,91.7060751 C123.253112,91.7060751 119.27361,92.2340956 116.415187,91.1845734 C113.556763,90.1350512 110.855685,89.3202048 110.855685,89.3202048 C110.855685,89.3202048 109.275685,109.71744 111.006473,117.937611 C112.737261,126.157782 117.319917,136.190171 117.392033,138.484778 C117.483738,141.245182 117.810523,143.992896 118.36888,146.69843 C118.893361,148.790956 121.450207,164.95099 121.600996,166.724096 C121.701346,167.61874 121.701346,168.521704 121.600996,169.416348 C121.600996,169.416348 119.798091,170.016075 119.798091,170.537577 L119.798091,174.344539 C121.284906,175.121871 122.84653,175.74865 124.459419,176.215427 C127.23917,177.036792 131.146556,177.708225 131.146556,177.708225 C131.482016,176.202407 131.731544,174.678927 131.893942,173.145085 C131.893942,172.102082 131.23834,169.338123 131.23834,167.838805 C131.23834,166.339488 131.618589,148.412867 131.618589,148.412867 C131.618589,148.412867 135.296515,163.73198 135.296515,168.810102 C135.296515,173.888225 135.224398,175.537474 135.224398,175.537474 C135.224398,175.537474 133.572282,175.015973 133.572282,176.137201 C133.572282,177.25843 133.49361,179.944164 133.49361,179.944164 C133.49361,179.944164 139.354689,181.436962 142.13444,182.258328 C143.791786,182.75554 145.543499,182.858259 147.248133,182.558191 C147.248133,182.558191 148.749461,176.880341 148.598672,175.015973 C148.447884,173.151604 146.572863,171.574061 146.572863,170.531058 C146.572863,169.488055 147.54971,159.175358 146.120498,150.205529 C144.691286,141.2357 140.934689,137.128874 140.7839,132.722184 C140.633112,128.315495 141.439502,112.474881 141.537842,109.906485 C141.636183,107.338089 144.238921,101.986177 144.61917,99.5937884 C144.999419,97.2013993 144.691286,90.1089761 144.691286,90.1089761 C144.691286,90.1089761 127.842324,92.5274403 123.253112,91.7060751 Z" id="Path" stroke="#263238" stroke-width="0.75" fill="#263238" fill-rule="nonzero" stroke-linecap="round" stroke-linejoin="round"></path>
                    <path d="M116.067718,101.947065 L120.125892,104.561092" id="Path" stroke="#FFFFFF" stroke-width="0.75" stroke-linecap="round" stroke-linejoin="round"></path>
                    <path d="M130.713859,146.124778 C131.277676,147.578464 131.625145,148.419386 131.625145,148.419386" id="Path" stroke="#FFFFFF" stroke-width="0.75" stroke-linecap="round" stroke-linejoin="round"></path>
                    <path d="M118.775353,103.889659 C118.775353,103.889659 121.476432,119.652048 124.708548,129.514949 C126.36722,134.573515 128.1439,139.423481 129.481328,142.937099" id="Path" stroke="#FFFFFF" stroke-width="0.75" stroke-linecap="round" stroke-linejoin="round"></path>
                    <path d="M88.2636515,80.1417747 C88.3357676,80.363413 88.7094606,88.5118771 88.7094606,88.5118771 L110.278755,86.5562457 L109.832946,76.0219113 L88.2636515,80.1417747 Z" id="Path" stroke="#263238" stroke-width="0.75" fill="#263238" fill-rule="nonzero" stroke-linecap="round" stroke-linejoin="round"></path>
                    <path d="M130.569627,37.4633788 C130.569627,37.4633788 125.685394,39.1778157 124.708548,40.3772696 C123.731701,41.5767235 117.942739,61.8175085 116.041494,67.7952218 C114.140249,73.7729352 113.56332,91.8560068 113.56332,91.8560068 C114.614333,92.2426522 115.695281,92.543511 116.795436,92.7555973 C117.87802,92.9372939 118.976088,93.0115383 120.073444,92.9772355 C120.073444,92.9772355 126.386888,71.8303413 129.468216,64.5879863 C132.549544,57.3456314 137.728797,46.9547099 139.689046,42.9195904 C141.649295,38.884471 143.366971,38.1348123 143.144066,36.1922184 C142.921162,34.2496246 142.016432,33.4999659 140.888797,33.3500341 C139.761162,33.2001024 130.569627,37.4633788 130.569627,37.4633788 Z" id="Path" stroke="#263238" stroke-width="0.75" fill="#FFFFFF" fill-rule="nonzero" stroke-linecap="round" stroke-linejoin="round"></path>
                    <path d="M131.179336,36.8701706 C131.179336,36.8701706 126.295104,38.5846075 125.318257,39.7840614 C124.341411,40.9835154 118.559004,61.2243003 116.697095,67.2020137 C114.835187,73.179727 114.199253,91.2627986 114.199253,91.2627986 C115.250266,91.649444 116.331214,91.9503028 117.431369,92.1623891 C118.514392,92.3403665 119.612093,92.4145861 120.709378,92.3840273 C120.709378,92.3840273 127.022822,71.2371331 130.104149,63.9882594 C133.185477,56.7393857 138.371286,46.3875768 140.324979,42.3198635 C142.278672,38.2521502 144.002905,37.5416041 143.78,35.5990102 C143.557095,33.6564164 142.652365,32.9067577 141.52473,32.7568259 C140.397095,32.6068942 131.179336,36.8701706 131.179336,36.8701706 Z" id="Path" stroke="#263238" stroke-width="0.75" fill="#4788D8" fill-rule="nonzero" stroke-linecap="round" stroke-linejoin="round"></path>
                    <path d="M137.781245,39.3277474 C134.718239,44.5374251 132.032221,49.9573665 129.743568,55.5464505 C126.662241,63.4667577 124.184066,70.5396246 121.024066,81.1000341 C119.124825,87.6206654 118.488541,94.4406645 119.149046,101.197406 C119.149046,101.197406 120.650373,103.739727 129.520664,104.03959 C138.390954,104.339454 149.509959,101.49727 149.509959,101.49727 C149.509959,101.49727 148.002075,92.5274403 147.851286,87.2276792 C147.700498,81.9279181 151.988133,63.3168259 153.791037,58.4603413 C155.593942,53.6038567 159.501328,48.747372 155.757842,44.0408191 C152.014357,39.3342662 143.058838,34.0279863 143.058838,34.0279863 C143.058838,34.0279863 138.758091,37.6850171 137.781245,39.3277474 Z" id="Path" stroke="#263238" stroke-width="0.75" fill="#263238" fill-rule="nonzero" stroke-linecap="round" stroke-linejoin="round"></path>
                    <path d="M127.639087,39.256041 C127.639087,39.256041 125.311701,42.1699317 123.20722,48.3823208 C121.102739,54.5947099 117.195353,71.1002389 115.392448,78.1209556 C113.589544,85.1416724 112.684813,100.760648 112.684813,100.760648 C112.684813,100.760648 111.707967,100.688942 109.682158,100.688942 C108.34746,100.649514 107.037934,100.317871 105.846888,99.7176451 C105.846888,99.7176451 107.2761,84.3985324 108.554523,77.227884 C109.832946,70.0572355 113.589544,57.2739249 114.264813,52.2675085 C114.940083,47.2610922 115.162988,45.9964505 116.067718,45.3184983 C116.972448,44.6405461 124.033278,40.3903072 125.46249,39.4190102 C126.891701,38.4477133 127.639087,39.256041 127.639087,39.256041 Z" id="Path" stroke="#263238" stroke-width="0.75" fill="#263238" fill-rule="nonzero" stroke-linecap="round" stroke-linejoin="round"></path>
                    <path d="M145.373112,35.6707167 C145.373112,35.6707167 141.092033,44.1125256 139.964398,45.6835495 C139.31071,46.5802898 138.731852,47.5286709 138.23361,48.519215 L134.477012,49.9403072 L135.97834,52.3326962 C135.97834,52.3326962 128.393029,65.8395904 126.439336,70.3375427 C124.485643,74.8354949 122.505726,79.678942 122.505726,79.678942" id="Path" stroke="#FFFFFF" stroke-width="0.75" stroke-linecap="round" stroke-linejoin="round"></path>
                    <path d="M114.50083,73.7077474 C114.363154,75.2005461 114.336929,75.7937543 114.336929,75.7937543" id="Path" stroke="#FFFFFF" stroke-width="0.75" stroke-linecap="round" stroke-linejoin="round"></path>
                    <path d="M123.810373,41.8700683 L119.601411,48.2975768 L120.578257,49.7903754 L118.244315,52.6325597 C118.244315,52.6325597 115.766141,62.8670307 115.090871,68.3949488 C114.959751,69.4705461 114.848299,70.4092491 114.763071,71.2240956" id="Path" stroke="#FFFFFF" stroke-width="0.75" stroke-linecap="round" stroke-linejoin="round"></path>
                    <polygon id="Path" stroke="#263238" stroke-width="0.75" fill="#FFFFFF" fill-rule="nonzero" stroke-linecap="round" stroke-linejoin="round" points="124.636432 39.1061092 123.810373 43.0630034 128.091452 40.2273379"></polygon>
                    <path d="M128.242241,35.9705802 C128.163568,36.1922184 124.636432,39.1061092 124.636432,39.1061092 L128.615934,40.7488396 L129.441992,37.5350853 L128.242241,35.9705802 Z" id="Path" stroke="#263238" stroke-width="0.75" fill="#FFFFFF" fill-rule="nonzero" stroke-linecap="round" stroke-linejoin="round"></path>
                    <path d="M126.813029,6.15372014 C125.116849,7.20434418 123.779897,8.74048985 122.977759,10.5604096 C121.62722,13.6242321 120.578257,14.8953925 120.879834,15.8666894 C121.096144,16.5237458 121.245497,17.2007537 121.325643,17.8875085 C121.325643,18.1091468 118.172199,21.1012628 118.093527,21.9943345 C118.014855,22.8874061 120.125892,24.5366553 120.125892,24.5366553 C120.125892,24.5366553 120.348797,29.6930034 120.348797,30.1427986 C120.348797,30.5925939 120.499585,32.9067577 122.682739,33.4999659 C124.167616,33.8403793 125.713566,33.8157667 127.186722,33.4282594 L128.615934,40.7488396 C128.615934,40.7488396 138.613859,34.6211945 139.662822,34.0996928 C140.711784,33.5781911 141.990207,32.9067577 142.06888,32.0853925 C142.147552,31.2640273 141.465726,26.7008874 141.465726,26.7008874 C141.465726,26.7008874 146.802324,21.8444027 146.710539,16.1665529 C146.618755,10.4887031 143.576763,6.90337884 138.010705,5.21501706 C132.444647,3.52665529 126.813029,6.15372014 126.813029,6.15372014 Z" id="Path" stroke="#263238" stroke-width="0.75" fill="#FFFFFF" fill-rule="nonzero" stroke-linecap="round" stroke-linejoin="round"></path>
                    <path d="M146.723651,16.1665529 C146.651535,10.4887031 143.570207,6.90337884 138.010705,5.18242321 C132.451203,3.46146758 126.813029,6.15372014 126.813029,6.15372014 C126.373732,6.4154882 125.960962,6.71894086 125.580498,7.05982935 C127.416183,6.73389078 130.438506,6.50573379 132.601992,7.87467577 C135.88,9.96720137 133.801743,12.059727 132.674108,13.1809556 C131.546473,14.3021843 131.323568,14.7454608 132.149627,15.7884642 C132.975685,16.8314676 134.555685,16.8314676 134.175436,17.8027645 C133.795187,18.7740614 132.674108,20.1234471 133.578838,20.4950171 C134.483568,20.866587 135.303071,20.0452218 135.68332,18.9239932 C136.063568,17.8027645 137.932033,17.8027645 138.685975,20.1234471 C139.245603,21.9116173 138.61287,23.8564632 137.105975,24.9799317 C136.500506,25.425824 135.752226,25.6367482 135.001494,25.5731399 C136.292394,26.224919 137.653943,26.7279518 139.059668,27.0724573 C139.875377,27.1402335 140.696741,27.0763946 141.49195,26.883413 C141.49195,26.7660751 141.49195,26.6943686 141.49195,26.6943686 C141.49195,26.6943686 146.802324,21.8444027 146.723651,16.1665529 Z" id="Path" stroke="#263238" stroke-width="0.75" fill="#263238" fill-rule="nonzero" stroke-linecap="round" stroke-linejoin="round"></path>
                    <path d="M124.859336,19.0804437 C124.859336,19.6606143 124.675768,20.1299659 124.446307,20.1299659 C124.216846,20.1299659 124.033278,19.6606143 124.033278,19.0804437 C124.033278,18.500273 124.216846,18.0374403 124.446307,18.0374403 C124.675768,18.0374403 124.859336,18.5067918 124.859336,19.0804437 Z" id="Path" fill="#000000" fill-rule="nonzero"></path>
                    <path d="M122.905643,15.9449147 C122.905643,15.9449147 123.20722,14.8953925 124.872448,14.9736177 C126.537676,15.051843 126.603237,16.2447782 126.603237,16.2447782" id="Path" stroke="#263238" stroke-width="0.75" fill="#FFFFFF" fill-rule="nonzero" stroke-linecap="round" stroke-linejoin="round"></path>
                    <path d="M120.125892,24.5366553 C121.057925,24.8713944 122.095609,24.732687 122.905643,24.1650853 C124.105394,23.1937884 123.128548,22.3659044 123.128548,22.3659044" id="Path" stroke="#263238" stroke-width="0.75" fill="#FFFFFF" fill-rule="nonzero" stroke-linecap="round" stroke-linejoin="round"></path>
                    <path d="M120.427469,25.7295904 C120.427469,25.7295904 124.406971,23.773959 126.209876,23.7152901 C128.01278,23.6566212 129.894357,26.7269625 129.153527,29.334471 C128.412697,31.9419795 127.580083,33.2457338 125.023237,34.2691809 C122.46639,35.292628 120.060332,35.0905461 119.614523,33.3695904 C119.168714,31.6486348 121.187967,29.191058 122.164813,28.7412628 C123.14166,28.2914676 123.895602,28.2197611 123.744813,29.0411263 C123.594025,29.8624915 123.14166,30.4556997 125.023237,30.0841297 C126.904813,29.7125597 127.953776,29.191058 128.025892,27.1702389 C128.098008,25.1494198 127.37029,24.4062799 125.403485,24.7061433 C123.43668,25.0060068 120.519253,26.5705119 120.519253,26.5705119 L120.427469,25.7295904 Z" id="Path" stroke="#263238" stroke-width="0.75" fill="#263238" fill-rule="nonzero" stroke-linecap="round" stroke-linejoin="round"></path>
                    <path d="M122.000913,27.3006143 C122.000913,27.3006143 125.160913,27.1506826 126.288548,25.8795222" id="Path" stroke="#263238" stroke-width="0.75" fill="#FFFFFF" fill-rule="nonzero" stroke-linecap="round" stroke-linejoin="round"></path>
                    <path d="M134.706473,25.5079522 C134.716037,26.7502877 134.162151,27.9307858 133.198589,28.7217065" id="Path" stroke="#263238" stroke-width="0.75" fill="#FFFFFF" fill-rule="nonzero" stroke-linecap="round" stroke-linejoin="round"></path>
                    <path d="M128.615934,40.7488396 L130.799087,45.755256 C130.799087,45.755256 139.059668,39.6276109 141.092033,37.2352218 C143.124398,34.8428328 144.697842,33.6498976 143.570207,32.0202048 C142.442573,30.3905119 140.790456,31.7203413 140.48888,31.870273 C140.187303,32.0202048 128.615934,40.7488396 128.615934,40.7488396 Z" id="Path" stroke="#263238" stroke-width="0.75" fill="#FFFFFF" fill-rule="nonzero" stroke-linecap="round" stroke-linejoin="round"></path>
                    <path d="M112.107884,84.9069966 C111.172196,81.8801381 110.421257,78.7998408 109.85917,75.6829352 C109.406805,72.8211945 109.203568,69.9073038 109.203568,69.9073038 C105.573602,69.5783915 102.025259,68.6440065 98.7073859,67.1433447 C93.7510373,64.7574744 92.6955187,63.883959 92.6955187,63.883959 C92.6955187,63.883959 99.3826556,85.5523549 100.739751,90.1089761 C102.096846,94.6655973 102.391867,95.6368942 102.391867,95.6368942 C104.536471,96.6932604 106.80791,97.4731229 109.15112,97.9575768 C111.011869,98.3026318 112.897125,98.5009849 114.789295,98.550785 L112.107884,84.9069966 Z" id="Path" stroke="#263238" stroke-width="0.75" fill="#FFFFFF" fill-rule="nonzero" stroke-linecap="round" stroke-linejoin="round"></path>
                    <path d="M119.601411,84.9069966 C118.012051,84.6132289 116.468871,84.1112567 115.012199,83.414198 C113.919302,82.7839772 112.726594,82.3431101 111.485062,82.1104437 L111.183485,82.1104437 L112.08166,84.8744027 C110.972722,85.118191 109.841004,85.2449226 108.705311,85.2524915 C106.902407,85.2524915 103.139253,84.6527645 102.995021,84.8744027 C102.855514,85.4102285 102.804587,85.965049 102.844232,86.5171331 C102.844232,87.0451536 105.545311,90.2589078 107.125311,91.3801365 C108.705311,92.5013652 110.127967,93.2445051 111.557178,93.2445051 C112.98639,93.2445051 120.650373,92.2015017 120.650373,92.2015017 L119.601411,84.9069966 Z" id="Path" stroke="#263238" stroke-width="0.75" fill="#FFFFFF" fill-rule="nonzero" stroke-linecap="round" stroke-linejoin="round"></path>
                    <path d="M141.465726,55.7680887 C141.465726,55.7680887 141.839419,64.1381911 142.06888,70.1876109 C142.29834,76.2370307 142.672033,76.7650512 142.672033,76.7650512 C142.672033,76.7650512 125.836183,83.042628 123.279336,83.5641297 C120.72249,84.0856314 118.775353,84.6853584 118.775353,84.6853584 L119.902988,92.8273038 C125.412104,93.2895401 130.960049,92.7842354 136.293029,91.3345051 C144.48805,88.942116 157.108382,86.549727 157.337842,85.4350171 C157.567303,84.3203072 157.337842,80.9501024 157.337842,80.22 C157.337842,79.4898976 157.108382,63.4080887 157.108382,56.2374403 C157.108382,49.0667918 157.632863,47.4175427 156.734689,45.924744 C155.836515,44.4319454 151.247303,43.6822867 148.61834,45.1750853" id="Path" stroke="#263238" stroke-width="0.75" fill="#263238" fill-rule="nonzero" stroke-linecap="round" stroke-linejoin="round"></path>
                    <polyline id="Path" stroke="#FFFFFF" stroke-width="0.75" stroke-linecap="round" stroke-linejoin="round" points="128.75361 81.5693857 142.672033 76.7650512 141.439502 58.3234471"></polyline>
                    <path d="M124.846224,82.9187713 L126.858921,82.2277816" id="Path" stroke="#FFFFFF" stroke-width="0.75" stroke-linecap="round" stroke-linejoin="round"></path>
                    <path d="M146.26473,49.0276792 C146.26473,49.0276792 151.509544,42.5089078 156.721577,45.9051877" id="Path" stroke="#FFFFFF" stroke-width="0.75" stroke-linecap="round" stroke-linejoin="round"></path>
                    <path d="M103.139253,85.6566553 C103.139253,85.6566553 106.60083,87.9708191 108.928216,88.3489078" id="Path" stroke="#263238" stroke-width="0.75" stroke-linecap="round" stroke-linejoin="round"></path>
                    <path d="M103.742407,87.8991126 C104.762377,88.7918462 105.931717,89.5000542 107.197427,89.9916382 L108.777427,90.4349147" id="Path" stroke="#263238" stroke-width="0.75" stroke-linecap="round" stroke-linejoin="round"></path>
                    <path d="M107.518672,91.6343686 C108.413182,91.9601855 109.348549,92.1619894 110.298423,92.2340956" id="Path" stroke="#263238" stroke-width="0.75" stroke-linecap="round" stroke-linejoin="round"></path>
                    <path d="M43.7024066,63.655802 C43.7024066,63.655802 42.666556,53.1279863 41.4471369,45.7096246 C40.7915353,41.6093174 38.2936929,38.115256 35.6843983,34.9862457 C33.5274689,32.3787372 30.2691286,29.9928669 28.4727801,27.2223891 C27.8499585,26.2706485 24.5850622,33.154471 24.5785062,33.1609898 C23.9229046,34.6277133 31.6917842,39.2755973 32.7407469,40.3316382 C34.1175104,41.7005802 35.3631535,43.3172355 36.6153527,44.7904778 C37.1857261,45.4423549 38.6870539,47.9260068 39.5458921,48.1346075 L40.9357676,48.4801024 L39.893361,51.5895563 L43.7024066,63.655802 Z" id="Path" stroke="#263238" stroke-width="0.75" fill="#4788D8" fill-rule="nonzero" stroke-linecap="round" stroke-linejoin="round"></path>
                </g>
            </g>
        </g>
    </g>
</svg>