<?xml version="1.0" encoding="UTF-8"?>
<svg width="192px" height="191px" viewBox="0 0 192 191" version="1.1" xmlns="http://www.w3.org/2000/svg" xmlns:xlink="http://www.w3.org/1999/xlink">
    <!-- Generator: Sketch 57.1 (83088) - https://sketch.com -->
    <title>Mental health-bro</title>
    <desc>Created with Sketch.</desc>
    <g id="Webdesign-quick-fix" stroke="none" stroke-width="1" fill="none" fill-rule="evenodd">
        <g id="Home-page---UI" transform="translate(-521.000000, -774.000000)">
            <g id="Group-4" transform="translate(0.000000, 716.000000)">
                <g id="Group-2" transform="translate(160.000000, 43.000000)">
                    <g id="Mental-health-bro" transform="translate(361.000000, 14.162921)">
                        <g id="freepik--background-simple--inject-90" transform="translate(0.000000, 0.837079)" fill="#EEF4FB" fill-rule="nonzero">
                            <path d="M158.005255,11.8157025 C158.005255,11.8157025 136.567591,-5.7369146 108.683212,2.04655647 C80.7988321,9.83002755 69.1246715,33.8922865 53.1340146,50.4661157 C44.7579562,59.1347107 32.3877372,62.3286501 22.4373723,69.0022039 C-9.37576642,90.338843 -4.65751825,138.313499 19.8680292,156.409366 C41.1048175,172.074656 67.6391241,173.713774 102.175766,162.160331 C136.712409,150.606887 161.420146,143.661708 182.834453,110.565565 C204.248759,77.4694215 184.413431,35.6391185 158.005255,11.8157025 Z" id="Path"></path>
                            <path d="M158.005255,11.8157025 C158.005255,11.8157025 136.567591,-5.7369146 108.683212,2.04655647 C80.7988321,9.83002755 69.1246715,33.8922865 53.1340146,50.4661157 C44.7579562,59.1347107 32.3877372,62.3286501 22.4373723,69.0022039 C-9.37576642,90.338843 -4.65751825,138.313499 19.8680292,156.409366 C41.1048175,172.074656 67.6391241,173.713774 102.175766,162.160331 C136.712409,150.606887 161.420146,143.661708 182.834453,110.565565 C204.248759,77.4694215 184.413431,35.6391185 158.005255,11.8157025 Z" id="Path" opacity="0.7"></path>
                        </g>
                        <g id="freepik--Carpet--inject-90" transform="translate(26.000000, 171.837079)" fill="#263238" fill-rule="nonzero" stroke="#263238" stroke-linecap="round" stroke-linejoin="round">
                            <polygon id="Path" points="136 19 0 19 13.6 0 122.4 0"></polygon>
                        </g>
                        <g id="freepik--Plants--inject-90" transform="translate(8.000000, 106.837079)">
                            <path d="M158.372063,58.0235616 C158.372063,58.0235616 144.617989,37.0413699 146.666667,32.2254795 C148.715344,27.409589 155.978836,35.6673973 155.978836,35.6673973 C155.978836,35.6673973 145.316402,7.46136986 152.537989,1.26684932 C159.759577,-4.92767123 162.166772,26.7249315 162.166772,26.7249315 C162.166772,26.7249315 168.685291,8.49068493 173.858201,15.369863 C179.031111,22.2490411 165.942857,36.6967123 165.942857,36.6967123 C165.942857,36.6967123 174.88254,37.0413699 172.461376,42.8912329 C170.040212,48.7410959 163.521693,54.9309589 163.521693,54.9309589 L158.372063,58.0235616 Z" id="Path" fill="#4788D8" fill-rule="nonzero"></path>
                            <path d="M154.582011,53.2076712 C154.582011,53.2076712 146.331429,41.5126027 150.45672,39.1046575 C154.582011,36.6967123 156.644656,43.9205479 156.644656,43.9205479 C156.644656,43.9205479 156.989206,12.2772603 163.526349,14.6852055 C170.063492,17.0931507 167.65164,36.3520548 167.65164,36.3520548 C167.65164,36.3520548 175.902222,30.8515068 175.566984,38.76 C175.231746,46.6684932 164.21545,53.5616438 164.21545,53.5616438" id="Path" stroke="#263238" stroke-linecap="round" stroke-linejoin="round"></path>
                            <path d="M162.152804,53.8969863 L154.931217,45.9838356" id="Path" stroke="#263238" stroke-linecap="round" stroke-linejoin="round"></path>
                            <path d="M162.497354,57.6789041 L162.152804,38.0753425" id="Path" stroke="#263238" stroke-linecap="round" stroke-linejoin="round"></path>
                            <path d="M162.841905,51.1443836 L169.374392,42.5465753" id="Path" stroke="#263238" stroke-linecap="round" stroke-linejoin="round"></path>
                            <polygon id="Path" stroke="#263238" fill="#263238" fill-rule="nonzero" stroke-linecap="round" stroke-linejoin="round" points="168.685291 51.8336986 150.461376 51.8336986 152.281905 68 166.864762 68"></polygon>
                            <path d="M12.1710053,58.0235616 C12.1710053,58.0235616 -1.58306878,37.0413699 0.465608466,32.2254795 C2.51428571,27.409589 9.77777778,35.6673973 9.77777778,35.6673973 C9.77777778,35.6673973 -0.898624339,7.45205479 6.32296296,1.26684932 C13.5445503,-4.91835616 15.951746,26.7249315 15.951746,26.7249315 C15.951746,26.7249315 22.4702646,8.49068493 27.6431746,15.369863 C32.8160847,22.2490411 19.7278307,36.6967123 19.7278307,36.6967123 C19.7278307,36.6967123 28.6675132,37.0413699 26.2463492,42.8912329 C23.8251852,48.7410959 17.3066667,54.9309589 17.3066667,54.9309589 L12.1710053,58.0235616 Z" id="Path" fill="#4788D8" fill-rule="nonzero"></path>
                            <path d="M9.38201058,53.4684932 C9.38201058,53.4684932 0.833439153,45.4342466 0.572698413,41.8246575 C0.311957672,38.2150685 6.01566138,42.6024658 8.3437037,44.1534247 C10.671746,45.7043836 2.38857143,34.0465753 2.64465608,25.4953425 C2.90074074,16.9441096 7.56613757,20.3161644 9.12126984,23.9443836 C10.6764021,27.5726027 11.4493122,30.9306849 12.2315344,31.7178082 C13.0137566,32.5049315 14.3034921,25.7561644 17.6698413,27.5679452 C23.0522751,30.469589 14.3034921,40.2643836 16.114709,42.0808219 C17.9259259,43.8972603 22.0744974,34.3073973 24.146455,39.4912329 C26.2184127,44.6750685 17.4091005,53.9994521 17.4091005,53.9994521" id="Path" stroke="#263238" stroke-linecap="round" stroke-linejoin="round"></path>
                            <path d="M14.8203175,52.9468493 L8.3437037,33.5156164" id="Path" stroke="#263238" stroke-linecap="round" stroke-linejoin="round"></path>
                            <path d="M11.4539683,43.1008219 L14.0427513,37.1438356" id="Path" stroke="#263238" stroke-linecap="round" stroke-linejoin="round"></path>
                            <polyline id="Path" stroke="#263238" stroke-linecap="round" stroke-linejoin="round" points="6.27174603 46.989863 13.5259259 48.8016438 17.1530159 46.2120548"></polyline>
                            <polygon id="Path" stroke="#263238" fill="#263238" fill-rule="nonzero" stroke-linecap="round" stroke-linejoin="round" points="22.4842328 51.8336986 4.26031746 51.8336986 6.08084656 68 20.6637037 68"></polygon>
                        </g>
                        <g id="freepik--Character--inject-90" transform="translate(37.000000, 3.837079)">
                            <g id="freepik--Hair--inject-90" fill="#263238" fill-rule="nonzero" stroke="#263238" stroke-linecap="round" stroke-linejoin="round">
                                <path d="M45.7587795,110.531646 C45.7587795,110.531646 38.8858268,111.154557 36.3887008,106.78481 C33.8915748,102.415063 38.2627165,97.1039241 33.5776772,95.2305063 C28.8926378,93.3570886 23.2705906,99.6049367 13.9005118,94.2937975 C4.53043307,88.9826582 9.52468504,82.1165823 12.0264961,76.8101266 C14.5283071,71.5036709 15.7745276,69.0026582 9.83858268,65.5696203 C3.9026378,62.1365823 -2.65641732,52.1418987 1.40551181,42.4656962 C5.46744094,32.7894937 15.7745276,37.154557 21.0826772,32.1618987 C26.3908268,27.1692405 21.7057874,21.2305063 21.3965748,13.1139241 C21.0873622,4.99734177 32.012874,-1.25050633 42.6338583,0.313797468 C53.2548425,1.87810127 55.4380709,13.1139241 55.4380709,20.2937975 C55.4380709,27.4736709 66.6821654,29.3517722 71.995,21.2305063 C77.3078346,13.1092405 81.6742913,11.2405063 89.484252,14.6735443 C97.2942126,18.1065823 90.7351575,29.6608861 94.483189,31.5343038 C98.2312205,33.4077215 101.351457,24.3544304 112.595551,29.6608861 C123.839646,34.9673418 117.594488,49.0179747 111.972441,52.4556962 C103.792362,57.4624051 113.438858,67.1713924 114.989606,73.1148101 C117.26185,81.8027848 110.267087,88.7531646 101.665354,88.3644304 C87.9241339,87.7368354 84.485315,85.5543038 81.6742913,89.6102532 C78.8632677,93.6662025 87.6102362,94.6075949 86.3593307,101.164557 C85.1084252,107.721519 82.6112992,110.217848 76.989252,110.217848 C71.3672047,110.217848 67.9330709,105.22519 61.997126,107.721519 C56.0611811,110.217848 48.5698031,112.091266 45.7587795,110.531646 Z" id="Path"></path>
                            </g>
                            <path d="M34.9035433,155.259494 C33.8962158,158.9956 33.539633,162.877151 33.8494094,166.734177 C34.4350394,172.705696 37.480315,175.867089 50.7155512,177.857595 C63.9507874,179.848101 73.0866142,178.208861 80.4655512,174.696203 C87.8444882,171.183544 86.1719291,158.580127 84.255748,155.69038 C82.3395669,152.800633 74.9606299,152.21519 63.0137795,153.268987 C51.0669291,154.322785 43.6879921,152.449367 39.3543307,153.151899 C35.0206693,153.85443 34.9035433,155.259494 34.9035433,155.259494 Z" id="Path" stroke="#263238" fill="#696969" fill-rule="nonzero" stroke-linecap="round" stroke-linejoin="round"></path>
                            <path d="M77.0688976,157.132911 C77.0688976,157.132911 70.7440945,158.772152 66.2933071,159.943038 C61.8425197,161.113924 61.3740157,161.582278 65.3562992,162.050633 C69.3385827,162.518987 76.8346457,162.050633 76.8346457,162.050633 C76.8346457,162.050633 66.2933071,166.968354 60.6712598,168.139241 C55.0492126,169.310127 44.742126,165.563291 43.5708661,164.626582 C42.3996063,163.689873 48.4901575,163.689873 50.1299213,162.987342 C51.769685,162.28481 50.8326772,161.348101 44.976378,160.411392 C39.1200787,159.474684 40.2913386,164.860759 45.4448819,168.607595 C50.5984252,172.35443 53.6437008,173.525316 60.3198819,172.35443 C66.996063,171.183544 76.1318898,168.373418 79.1771654,162.753165 C82.2224409,157.132911 77.0688976,157.132911 77.0688976,157.132911 Z" id="Path" fill="#000000" fill-rule="nonzero" opacity="0.3"></path>
                            <path d="M31.9191732,119.641139 L31.1414567,135.284177 C31.1414567,135.284177 29.7359449,138.918608 32.2658661,141.251013 C34.7957874,143.583418 38.0565748,142.894937 39.7619291,139.869367 C41.4672835,136.843797 41.2330315,129.841899 41.6640551,127.073924 C42.0950787,124.305949 38.7265354,121.453671 35.9576772,120.418608 C33.1888189,119.383544 31.9191732,119.641139 31.9191732,119.641139 Z" id="Path" stroke="#263238" fill="#FFFFFF" fill-rule="nonzero" stroke-linecap="round" stroke-linejoin="round"></path>
                            <path d="M86.7060236,119.641139 L87.4837402,135.284177 C87.4837402,135.284177 88.8658268,138.918608 86.3593307,141.251013 C83.8528346,143.583418 80.563937,142.894937 78.8351575,139.869367 C77.106378,136.843797 77.3640551,129.841899 76.9330315,127.073924 C76.5020079,124.305949 79.8752362,121.453671 82.6394094,120.418608 C85.4035827,119.383544 86.7060236,119.641139 86.7060236,119.641139 Z" id="Path" stroke="#263238" fill="#FFFFFF" fill-rule="nonzero" stroke-linecap="round" stroke-linejoin="round"></path>
                            <path d="M53.0908661,96.3311392 C53.0908661,96.3311392 53.3860236,102.841266 51.8071654,105.599873 C50.2283071,108.358481 45.1965748,108.189873 41.9451575,108.189873 C38.6937402,108.189873 33.8540945,110.850127 32.2752362,113.515063 C31.0840971,115.700245 30.0628694,117.973787 29.2205906,120.31557 L40.0711417,126.132532 C40.0711417,126.132532 38.8858268,128.404051 40.0711417,131.752785 C41.2564567,135.101519 43.0274016,136.389494 42.5354724,138.066203 C42.0435433,139.742911 35.6297244,151.671899 35.0394094,153.545316 C34.7410448,154.412831 34.5107804,155.302276 34.3507087,156.20557 C34.3507087,156.20557 48.0591339,158.870506 59.9919291,158.477089 C71.9247244,158.083671 84.255748,155.713797 84.255748,155.713797 C84.255748,155.713797 80.6061024,149.306709 78.6337008,145.658228 C76.6612992,142.009747 74.8856693,138.262911 75.2792126,136.97962 C75.6727559,135.696329 77.945,132.249241 77.8466142,126.230886 C77.8466142,126.230886 86.6216929,123.964051 89.8777953,120.31557 C89.8777953,120.31557 86.031378,110.751772 82.0865748,109.173418 C78.1417717,107.595063 73.6066535,109.173418 70.3739764,108.288228 C67.1412992,107.403038 65.4406299,105.82 64.9487008,104.639747 C64.4567717,103.459494 63.9601575,97.9329114 64.1569291,96.6543038 L53.0908661,96.3311392 Z" id="Path" stroke="#263238" fill="#4788D8" fill-rule="nonzero" stroke-linecap="round" stroke-linejoin="round"></path>
                            <path d="M43.1023622,134.417722 C43.1023622,134.417722 39.8228346,130.905063 43.5708661,130.436709 C47.3188976,129.968354 52.7066929,133.71519 58.5629921,135.120253 C64.4192913,136.525316 71.4468504,130.202532 74.492126,131.139241 C77.5374016,132.075949 75.6633858,136.759494 72.3838583,138.867089 C69.1043307,140.974684 59.9685039,140.740506 54.8149606,140.506329 C49.6614173,140.272152 47.0846457,138.867089 43.1023622,134.417722 Z" id="Path" fill="#000000" fill-rule="nonzero" opacity="0.3"></path>
                            <path d="M47.3188976,136.590886 C47.3188976,136.590886 49.1038976,138.019367 53.8779528,138.019367 C58.6520079,138.019367 62.3110236,135.878987 65.6561417,136.473797" id="Path" stroke="#263238" stroke-linecap="round" stroke-linejoin="round"></path>
                            <path d="M45.2949606,136.946835 C45.2949606,136.946835 47.3142126,138.614177 51.4792126,138.731266" id="Path" stroke="#263238" stroke-linecap="round" stroke-linejoin="round"></path>
                            <path d="M40.0711417,126.109114 C40.0711417,126.109114 40.4131496,124.343418 42.6760236,122.676076" id="Path" stroke="#263238" stroke-linecap="round" stroke-linejoin="round"></path>
                            <path d="M77.8466142,126.207468 C77.8466142,126.207468 77.0548425,122.797848 74.9137795,122.081266" id="Path" stroke="#263238" stroke-linecap="round" stroke-linejoin="round"></path>
                            <path d="M59.4016142,120.292152 C67.117874,119.987722 69.5400394,112.564304 70.2990157,108.250759 C67.0803937,107.360886 65.4172047,105.791899 64.9252756,104.616329 C64.4333465,103.440759 63.9367323,97.9094937 64.1335039,96.6308861 L53.0908661,96.3311392 C53.0908661,96.3311392 53.3860236,102.841266 51.8071654,105.599873 C51.0013386,107.004937 49.2866142,107.651266 47.3704331,107.941646 C48.1012992,111.037468 51.0669291,120.624684 59.4016142,120.292152 Z" id="Path" fill="#FFFFFF" fill-rule="nonzero"></path>
                            <path d="M64.3255906,101.192658 C64.1290353,99.6805405 64.0647629,98.1541677 64.1335039,96.6308861 L53.0908661,96.3311392 C53.1487785,98.0082788 53.0908588,99.6874144 52.9175197,101.356582 C54.857126,102.625823 58.787874,104.143291 64.3255906,101.192658 Z" id="Path" fill="#000000" fill-rule="nonzero" opacity="0.3"></path>
                            <path d="M59.4016142,120.292152 C67.117874,119.987722 69.5400394,112.564304 70.2990157,108.250759 C67.0803937,107.360886 65.4172047,105.791899 64.9252756,104.616329 C64.4333465,103.440759 63.9367323,97.9094937 64.1335039,96.6308861 L53.0908661,96.3311392 C53.0908661,96.3311392 53.3860236,102.841266 51.8071654,105.599873 C51.0013386,107.004937 49.2866142,107.651266 47.3704331,107.941646 C48.1012992,111.037468 51.0669291,120.624684 59.4016142,120.292152 Z" id="Path" stroke="#263238" stroke-linecap="round" stroke-linejoin="round"></path>
                            <path d="M48.4058268,82.8987342 C48.4058268,82.8987342 47.000315,80.608481 45.6182283,82.0041772 C44.2361417,83.3998734 45.6182283,86.1818987 46.5130709,87.474557 C47.4079134,88.7672152 49.0992126,89.7601266 49.4974409,89.2636709 C49.8956693,88.7672152 48.4058268,82.8987342 48.4058268,82.8987342 Z" id="Path" stroke="#263238" fill="#FFFFFF" fill-rule="nonzero" stroke-linecap="round" stroke-linejoin="round"></path>
                            <path d="M69.9944882,82.6926582 C69.9944882,82.6926582 71.9856299,80.1073418 73.0819291,82.5943038 C74.1782283,85.0812658 71.2079134,88.8608861 69.8024016,89.5587342 C68.3968898,90.2565823 69.1043307,87.9663291 69.2027165,87.1701266 C69.3011024,86.3739241 69.9944882,82.6926582 69.9944882,82.6926582 Z" id="Path" stroke="#263238" fill="#FFFFFF" fill-rule="nonzero" stroke-linecap="round" stroke-linejoin="round"></path>
                            <path d="M47.3188976,74.1405063 C47.3188976,74.1405063 48.0169685,83.5918987 48.5135827,88.3644304 C49.0101969,93.136962 50.7905118,97.4177215 56.2626378,98.8227848 C61.7347638,100.227848 66.1012205,98.3263291 67.708189,95.141519 C69.3151575,91.9567089 70.1959449,85.891519 70.1959449,80.9175949 L70.1959449,72.9555696 C70.1959449,72.9555696 56.0658661,68.9698734 47.3188976,74.1405063 Z" id="Path" stroke="#263238" fill="#FFFFFF" fill-rule="nonzero" stroke-linecap="round" stroke-linejoin="round"></path>
                            <path d="M57.8555512,87.6665823 C58.3615038,88.0022535 58.9423855,88.2081514 59.5468504,88.2660759 C60.1802591,88.2002722 60.7913442,87.995576 61.3365354,87.6665823" id="Path" stroke="#263238" stroke-linecap="round" stroke-linejoin="round"></path>
                            <path d="M56.5624803,90.753038 C56.5624803,90.753038 59.0502362,92.345443 62.6530315,90.5516456" id="Path" stroke="#263238" stroke-linecap="round" stroke-linejoin="round"></path>
                            <path d="M52.5848819,82.6926582 C52.5848819,82.6926582 54.6744094,82.3975949 55.8644094,83.1937975" id="Path" stroke="#263238" stroke-width="2" stroke-linecap="round" stroke-linejoin="round"></path>
                            <path d="M62.3344488,83.0907595 C62.3344488,83.0907595 64.3255906,82.0978481 66.2136614,82.9924051" id="Path" stroke="#263238" stroke-width="2" stroke-linecap="round" stroke-linejoin="round"></path>
                            <path d="M47.9092126,81.7887342 C48.5915902,80.6383737 49.1252582,79.4061356 49.4974409,78.121519 C50.1024067,76.4399259 50.2904963,74.6367701 50.0455906,72.8665823 C49.0997995,73.20737 48.1871126,73.6337817 47.3188976,74.1405063 C47.3188976,74.1405063 47.5812598,77.8451899 47.9092126,81.7887342 Z" id="Path" stroke="#263238" fill="#263238" fill-rule="nonzero" stroke-linecap="round" stroke-linejoin="round"></path>
                            <path d="M70.1912598,80.9972152 C70.1912598,80.9644304 70.1912598,80.9363291 70.1912598,80.9035443 L70.1912598,72.941519 C70.1912598,72.941519 69.2167717,72.6698734 67.6285433,72.3607595 C67.7316142,73.9063291 68.1954331,78.5664557 70.1912598,80.9972152 Z" id="Path" stroke="#263238" fill="#263238" fill-rule="nonzero" stroke-linecap="round" stroke-linejoin="round"></path>
                            <path d="M51.7884252,79.2127848 C51.7884252,79.2127848 53.4797244,76.9272152 57.0590945,77.6203797" id="Path" stroke="#263238" stroke-linecap="round" stroke-linejoin="round"></path>
                            <path d="M62.1329921,77.9201266 C63.7961042,77.3117693 65.6585064,77.6543563 66.996063,78.8146835" id="Path" stroke="#263238" stroke-linecap="round" stroke-linejoin="round"></path>
                            <path d="M60.3198819,172.35443 C60.3198819,172.35443 55.7519685,172.35443 47.5531496,164.275316 C39.3543307,156.196203 34.2007874,149.405063 27.8759843,146.594937 C21.5511811,143.78481 15.4606299,149.990506 15.8120079,156.664557 C16.1633858,163.338608 21.0826772,172.705696 35.7234252,178.091772 C50.3641732,183.477848 62.8966535,181.253165 64.1850394,181.253165 C65.4734252,181.253165 71.7982283,184.414557 75.5462598,184.765823 C77.609591,184.986634 79.6906058,184.986634 81.753937,184.765823 C81.753937,184.765823 82.8080709,184.882911 83.3937008,184.882911 C83.9793307,184.882911 84.6820866,184.18038 84.6820866,184.18038 C84.6820866,184.18038 85.8674016,184.489494 86.3359055,183.669873 C86.8044094,182.850253 86.4389764,182.541139 86.4389764,182.541139 C86.4389764,182.541139 88.4441732,182.71443 89.1469291,181.426456 C89.849685,180.138481 88.8470866,180.19 88.8470866,180.19 C88.8470866,180.19 90.2198031,179.923038 90.1870079,178.817722 C90.212749,178.40612 90.1320769,177.994824 89.9527559,177.623418 C89.9527559,177.623418 90.7726378,176.335443 90.4212598,175.281646 C90.0698819,174.227848 88.7814961,173.876582 87.4931102,174.462025 C86.2047244,175.047468 79.9970472,174.813291 74.9606299,174.462025 C69.9242126,174.110759 60.3198819,172.35443 60.3198819,172.35443 Z" id="Path" stroke="#263238" fill="#FFFFFF" fill-rule="nonzero" stroke-linecap="round" stroke-linejoin="round"></path>
                            <path d="M58.2818898,171.886076 C56.1923622,171.132025 52.5474016,169.211772 47.5531496,164.289367 C39.3543307,156.196203 34.2007874,149.405063 27.8759843,146.594937 C21.5511811,143.78481 15.4606299,149.990506 15.8120079,156.664557 C16.1633858,163.338608 21.0826772,172.705696 35.7234252,178.091772 C41.1838972,180.085666 46.9075426,181.267586 52.711378,181.599747 C58.0335827,179.379747 58.5301969,174.696203 58.2818898,171.886076 Z" id="Path" fill="#696969" fill-rule="nonzero"></path>
                            <path d="M56.290748,179.070633 C53.9810236,178.19481 51.2824409,177.258101 48.2559055,176.335443 C37.480315,173.056962 29.515748,169.075949 24.1279528,162.987342 C18.7401575,156.898734 20.6141732,149.170886 20.6141732,149.170886 L19.3726378,148.046835 C16.958911,150.24437 15.6531166,153.404758 15.8120079,156.664557 C16.1633858,163.338608 21.0826772,172.705696 35.7234252,178.091772 C41.1838972,180.085666 46.9075426,181.267586 52.711378,181.599747 C54.0885992,181.053048 55.3156303,180.186052 56.290748,179.070633 Z" id="Path" fill="#000000" fill-rule="nonzero" opacity="0.3"></path>
                            <path d="M58.2818898,171.886076 C56.1923622,171.132025 52.5474016,169.211772 47.5531496,164.289367 C39.3543307,156.196203 34.2007874,149.405063 27.8759843,146.594937 C21.5511811,143.78481 15.4606299,149.990506 15.8120079,156.664557 C16.1633858,163.338608 21.0826772,172.705696 35.7234252,178.091772 C41.1838972,180.085666 46.9075426,181.267586 52.711378,181.599747 C58.0335827,179.379747 58.5301969,174.696203 58.2818898,171.886076 Z" id="Path" stroke="#263238" stroke-linecap="round" stroke-linejoin="round"></path>
                            <path d="M89.9527559,177.623418 C89.2245177,177.296042 88.3870155,177.316714 87.6758268,177.67962" id="Path" stroke="#263238" fill="#FFFFFF" fill-rule="nonzero" stroke-linecap="round" stroke-linejoin="round"></path>
                            <path d="M88.8470866,180.19 C88.2416792,179.970671 87.5784783,179.970671 86.9730709,180.19" id="Path" stroke="#263238" fill="#FFFFFF" fill-rule="nonzero" stroke-linecap="round" stroke-linejoin="round"></path>
                            <path d="M86.4389764,182.541139 C86.0062757,182.215749 85.4704817,182.057723 84.9303937,182.096203" id="Path" stroke="#263238" fill="#FFFFFF" fill-rule="nonzero" stroke-linecap="round" stroke-linejoin="round"></path>
                            <path d="M84.5602756,184.063291 C84.5602756,184.063291 84.0589764,183.159367 83.3234252,183.159367" id="Path" stroke="#263238" fill="#FFFFFF" fill-rule="nonzero" stroke-linecap="round" stroke-linejoin="round"></path>
                            <path d="M55.1241732,172.35443 C55.1241732,172.35443 59.6920866,172.35443 67.8909055,164.275316 C76.0897244,156.196203 81.2432677,149.405063 87.5680709,146.594937 C93.892874,143.78481 99.9834252,149.990506 99.6320472,156.664557 C99.2806693,163.338608 94.361378,172.705696 79.7206299,178.091772 C65.0798819,183.477848 52.5474016,181.253165 51.2590157,181.253165 C49.9706299,181.253165 43.6458268,184.414557 39.8977953,184.765823 C37.8344641,184.986634 35.7534493,184.986634 33.6901181,184.765823 C33.6901181,184.765823 32.6359843,184.882911 32.0503543,184.882911 C31.4647244,184.882911 30.7619685,184.18038 30.7619685,184.18038 C30.7619685,184.18038 29.5766535,184.489494 29.1081496,183.669873 C28.6396457,182.850253 29.0050787,182.541139 29.0050787,182.541139 C29.0050787,182.541139 26.9951969,182.71443 26.2924409,181.426456 C25.589685,180.138481 26.5922835,180.19 26.5922835,180.19 C26.5922835,180.19 25.2195669,179.923038 25.2523622,178.817722 C25.2252419,178.405521 25.3076757,177.993483 25.4912992,177.623418 C25.4912992,177.623418 24.6714173,176.335443 25.0227953,175.281646 C25.3741732,174.227848 26.6625591,173.876582 27.9509449,174.462025 C29.2393307,175.047468 35.4470079,174.813291 40.4834252,174.462025 C45.5198425,174.110759 55.1241732,172.35443 55.1241732,172.35443 Z" id="Path" stroke="#263238" fill="#FFFFFF" fill-rule="nonzero" stroke-linecap="round" stroke-linejoin="round"></path>
                            <path d="M57.1574803,171.886076 C59.2423228,171.132025 62.8872835,169.211772 67.8862205,164.289367 C76.0850394,156.210253 81.2385827,149.419114 87.5633858,146.608987 C93.888189,143.798861 99.9787402,150.004557 99.6273622,156.678608 C99.2759843,163.352658 94.3566929,172.719747 79.7159449,178.105823 C74.2540003,180.10023 68.5287342,181.282159 62.7233071,181.613797 C57.4057874,179.379747 56.9138583,174.696203 57.1574803,171.886076 Z" id="Path" fill="#696969" fill-rule="nonzero"></path>
                            <path d="M99.6320472,156.664557 C99.8756693,152.013797 96.989685,147.597215 93.0729921,146.290506 L91.3582677,147.531646 C91.3582677,147.531646 97.2145669,151.044304 95.8090551,157.835443 C94.4035433,164.626582 82.9251969,171.651899 73.7893701,175.398734 C69.2407301,177.181093 64.5722723,178.641281 59.8185827,179.768481 C60.6724567,180.546056 61.657514,181.16608 62.7279921,181.599747 C68.5334192,181.268108 74.2586854,180.086179 79.7206299,178.091772 C94.361378,172.705696 99.2806693,163.338608 99.6320472,156.664557 Z" id="Path" fill="#000000" fill-rule="nonzero" opacity="0.3"></path>
                            <path d="M57.1574803,171.886076 C59.2423228,171.132025 62.8872835,169.211772 67.8862205,164.289367 C76.0850394,156.210253 81.2385827,149.419114 87.5633858,146.608987 C93.888189,143.798861 99.9787402,150.004557 99.6273622,156.678608 C99.2759843,163.352658 94.3566929,172.719747 79.7159449,178.105823 C74.2540003,180.10023 68.5287342,181.282159 62.7233071,181.613797 C57.4057874,179.379747 56.9138583,174.696203 57.1574803,171.886076 Z" id="Path" stroke="#263238" stroke-linecap="round" stroke-linejoin="round"></path>
                            <path d="M25.4912992,177.623418 C26.2195374,177.296042 27.0570396,177.316714 27.7682283,177.67962" id="Path" stroke="#263238" fill="#FFFFFF" fill-rule="nonzero" stroke-linecap="round" stroke-linejoin="round"></path>
                            <path d="M26.5922835,180.19 C27.1976909,179.970671 27.8608918,179.970671 28.4662992,180.19" id="Path" stroke="#263238" fill="#FFFFFF" fill-rule="nonzero" stroke-linecap="round" stroke-linejoin="round"></path>
                            <path d="M29.0050787,182.541139 C29.4377795,182.215749 29.9735734,182.057723 30.5136614,182.096203" id="Path" stroke="#263238" fill="#FFFFFF" fill-rule="nonzero" stroke-linecap="round" stroke-linejoin="round"></path>
                            <path d="M30.8837795,184.063291 C30.8837795,184.063291 31.3897638,183.126582 32.1206299,183.126582" id="Path" stroke="#263238" fill="#FFFFFF" fill-rule="nonzero" stroke-linecap="round" stroke-linejoin="round"></path>
                            <path d="M33.9056299,136.323924 C33.9056299,136.323924 32.1768504,135.977342 29.0659843,137.532278 C25.9551181,139.087215 23.0972441,141.85519 21.4527953,142.805949 C19.8083465,143.756709 18.688622,144.36557 17.2362598,142.894937 C15.7838976,141.424304 12.6542913,137.358987 9.71208661,137.447975 C6.76988189,137.536962 5.73448819,141.597595 6.25452756,142.459367 C6.77456693,143.321139 7.55228346,143.499114 8.15665354,142.805949 C8.76102362,142.112785 9.53874016,140.731139 10.3164567,141.251013 C11.0941732,141.770886 10.6631496,144.192278 9.45440945,144.623165 C8.24566929,145.054051 4.95677165,147.128861 5.73448819,148.341899 C6.51220472,149.554937 10.9255118,151.194177 14.2097244,151.451772 C17.493937,151.709367 21.5605512,149.465949 24.2403937,149.03038 C26.9202362,148.59481 34.1867323,148.093671 37.5552756,145.316329 C39.5302279,143.709842 40.4892707,141.166327 40.0664567,138.656329" id="Path" stroke="#263238" fill="#FFFFFF" fill-rule="nonzero" stroke-linecap="round" stroke-linejoin="round"></path>
                            <path d="M6.14677165,146.524684 C6.14677165,146.524684 5.80476378,142.721646 4.68035433,142.459367 C3.55594488,142.197089 3.38259843,144.801139 3.55594488,147.302152 C3.72929134,149.803165 5.11137795,150.501013 5.9734252,149.807848 C6.83547244,149.114684 6.14677165,146.524684 6.14677165,146.524684 Z" id="Path" stroke="#263238" fill="#FFFFFF" fill-rule="nonzero" stroke-linecap="round" stroke-linejoin="round"></path>
                            <path d="M8.85003937,147.597215 C8.85003937,147.597215 9.17799213,143.789494 8.11917323,143.33519 C7.06035433,142.880886 6.43255906,145.405316 6.15614173,147.901646 C5.87972441,150.397975 7.12594488,151.325316 8.10043307,150.800759 C9.07492126,150.276203 8.85003937,147.597215 8.85003937,147.597215 Z" id="Path" stroke="#263238" fill="#FFFFFF" fill-rule="nonzero" stroke-linecap="round" stroke-linejoin="round"></path>
                            <path d="M11.183189,148.468354 C11.183189,148.468354 11.5158268,144.665316 10.4523228,144.211013 C9.3888189,143.756709 8.76570866,146.281139 8.49397638,148.777468 C8.22224409,151.273797 9.45909449,152.201139 10.4335827,151.671899 C11.4080709,151.142658 11.183189,148.468354 11.183189,148.468354 Z" id="Path" stroke="#263238" fill="#FFFFFF" fill-rule="nonzero" stroke-linecap="round" stroke-linejoin="round"></path>
                            <path d="M17.3018504,151.278481 C15.7319065,152.002309 14.0172699,152.357942 12.2888583,152.318228 C12.1887391,151.600978 12.1308572,150.878467 12.1155118,150.15443 C12.1155118,149.217722 14.1019685,145.316329 17.0441732,145.573924" id="Path" stroke="#263238" fill="#FFFFFF" fill-rule="nonzero" stroke-linecap="round" stroke-linejoin="round"></path>
                            <path d="M13.6615748,149.953038 C13.6615748,149.953038 14.7625591,146.974304 13.8536614,146.281139 C12.9447638,145.587975 11.8250394,147.433291 11.0426378,149.372278 C10.2602362,151.311266 11.2487795,152.444684 12.2794882,152.318228 C13.3101969,152.191772 13.6615748,149.953038 13.6615748,149.953038 Z" id="Path" stroke="#263238" fill="#FFFFFF" fill-rule="nonzero" stroke-linecap="round" stroke-linejoin="round"></path>
                            <path d="M84.7148819,136.323924 C84.7148819,136.323924 86.4436614,135.977342 89.5592126,137.532278 C92.6747638,139.087215 95.5232677,141.85519 97.1677165,142.805949 C98.8121654,143.756709 99.9365748,144.36557 101.407677,142.894937 C102.87878,141.424304 105.989646,137.358987 108.927165,137.447975 C111.864685,137.536962 112.904764,141.597595 112.389409,142.459367 C111.874055,143.321139 111.091654,143.499114 110.487283,142.805949 C109.882913,142.112785 109.081772,140.731139 108.322795,141.251013 C107.563819,141.770886 107.976102,144.192278 109.189528,144.623165 C110.402953,145.054051 113.687165,147.128861 112.904764,148.341899 C112.122362,149.554937 107.718425,151.194177 104.434213,151.451772 C101.15,151.709367 97.0833858,149.465949 94.3988583,149.03038 C91.7143307,148.59481 84.4572047,148.093671 81.0839764,145.316329 C79.1091081,143.70998 78.151546,141.165646 78.5774803,138.656329" id="Path" stroke="#263238" fill="#FFFFFF" fill-rule="nonzero" stroke-linecap="round" stroke-linejoin="round"></path>
                            <path d="M112.47374,146.524684 C112.47374,146.524684 112.820433,142.721646 113.944843,142.459367 C115.069252,142.197089 115.242598,144.801139 115.069252,147.302152 C114.895906,149.803165 113.513819,150.501013 112.647087,149.807848 C111.780354,149.114684 112.47374,146.524684 112.47374,146.524684 Z" id="Path" stroke="#263238" fill="#FFFFFF" fill-rule="nonzero" stroke-linecap="round" stroke-linejoin="round"></path>
                            <path d="M109.775157,147.597215 C109.775157,147.597215 109.44252,143.789494 110.501339,143.33519 C111.560157,142.880886 112.192638,145.405316 112.46437,147.901646 C112.736102,150.397975 111.503937,151.325316 110.524764,150.810127 C109.545591,150.294937 109.775157,147.597215 109.775157,147.597215 Z" id="Path" stroke="#263238" fill="#FFFFFF" fill-rule="nonzero" stroke-linecap="round" stroke-linejoin="round"></path>
                            <path d="M107.437323,148.468354 C107.437323,148.468354 107.10937,144.665316 108.168189,144.211013 C109.227008,143.756709 109.859488,146.281139 110.13122,148.777468 C110.402953,151.273797 109.161417,152.201139 108.191614,151.671899 C107.221811,151.142658 107.437323,148.468354 107.437323,148.468354 Z" id="Path" stroke="#263238" fill="#FFFFFF" fill-rule="nonzero" stroke-linecap="round" stroke-linejoin="round"></path>
                            <path d="M101.318661,151.278481 C102.894474,152.004636 104.615732,152.360313 106.350394,152.318228 C106.450513,151.600978 106.508395,150.878467 106.52374,150.15443 C106.52374,149.217722 104.532598,145.316329 101.590394,145.573924" id="Path" stroke="#263238" fill="#FFFFFF" fill-rule="nonzero" stroke-linecap="round" stroke-linejoin="round"></path>
                            <path d="M104.944882,149.953038 C104.944882,149.953038 103.843898,146.974304 104.752795,146.281139 C105.661693,145.587975 106.776732,147.433291 107.563819,149.372278 C108.350906,151.311266 107.357677,152.444684 106.326969,152.318228 C105.29626,152.191772 104.944882,149.953038 104.944882,149.953038 Z" id="Path" stroke="#263238" fill="#FFFFFF" fill-rule="nonzero" stroke-linecap="round" stroke-linejoin="round"></path>
                        </g>
                        <g id="freepik--Graphics--inject-90" transform="translate(53.000000, 17.837079)">
                            <path d="M52.3417085,54.2978723 C51.2434673,52.7017021 49.5376884,54.2557447 49.098392,54.7331915 C48.6310553,54.2651064 46.9533166,52.7017021 45.8597487,54.2978723 C44.6680402,56.0344681 49.061005,59.652766 49.098392,59.6340426 C49.1357789,59.6153191 53.519397,56.0344681 52.3417085,54.2978723 Z" id="Path" stroke="#4788D8" stroke-linecap="round" stroke-linejoin="round"></path>
                            <path d="M41.429397,55.7302128 C40.0574119,53.880565 38.2094874,52.4390112 36.0830653,51.5595745 C32.6621608,50.2208511 34.8913568,47.5434043 36.3774874,48.2829787 C37.3364728,48.7547365 38.3301343,49.1522117 39.3497487,49.4719149 C39.3497487,49.4719149 35.4848744,46.3451064 35.34,43.6676596 C35.1951256,40.9902128 39.3497487,44.4119149 39.3497487,44.4119149 C39.3497487,44.4119149 34.2978392,37.4468085 35.9335176,36.2297872 C37.569196,35.012766 39.0506533,37.273617 40.0928141,39.2068085 C40.8327367,40.6515599 41.4774809,42.1432572 42.0229146,43.6723404 C42.0229146,43.6723404 41.7284925,38.7621277 43.3641709,40.2506383 C44.9998492,41.7391489 43.9576884,49.1817021 43.9576884,49.1817021 C43.9576884,49.1817021 46.1868844,43.0965957 47.2290452,46.3731915 C48.271206,49.6497872 41.8780402,55.2808511 41.429397,55.7302128 Z" id="Path" stroke="#4788D8" stroke-linecap="round" stroke-linejoin="round"></path>
                            <path d="M41.429397,55.7302128 C41.429397,55.7302128 43.8081407,48.5825532 38.9057789,39.347234" id="Path" stroke="#4788D8" stroke-linecap="round" stroke-linejoin="round"></path>
                            <path d="M33.2743719,8.28042553 C31.5705896,8.26746389 29.8953707,8.7188955 28.4280905,9.58638298 C26.091407,10.9906383 25.530603,8.49574468 26.6335176,7.94808511 C27.3389001,7.59000604 28.0168349,7.18009044 28.6617588,6.72170213 C28.6617588,6.72170213 25.0913065,7.61106383 23.4462814,6.50170213 C21.8012563,5.39234043 25.6754774,4.46085106 25.6754774,4.46085106 C25.6754774,4.46085106 19.2963317,4.32978723 19.3242797,2.83191489 C19.3524121,1.33404255 21.3292462,1.42765957 22.9368844,1.69914894 C24.1189877,1.9064572 25.2866079,2.18944877 26.4325628,2.54638298 C26.4325628,2.54638298 23.4042211,0.52893617 25.0071859,0.205957447 C26.6101508,-0.117021277 30.5404523,3.83829787 30.5404523,3.83829787 C30.5404523,3.83829787 27.9373869,-0.201276596 30.3301508,0.641276596 C32.7229146,1.48382979 33.2089447,7.81702128 33.2743719,8.28042553 Z" id="Path" stroke="#4788D8" stroke-linecap="round" stroke-linejoin="round"></path>
                            <path d="M33.2743719,8.28042553 C33.2743719,8.28042553 30.1245226,3.68382979 22.4929146,2.46680851" id="Path" stroke="#4788D8" stroke-linecap="round" stroke-linejoin="round"></path>
                            <path d="M62.7913568,37.8540426 C62.6590127,37.8567275 62.5273658,37.8739946 62.398794,37.9055319 C62.9419372,37.3867685 63.0827469,36.5733812 62.7456788,35.9017514 C62.4086106,35.2301216 61.6728637,34.8580584 60.9331653,34.9851733 C60.193467,35.1122881 59.6236201,35.7087136 59.5293467,36.4544681 C59.2296883,35.8214812 58.5746031,35.4358543 57.8766763,35.4815959 C57.1787496,35.5273375 56.5794213,35.9951777 56.3646712,36.6618785 C56.1499211,37.3285794 56.3632699,38.059029 56.9029146,38.5046809 C56.3004253,38.8069757 55.9320822,39.4361957 55.9629178,40.110425 C55.9937534,40.7846544 56.4179876,41.37751 57.0455465,41.6233688 C57.6731053,41.8692276 58.386354,41.7220038 58.8657286,41.2476596 C58.9457762,42.1375277 59.6985259,42.8143194 60.590427,42.7983231 C61.4823281,42.7823269 62.2104041,42.0789765 62.258593,41.1868085 C62.4305436,41.2443812 62.6101085,41.2759342 62.7913568,41.2804255 C63.7360135,41.2804255 64.501809,40.5134036 64.501809,39.567234 C64.501809,38.6210645 63.7360135,37.8540426 62.7913568,37.8540426 L62.7913568,37.8540426 Z" id="Path" stroke="#4788D8" stroke-linecap="round" stroke-linejoin="round"></path>
                            <ellipse id="Oval" stroke="#4788D8" stroke-linecap="round" stroke-linejoin="round" cx="59.8798492" cy="39.2021277" rx="1.18236181" ry="1.18425532"></ellipse>
                            <path d="M28.5916583,51.3302128 C28.4577541,51.33263 28.3245294,51.3498985 28.1944221,51.3817021 C28.7408902,50.8642253 28.8845365,50.0493548 28.5480375,49.3757286 C28.2115385,48.7021024 27.4742974,48.3286754 26.733165,48.4564603 C25.9920326,48.5842452 25.4218933,49.1830887 25.3296482,49.9306383 C24.9845318,49.211133 24.1879984,48.8268732 23.4111694,49.0051349 C22.6343404,49.1833966 22.0842809,49.8766639 22.0863317,50.6748936 C22.0870888,51.1806035 22.3133219,51.6595439 22.7032161,51.9808511 C22.1007268,52.2831459 21.7323838,52.9123659 21.7632193,53.5865952 C21.7940549,54.2608246 22.2182891,54.8536802 22.845848,55.099539 C23.4734068,55.3453978 24.1866555,55.198174 24.6660302,54.7238298 C24.760071,55.6010771 25.5071743,56.2613061 26.3879116,56.2454883 C27.2686489,56.2296705 27.9916402,55.543039 28.0542211,54.6629787 C28.2270894,54.7232599 28.4086208,54.7548811 28.5916583,54.7565957 C29.536315,54.7565957 30.3021106,53.9895738 30.3021106,53.0434043 C30.3021106,52.0972347 29.536315,51.3302128 28.5916583,51.3302128 L28.5916583,51.3302128 Z" id="Path" stroke="#4788D8" stroke-linecap="round" stroke-linejoin="round"></path>
                            <ellipse id="Oval" stroke="#4788D8" stroke-linecap="round" stroke-linejoin="round" cx="25.6754774" cy="52.6782979" rx="1.18236181" ry="1.18425532"></ellipse>
                            <path d="M27.6569849,30.0417021 C27.5734404,30.0430696 27.4903307,30.0540639 27.4092965,30.0744681 C27.6219075,29.8761002 27.7421829,29.597836 27.7411055,29.3068085 C27.7677271,28.7280025 27.3264615,28.2345458 26.7491498,28.1975285 C26.1718381,28.1605112 25.6713532,28.5935826 25.6240704,29.1710638 C25.4371165,28.7775666 25.0292338,28.5382967 24.5951271,28.5674706 C24.1610204,28.5966445 23.7887074,28.8883471 23.6559136,29.3033328 C23.5231198,29.7183185 23.6567698,30.1724463 23.9930653,30.4489362 C23.6349905,30.6234206 23.4067581,30.9862744 23.4042211,31.3851064 C23.3912657,31.8258053 23.6502042,32.2291206 24.0559137,32.4001647 C24.4616232,32.5712088 24.9305814,32.4747691 25.2361809,32.1574468 C25.2972791,32.7031296 25.7634286,33.1123021 26.3115454,33.1013708 C26.8596623,33.0904395 27.3091803,32.6630054 27.3485427,32.1153191 C27.4547599,32.1548162 27.5670533,32.1754099 27.6803518,32.1761702 C28.2688264,32.1761702 28.7458794,31.6983533 28.7458794,31.1089362 C28.7458794,30.5195191 28.2688264,30.0417021 27.6803518,30.0417021 L27.6569849,30.0417021 Z" id="Path" stroke="#4788D8" stroke-linecap="round" stroke-linejoin="round"></path>
                            <ellipse id="Oval" stroke="#4788D8" stroke-linecap="round" stroke-linejoin="round" cx="25.8437186" cy="30.8795745" rx="1" ry="1"></ellipse>
                            <path d="M18.0251759,62.7234043 C17.9431723,62.7247964 17.8616128,62.7357931 17.7821608,62.7561702 C17.991643,62.5560075 18.109906,62.2784903 18.1092965,61.9885106 C18.1067209,61.4299894 17.6728675,60.9688066 17.1163775,60.9330454 C16.5598875,60.8972842 16.0707499,61.2991537 15.9969347,61.852766 C15.8082546,61.4624239 15.4016654,61.2261069 14.9696855,61.2557102 C14.5377056,61.2853134 14.1670407,61.5748951 14.0331992,61.9873393 C13.8993577,62.3997835 14.029204,62.8523057 14.3612563,63.1306383 C13.98833,63.3194595 13.7608122,63.7099639 13.7801369,64.1280531 C13.7994616,64.5461423 14.0620285,64.9139216 14.4507775,65.0674241 C14.8395265,65.2209267 15.2820293,65.1315531 15.581005,64.8391489 C15.6421032,65.3848317 16.1082527,65.7940043 16.6563696,65.7830729 C17.2044864,65.7721416 17.6540044,65.3447076 17.6933668,64.7970213 C17.7997081,64.8360642 17.911922,64.8566433 18.0251759,64.8578723 C18.6136505,64.8578723 19.0907035,64.3800554 19.0907035,63.7906383 C19.0907035,63.2012212 18.6136505,62.7234043 18.0251759,62.7234043 L18.0251759,62.7234043 Z" id="Path" stroke="#4788D8" stroke-linecap="round" stroke-linejoin="round"></path>
                            <ellipse id="Oval" stroke="#4788D8" stroke-linecap="round" stroke-linejoin="round" cx="16.2119095" cy="63.5612766" rx="1" ry="1"></ellipse>
                            <path d="M38.7094975,12.3059574 C38.6274939,12.3073495 38.5459344,12.3183463 38.4664824,12.3387234 C38.8027625,12.016196 38.8897789,11.5117446 38.6810383,11.0949013 C38.4722976,10.6780579 38.0165904,10.4462549 37.5574044,10.5233461 C37.0982184,10.6004374 36.742883,10.9684038 36.6812563,11.4306383 C36.4673752,10.9799966 35.9692449,10.73912 35.4839076,10.8516465 C34.9985702,10.964173 34.6567844,11.3997861 34.6623618,11.8987234 C34.6620327,12.2126354 34.8027681,12.5100282 35.0455779,12.7085106 C34.6013727,12.9256539 34.3657537,13.421292 34.4774697,13.903559 C34.5891857,14.385826 35.0186294,14.7269101 35.5129146,14.7259574 C35.7918005,14.7262281 36.0592658,14.615027 36.2559799,14.4170213 C36.3160986,14.9626284 36.7812489,15.3725628 37.3292052,15.3628489 C37.8771615,15.3531351 38.3275373,14.9269707 38.3683417,14.3795745 C38.4752677,14.4164267 38.587125,14.4369404 38.7001508,14.4404255 C39.2886254,14.4404255 39.7656784,13.9626086 39.7656784,13.3731915 C39.7656784,12.7837744 39.2886254,12.3059574 38.7001508,12.3059574 L38.7094975,12.3059574 Z" id="Path" stroke="#4788D8" stroke-linecap="round" stroke-linejoin="round"></path>
                            <ellipse id="Oval" stroke="#4788D8" stroke-linecap="round" stroke-linejoin="round" cx="36.8962312" cy="13.1438298" rx="1" ry="1"></ellipse>
                            <path d="M61.5388945,19.0417021 C61.45535,19.0430696 61.3722403,19.0540639 61.291206,19.0744681 C61.5038171,18.8761002 61.6240925,18.597836 61.6230151,18.3068085 C61.6496367,17.7280025 61.2083711,17.2345458 60.6310594,17.1975285 C60.0537477,17.1605112 59.5532627,17.5935826 59.5059799,18.1710638 C59.319026,17.7775666 58.9111434,17.5382967 58.4770366,17.5674706 C58.0429299,17.5966445 57.670617,17.8883471 57.5378232,18.3033328 C57.4050293,18.7183185 57.5386794,19.1724463 57.8749749,19.4489362 C57.5169,19.6234206 57.2886677,19.9862744 57.2861307,20.3851064 C57.2869006,20.8137573 57.543648,21.2003524 57.9380577,21.3667393 C58.3324673,21.5331262 58.7879954,21.4470139 59.0947236,21.1480851 C59.1558218,21.6937679 59.6219713,22.1029404 60.1700882,22.0920091 C60.718205,22.0810778 61.167723,21.6536437 61.2070854,21.1059574 C61.3133026,21.1454545 61.425596,21.1660482 61.5388945,21.1668085 C62.1273691,21.1668085 62.6044221,20.6889916 62.6044221,20.0995745 C62.6044221,19.5101574 62.1273691,19.0323404 61.5388945,19.0323404 L61.5388945,19.0417021 Z" id="Path" stroke="#4788D8" stroke-linecap="round" stroke-linejoin="round"></path>
                            <ellipse id="Oval" stroke="#4788D8" stroke-linecap="round" stroke-linejoin="round" cx="59.7256281" cy="19.8795745" rx="1" ry="1"></ellipse>
                            <path d="M47.6683417,32.7659574 C48.2631388,31.1469886 48.9932141,29.5811545 49.850804,28.0851064 C50.9396985,26.367234 54.8326131,26.0582979 54.8326131,26.0582979 C54.8326131,26.0582979 52.8090452,29.3348936 51.8743719,30.893617 C50.9396985,32.4523404 47.6683417,32.7659574 47.6683417,32.7659574 Z" id="Path" stroke="#4788D8" stroke-linecap="round" stroke-linejoin="round"></path>
                            <path d="M47.6683417,32.7659574 C47.6683417,32.7659574 50.6265829,28.5531915 54.0568342,26.526383" id="Path" stroke="#4788D8" stroke-linecap="round" stroke-linejoin="round"></path>
                            <path d="M2.74326633,47.9506383 C4.42298072,47.5694952 6.13161633,47.3299345 7.85125628,47.2344681 C9.87949749,47.2344681 12.2675879,50.3144681 12.2675879,50.3144681 C12.2675879,50.3144681 8.41673367,50.3987234 6.60346734,50.4642553 C4.79020101,50.5297872 2.74326633,47.9506383 2.74326633,47.9506383 Z" id="Path" stroke="#4788D8" stroke-linecap="round" stroke-linejoin="round"></path>
                            <path d="M2.74326633,47.9506383 C2.74326633,47.9506383 7.88396985,48.1425532 11.4497487,49.9119149" id="Path" stroke="#4788D8" stroke-linecap="round" stroke-linejoin="round"></path>
                            <path d="M72.0773367,44.3885106 C72.0773367,44.3885106 71.3202513,40.8638298 69.6705528,41.0697872 C68.0208543,41.2757447 69.3527638,45.4229787 69.3527638,45.4229787 C69.3527638,45.4229787 67.1843216,46.0408511 67.2871357,46.9723404 C67.3899497,47.9038298 68.9321608,47.1268085 70.2687437,46.9208511 C70.2687437,46.9208511 69.7313065,49.3408511 71.1753769,49.7293617 C72.6194472,50.1178723 72.3437186,46.5370213 72.3437186,46.5370213 C72.3437186,46.5370213 75.5683417,47.1970213 76.4749749,45.7506383 C77.5264824,44.0889362 73.418593,44.1778723 72.0773367,44.3885106 Z" id="Path" stroke="#4788D8" stroke-linecap="round" stroke-linejoin="round"></path>
                            <path d="M72.0773367,43.3025532 C72.0773367,43.3025532 69.0676884,47.8851064 69.2452764,48.367234 C69.4228643,48.8493617 72.680201,44.3885106 73.2223116,43.8455319 C73.7644221,43.3025532 72.8017085,42.5161702 72.0773367,43.3025532 Z" id="Path" stroke="#4788D8" fill="#263238" fill-rule="nonzero" stroke-linecap="round" stroke-linejoin="round"></path>
                            <path d="M73.2223116,43.8455319 C73.2223116,43.8455319 75.2084925,42.0340426 76.171206,42.7595745 C77.1339196,43.4851064 75.9936181,43.6021277 75.8721106,43.3634043" id="Path" stroke="#4788D8" stroke-linecap="round" stroke-linejoin="round"></path>
                            <path d="M72.259598,42.9374468 C72.259598,42.9374468 72.8017085,40.2834043 72.1988442,39.7404255 C71.5959799,39.1974468 71.3529648,39.9229787 71.7782412,40.3442553" id="Path" stroke="#4788D8" stroke-linecap="round" stroke-linejoin="round"></path>
                            <path d="M43.4623116,22.2621277 C41.8546734,19.9217021 39.3684422,22.2012766 38.7001508,22.8987234 C38.0271859,22.2012766 35.5409548,19.9123404 33.9333166,22.2621277 C32.180804,24.8131915 38.639397,30.1306383 38.7001508,30.107311 C38.7609045,30.0838298 45.2054774,24.8085106 43.4623116,22.2621277 Z" id="Path" stroke="#4788D8" stroke-linecap="round" stroke-linejoin="round"></path>
                            <path d="M21.1563317,13.1344681 C19.4926131,12.1421277 18.6093467,14.2625532 18.3896985,14.8804255 C17.7774874,14.6417021 15.5856784,13.9442553 15.2632161,15.8446809 C14.9080402,17.9182979 20.4039196,19.3693617 20.4366332,19.3365957 C20.4693467,19.3038298 22.9602513,14.2110638 21.1563317,13.1344681 Z" id="Path" stroke="#4788D8" stroke-linecap="round" stroke-linejoin="round"></path>
                            <path d="M5.64542714,32.4382979 C3.71532663,32.2931915 3.86487437,34.5868085 3.94899497,35.2468085 C3.29472362,35.3076596 1.02346734,35.6493617 1.57959799,37.5029787 C2.18246231,39.5204255 7.75311558,38.3595745 7.76246231,38.3174468 C7.77180905,38.2753191 7.73909548,32.5974468 5.64542714,32.4382979 Z" id="Path" stroke="#4788D8" stroke-linecap="round" stroke-linejoin="round"></path>
                            <path d="M66.908593,62.7608511 C68.4414573,61.5765957 66.8011055,59.9523404 66.3057286,59.5404255 C66.7730653,59.0723404 68.2171357,57.2842553 66.5674372,56.2638298 C64.7728643,55.1638298 61.3986935,59.7510638 61.4267337,59.7885106 C61.4547739,59.8259574 65.2448744,64.0434043 66.908593,62.7608511 Z" id="Path" stroke="#4788D8" stroke-linecap="round" stroke-linejoin="round"></path>
                            <path d="M57.9731156,31.2587234 C59.0202856,30.285345 60.1909075,29.4543675 61.4547739,28.787234" id="Path" stroke="#4788D8" stroke-linecap="round" stroke-linejoin="round"></path>
                            <path d="M49.3040201,50.0851064 C49.3040201,50.0851064 50.3975879,40.7655319 55.519598,33.9782979" id="Path" stroke="#4788D8" stroke-linecap="round" stroke-linejoin="round"></path>
                            <path d="M35.4895477,54.0404255 C35.9312497,54.7253031 36.3307871,55.4365557 36.6859296,56.1702128" id="Path" stroke="#4788D8" stroke-linecap="round" stroke-linejoin="round"></path>
                            <path d="M18.090603,42.9795745 C18.7631256,43.5177462 19.5193855,43.9415504 20.3291457,44.2340426 C24.0257789,45.6382979 29.1851759,47.0425532 33.199598,51.1710638" id="Path" stroke="#4788D8" stroke-linecap="round" stroke-linejoin="round"></path>
                            <path d="M16.3567839,38.6170213 C16.1749759,39.5988095 16.3402183,40.6133674 16.8241206,41.486383" id="Path" stroke="#4788D8" stroke-linecap="round" stroke-linejoin="round"></path>
                            <path d="M59.5433668,14.3046809 C60.7181286,13.2353817 61.683344,11.9558916 62.3894472,10.5319149" id="Path" stroke="#4788D8" stroke-linecap="round" stroke-linejoin="round"></path>
                            <path d="M45.6961809,27.9821277 C46.4574317,26.0667482 47.51746,24.2845656 48.8366834,22.7021277 C51.4958291,19.5331915 54.360603,18.0212766 56.9075879,16.312766" id="Path" stroke="#4788D8" stroke-linecap="round" stroke-linejoin="round"></path>
                            <path d="M44.1633166,35.5744681 C44.163082,34.4752057 44.264775,33.3782969 44.4670854,32.2978723" id="Path" stroke="#4788D8" stroke-linecap="round" stroke-linejoin="round"></path>
                            <path d="M58.7348744,54.5693617 C60.678995,53.586383 63.4082412,52.8468085 67.0628141,53.1276596 C76.1758794,53.8297872 80.3819095,56.6382979 84.3542714,51.2553191" id="Path" stroke="#4788D8" stroke-linecap="round" stroke-linejoin="round"></path>
                            <path d="M54.678392,58.0425532 C55.0978873,57.3929699 55.6077457,56.8066394 56.1925628,56.3012766" id="Path" stroke="#4788D8" stroke-linecap="round" stroke-linejoin="round"></path>
                            <path d="M74.0541709,33.3978723 L72.8063819,33.3978723 C72.0539698,33.3978723 70.68,32.5225532 71.3062312,31.7689362 C71.9324623,31.0153191 74.0541709,32.7706383 74.0541709,32.7706383 L72.1848241,26.8868085 L76.1852261,25.0144681 L77.8115578,30.5238298 C77.8115578,30.5238298 75.3113065,29.5221277 75.0589447,30.6455319 C74.8065829,31.7689362 76.6852764,31.647234 77.8115578,31.146383" id="Path" stroke="#4788D8" stroke-linecap="round" stroke-linejoin="round"></path>
                            <path d="M72.5540201,28.1365957 L76.4282412,26.2595745" id="Path" stroke="#4788D8" stroke-linecap="round" stroke-linejoin="round"></path>
                            <path d="M82.6484925,31.5255319 L81.8259799,31.5255319 C81.3259296,31.5255319 80.4239698,30.9451064 80.8305528,30.4489362 C81.2371357,29.952766 82.6484925,31.1089362 82.6484925,31.1089362 L81.4100503,27.2191489 L84.0551759,25.9787234 L85.1300503,29.6204255 C85.1300503,29.6204255 83.4756784,28.9604255 83.3121106,29.7046809 C83.1485427,30.4489362 84.3869849,30.3646809 85.1300503,30.0323404" id="Path" stroke="#4788D8" stroke-linecap="round" stroke-linejoin="round"></path>
                            <path d="M81.6577387,28.0476596 L84.2187437,26.807234" id="Path" stroke="#4788D8" stroke-linecap="round" stroke-linejoin="round"></path>
                            <path d="M9.97763819,27.312766 L9.15512563,27.312766 C8.65507538,27.312766 7.75311558,26.7323404 8.15969849,26.2361702 C8.56628141,25.74 9.97763819,26.8961702 9.97763819,26.8961702 L8.73919598,23.006383 L11.3843216,21.7659574 L12.459196,25.4076596 C12.459196,25.4076596 10.8048241,24.7476596 10.6412563,25.4919149 C10.4776884,26.2361702 11.7161307,26.1519149 12.459196,25.8195745" id="Path" stroke="#4788D8" stroke-linecap="round" stroke-linejoin="round"></path>
                            <path d="M8.98688442,23.8348936 L11.5478894,22.5944681" id="Path" stroke="#4788D8" stroke-linecap="round" stroke-linejoin="round"></path>
                            <path d="M88.3266332,40.4706383 C88.3266332,40.4706383 91.7101508,39.4502128 91.1727136,37.4468085 C90.7053769,35.7523404 89.1257789,37.4468085 89.1257789,37.4468085 C89.1257789,37.4468085 90.1071859,35.8553191 88.6584422,35.106383 C87.2096985,34.3574468 86.7890955,36.4076596 86.7890955,36.4076596 C86.7890955,36.4076596 86.4993467,34.507234 85.1814573,35.3825532 C83.8635678,36.2578723 86.6442211,40.9480851 86.6442211,40.9480851 L88.3266332,40.4706383 Z" id="Path" stroke="#4788D8" stroke-linecap="round" stroke-linejoin="round"></path>
                            <path d="M83.9897487,47.7025532 C85.3129446,45.6571243 86.208036,43.3640589 86.6208543,40.9621277 L88.0602513,36.5059574" id="Path" stroke="#4788D8" stroke-linecap="round" stroke-linejoin="round"></path>
                            <path d="M85.7422613,44.187234 C85.8826261,43.265074 85.674309,42.3236417 85.1580905,41.547234 C84.6421978,40.6791252 84.0030527,39.8907401 83.2607035,39.2068085 C83.2607035,39.2068085 82.821407,40.8170213 83.1111558,41.8421277 C83.4009045,42.867234 85.7422613,44.187234 85.7422613,44.187234 Z" id="Path" stroke="#4788D8" stroke-linecap="round" stroke-linejoin="round"></path>
                            <path d="M85.3076382,45.3574468 C85.8760443,44.8684119 86.6054968,44.6081908 87.3545729,44.627234 L90.1305528,44.627234 C90.1305528,44.627234 86.6208543,47.4076596 85.3076382,45.3574468 Z" id="Path" stroke="#4788D8" stroke-linecap="round" stroke-linejoin="round"></path>
                            <polyline id="Path" stroke="#4788D8" stroke-linecap="round" stroke-linejoin="round" points="86.1722111 37.2595745 86.6115075 40.7234043 89.0650251 38.8978723"></polyline>
                            <path d="M9.56638191,55.5757447 C9.56638191,55.5757447 7.35120603,52.8234043 5.70150754,54.0731915 C4.29949749,55.1357447 6.47261307,55.973617 6.47261307,55.973617 C6.47261307,55.973617 4.62663317,55.6646809 4.50045226,57.2982979 C4.37427136,58.9319149 6.40251256,58.5106383 6.40251256,58.5106383 C6.40251256,58.5106383 4.75281407,59.4982979 6.06135678,60.3829787 C7.3698995,61.2676596 10.6599497,56.9285106 10.6599497,56.9285106 L9.56638191,55.5757447 Z" id="Path" stroke="#4788D8" stroke-linecap="round" stroke-linejoin="round"></path>
                            <path d="M17.8803015,56.8629787 C15.4920683,56.4035981 13.0355104,56.4354491 10.6599497,56.9565957 L5.98658291,57.3029787" id="Path" stroke="#4788D8" stroke-linecap="round" stroke-linejoin="round"></path>
                            <path d="M13.9686935,56.5587234 C13.0637647,56.7759608 12.2722444,57.3234017 11.7488442,58.0940426 C11.1403482,58.9005116 10.6523156,59.7914148 10.3001005,60.7387234 C10.3001005,60.7387234 11.9544724,60.5421277 12.791005,59.8821277 C13.6275377,59.2221277 13.9686935,56.5587234 13.9686935,56.5587234 Z" id="Path" stroke="#4788D8" stroke-linecap="round" stroke-linejoin="round"></path>
                            <path d="M15.2164824,56.5259574 C14.5491761,56.1832188 14.0328425,55.6043327 13.7677387,54.9017021 C13.2770352,53.68 12.7255779,52.3225532 12.7255779,52.3225532 C12.7255779,52.3225532 16.6184925,54.5319149 15.2164824,56.5259574 Z" id="Path" stroke="#4788D8" stroke-linecap="round" stroke-linejoin="round"></path>
                            <polyline id="Path" stroke="#4788D8" stroke-linecap="round" stroke-linejoin="round" points="7.40261307 58.7680851 10.4403015 57.0548936 7.82788945 55.4680851"></polyline>
                            <path d="M32.1714573,43.8080851 C32.031696,43.4882612 31.8757138,43.1757973 31.7041206,42.8719149 C30.8675879,41.3319149 29.6384925,39.9791489 27.708392,40.2553191 C24.4370352,40.7234043 30.5124121,45.8723404 31.6059799,46.0268085 C32.9519095,46.2187234 32.6060804,44.847234 32.1714573,43.8080851 Z" id="Path" fill="#4788D8" fill-rule="nonzero"></path>
                            <path d="M29.6805528,24.4621277 C29.5123116,24.0642553 29.3347236,23.7178723 29.2132161,23.5259574 C28.3720101,21.9812766 27.1475879,20.6331915 25.2174874,20.9093617 C21.9461307,21.3774468 28.0215075,26.526383 29.1150754,26.6808511 C30.461005,26.872766 30.1151759,25.4965957 29.6805528,24.4621277 Z" id="Path" fill="#4788D8" fill-rule="nonzero"></path>
                            <path d="M62.5623618,45.7085106 C62.1464322,45.8302128 61.7819095,45.9706383 61.5809548,46.0502128 C59.9546231,46.7055319 58.4731658,47.772766 58.5245729,49.7246809 C58.6133668,53.0340426 64.4176884,47.5808511 64.6980905,46.5089362 C65.0392462,45.2123404 63.6372362,45.4042553 62.5623618,45.7085106 Z" id="Path" fill="#4788D8" fill-rule="nonzero"></path>
                            <path d="M66.768392,28.2348936 C66.4355456,28.3316209 66.1079646,28.4456767 65.7869849,28.5765957 C64.1606533,29.2319149 62.679196,30.2944681 62.730603,32.246383 C62.819397,35.5557447 68.6237186,30.1025532 68.9041206,29.0353191 C69.2452764,27.7340426 67.8432663,27.9212766 66.768392,28.2348936 Z" id="Path" fill="#4788D8" fill-rule="nonzero"></path>
                            <path d="M90.719397,27.1489362 C90.3875938,27.2441322 90.0614857,27.3582185 89.7426633,27.4906383 C88.1163317,28.1459574 86.6348744,29.2085106 86.6862814,31.1604255 C86.7750754,34.4697872 92.579397,29.0165957 92.859799,27.9493617 C93.2009548,26.6340426 91.7989447,26.8212766 90.719397,27.1489362 Z" id="Path" fill="#4788D8" fill-rule="nonzero"></path>
                            <path d="M25.0445729,43.0638298 C24.9796097,42.9040484 24.9062922,42.7478037 24.8249246,42.5957447 C24.4183417,41.8468085 23.8201508,41.1914894 22.8761307,41.3178723 C21.2778392,41.547234 24.2454271,44.0608511 24.778191,44.126383 C25.4277889,44.2387234 25.2595477,43.5693617 25.0445729,43.0638298 Z" id="Path" fill="#4788D8" fill-rule="nonzero"></path>
                            <path d="M13.6368844,30.9217021 C13.4779899,30.7859574 13.3190955,30.673617 13.2349749,30.612766 C12.5292965,30.1212766 11.7021106,29.8029787 10.9216583,30.3459574 C9.59442211,31.2821277 13.3705025,32.1808511 13.8798995,32.0123404 C14.4874372,31.8017021 14.0528141,31.2821277 13.6368844,30.9217021 Z" id="Path" fill="#4788D8" fill-rule="nonzero"></path>
                            <path d="M30.498392,36.6651064 C30.4337754,36.505173 30.3604492,36.34891 30.2787437,36.1970213 C29.8674874,35.4434043 29.2692965,34.792766 28.3299497,34.9191489 C26.7316583,35.1485106 29.6992462,37.6574468 30.2320101,37.7276596 C30.8769347,37.8446809 30.7086935,37.1706383 30.498392,36.6651064 Z" id="Path" fill="#4788D8" fill-rule="nonzero"></path>
                            <path d="M2.98628141,26.1238298 C2.92232207,25.9636096 2.8489785,25.8073096 2.76663317,25.6557447 C2.36005025,24.9021277 1.7618593,24.2514894 0.817839196,24.3778723 C-0.780452261,24.607234 2.18713568,27.1208511 2.7198995,27.186383 C3.36949749,27.2987234 3.20125628,26.6293617 2.98628141,26.1238298 Z" id="Path" fill="#4788D8" fill-rule="nonzero"></path>
                            <path d="M10.421608,42.5208511 C10.2707358,42.4291989 10.1146962,42.3463655 9.95427136,42.272766 C9.1878392,41.8982979 8.31859296,41.7110638 7.61758794,42.366383 C6.44924623,43.4851064 10.3234673,43.8034043 10.8001508,43.5553191 C11.4170352,43.2557447 10.8889447,42.806383 10.421608,42.5208511 Z" id="Path" fill="#4788D8" fill-rule="nonzero"></path>
                            <path d="M29.0963819,18.2553191 C29.0314188,18.0955377 28.9581012,17.9392931 28.8767337,17.787234 C28.4654774,17.0382979 27.8672864,16.3829787 26.9279397,16.5093617 C25.3296482,16.7387234 28.2972362,19.2523404 28.83,19.3178723 C29.4749246,19.4302128 29.3066834,18.7608511 29.0963819,18.2553191 Z" id="Path" fill="#4788D8" fill-rule="nonzero"></path>
                            <path d="M46.6729146,37.2782979 C46.5467337,37.4421277 46.4392462,37.6012766 46.3831658,37.6902128 C45.9158291,38.4110638 45.6307538,39.2582979 46.2055779,40.0306383 C47.1776382,41.3225532 47.9440704,37.5076596 47.7524623,37.0021277 C47.518794,36.3748936 47.0140704,36.8476596 46.6729146,37.2782979 Z" id="Path" fill="#4788D8" fill-rule="nonzero"></path>
                            <path d="M54.1503015,47.1080851 C54.0241206,47.2719149 53.9166332,47.4310638 53.8605528,47.52 C53.3932161,48.2408511 53.1081407,49.0880851 53.6829648,49.8604255 C54.6550251,51.1523404 55.4214573,47.3374468 55.2298492,46.8319149 C54.9961809,46.2046809 54.4914573,46.6774468 54.1503015,47.1080851 Z" id="Path" fill="#4788D8" fill-rule="nonzero"></path>
                            <path d="M64.5625628,21.5319149 C64.4041557,21.5750552 64.2481558,21.6266177 64.0952261,21.686383 C63.2960804,21.9906383 62.5623618,22.4961702 62.567013,23.446383 C62.567013,25.0612766 65.4645226,22.4634043 65.6140704,21.9438298 C65.7776382,21.2885106 65.0953266,21.3634043 64.5625628,21.5319149 Z" id="Path" fill="#4788D8" fill-rule="nonzero"></path>
                            <path d="M46.5140201,15.6480851 C46.3644724,15.7931915 46.2336181,15.933617 46.1635176,16.0131915 C45.5980402,16.6544681 45.1821106,17.4455319 45.6354271,18.2834043 C46.3971859,19.6876596 47.7337688,16.0553191 47.6262814,15.5310638 C47.4907538,14.8851064 46.9159296,15.273617 46.5140201,15.6480851 Z" id="Path" fill="#4788D8" fill-rule="nonzero"></path>
                            <path d="M14.2911558,48.6808511 C14.412639,48.7972042 14.5405811,48.906598 14.6743719,49.0085106 C15.3520101,49.5374468 16.1651759,49.8978723 16.9736683,49.3970213 C18.3429648,48.5497872 14.6369849,47.4357447 14.1042211,47.5808511 C13.4733166,47.7446809 13.8939196,48.2923404 14.2911558,48.6808511 Z" id="Path" fill="#4788D8" fill-rule="nonzero"></path>
                            <path d="M72.680201,21.7051064 C72.4745729,21.7051064 72.2829648,21.7051064 72.1754774,21.7051064 C71.3202513,21.7565957 70.4696985,22.0187234 70.1892965,22.9268085 C69.7219598,24.4714894 73.2503518,22.8565957 73.5447739,22.407234 C73.9046231,21.8595745 73.2316583,21.7285106 72.680201,21.7051064 Z" id="Path" fill="#4788D8" fill-rule="nonzero"></path>
                        </g>
                    </g>
                </g>
            </g>
        </g>
    </g>
</svg>