<?xml version="1.0" encoding="UTF-8"?>
<svg width="188px" height="185px" viewBox="0 0 188 185" version="1.1" xmlns="http://www.w3.org/2000/svg" xmlns:xlink="http://www.w3.org/1999/xlink">
    <!-- Generator: Sketch 57.1 (83088) - https://sketch.com -->
    <title>Savings-bro (1)</title>
    <desc>Created with Sketch.</desc>
    <g id="Webdesign-quick-fix" stroke="none" stroke-width="1" fill="none" fill-rule="evenodd">
        <g id="Home-page---UI" transform="translate(-160.000000, -779.000000)">
            <g id="Group-4" transform="translate(0.000000, 716.000000)">
                <g id="Group-2" transform="translate(160.000000, 43.000000)">
                    <g id="Savings-bro-(1)" transform="translate(0.000000, 20.000000)">
                        <g id="freepik--background-simple--inject-2" transform="translate(0.000000, 3.000000)" fill-rule="nonzero">
                            <path d="M58.9613423,11.3648113 C58.9613423,11.3648113 27.0938702,27.660566 11.2000895,52.7712264 C-4.69369128,77.8818868 -3.43615213,110.186321 15.8769575,134.165566 C35.1900671,158.144811 72.104519,154.995425 103.013065,170.185094 C133.921611,185.374764 168.022371,182.246486 182.637584,150.064481 C197.252796,117.882476 175.214318,105.854858 171.429083,68.6110377 C167.643848,31.367217 134.194989,-23.1686792 58.9613423,11.3648113 Z" id="Path" fill="#C8DBF3"></path>
                            <path d="M58.9613423,11.3648113 C58.9613423,11.3648113 27.0938702,27.660566 11.2000895,52.7712264 C-4.69369128,77.8818868 -3.43615213,110.186321 15.8769575,134.165566 C35.1900671,158.144811 72.104519,154.995425 103.013065,170.185094 C133.921611,185.374764 168.022371,182.246486 182.637584,150.064481 C197.252796,117.882476 175.214318,105.854858 171.429083,68.6110377 C167.643848,31.367217 134.194989,-23.1686792 58.9613423,11.3648113 Z" id="Path" fill="#FFFFFF" opacity="0.7"></path>
                        </g>
                        <g id="freepik--Plants--inject-2" transform="translate(139.000000, 79.000000)">
                            <path d="M14.5744681,80.85 C14.5744681,80.85 -3.54468085,49.3373494 0.638297872,41.3 C4.8212766,33.2626506 15.5021277,47.7138554 15.5021277,47.7138554 C15.5021277,47.7138554 6.21276596,18.3222892 11.3234043,5.48192771 C16.4340426,-7.35843373 25.2595745,5.48192771 25.7234043,14.5692771 C26.187234,23.6566265 23.8638298,39.1536145 23.8638298,39.1536145 C23.8638298,39.1536145 27.5829787,7.10542169 36.4085106,16.7072289 C45.2340426,26.3090361 25.2595745,58.3909639 25.2595745,58.3909639 C25.2595745,58.3909639 38.7319149,50.910241 38.2638298,60.5289157 C37.7957447,70.1475904 22.0085106,78.6993976 22.0085106,78.6993976" id="Path" fill="#4788D8" fill-rule="nonzero"></path>
                            <path d="M14.7276596,74.9716867 C14.7276596,74.9716867 -2.03829787,59.4704819 6.13191489,52.5253012 C14.3021277,45.5801205 18.6,60.0060241 18.6,60.0060241 C18.6,60.0060241 9.57021277,15.6487952 24.187234,14.0421687 C38.8042553,12.4355422 28.0553191,52.5210843 28.0553191,52.5210843 C28.0553191,52.5210843 40.5234043,35.4216867 39.6638298,49.3373494 C38.8042553,63.253012 20.3191489,74.9927711 20.3191489,74.9927711" id="Path" stroke="#263238"></path>
                            <path d="M22.9617021,72.1506024 L11.6340426,59.9849398" id="Path" stroke="#263238"></path>
                            <path d="M20.6042553,73.086747 L23.6723404,37.5259036" id="Path" stroke="#263238"></path>
                            <path d="M20.1319149,70.510241 L30.2808511,57.176506" id="Path" stroke="#263238"></path>
                            <polygon id="Path" fill="#263238" fill-rule="nonzero" points="34.812766 68.0307229 3.47234043 68.0307229 6.60851064 104.662651 31.6765957 104.662651"></polygon>
                        </g>
                        <g id="freepik--piggy-bank--inject-2" transform="translate(28.000000, 93.000000)">
                            <path d="M26.4219565,10.881729 C22.3834627,8.88381891 18.2089229,7.17856708 13.9300435,5.77892523 C7.76421739,3.86537383 0.489217391,5.61733645 0.328956522,7.6882243 C0.168695652,9.75911215 1.26521739,8.81084112 2.70334783,11.0560748 C4.14147826,13.3013084 3.492,18.5486916 5.55008696,23.3325701 C7.60817391,28.1164486 13.7697826,30.5062617 13.7697826,30.5062617 L26.4219565,10.881729 Z" id="Path" stroke="#263238" fill="#4788D8" fill-rule="nonzero" stroke-linecap="round" stroke-linejoin="round"></path>
                            <path d="M22.31,15.508271 C22.31,15.508271 12.8208696,9.44869159 7.28765217,7.3735514 C1.75443478,5.29841121 1.43813043,8.3303271 1.43813043,8.3303271 C3.30557844,9.02145514 4.51945997,10.8462068 4.44513043,12.8505607 C4.44513043,16.431028 6.22065217,23.8471028 10.5350435,25.3779439 C14.8494348,26.908785 22.31,15.508271 22.31,15.508271 Z" id="Path" fill="#000000" fill-rule="nonzero" opacity="0.3"></path>
                            <ellipse id="Oval" stroke="#263238" fill="#4788D8" fill-rule="nonzero" stroke-linecap="round" stroke-linejoin="round" transform="translate(88.186844, 17.417292) rotate(-20.800000) translate(-88.186844, -17.417292) " cx="88.186844" cy="17.4172923" rx="4.80864921" ry="5.19523535"></ellipse>
                            <path d="M22.0274348,73.0636449 L27.3497826,89.1629907 C27.6458349,90.0576371 28.476706,90.6606841 29.412087,90.6598156 L37.7076957,90.6598156 C38.5751785,90.6611485 39.3599173,90.1409033 39.7025217,89.3373364 L43.4138261,80.6540654" id="Path" fill="#4788D8" fill-rule="nonzero"></path>
                            <path d="M24.6970435,73.0636449 L29.1,89.1629907 C29.2712336,89.9938401 29.9722869,90.6066861 30.8122609,90.6598131 L37.6908261,90.6598131 C38.4652579,90.6196815 39.129162,90.0885973 39.3440435,89.3373364 L42.4227391,80.6540654" id="Path" fill="#000000" fill-rule="nonzero" opacity="0.3"></path>
                            <path d="M22.0274348,73.0636449 L27.3497826,89.1629907 C27.6458349,90.0576371 28.476706,90.6606841 29.412087,90.6598156 L37.7076957,90.6598156 C38.5751785,90.6611485 39.3599173,90.1409033 39.7025217,89.3373364 L43.4138261,80.6540654" id="Path" stroke="#263238" stroke-linecap="round" stroke-linejoin="round"></path>
                            <path d="M62.058913,73.0636449 L56.7407826,89.1629907 C56.4447303,90.0576371 55.6138592,90.6606841 54.6784783,90.6598156 L46.3913043,90.6598156 C45.5238215,90.6611485 44.7390827,90.1409033 44.3964783,89.3373364 L40.6851739,80.6540654" id="Path" stroke="#263238" fill="#263238" fill-rule="nonzero" stroke-linecap="round" stroke-linejoin="round"></path>
                            <path d="M79.6833913,73.0636449 L74.3610435,89.1629907 C74.0649912,90.0576371 73.23412,90.6606841 72.2987391,90.6598156 L64.0031304,90.6598156 C63.1356476,90.6611485 62.3509088,90.1409033 62.0083043,89.3373364 L58.297,80.6540654" id="Path" fill="#4788D8" fill-rule="nonzero"></path>
                            <path d="M75.9130435,73.0636449 L72.2734348,89.1629907 C72.071,90.0559813 71.5058696,90.6598131 70.8648261,90.6598131 L65.1924348,90.6598131 C64.602,90.6598131 64.0663913,90.141028 63.8302174,89.3373364 L60.3044783,80.8326636" id="Path" fill="#000000" fill-rule="nonzero" opacity="0.3"></path>
                            <path d="M79.6833913,73.0636449 L74.3610435,89.1629907 C74.0649912,90.0576371 73.23412,90.6606841 72.2987391,90.6598156 L64.0031304,90.6598156 C63.1356476,90.6611485 62.3509088,90.1409033 62.0083043,89.3373364 L58.297,80.6540654" id="Path" stroke="#263238" stroke-linecap="round" stroke-linejoin="round"></path>
                            <ellipse id="Oval" fill="#4788D8" fill-rule="nonzero" cx="51.2413043" cy="41.9407944" rx="45.6195217" ry="41.7154206"></ellipse>
                            <path d="M82.6608696,13.4373832 C85.3360306,18.7867044 86.7299313,24.6939658 86.7306522,30.6848598 C86.7306522,53.7240187 66.3058261,72.4002804 41.1111304,72.4002804 C31.7352753,72.4481238 22.5453894,69.7635584 14.647,64.6695327 C22.601,75.4321963 36.0671304,82.5293458 51.3383043,82.5293458 C75.7991739,82.5293458 95.620913,64.4101402 95.620913,42.0556075 C95.5956087,30.8677103 90.6443913,20.7599065 82.6608696,13.4373832 Z" id="Path" fill="#000000" fill-rule="nonzero" opacity="0.3"></path>
                            <ellipse id="Oval" stroke="#263238" stroke-linecap="round" stroke-linejoin="round" cx="51.2413043" cy="41.9407944" rx="45.6195217" ry="41.7154206"></ellipse>
                            <path d="M93.023,45.6828505 C92.0276957,54.0854673 88.1856522,61.7099065 82.3993913,67.731215" id="Path" stroke="#4788D8" stroke-width="2" stroke-linecap="round" stroke-linejoin="round"></path>
                            <path d="M92.268087,32.7429907 C92.9411416,35.5572475 93.2809042,38.4420391 93.2802618,41.3369626" id="Path" stroke="#4788D8" stroke-width="2" stroke-linecap="round" stroke-linejoin="round"></path>
                            <path d="M39.9302609,2.82780374 C43.6891947,1.94177054 47.537067,1.49657607 51.3973478,1.50107477 C53.8687731,1.50058073 56.336919,1.68249986 58.782,2.04537383" id="Path" stroke="#263238" stroke-width="4" stroke-linecap="round" stroke-linejoin="round"></path>
                            <path d="M60.1906087,31.9478037 C60.1906087,31.9478037 64.6188696,28.9158879 64.7791304,23.3368224 C64.9393913,17.757757 57.6601739,9.62728972 51.8106522,6.2764486 C45.9611304,2.92560748 41.688913,3.56771028 41.5328696,5.95752336 C41.3768261,8.34733645 39.3187391,11.0603271 38.530087,15.6826168 C37.7414348,20.3049065 37.420913,27.1639252 43.5909565,29.3964019" id="Path" stroke="#263238" fill="#4788D8" fill-rule="nonzero" stroke-linecap="round" stroke-linejoin="round"></path>
                            <path d="M50.6635217,30.1575701 L51.5702609,30.2936449 C55.4586957,30.8592056 56.8251304,28.2992991 56.7112609,24.4551869 C56.5552174,19.0334579 49.4404783,7.55214953 46.4334783,5.95752336 C43.4264783,4.3628972 42.4817826,6.59537383 42.4817826,6.59537383 C42.4817826,6.59537383 42.9035217,6.88028037 41.4232174,11.8342523 C40.74,14.1220093 38.196913,22.0993925 40.7146957,25.6373364 C42.9414783,28.7628037 47.0787391,29.6175234 50.6635217,30.1575701 Z" id="Path" fill="#000000" fill-rule="nonzero" opacity="0.3"></path>
                            <path d="M63.2608696,24.6635514 L63.2018261,24.6635514 C63.0903305,24.6487705 62.989307,24.589704 62.9212021,24.4994758 C62.8530972,24.4092475 62.8235517,24.295331 62.8391304,24.1830374 C62.8848138,23.8560375 62.9115692,23.5266324 62.9192609,23.1964953 C63.0036087,20.2198598 60.5954783,15.9462617 56.6353478,12.0043458 C56.46881,11.8387765 56.4669218,11.5684318 56.6311304,11.400514 C56.7953391,11.2325962 57.0634621,11.2306924 57.23,11.3962617 C61.4136522,15.5635514 63.8555217,19.981729 63.7627391,23.217757 C63.7536656,23.579043 63.7255098,23.939585 63.6783913,24.2978505 C63.6489795,24.5075894 63.4709539,24.6635514 63.2608696,24.6635514 Z" id="Path" fill="#000000" fill-rule="nonzero" opacity="0.3"></path>
                            <path d="M60.991913,29.7918716 C60.8290162,29.7924292 60.6803643,29.6983486 60.6100493,29.5501906 C60.5397343,29.4020327 60.56033,29.2262914 60.6629565,29.0987383 C61.358003,28.2401617 61.9131984,27.2755906 62.3077391,26.2411682 C62.3904258,26.0215834 62.6340023,25.9111609 62.8517826,25.9945327 C63.0695629,26.0779045 63.1790779,26.3234993 63.0963913,26.5430841 C62.6703131,27.662605 62.0694865,28.7062548 61.3166522,29.6345327 C61.2371881,29.7333047 61.1180482,29.7910281 60.991913,29.7918716 L60.991913,29.7918716 Z" id="Path" fill="#000000" fill-rule="nonzero" opacity="0.3"></path>
                            <ellipse id="Oval" fill="#000000" fill-rule="nonzero" opacity="0.3" transform="translate(18.310945, 47.000980) rotate(-75.990000) translate(-18.310945, -47.000980) " cx="18.3109447" cy="47.0009796" rx="9.40166921" ry="12.3418738"></ellipse>
                            <ellipse id="Oval" stroke="#263238" fill="#4788D8" fill-rule="nonzero" stroke-linecap="round" stroke-linejoin="round" transform="translate(17.717392, 46.085690) rotate(-75.990000) translate(-17.717392, -46.085690) " cx="17.7173917" cy="46.0856902" rx="9.40166921" ry="12.3418738"></ellipse>
                            <path d="M13.9933043,44.564486 C14.0692174,45.7041121 13.6348261,46.6651402 13.0275217,46.6906542 C12.4202174,46.7161682 11.8593043,45.8401869 11.7623043,44.7005607 C11.6653043,43.5609346 12.1207826,42.5956542 12.7323043,42.5743925 C13.3438261,42.5531308 13.9173913,43.4206075 13.9933043,44.564486 Z" id="Path" stroke="#263238" stroke-linecap="round" stroke-linejoin="round"></path>
                            <path d="M22.3521739,46.6778972 C22.428087,47.8217757 21.9936957,48.7785514 21.3863913,48.8040654 C20.779087,48.8295794 20.2181739,47.9535981 20.1211739,46.8097196 C20.0241739,45.6658411 20.4796522,44.7090654 21.0911739,44.6835514 C21.7026957,44.6580374 22.2636087,45.5340187 22.3521739,46.6778972 Z" id="Path" stroke="#263238" stroke-linecap="round" stroke-linejoin="round"></path>
                            <path d="M36.1472609,49.633271 C36.0582469,50.4518644 35.8684073,51.2560828 35.5821304,52.0273364 C33.1613478,58.6227103 24.3976087,61.476028 15.7393043,58.6354673" id="Path" stroke="#263238" stroke-width="3" stroke-linecap="round" stroke-linejoin="round"></path>
                            <path d="M34.7344348,49.0081776 L37.420913,49.0081776" id="Path" stroke="#263238" stroke-width="3" stroke-linecap="round" stroke-linejoin="round"></path>
                            <path d="M17.6202609,31.3524766 C17.3250435,32.5899065 16.5701304,33.4786449 15.9333043,33.3170561 C15.2964783,33.1554673 15.0181304,32.0413551 15.3175652,30.7911682 C15.617,29.5409813 16.3676957,28.665 17.0045217,28.8223364 C17.6413478,28.9796729 17.9196957,30.1107944 17.6202609,31.3524766 Z" id="Path" stroke="#263238" fill="#263238" fill-rule="nonzero" stroke-linecap="round" stroke-linejoin="round"></path>
                            <ellipse id="Oval" stroke="#263238" fill="#263238" fill-rule="nonzero" stroke-linecap="round" stroke-linejoin="round" transform="translate(24.245986, 32.782147) rotate(-76.450000) translate(-24.245986, -32.782147) " cx="24.2459863" cy="32.7821473" rx="2.3122286" ry="1.18563407"></ellipse>
                            <path d="M37.0118261,78.2429907 L41.6509565,89.3415888 C41.9913822,90.1531569 42.7802887,90.6806614 43.6542174,90.6810748 L52.089,90.6810748 C52.954488,90.6798067 53.7372966,90.1625099 54.0838261,89.3628505 L59.1446957,77.5711215 L58.9253913,77.5711215" id="Path" fill="#4788D8" fill-rule="nonzero"></path>
                            <path d="M46.8130435,76.8269626 C44.1392174,76.8269626 41.0267826,77.1799065 38.509,76.5930841 L42.8444783,89.3203271 C43.0560985,90.0782021 43.7222243,90.6165438 44.501913,90.6598131 L51.4521739,90.6598131 C52.2222874,90.6167619 52.8816037,90.0883475 53.0969565,89.3415888 L57.2932609,76.3592056 L55.6063043,76.5930841 C50.2544348,77.1799065 50.3936087,76.8269626 46.8130435,76.8269626 Z" id="Path" fill="#000000" fill-rule="nonzero" opacity="0.3"></path>
                            <path d="M37.0118261,78.2429907 L41.6509565,89.3415888 C41.9913822,90.1531569 42.7802887,90.6806614 43.6542174,90.6810748 L52.089,90.6810748 C52.954488,90.6798067 53.7372966,90.1625099 54.0838261,89.3628505 L59.1446957,77.5711215 L58.9253913,77.5711215" id="Path" stroke="#263238" stroke-linecap="round" stroke-linejoin="round"></path>
                        </g>
                        <g id="freepik--Hand--inject-2" transform="translate(63.000000, 0.000000)">
                            <path d="M85,0.185158371 L61.8406404,33.7198643 C61.8406404,33.7198643 59.8600985,38.4666516 57.4231527,41.9888688 C54.9862069,45.511086 48.1527094,49.0333032 48.1527094,49.0333032 C48.1527094,49.0333032 47.5455665,55.6148416 45.5650246,57.9124887 C43.5844828,60.2101357 39.317734,58.8340724 39.317734,58.8340724 C39.317734,58.8340724 37.487931,60.8245249 35.5073892,61.7419005 C33.5268473,62.659276 27.4344828,59.2927602 27.4344828,59.2927602 C27.4344828,59.2927602 32.9155172,65.2641176 33.6775862,67.2545701 C34.4396552,69.2450226 35.8130542,70.9282805 33.3761084,72.7672398 C30.9391626,74.6061991 28.1923645,72.0013575 28.1923645,72.0013575 C28.1923645,72.0013575 29.4150246,75.9822624 25.9103448,76.7481448 C22.405665,77.5140271 18.5869458,69.8552036 17.0628079,67.2545701 C15.53867,64.6539367 11.1211823,54.8489593 10.3633005,54.3902715 C9.60541872,53.9315837 8.53768473,51.4824434 10.0618227,49.1847964 C11.5859606,46.8871493 22.3972906,32.1880995 23.6157635,31.1402715 C24.8342365,30.0924434 48.1527094,24.5334842 48.1527094,24.5334842 L56.9918719,0.0336651584" id="Path" fill="#FFFFFF" fill-rule="nonzero"></path>
                            <path d="M59.4581281,34.0859729 C59.4581281,34.0859729 56.9458128,41.6606335 54.2241379,43.1334842 C51.5024631,44.6063348 36.0098522,48.6040724 29.9384236,47.7624434 C23.8669951,46.9208145 20.5172414,44.6063348 20.5172414,44.6063348 C20.5172414,44.6063348 17.1674877,49.0248869 15.7019704,50.4977376 C14.6814826,51.4502175 13.4670292,52.1681766 12.1428571,52.60181 C12.1428571,52.60181 19.4285714,70.9956109 24.6667488,76.6892308 C25.073728,76.8155723 25.5059882,76.8358454 25.9229064,76.7481448 C29.4275862,75.9822624 28.2049261,72.0013575 28.2049261,72.0013575 C28.2049261,72.0013575 30.9475369,74.601991 33.38867,72.7672398 C35.829803,70.9324887 34.4522167,69.2450226 33.6901478,67.2545701 C32.9280788,65.2641176 27.4261084,59.2927602 27.4261084,59.2927602 C27.4261084,59.2927602 33.5184729,62.659276 35.4990148,61.7419005 C37.4795567,60.8245249 39.3093596,58.8298643 39.3093596,58.8298643 C39.3093596,58.8298643 43.5761084,60.2101357 45.5566502,57.9124887 C47.5371921,55.6148416 48.144335,49.0333032 48.144335,49.0333032 C48.144335,49.0333032 54.9987685,45.511086 57.4399015,41.9888688 C59.8810345,38.4666516 61.8573892,33.7198643 61.8573892,33.7198643 L71.4,19.9045249 L59.4581281,34.0859729 Z" id="Path" fill="#000000" fill-rule="nonzero" opacity="0.2"></path>
                            <path d="M85,0.185158371 L61.8406404,33.7198643 C61.8406404,33.7198643 59.8600985,38.4666516 57.4231527,41.9888688 C54.9862069,45.511086 48.1527094,49.0333032 48.1527094,49.0333032 C48.1527094,49.0333032 47.5455665,55.6148416 45.5650246,57.9124887 C43.5844828,60.2101357 39.317734,58.8340724 39.317734,58.8340724 C39.317734,58.8340724 37.487931,60.8245249 35.5073892,61.7419005 C33.5268473,62.659276 27.4344828,59.2927602 27.4344828,59.2927602 C27.4344828,59.2927602 32.9155172,65.2641176 33.6775862,67.2545701 C34.4396552,69.2450226 35.8130542,70.9282805 33.3761084,72.7672398 C30.9391626,74.6061991 28.1923645,72.0013575 28.1923645,72.0013575 C28.1923645,72.0013575 29.4150246,75.9822624 25.9103448,76.7481448 C22.405665,77.5140271 18.5869458,69.8552036 17.0628079,67.2545701 C15.53867,64.6539367 11.1211823,54.8489593 10.3633005,54.3902715 C9.60541872,53.9315837 8.53768473,51.4824434 10.0618227,49.1847964 C11.5859606,46.8871493 22.3972906,32.1880995 23.6157635,31.1402715 C24.8342365,30.0924434 48.1527094,24.5334842 48.1527094,24.5334842 L56.9918719,0.0336651584" id="Path" stroke="#263238" stroke-linecap="round" stroke-linejoin="round"></path>
                            <polygon id="Path" stroke="#263238" fill="#FFFFFF" fill-rule="nonzero" stroke-linecap="round" stroke-linejoin="round" points="5.7908867 89.6082353 6.39802956 91.9058824 15.844335 89.6082353 24.6834975 66.3329864 18.8926108 64.3425339"></polygon>
                            <polygon id="Path" stroke="#263238" fill="#FFFFFF" fill-rule="nonzero" stroke-linecap="round" stroke-linejoin="round" points="8.68423645 58.678371 21.7859606 63.5808597 15.387931 92.6717647 0 87.9249774"></polygon>
                            <polygon id="Path" stroke="#263238" fill="#4788D8" fill-rule="nonzero" stroke-linecap="round" stroke-linejoin="round" points="0.515024631 86.1870136 14.1694581 90.2226244 20.1110837 64.3425339 8.14827586 60.479457"></polygon>
                            <path d="M8.09384236,66.8800452 C7.49958652,66.7219813 6.8785943,66.6932871 6.27241379,66.7958824 L2.70492611,78.8101357 C3.22126984,79.3158281 3.85648081,79.6820698 4.55147783,79.8747964 C7.34852217,80.649095 10.4135468,78.3640724 11.3933498,74.7745249 C12.3731527,71.1849774 10.8866995,67.6501357 8.09384236,66.8800452 Z" id="Path" stroke="#263238" fill="#FFFFFF" fill-rule="nonzero" stroke-linecap="round" stroke-linejoin="round"></path>
                            <path d="M7.58719212,68.8704977 C7.55024678,68.8537322 7.52949346,68.8137559 7.53694581,68.7737104 L7.69605911,68.150905 C7.71570296,68.0977293 7.7100108,68.0384384 7.68061335,67.9900181 C7.65121589,67.9415979 7.60135688,67.9093911 7.5453202,67.9026244 L6.87955665,67.7427149 C6.82668463,67.7211471 6.76676963,67.7260438 6.71805978,67.7559138 C6.66934994,67.7857838 6.637612,67.8370907 6.63251232,67.8942081 L6.50270936,68.5380543 C6.49263383,68.5778276 6.45548214,68.6044973 6.41477833,68.6011765 C6.18786759,68.5778228 5.95917674,68.5778228 5.73226601,68.6011765 L4.5137931,72.7125339 C5.46428571,73.7056561 6.94655172,74.2022172 6.74975369,75.0354299 C6.63669951,75.5067421 6.20960591,75.8770588 5.46009852,75.708733 C5.1429667,75.6661103 4.85995931,75.486978 4.68471252,75.217945 C4.50946573,74.9489119 4.45930825,74.6165806 4.54729064,74.3074208 L4.58497537,74.139095 C4.60591133,74.0465158 4.55147783,73.9707692 4.42167488,73.9413122 L4.16625616,73.87819 L3.44187192,76.3104977 C3.73281287,76.5763141 4.07281163,76.782192 4.44261084,76.9164706 C4.48136695,76.9335902 4.50248328,76.9760342 4.49285714,77.0174661 L4.34211823,77.5519005 C4.31864038,77.6049548 4.32258945,77.6662144 4.35268267,77.7157806 C4.3827759,77.7653469 4.43517413,77.7968964 4.49285714,77.800181 L5.18374384,77.9685068 C5.2329654,77.9947852 5.29152151,77.9966725 5.3423173,77.9736177 C5.39311309,77.9505628 5.43042115,77.9051654 5.44334975,77.8506787 L5.55640394,77.3204525 C5.56919752,77.2802091 5.60648536,77.2529549 5.64852217,77.2531222 C7.12241379,77.4088235 8.12315271,76.6808145 8.43300493,75.3847059 C8.67586207,74.3495023 8.32832512,73.47 7.25221675,72.6409955 C6.2682266,71.8919457 5.22980296,71.521629 5.40985222,70.7557466 C5.53546798,70.2255204 6.01699507,69.981448 6.66600985,70.1371493 C6.99107069,70.189722 7.27696944,70.3826017 7.44849033,70.6650445 C7.62001123,70.9474874 7.65998012,71.2912129 7.55788177,71.6057919 L7.52857143,71.7236199 C7.52857143,71.7951584 7.57044335,71.8582805 7.70024631,71.8919457 L8.9270936,72.1865158 C8.98000447,72.206258 9.03900021,72.2005373 9.08717937,72.1709928 C9.13535853,72.1414482 9.16740501,72.0913397 9.17413793,72.0350226 L9.26625616,71.6436652 C9.54679803,70.4106787 8.95640394,69.3628507 7.58719212,68.8704977 Z" id="Path" fill="#263238" fill-rule="nonzero"></path>
                            <path d="M19.4997537,43.3649321 C19.4997537,43.3649321 21.3295567,46.121267 21.6352217,48.5746154 C21.8949075,50.6656867 21.4082631,52.7815522 20.2618227,54.5459729 C19.3490148,55.9220362 18.4362069,57.1466063 17.6741379,59.2927602 C16.912069,61.438914 16.76133,64.4982353 15.6935961,66.0257919 C14.6258621,67.5533484 14.0187192,69.0851131 15.53867,70.4653846 C17.0586207,71.8456561 21.0238916,71.6899548 23.1593596,67.7090498 C25.2948276,63.7281448 26.6640394,59.4400452 28.0332512,57.9082805 C29.4024631,56.3765158 33.8241379,52.8585068 33.8241379,52.8585068 C33.8241379,52.8585068 45.8581281,51.1752489 48.144335,49.0333032 C50.4305419,46.8913575 52.4110837,41.0714932 52.4110837,41.0714932" id="Path" fill="#FFFFFF" fill-rule="nonzero"></path>
                            <path d="M51.5024631,43.1334842 C51.5024631,43.1334842 45.0123153,47.341629 39.9876847,48.6040724 C34.9630542,49.8665158 31.8226601,49.8665158 29.9384236,52.3914027 C28.0541872,54.9162896 26.1699507,62.9117647 23.6576355,64.3846154 C21.1453202,65.8574661 20.726601,60.5972851 17.1674877,61.6493213 L17.0502463,61.6914027 C16.7027094,63.3325792 16.3970443,65.0158371 15.6935961,66.03 C14.6258621,67.5617647 14.0187192,69.0893213 15.53867,70.4695928 C17.0586207,71.8498643 21.0238916,71.6941629 23.1593596,67.7132579 C25.2948276,63.7323529 26.6640394,59.4442534 28.0332512,57.9124887 C29.4024631,56.380724 33.8241379,52.8627149 33.8241379,52.8627149 C33.8241379,52.8627149 45.8581281,51.179457 48.144335,49.0375113 C49.5261084,47.7414027 50.7948276,45.1071041 51.5820197,43.2218552 L51.5024631,43.1334842 Z" id="Path" fill="#000000" fill-rule="nonzero" opacity="0.2"></path>
                            <path d="M19.4997537,43.3649321 C19.4997537,43.3649321 21.3295567,46.121267 21.6352217,48.5746154 C21.8949075,50.6656867 21.4082631,52.7815522 20.2618227,54.5459729 C19.3490148,55.9220362 18.4362069,57.1466063 17.6741379,59.2927602 C16.912069,61.438914 16.76133,64.4982353 15.6935961,66.0257919 C14.6258621,67.5533484 14.0187192,69.0851131 15.53867,70.4653846 C17.0586207,71.8456561 21.0238916,71.6899548 23.1593596,67.7090498 C25.2948276,63.7281448 26.6640394,59.4400452 28.0332512,57.9082805 C29.4024631,56.3765158 33.8241379,52.8585068 33.8241379,52.8585068 C33.8241379,52.8585068 45.8581281,51.1752489 48.144335,49.0333032 C50.4305419,46.8913575 52.4110837,41.0714932 52.4110837,41.0714932" id="Path" stroke="#263238" stroke-linecap="round" stroke-linejoin="round"></path>
                            <path d="M14.776601,51.0237557 C14.776601,51.0237557 18.7418719,53.1657014 21.6352217,50.7165611" id="Path" stroke="#263238" stroke-linecap="round" stroke-linejoin="round"></path>
                            <path d="M28.1839901,72.0013575 L24.6834975,65.2641176" id="Path" stroke="#263238" stroke-linecap="round" stroke-linejoin="round"></path>
                            <path d="M39.3093596,58.8340724 C39.3093596,58.8340724 42.0519704,56.5364253 41.8970443,51.4824434" id="Path" stroke="#263238" stroke-linecap="round" stroke-linejoin="round"></path>
                        </g>
                        <g id="freepik--Floor--inject-2" transform="translate(5.000000, 183.000000)" stroke="#263238" stroke-linecap="round" stroke-linejoin="round">
                            <path d="M14.6983759,0.6 L181,0.6" id="Path"></path>
                            <path d="M0,0.6 L7.55916473,0.6" id="Path"></path>
                        </g>
                    </g>
                </g>
            </g>
        </g>
    </g>
</svg>