<?xml version="1.0" encoding="UTF-8"?>
<svg width="290px" height="391px" viewBox="0 0 290 391" version="1.1" xmlns="http://www.w3.org/2000/svg" xmlns:xlink="http://www.w3.org/1999/xlink">
    <!-- Generator: Sketch 57.1 (83088) - https://sketch.com -->
    <title>Step1</title>
    <desc>Created with Sketch.</desc>
    <g id="Leaftech-webdesign" stroke="none" stroke-width="1" fill="none" fill-rule="evenodd">
        <g id="Home-page---UI" transform="translate(-553.000000, -1341.000000)">
            <g id="We-provide-the-missing-data" transform="translate(283.000000, 1241.000000)">
                <g id="Step1" transform="translate(141.000000, 101.000000)">
                    <g transform="translate(129.000000, 0.000000)">
                        <path d="M146.5,0.5 L147.5,367.5" id="Path-4" stroke="#3087DF" stroke-width="1.5" stroke-linecap="square" stroke-linejoin="bevel" stroke-dasharray="4,8"></path>
                        <g id="3d-modeling-bro" transform="translate(0.000000, 44.000000)">
                            <g id="freepik--background-simple--inject-2" fill-rule="nonzero">
                                <path d="M38.402,25.718 L38.794,25.361 C74.9,-7.14 122.836,-8.61 157.766,26.383 C175.966,44.618 208.299,41.132 231.427,47.726 C311.171,70.469 297.381,178.661 257.992,231 C222.446,278.194 145.425,288.862 93.681,265.636 C48.181,245.231 16.191,199.647 4.781,151.977 C3.63766667,147.198333 2.70433333,142.375333 1.981,137.508 C-3.997,96.894 7.518,53.802 38.402,25.718 Z" id="Path" fill="#4788D8"></path>
                                <path d="M38.402,25.718 L38.794,25.361 C74.9,-7.14 122.836,-8.61 157.766,26.383 C175.966,44.618 208.299,41.132 231.427,47.726 C311.171,70.469 297.381,178.661 257.992,231 C222.446,278.194 145.425,288.862 93.681,265.636 C48.181,245.231 16.191,199.647 4.781,151.977 C3.63766667,147.198333 2.70433333,142.375333 1.981,137.508 C-3.997,96.894 7.518,53.802 38.402,25.718 Z" id="Path" fill="#FFFFFF" opacity="0.7"></path>
                            </g>
                            <g id="freepik--book-shelf--inject-2" transform="translate(208.600000, 42.000000)" stroke="#263238" stroke-linecap="round" stroke-linejoin="round" stroke-width="0.7">
                                <polyline id="Path" points="74.795 49.987 0.077 49.987 0.077 41.503 64.295 41.503"></polyline>
                                <path d="M32.186,54.32 L32.186,49.987" id="Path"></path>
                                <polyline id="Path" points="26.173 50.428 28.581 66.353 32.186 66.353"></polyline>
                                <polyline id="Path" points="15.848 9.996 15.848 41.503 9.142 41.503 9.142 0.658 15.848 0.658 15.848 2.429"></polyline>
                                <path d="M15.848,5.439 L15.848,6.727" id="Path"></path>
                                <polyline id="Path" points="32.186 11.536 32.186 0.658 15.848 0.658"></polyline>
                                <polyline id="Path" points="29.092 41.503 22.386 41.503 22.386 11.536 29.092 11.536"></polyline>
                                <polyline id="Path" points="45.43 33.803 45.43 11.536 29.092 11.536"></polyline>
                                <path d="M29.092,23.415 L29.092,41.503" id="Path"></path>
                                <path d="M29.092,18.235 L29.092,21.728" id="Path"></path>
                                <path d="M29.092,13.293 L29.092,14.987" id="Path"></path>
                                <path d="M9.142,10.962 L15.848,10.962" id="Path"></path>
                                <path d="M10.444,18.235 L15.848,18.235" id="Path"></path>
                                <path d="M22.386,34.034 L27.139,34.034" id="Path"></path>
                                <path d="M22.386,36.827 L29.092,36.827" id="Path"></path>
                                <polyline id="Path" points="32.186 19.544 43.05 19.544 43.05 23.912"></polyline>
                                <polyline id="Path" points="40.873 23.912 32.186 23.912 32.186 22.211"></polyline>
                                <path d="M31.451,60.977 L32.186,66.353" id="Path"></path>
                                <path d="M30.8,56.049 C30.947,57.099 31.087,58.149 31.227,59.185" id="Path"></path>
                                <path d="M29.953,49.987 C30.051,50.687 30.156,51.443 30.254,52.171" id="Path"></path>
                                <path d="M64.743,41.5030612 L38.759,41.5030612 C36.6999709,41.5146577 35.0192466,39.8589722 35,37.8 L35,37.8 C35.0038609,35.7382938 36.6762902,34.069 38.738,34.069 L64.722,34.069" id="Path"></path>
                                <path d="M74.543,41.5030612 L55.559,41.5030612 C53.4999709,41.5146577 51.8192466,39.8589722 51.8,37.8 L51.8,37.8 C51.8038609,35.7382938 53.4762902,34.069 55.538,34.069 L68.922,34.069" id="Path"></path>
                                <path d="M55.503,36.071 L67.501,36.071" id="Path"></path>
                                <path d="M70.826,37.765 L60.221,37.765" id="Path"></path>
                                <path d="M57.344,39.746 L67.501,39.746" id="Path"></path>
                            </g>
                            <g id="freepik--Device--inject-2" transform="translate(7.700000, 53.200000)">
                                <path d="M189,191.443 L93.933,215.6 C91.2216667,214.610667 88.571,213.535 85.981,212.373 C74.0544249,206.972723 62.9463657,199.922381 52.983,191.429 L52.983,191.429 L189,191.443 Z" id="Path" fill-opacity="0.7" fill="#000000" fill-rule="nonzero" opacity="0.3"></path>
                                <path d="M104.559,162.68 L104.559,164.857 C104.559,165.142903 104.445425,165.417097 104.243261,165.619261 C104.041097,165.821425 103.766903,165.935 103.481,165.935 L61.159,165.935 C60.1496109,165.935 59.1978089,165.464808 58.5834344,164.663927 C57.9690599,163.863046 57.761951,162.822049 58.023,161.847 L63,143.29 L69.881,117.446 L91.399,117.446 L92.141,129.038 L93.114,144.088 L93.919,156.639 C94.0928365,159.429778 96.4078137,161.60371 99.204,161.602 L103.516,161.602 C104.097651,161.620895 104.559,162.098042 104.559,162.68 Z" id="Path" fill="#4788D8" fill-rule="nonzero"></path>
                                <g id="Group" transform="translate(61.600000, 116.900000)" fill="#000000" fill-opacity="0.7" fill-rule="nonzero" opacity="0.3">
                                    <path d="M37.569,44.7020939 L0.469,44.7020939 L4.802,26.81 L8.218,12.698 L30.478,12.138 L31.451,27.188 L32.256,39.739 C32.4304619,42.5405979 34.7620242,44.7185658 37.569,44.7020939 L37.569,44.7020939 Z" id="Path"></path>
                                    <path d="M31.5,27.188 C22.6270966,27.9641365 13.6983201,27.8374872 4.851,26.81 C3.626,26.684 2.471,26.537 1.351,26.39 L8.232,0.546 L29.75,0.546 L30.492,12.138 L31.5,27.188 Z" id="Path"></path>
                                </g>
                                <path d="M104.559,162.68 L104.559,164.857 C104.559,165.142903 104.445425,165.417097 104.243261,165.619261 C104.041097,165.821425 103.766903,165.935 103.481,165.935 L61.159,165.935 C60.1496109,165.935 59.1978089,165.464808 58.5834344,164.663927 C57.9690599,163.863046 57.761951,162.822049 58.023,161.847 L63,143.29 L69.881,117.446 L91.399,117.446 L92.141,129.038 L93.114,144.088 L93.919,156.639 C94.0928365,159.429778 96.4078137,161.60371 99.204,161.602 L103.516,161.602 C104.097651,161.620895 104.559,162.098042 104.559,162.68 Z" id="Path" stroke="#263238" stroke-width="0.7" stroke-linecap="round" stroke-linejoin="round"></path>
                                <path d="M177.275,126.469 C177.275,129.09384 175.226636,131.262494 172.606,131.411 C157.115,132.293 107.394,135.023 88.781,135.023 C70.168,135.023 20.447,132.3 4.963,131.411 C2.33960432,131.266066 0.287,129.096396 0.287,126.469 L0.287,5.474 C0.287,2.73687678 2.50587678,0.518 5.243,0.518 L172.319,0.518 C175.056123,0.518 177.275,2.73687678 177.275,5.474 L177.275,126.469 Z" id="Path" stroke="#263238" stroke-width="0.7" fill="#4788D8" fill-rule="nonzero" stroke-linecap="round" stroke-linejoin="round"></path>
                                <path d="M179.858006,126.469 C179.86201,129.095238 177.811231,131.265927 175.189,131.411 C159.698,132.293 109.977,135.023 91.364,135.023 C72.751,135.023 23.03,132.3 7.546,131.411 C4.92260432,131.266066 2.87,129.096396 2.87,126.469 L2.87,5.474 C2.87,2.73687678 5.08887678,0.518 7.826,0.518 L174.902,0.518 C177.639123,0.518 179.858006,2.73687678 179.858006,5.474 L179.858006,126.469 Z" id="Path" stroke="#263238" stroke-width="0.7" fill="#4788D8" fill-rule="nonzero" stroke-linecap="round" stroke-linejoin="round"></path>
                                <rect id="Rectangle" stroke="#263238" stroke-width="0.7" fill="#263238" fill-rule="nonzero" stroke-linecap="round" stroke-linejoin="round" x="7.546" y="4.942" width="167.65" height="120.001"></rect>
                                <rect id="Rectangle" fill="#FFFFFF" fill-rule="nonzero" opacity="0.2" x="7.546" y="4.942" width="167.65" height="120.001"></rect>
                                <rect id="Rectangle" stroke="#263238" stroke-width="0.7" fill="#FFFFFF" fill-rule="nonzero" stroke-linecap="round" stroke-linejoin="round" x="7.546" y="4.942" width="167.65" height="13.223"></rect>
                                <rect id="Rectangle" stroke="#263238" stroke-width="0.7" fill="#BFBFBF" fill-rule="nonzero" x="7.546" y="18.165" width="18.375" height="106.778"></rect>
                                <path d="M94.199,18.165 L94.199,124.943" id="Path" stroke="#FFFFFF" stroke-width="0.7" stroke-linecap="round" stroke-linejoin="round"></path>
                                <path d="M25.914,64.988 L175.189,64.988" id="Path" stroke="#FFFFFF" stroke-width="0.7" stroke-linecap="round" stroke-linejoin="round"></path>
                                <path d="M173.138013,9.1 C173.140834,9.84524545 172.694089,10.5186862 172.006384,10.8058449 C171.318679,11.0930036 170.525686,10.937228 169.997712,10.4112608 C169.469737,9.88529359 169.310942,9.09290047 169.595478,8.40410614 C169.880015,7.71531181 170.551749,7.26598662 171.297,7.26598662 C171.784619,7.26413885 172.252904,7.45654135 172.598361,7.800685 C172.943819,8.14482865 173.138013,8.6123777 173.138013,9.1 Z" id="Path" stroke="#263238" stroke-width="0.7" fill="#BFBFBF" fill-rule="nonzero"></path>
                                <path d="M166.061,9.1 C166.061,10.1128902 165.23989,10.934 164.227,10.934 C163.21411,10.934 162.393,10.1128902 162.393,9.1 C162.393,8.08710977 163.21411,7.266 164.227,7.266 C165.23989,7.266 166.061,8.08710977 166.061,9.1 Z" id="Path" stroke="#263238" stroke-width="0.7" fill="#BFBFBF" fill-rule="nonzero"></path>
                                <path d="M158.991,9.1 C158.991,10.1128902 158.16989,10.934 157.157,10.934 C156.14411,10.934 155.323,10.1128902 155.323,9.1 C155.323,8.08710977 156.14411,7.266 157.157,7.266 C158.16989,7.266 158.991,8.08710977 158.991,9.1 L158.991,9.1 Z" id="Path" stroke="#263238" stroke-width="0.7" fill="#BFBFBF" fill-rule="nonzero"></path>
                                <rect id="Rectangle" stroke="#263238" stroke-width="0.7" fill="#FFFFFF" fill-rule="nonzero" stroke-linecap="round" stroke-linejoin="round" x="10.542" y="22.799" width="12.369" height="4.991"></rect>
                                <rect id="Rectangle" stroke="#263238" stroke-width="0.7" fill="#FFFFFF" fill-rule="nonzero" stroke-linecap="round" stroke-linejoin="round" x="10.542" y="29.288" width="12.369" height="4.991"></rect>
                                <rect id="Rectangle" stroke="#263238" stroke-width="0.7" fill="#FFFFFF" fill-rule="nonzero" stroke-linecap="round" stroke-linejoin="round" x="10.542" y="35.77" width="12.369" height="4.991"></rect>
                                <rect id="Rectangle" stroke="#263238" stroke-width="0.7" fill="#FFFFFF" fill-rule="nonzero" stroke-linecap="round" stroke-linejoin="round" x="10.542" y="42.259" width="12.369" height="4.991"></rect>
                                <rect id="Rectangle" stroke="#263238" stroke-width="0.7" fill="#FFFFFF" fill-rule="nonzero" stroke-linecap="round" stroke-linejoin="round" x="10.542" y="54.362" width="12.369" height="4.991"></rect>
                                <rect id="Rectangle" stroke="#263238" stroke-width="0.7" fill="#FFFFFF" fill-rule="nonzero" stroke-linecap="round" stroke-linejoin="round" x="10.542" y="60.641" width="12.369" height="4.991"></rect>
                                <rect id="Rectangle" stroke="#263238" stroke-width="0.7" fill="#FFFFFF" fill-rule="nonzero" stroke-linecap="round" stroke-linejoin="round" x="10.542" y="66.92" width="12.369" height="4.991"></rect>
                                <rect id="Rectangle" stroke="#263238" stroke-width="0.7" fill="#FFFFFF" fill-rule="nonzero" stroke-linecap="round" stroke-linejoin="round" x="10.542" y="73.192" width="12.369" height="4.991"></rect>
                                <rect id="Rectangle" stroke="#263238" stroke-width="0.7" fill="#FFFFFF" fill-rule="nonzero" stroke-linecap="round" stroke-linejoin="round" x="10.542" y="79.471" width="12.369" height="4.991"></rect>
                                <rect id="Rectangle" stroke="#263238" stroke-width="0.7" fill="#FFFFFF" fill-rule="nonzero" stroke-linecap="round" stroke-linejoin="round" x="10.542" y="91.602" width="4.991" height="4.991"></rect>
                                <rect id="Rectangle" stroke="#263238" stroke-width="0.7" fill="#FFFFFF" fill-rule="nonzero" stroke-linecap="round" stroke-linejoin="round" x="17.927" y="91.602" width="4.991" height="4.991"></rect>
                                <rect id="Rectangle" stroke="#263238" stroke-width="0.7" fill="#FFFFFF" fill-rule="nonzero" stroke-linecap="round" stroke-linejoin="round" x="10.542" y="99.043" width="4.991" height="4.991"></rect>
                                <rect id="Rectangle" stroke="#263238" stroke-width="0.7" fill="#FFFFFF" fill-rule="nonzero" stroke-linecap="round" stroke-linejoin="round" x="17.927" y="99.043" width="4.991" height="4.991"></rect>
                                <path d="M7.546,51.044 L25.914,51.044" id="Path" stroke="#263238" stroke-width="0.7" stroke-linecap="round" stroke-linejoin="round"></path>
                                <path d="M7.546,88.34 L25.914,88.34" id="Path" stroke="#263238" stroke-width="0.7" stroke-linecap="round" stroke-linejoin="round"></path>
                                <rect id="Rectangle" stroke="#263238" stroke-width="0.7" fill="#BFBFBF" fill-rule="nonzero" x="128.38" y="7.7" width="19.754" height="2.814"></rect>
                                <rect id="Rectangle" stroke="#263238" stroke-width="0.7" fill="#BFBFBF" fill-rule="nonzero" x="10.542" y="7.147" width="3.927" height="3.927"></rect>
                                <circle id="Oval" fill="#4788D8" fill-rule="nonzero" cx="59.157" cy="41.188" r="16.52"></circle>
                                <circle id="Oval" fill="#FFFFFF" fill-rule="nonzero" opacity="0.5" cx="54.761" cy="37.184" r="9.723"></circle>
                                <rect id="Rectangle" stroke="#263238" stroke-width="0.7" fill="#FFFFFF" fill-rule="nonzero" stroke-linecap="round" stroke-linejoin="round" x="7.546" y="120.736" width="167.65" height="4.207"></rect>
                                <rect id="Rectangle" stroke="#263238" stroke-width="0.7" fill="#BFBFBF" fill-rule="nonzero" x="167.699" y="18.165" width="7.49" height="102.571"></rect>
                                <path d="M167.699,29.288 L175.189,29.288" id="Path" stroke="#263238" stroke-width="0.7" stroke-linecap="round" stroke-linejoin="round"></path>
                                <path d="M167.699,52.339 L175.189,52.339" id="Path" stroke="#263238" stroke-width="0.7" stroke-linecap="round" stroke-linejoin="round"></path>
                                <path d="M167.699,75.39 L175.189,75.39" id="Path" stroke="#263238" stroke-width="0.7" stroke-linecap="round" stroke-linejoin="round"></path>
                                <circle id="Oval" stroke="#FFFFFF" stroke-width="0.7" cx="130.123" cy="41.188" r="16.52"></circle>
                                <path d="M113.596,41.188 L146.643,41.188" id="Path" stroke="#FFFFFF" stroke-width="0.7"></path>
                                <path d="M130.123,24.661 L130.123,57.708" id="Path" stroke="#FFFFFF" stroke-width="0.7"></path>
                                <path d="M118.433,29.505 L141.806,52.871" id="Path" stroke="#FFFFFF" stroke-width="0.7"></path>
                                <path d="M141.806,29.505 L118.433,52.871" id="Path" stroke="#FFFFFF" stroke-width="0.7"></path>
                                <path d="M114.863,34.846 L145.376,47.53" id="Path" stroke="#FFFFFF" stroke-width="0.7"></path>
                                <path d="M136.458,25.928 L123.781,56.441" id="Path" stroke="#FFFFFF" stroke-width="0.7"></path>
                                <path d="M123.816,25.914 L136.423,56.462" id="Path" stroke="#FFFFFF" stroke-width="0.7"></path>
                                <path d="M145.39,34.881 L114.849,47.488" id="Path" stroke="#FFFFFF" stroke-width="0.7"></path>
                                <circle id="Oval" stroke="#FFFFFF" stroke-width="0.7" transform="translate(130.110770, 41.167616) rotate(-76.630000) translate(-130.110770, -41.167616) " cx="130.11077" cy="41.1676158" r="11.095"></circle>
                                <circle id="Oval" stroke="#FFFFFF" stroke-width="0.7" transform="translate(130.114578, 41.170616) rotate(-76.680000) translate(-130.114578, -41.170616) " cx="130.114578" cy="41.1706164" r="5.068"></circle>
                                <circle id="Oval" stroke="#FFFFFF" stroke-width="0.7" stroke-linecap="round" stroke-linejoin="round" cx="59.157" cy="93.443" r="16.52"></circle>
                                <path d="M42.637,93.443 L75.684,93.443" id="Path" stroke="#FFFFFF" stroke-width="0.7" stroke-linecap="round" stroke-linejoin="round"></path>
                                <path d="M59.157,76.916 L59.157,109.963" id="Path" stroke="#FFFFFF" stroke-width="0.7" stroke-linecap="round" stroke-linejoin="round"></path>
                                <ellipse id="Oval" stroke="#FFFFFF" stroke-width="0.7" stroke-linecap="round" stroke-linejoin="round" cx="59.157" cy="93.443" rx="5.607" ry="16.52"></ellipse>
                                <ellipse id="Oval" stroke="#FFFFFF" stroke-width="0.7" stroke-linecap="round" stroke-linejoin="round" cx="59.157" cy="93.443" rx="10.689" ry="16.52"></ellipse>
                                <ellipse id="Oval" stroke="#FFFFFF" stroke-width="0.7" stroke-linecap="round" stroke-linejoin="round" cx="59.157" cy="93.443" rx="14.882" ry="16.52"></ellipse>
                                <path d="M44.471,85.862 L73.843,85.862" id="Path" stroke="#FFFFFF" stroke-width="0.7" stroke-linecap="round" stroke-linejoin="round"></path>
                                <path d="M50.337,79.471 L67.984,79.471" id="Path" stroke="#FFFFFF" stroke-width="0.7" stroke-linecap="round" stroke-linejoin="round"></path>
                                <path d="M44.471,101.017 L73.843,101.017" id="Path" stroke="#FFFFFF" stroke-width="0.7" stroke-linecap="round" stroke-linejoin="round"></path>
                                <path d="M50.337,107.408 L67.984,107.408" id="Path" stroke="#FFFFFF" stroke-width="0.7" stroke-linecap="round" stroke-linejoin="round"></path>
                                <circle id="Oval" stroke="#FFFFFF" stroke-width="0.7" cx="130.123" cy="93.443" r="16.52"></circle>
                                <ellipse id="Oval" stroke="#FFFFFF" stroke-width="0.7" cx="130.123" cy="93.443" rx="5.859" ry="16.52"></ellipse>
                                <ellipse id="Oval" stroke="#FFFFFF" stroke-width="0.7" cx="130.123" cy="93.443" rx="16.52" ry="5.859"></ellipse>
                                <path d="M124.642,99.295 L135.975,87.962" id="Path" stroke="#FFFFFF" stroke-width="0.7"></path>
                                <path d="M113.596,93.443 L146.643,93.443" id="Path" stroke="#FFFFFF" stroke-width="0.7"></path>
                                <path d="M130.123,76.916 L130.123,109.963" id="Path" stroke="#FFFFFF" stroke-width="0.7"></path>
                                <path d="M36.96,165.935 L202.216,165.935 C147.112,165.911667 92.0266667,165.9 36.96,165.9 L36.96,165.935 Z" id="Path" stroke="#263238" stroke-width="0.7" fill="#FFFFFF" fill-rule="nonzero" stroke-linecap="round" stroke-linejoin="round"></path>
                                <path d="M5.6,165.935 L10.64,165.935" id="Path" stroke="#263238" stroke-width="0.7" fill="#FFFFFF" fill-rule="nonzero" stroke-linecap="round" stroke-linejoin="round"></path>
                                <polygon id="Path" stroke="#263238" stroke-width="0.7" fill="#263238" fill-rule="nonzero" stroke-linecap="round" stroke-linejoin="round" points="52.78 176.456 95.515 176.456 95.515 167.72 52.878 168.28"></polygon>
                                <polygon id="Path" stroke="#263238" stroke-width="0.7" fill="#4788D8" fill-rule="nonzero" stroke-linecap="round" stroke-linejoin="round" points="177.114 176.456 83.524 176.456 55.174 169.568 52.878 164.57 133.371 164.57 177.114 173.355"></polygon>
                                <polyline id="Path" fill="#4788D8" fill-rule="nonzero" points="98.56 173.355 177.114 173.355 133.371 164.57 52.878 164.57 83.524 173.355 94.871 173.355"></polyline>
                                <polygon id="Path" fill-opacity="0.7" fill="#000000" fill-rule="nonzero" opacity="0.3" points="52.878 164.57 83.524 173.355 177.114 173.355 133.371 164.57"></polygon>
                                <polyline id="Path" stroke="#263238" stroke-width="0.7" stroke-linecap="round" stroke-linejoin="round" points="98.56 173.355 177.114 173.355 133.371 164.57 52.878 164.57 83.524 173.355 94.871 173.355"></polyline>
                                <path d="M83.524,175.294 L83.524,176.456" id="Path" stroke="#263238" stroke-width="0.7" stroke-linecap="round" stroke-linejoin="round"></path>
                                <path d="M56.266,168.196 C56.4636558,168.952395 56.5624784,169.731211 56.5600455,170.513 C56.5600455,173.796 54.866,176.456 52.78,176.456 C50.694,176.456 48.993,173.796 48.993,170.513 C48.993,167.23 50.687,164.57 52.78,164.57 C53.935,164.57 54.964,165.382 55.664,166.67" id="Path" stroke="#263238" stroke-width="0.7" fill="#4788D8" fill-rule="nonzero" stroke-linecap="round" stroke-linejoin="round"></path>
                                <path d="M36.708,183.071 C90.3,183.4 144.9,183.4 199.108,183.071" id="Path" stroke="#263238" stroke-width="0.7" fill="#FFFFFF" fill-rule="nonzero" stroke-linecap="round" stroke-linejoin="round"></path>
                                <path d="M23.716,183.071 C26.3517743,183.399982 29.0182257,183.399982 31.654,183.071" id="Path" stroke="#263238" stroke-width="0.7" fill="#FFFFFF" fill-rule="nonzero" stroke-linecap="round" stroke-linejoin="round"></path>
                                <path d="M101.633,191.443 C133.7,191.1 165.2,191.1 197.239,191.443" id="Path" stroke="#263238" stroke-width="0.7" fill="#FFFFFF" fill-rule="nonzero" stroke-linecap="round" stroke-linejoin="round"></path>
                                <path d="M40.313,191.443 C57.4,191.1 74.2,191.1 90.804,191.443" id="Path" stroke="#263238" stroke-width="0.7" fill="#FFFFFF" fill-rule="nonzero" stroke-linecap="round" stroke-linejoin="round"></path>
                            </g>
                            <g id="freepik--Character--inject-2" transform="translate(72.100000, 93.800000)">
                                <path d="M113.477,59.535 C110.645494,60.210089 107.719907,60.3994474 104.825,60.095 L103.824,59.962 C100.149,59.409 100.058,55.559 97.321,40.81 C96.537,36.61 99.358,31.115 97.727,24.794 C97.384,23.457 99.568,13.44 102.564,10.199 C112.315,-0.343 134.722,1.638 138.502,15.799 C144.046,36.498 129.962,55.671 113.477,59.535 Z" id="Path" stroke="#263238" stroke-width="0.7" fill="#FFFFFF" fill-rule="nonzero" stroke-linecap="round" stroke-linejoin="round"></path>
                                <path d="M108.059,51.982 C107.842,54.229 102.039,58.471 103.824,59.962" id="Path" stroke="#263238" stroke-width="0.7" stroke-linecap="round" stroke-linejoin="round"></path>
                                <path d="M113.477,59.535 C110.645494,60.210089 107.719907,60.3994474 104.825,60.095 C107.147505,59.164096 109.234625,57.7296493 110.936,55.895 L113.477,59.535 Z" id="Path" fill="#263238" fill-rule="nonzero"></path>
                                <path d="M6.839,122.325 C6.64098435,123.318563 6.64098435,124.341437 6.839,125.335 C6.94432546,125.759629 7.32550321,126.05781 7.763,126.05781 C8.20049679,126.05781 8.58167454,125.759629 8.687,125.335 C9.07141841,124.282222 9.56652674,123.273233 10.164,122.325" id="Path" stroke="#263238" stroke-width="0.7" fill="#FFFFFF" fill-rule="nonzero" stroke-linecap="round" stroke-linejoin="round"></path>
                                <path d="M65.723,124.922 C65.723,124.922 33.404,117.481 30.912,117.726 C28.42,117.971 17.115,108.724 15.603,108.829 C14.091,108.934 8.4,113.281 8.4,113.281 L1.904,121.1 L0.084,125.657 C0.084,125.657 1.015,127.988 3.822,124.677 L8.421,122.304 C8.421,122.304 16.555,129.78 24.822,128.534 C24.822,128.534 59.374,148.372 65.912,147.686 C72.45,147 94.549,124.677 94.549,124.677 L65.723,124.922 Z" id="Path" stroke="#263238" stroke-width="0.7" fill="#FFFFFF" fill-rule="nonzero" stroke-linecap="round" stroke-linejoin="round"></path>
                                <path d="M110.285,57.33 C112.287,58.73 114.688,64.526 112.595,70.952 L138.873,68.943 C138.873,68.943 132.118,58.17 130.508,48.475 C128.898,38.78 116.767,45.892 116.767,45.892" id="Path" stroke="#263238" stroke-width="0.7" fill="#FFFFFF" fill-rule="nonzero" stroke-linecap="round" stroke-linejoin="round"></path>
                                <path d="M144.501,21.07 C142.002,6.104 131.901,0.854 121.751,1.246 L117.775,0.721 C102.375,-1.316 94.948,5.264 93.716,11.473 C92.82,15.953 94.752,22.183 103.516,25.109 C102.229516,23.332187 101.723864,21.1073176 102.116,18.949 C102.565301,20.1656427 103.127766,21.3374448 103.796,22.449 C106.729,27.405 107.247,29.82 107.562,31.626 L108.353,32.403 C108.738,30.303 109.753,27.503 112.329,29.554 C116.991,33.299 114.863,42.686 112.868,45.577 C112.868,45.577 117.11,55.671 130.669,53.55 C130.662,53.571 147,36.036 144.501,21.07 Z" id="Path" fill="#263238" fill-rule="nonzero"></path>
                                <path d="M109.816,33.663 C109.816,33.663 108.633,27.216 110.656,27.58 C112.679,27.944 113.953,34.699 113.19,38.612 C112.427,42.525 110.663,46.2 109.249,44.912 C107.835,43.624 109.949,41.769 109.949,41.769" id="Path" stroke="#263238" stroke-width="0.7" fill="#FFFFFF" fill-rule="nonzero" stroke-linecap="round" stroke-linejoin="round"></path>
                                <path d="M182,142.002 C167.804,158.515 148.239,170.044 126.7,176.715 C122.248,178.115 117.721333,179.281667 113.12,180.215 C111.888,180.471667 110.651333,180.705 109.41,180.915 C106.848,181.381667 104.281333,181.792333 101.71,182.147 C100.422,166.67 97.041,150.647 94.332,135.737 C93.765,132.594 93.226,129.493 92.736,126.462 C92.645,125.86 92.547,125.258 92.456,124.663 C91.581,118.951 90.923,113.463 90.65,108.339 C89.88,93.408 92.421,81.312 102.55,74.536 C104.934226,72.9710227 107.52613,71.7481154 110.25,70.903 L110.25,70.903 C110.376,70.791 111.405,69.951 113.05,68.803 C117.439,65.849 126.301,60.921 135.142,62.125 C135.541,62.181 135.94,62.244 136.339,62.328 C137.994392,62.6595329 139.59615,63.2177927 141.099,63.987 C145.798105,64.8357228 150.364349,66.3020992 154.679,68.348 C159.425,70.63 164.325,73.997 167.433,78.848 C172.326,86.457 178.248,118.895 182,142.002 Z" id="Path" fill="#999999" fill-rule="nonzero"></path>
                                <g id="Group" transform="translate(91.700000, 61.600000)" fill="#000000" fill-opacity="0.7" fill-rule="nonzero" opacity="0.3">
                                    <path d="M26.138,49.833 C26.138,49.833 22.029,72.135 14.238,78.876 C14.238,78.876 11.053,85.876 5.194,88.074 C4.326,83.377 3.437,78.729 2.611,74.186 C2.044,71.043 1.505,67.942 1.015,64.911 C0.924,64.309 0.826,63.707 0.735,63.112 C0.644,62.517 0.546,61.887 0.462,61.278 L26.138,49.833 Z" id="Path"></path>
                                    <path d="M90.3,80.402 C76.104,96.915 56.539,108.444 35,115.115 C30.548,116.515 26.0213333,117.681667 21.42,118.615 C20.188,118.871667 18.9513333,119.105 17.71,119.315 C16.597,119.525 15.484,119.714 14.364,119.896 C15.498,107.121 17.752,88.494 21.42,86.079 C21.42,86.079 24.29,65.779 27.328,55.468 C33.313,35.126 24.297,15.183 42.182,6.706 C36.8818854,7.34232024 31.5185744,7.22920999 26.25,6.37 C29.393,3.955 36.302,1.869 43.211,0.497 L43.211,0.497 L43.512,0.532 C43.911,0.588 44.31,0.651 44.709,0.735 C46.3643922,1.06653292 47.9661502,1.62479268 49.469,2.394 C54.1681052,3.24272284 58.7343494,4.7090992 63.049,6.755 C67.795,9.037 72.695,12.404 75.803,17.255 C80.626,24.857 86.548,57.295 90.3,80.402 Z" id="Path"></path>
                                </g>
                                <path d="M182,142.002 C167.804,158.515 148.239,170.044 126.7,176.715 C122.248,178.115 117.721333,179.281667 113.12,180.215 C111.888,180.471667 110.651333,180.705 109.41,180.915 C106.848,181.381667 104.281333,181.792333 101.71,182.147 C100.422,166.67 97.041,150.647 94.332,135.737 C93.765,132.594 93.226,129.493 92.736,126.462 C92.645,125.86 92.547,125.258 92.456,124.663 C91.581,118.951 90.923,113.463 90.65,108.339 C89.88,93.408 92.421,81.312 102.55,74.536 C104.934226,72.9710227 107.52613,71.7481154 110.25,70.903 L110.25,70.903 C110.376,70.791 111.405,69.951 113.05,68.803 C117.439,65.849 126.301,60.921 135.142,62.125 C135.541,62.181 135.94,62.244 136.339,62.328 C137.994392,62.6595329 139.59615,63.2177927 141.099,63.987 C145.798105,64.8357228 150.364349,66.3020992 154.679,68.348 C159.425,70.63 164.325,73.997 167.433,78.848 C172.326,86.457 178.248,118.895 182,142.002 Z" id="Path" stroke="#263238" stroke-width="0.7" stroke-linecap="round" stroke-linejoin="round"></path>
                                <path d="M102.396,74.382 C85.442,78.407 80.332,99.211 72.149,105.427 C67.1223293,109.296237 62.8329737,114.038477 59.486,119.427 C59.486,119.427 52.206,120.645 52.206,123.291 C52.206,125.937 49.784,140.413 64.365,144.536 C78.946,148.659 83.188,142.688 83.188,142.688 C83.188,142.688 108.038,127.939 112.588,121.821 C119.347529,113.073527 120.877221,101.365505 116.592,91.175" id="Path" fill="#999999" fill-rule="nonzero"></path>
                                <path d="M78.617,139.139 C55.986,142.59 54.712,127.897 55.426,120.54 C56.7452921,120.059543 58.103695,119.694179 59.486,119.448 C59.486,119.448 59.71,119.056 60.186,118.384 C57.743,130.249 78.617,139.139 78.617,139.139 Z" id="Path" fill-opacity="0.7" fill="#000000" fill-rule="nonzero" opacity="0.3"></path>
                                <path d="M102.396,74.382 C85.442,78.407 80.332,99.211 72.149,105.427 C67.1223293,109.296237 62.8329737,114.038477 59.486,119.427 C59.486,119.427 52.206,120.645 52.206,123.291 C52.206,125.937 49.784,140.413 64.365,144.536 C78.946,148.659 83.188,142.688 83.188,142.688 C83.188,142.688 108.038,127.939 112.588,121.821 C119.347529,113.073527 120.877221,101.365505 116.592,91.175" id="Path" stroke="#263238" stroke-width="0.7" stroke-linecap="round" stroke-linejoin="round"></path>
                                <path d="M7.945,120.106 C7.945,120.106 7.574,117.523 7.945,116.508 C8.316,115.493 10.045,115.766 10.255,114.66 C10.465,113.554 11.361,111.433 12.565,111.433 C13.769,111.433 14.777,110.194 14.777,110.194" id="Path" stroke="#263238" stroke-width="0.7" stroke-linecap="round" stroke-linejoin="round"></path>
                                <path d="M1.904,121.1 C1.904,121.1 5.859,118.3 6.839,117.684" id="Path" stroke="#263238" stroke-width="0.7" stroke-linecap="round" stroke-linejoin="round"></path>
                                <path d="M114.1,105.889 C114.1,105.889 83.755,113.162 74.564,103.089" id="Path" stroke="#263238" stroke-width="0.7" stroke-linecap="round" stroke-linejoin="round"></path>
                                <path d="M59.5,119.448 C59.5,119.448 56.791,128.548 63.7,134.148 C70.609,139.748 79.485,139.153 79.485,139.153" id="Path" stroke="#263238" stroke-width="0.7" stroke-linecap="round" stroke-linejoin="round"></path>
                                <path d="M110.285,70.952 C110.285,70.952 129.822,62.377 141.176,64.043" id="Path" stroke="#263238" stroke-width="0.7" stroke-linecap="round" stroke-linejoin="round"></path>
                                <path d="M122.129,111.433 C122.129,111.433 116.725,124.936 105.168,128.359" id="Path" stroke="#263238" stroke-width="0.7" stroke-linecap="round" stroke-linejoin="round"></path>
                                <path d="M99.932,132.062 C99.932,132.062 108.283,149.646 127.533,152.691" id="Path" stroke="#263238" stroke-width="0.7" stroke-linecap="round" stroke-linejoin="round"></path>
                                <path d="M113.12,180.229 C112.819,176.778 112.42,172.529 111.93,168.455 L111.93,168.455 C111.188,162.155 110.299,156.233 109.389,154.364 C107.177,149.793 107.632,142.387 107.632,142.387 C104.489,138.187 105.168,129.92 105.168,129.92" id="Path" stroke="#263238" stroke-width="0.7" stroke-linecap="round" stroke-linejoin="round"></path>
                                <g id="Group" opacity="0.4" transform="translate(95.900000, 2.100000)" stroke="#FFFFFF" stroke-linecap="round" stroke-linejoin="round" stroke-width="0.7">
                                    <path d="M28.063,23.1 C29.4768492,23.5969895 30.9382809,23.9465133 32.424,24.143" id="Path"></path>
                                    <path d="M13.041,0.287 C8.799,2.107 6.874,7.546 9.324,11.298 C13.034,16.576 19.124,19.271 24.976,21.973" id="Path"></path>
                                    <path d="M6.601,1.946 C0.413,4.865 -1.47,10.829 3.199,16.191" id="Path"></path>
                                    <path d="M42,22.974 C42.6872086,23.8439998 43.2589554,24.799264 43.701,25.816" id="Path"></path>
                                    <path d="M27.034,2.933 C24.339,11.97 35.77,16.051 40.572,21.252" id="Path"></path>
                                </g>
                                <path d="M216.006,60.9 C215.88,61.803 215.754,62.699 215.614,63.602 C211.456,91 200.417,117.88 185.892,137.2 C184.646,138.861333 183.346333,140.473667 181.993,142.037 C167.797,158.55 148.232,170.079 126.693,176.75 C122.241,178.15 117.714333,179.316667 113.113,180.25 C111.881,180.506667 110.644333,180.74 109.403,180.95 C110.138,177.324 110.985,173.096 111.923,168.441 L111.923,168.441 C113.134,162.407 114.485,155.666 115.892,148.638 C122.066,117.761 129.304,81.284 130.431,74.375 C130.683963,72.7120465 131.074981,71.0730488 131.6,69.475 C132.249608,67.449576 133.304693,65.5775744 134.701,63.973 C134.995,63.651 135.303,63.336 135.632,63.028 C135.961,62.72 136.143,62.58 136.409,62.363 C141.309,58.457 149.989,56.763 165.711,56.994 C192.815,57.421 208.152,52.143 215.824,60.662 C215.888956,60.7379596 215.949713,60.8174113 216.006,60.9 Z" id="Path" fill="#4788D8" fill-rule="nonzero"></path>
                                <path d="M215.6,63.609 C211.456,91 200.417,117.88 185.892,137.2 C184.646,138.861333 183.346333,140.473667 181.993,142.037 C167.797,158.55 148.232,170.079 126.693,176.75 C132.174,153.258 146.552,91.399 148.337,80.612 C149.506,73.612 151.585,70.112 154.749,68.439 C157.605,66.913 161.336,66.822 166.061,66.843 C173.341,66.836 198.702,62.874 215.6,63.609 Z" id="Path" fill-opacity="0.7" fill="#000000" fill-rule="nonzero" opacity="0.3"></path>
                                <path d="M216.006,60.9 C215.88,61.803 215.754,62.699 215.614,63.602 C211.456,91 200.417,117.88 185.892,137.2 C184.646,138.861333 183.346333,140.473667 181.993,142.037 C167.797,158.55 148.232,170.079 126.693,176.75 C122.241,178.15 117.714333,179.316667 113.113,180.25 C111.881,180.506667 110.644333,180.74 109.403,180.95 C110.138,177.324 110.985,173.096 111.923,168.441 L111.923,168.441 C113.134,162.407 114.485,155.666 115.892,148.638 C122.066,117.761 129.304,81.284 130.431,74.375 C130.683963,72.7120465 131.074981,71.0730488 131.6,69.475 C132.249608,67.449576 133.304693,65.5775744 134.701,63.973 C134.995,63.651 135.303,63.336 135.632,63.028 C135.961,62.72 136.143,62.58 136.409,62.363 C141.309,58.457 149.989,56.763 165.711,56.994 C192.815,57.421 208.152,52.143 215.824,60.662 C215.888956,60.7379596 215.949713,60.8174113 216.006,60.9 Z" id="Path" stroke="#263238" stroke-width="0.7" stroke-linecap="round" stroke-linejoin="round"></path>
                                <path d="M203.616,63.644 C206.171,63.539 208.733,63.483 211.316,63.504" id="Path" stroke="#263238" stroke-width="0.7" stroke-linecap="round" stroke-linejoin="round"></path>
                                <path d="M198.8,63.91 L201.194,63.763" id="Path" stroke="#263238" stroke-width="0.7" stroke-linecap="round" stroke-linejoin="round"></path>
                                <path d="M135.891,137.2 C139.636,121.457 143.465,105.7 146.391,89.803 C147.462,84.007 147.735,77.133 151.095,72.072 C155.092,66.045 162.295,66.962 168.595,66.682 C177.695,66.276 186.795,64.834 195.895,64.12" id="Path" stroke="#263238" stroke-width="0.7" stroke-linecap="round" stroke-linejoin="round"></path>
                                <path d="M134.463,143.269 C134.715,142.177 134.967,141.092 135.226,140" id="Path" stroke="#263238" stroke-width="0.7" stroke-linecap="round" stroke-linejoin="round"></path>
                                <path d="M126.7,176.715 C128.762667,167.876333 130.816,159.035333 132.86,150.192" id="Path" stroke="#263238" stroke-width="0.7" stroke-linecap="round" stroke-linejoin="round"></path>
                            </g>
                        </g>
                        <g id="Step-1-box" transform="translate(111.000000, 359.000000)">
                            <rect id="Rectangle-Copy" fill="#FFFFFF" x="0" y="0" width="68" height="31"></rect>
                            <rect id="Rectangle-Copy" fill="#3087DF" x="6" y="5" width="58" height="21"></rect>
                            <path d="M18.554,20.108 C17.9059968,20.108 17.2980028,20.0200009 16.73,19.844 C16.1619972,19.6679991 15.682002,19.4200016 15.29,19.1 L15.806,17.972 C16.214002,18.2840016 16.6439977,18.5119993 17.096,18.656 C17.5480023,18.8000007 18.0379974,18.872 18.566,18.872 C19.1500029,18.872 19.5999984,18.770001 19.916,18.566 C20.2320016,18.361999 20.39,18.0760018 20.39,17.708 C20.39,17.3879984 20.2440015,17.1440008 19.952,16.976 C19.6599985,16.8079992 19.1740034,16.6480008 18.494,16.496 C17.79,16.3439992 17.2180022,16.168001 16.778,15.968 C16.3379978,15.767999 16.0060011,15.5120016 15.782,15.2 C15.5579989,14.8879984 15.446,14.4920024 15.446,14.012 C15.446,13.5159975 15.5819986,13.072002 15.854,12.68 C16.1260014,12.287998 16.5099975,11.9820011 17.006,11.762 C17.5020025,11.5419989 18.0739968,11.432 18.722,11.432 C19.314003,11.432 19.8779973,11.5219991 20.414,11.702 C20.9500027,11.8820009 21.3899983,12.1279984 21.734,12.44 L21.218,13.568 C20.4659962,12.967997 19.6340046,12.668 18.722,12.668 C18.1779973,12.668 17.7480016,12.7779989 17.432,12.998 C17.1159984,13.2180011 16.958,13.523998 16.958,13.916 C16.958,14.2440016 17.0979986,14.4959991 17.378,14.672 C17.6580014,14.8480009 18.1339966,15.0119992 18.806,15.164 C19.5180036,15.3240008 20.0959978,15.501999 20.54,15.698 C20.9840022,15.894001 21.3239988,16.1439985 21.56,16.448 C21.7960012,16.7520015 21.914,17.1359977 21.914,17.6 C21.914,18.1040025 21.7800013,18.5459981 21.512,18.926 C21.2439987,19.3060019 20.8560025,19.597999 20.348,19.802 C19.8399975,20.006001 19.2420034,20.108 18.554,20.108 Z M25.334,20 L25.334,12.812 L22.574,12.812 L22.574,11.54 L29.642,11.54 L29.642,12.812 L26.882,12.812 L26.882,20 L25.334,20 Z M30.698,20 L30.698,11.54 L36.362,11.54 L36.362,12.764 L32.21,12.764 L32.21,15.092 L36.122,15.092 L36.122,16.304 L32.21,16.304 L32.21,18.776 L36.362,18.776 L36.362,20 L30.698,20 Z M37.766,11.54 L41.462,11.54 C42.3660045,11.54 43.0699975,11.7659977 43.574,12.218 C44.0780025,12.6700023 44.33,13.3039959 44.33,14.12 C44.33,14.9360041 44.0780025,15.5719977 43.574,16.028 C43.0699975,16.4840023 42.3660045,16.712 41.462,16.712 L39.314,16.712 L39.314,20 L37.766,20 L37.766,11.54 Z M41.27,15.524 C42.3340053,15.524 42.866,15.0600046 42.866,14.132 C42.866,13.6599976 42.7340013,13.3100011 42.47,13.082 C42.2059987,12.8539989 41.8060027,12.74 41.27,12.74 L39.314,12.74 L39.314,15.524 L41.27,15.524 Z M52.778,18.752 L54.614,18.752 L54.614,20 L49.394,20 L49.394,18.752 L51.23,18.752 L51.23,13.304 L49.778,14.18 L49.166,13.052 L51.674,11.54 L52.778,11.54 L52.778,18.752 Z" id="STEP1" fill="#FFFFFF" fill-rule="nonzero"></path>
                        </g>
                    </g>
                </g>
            </g>
        </g>
    </g>
</svg>