<?xml version="1.0" encoding="UTF-8"?>
<svg width="244px" height="473px" viewBox="0 0 244 473" version="1.1" xmlns="http://www.w3.org/2000/svg" xmlns:xlink="http://www.w3.org/1999/xlink">
    <!-- Generator: Sketch 57.1 (83088) - https://sketch.com -->
    <title>Step 3</title>
    <desc>Created with Sketch.</desc>
    <g id="Leaftech-webdesign" stroke="none" stroke-width="1" fill="none" fill-rule="evenodd">
        <g id="Home-page---UI" transform="translate(-582.000000, -2440.000000)">
            <g id="We-provide-the-missing-data" transform="translate(283.000000, 1241.000000)">
                <g id="Step-3" transform="translate(155.000000, 1200.000000)">
                    <g transform="translate(145.000000, 0.000000)">
                        <path d="M115.5,0 L115.5,450.6875" id="Path-4-Copy-2" stroke="#3087DF" stroke-width="1.5" stroke-linecap="round" stroke-linejoin="round" stroke-dasharray="4,8"></path>
                        <g id="Data-report-bro" transform="translate(0.000000, 108.000000)">
                            <g id="freepik--background-simple--inject-26" transform="translate(10.000000, 0.000000)" fill-rule="nonzero">
                                <path d="M193.056718,26.612069 C157.705177,1.25668103 97.3573732,-5.30023707 65.8770335,5.30023707 C9.10435407,24.4313578 2.22044605e-16,61.6069397 0.614358852,94.8424569 C1.2287177,128.077974 43.8859474,156.619418 55.2404833,185.670927 C66.5950191,214.722435 87.4166029,253.775647 127.631201,241.815 C167.845799,229.854353 166.121153,186.609741 178.304703,157.410388 C190.488254,128.211034 222.353493,98.2724569 220.621445,71.4681897 C219.414933,52.7510345 208.674756,37.8556681 193.056718,26.612069 Z" id="Path" fill="#4788D8"></path>
                                <path d="M193.056718,26.612069 C157.705177,1.25668103 97.3573732,-5.30023707 65.8770335,5.30023707 C9.10435407,24.4313578 2.22044605e-16,61.6069397 0.614358852,94.8424569 C1.2287177,128.077974 43.8859474,156.619418 55.2404833,185.670927 C66.5950191,214.722435 87.4166029,253.775647 127.631201,241.815 C167.845799,229.854353 166.121153,186.609741 178.304703,157.410388 C190.488254,128.211034 222.353493,98.2724569 220.621445,71.4681897 C219.414933,52.7510345 208.674756,37.8556681 193.056718,26.612069 Z" id="Path" fill="#FFFFFF" opacity="0.7"></path>
                            </g>
                            <g id="freepik--Charts--inject-26" transform="translate(0.000000, 12.000000)">
                                <rect id="Rectangle" fill="#000000" fill-rule="nonzero" opacity="0.2" x="2.7216" y="39.6665596" width="109.803248" height="82.6417431" rx="5.985"></rect>
                                <rect id="Rectangle" stroke="#263238" stroke-width="0.7" fill="#FFFFFF" fill-rule="nonzero" stroke-linecap="round" stroke-linejoin="round" x="0" y="35.3166055" width="109.803248" height="82.6417431" rx="5.985"></rect>
                                <path d="M35.4991304,73.1146789 L12.0253304,80.7215596 C7.81249508,67.7674768 14.9107651,53.855259 27.8816087,49.6441284 C30.3364339,48.8233097 32.9104167,48.4140442 35.4991304,48.4329358 L35.4991304,73.1146789 Z" id="Path" stroke="#263238" stroke-width="0.7" fill="#4788D8" fill-rule="nonzero" stroke-linecap="round" stroke-linejoin="round"></path>
                                <path d="M35.4991304,73.1146789 L50.0167957,93.0550459 C38.9839158,101.055032 23.5460799,98.611836 15.5308696,87.5972936 C13.9901835,85.5144002 12.8056383,83.1910435 12.0253304,80.7215596 L35.4991304,73.1146789 Z" id="Path" stroke="#263238" stroke-width="0.7" fill="#FFFFFF" fill-rule="nonzero" stroke-linecap="round" stroke-linejoin="round"></path>
                                <path d="M35.4991304,73.1146789 L58.9877217,65.4930275 C62.4227407,75.647336 58.7826592,86.8494892 50.031587,93.0550459 L35.4991304,73.1146789 Z" id="Path" stroke="#263238" stroke-width="0.7" fill="#263238" fill-rule="nonzero" stroke-linecap="round" stroke-linejoin="round"></path>
                                <path d="M35.4991304,73.1146789 L35.4991304,48.4477064 C46.2391337,48.3257831 55.787113,55.2546095 58.9877217,65.4930275 L35.4991304,73.1146789 Z" id="Path" stroke="#263238" stroke-width="0.7" fill="#FFFFFF" fill-rule="nonzero" stroke-linecap="round" stroke-linejoin="round"></path>
                                <ellipse id="Oval" stroke="#263238" stroke-width="0.7" fill="#FFFFFF" fill-rule="nonzero" stroke-linecap="round" stroke-linejoin="round" cx="35.5361087" cy="73.0999083" rx="15.3977478" ry="15.3762385"></ellipse>
                                <rect id="Rectangle" stroke="#263238" stroke-width="0.7" fill="#4788D8" fill-rule="nonzero" stroke-linecap="round" stroke-linejoin="round" x="67.1525217" y="46.9411009" width="33.8351087" height="2.7990367"></rect>
                                <rect id="Rectangle" stroke="#263238" stroke-width="0.7" fill="#263238" fill-rule="nonzero" stroke-linecap="round" stroke-linejoin="round" x="67.1525217" y="52.9305963" width="26.557787" height="2.7990367"></rect>
                                <rect id="Rectangle" stroke="#263238" stroke-width="0.7" fill="#FFFFFF" fill-rule="nonzero" stroke-linecap="round" stroke-linejoin="round" x="67.1525217" y="58.9200917" width="19.5171261" height="2.7990367"></rect>
                                <rect id="Rectangle" stroke="#263238" stroke-width="0.7" fill="#4788D8" fill-rule="nonzero" stroke-linecap="round" stroke-linejoin="round" x="67.1525217" y="64.9095872" width="27.7336957" height="2.7990367"></rect>
                                <rect id="Rectangle" stroke="#263238" stroke-width="0.7" fill="#263238" fill-rule="nonzero" stroke-linecap="round" stroke-linejoin="round" x="67.1525217" y="70.8990826" width="13.1790522" height="2.7990367"></rect>
                                <rect id="Rectangle" stroke="#263238" stroke-width="0.7" fill="#FFFFFF" fill-rule="nonzero" stroke-linecap="round" stroke-linejoin="round" x="67.1525217" y="76.8959633" width="33.8351087" height="2.7990367"></rect>
                                <rect id="Rectangle" stroke="#263238" stroke-width="0.7" fill="#4788D8" fill-rule="nonzero" stroke-linecap="round" stroke-linejoin="round" x="67.1525217" y="82.8854587" width="24.9159522" height="2.7990367"></rect>
                                <rect id="Rectangle" stroke="#263238" stroke-width="0.7" fill="#263238" fill-rule="nonzero" stroke-linecap="round" stroke-linejoin="round" x="67.1525217" y="88.8749541" width="21.7728" height="2.7990367"></rect>
                                <rect id="Rectangle" stroke="#263238" stroke-width="0.7" fill="#FFFFFF" fill-rule="nonzero" stroke-linecap="round" stroke-linejoin="round" x="67.1525217" y="94.8644495" width="33.8351087" height="2.7990367"></rect>
                                <path d="M22.941313,103.025229 L49.1662957,103.025229" id="Path" stroke="#263238" stroke-width="0.7" stroke-linecap="round" stroke-linejoin="round"></path>
                                <path d="M19.2286957,106.71789 L52.878913,106.71789" id="Path" stroke="#263238" stroke-width="0.7" stroke-linecap="round" stroke-linejoin="round"></path>
                                <path d="M68.0547913,103.025229 L94.2797739,103.025229" id="Path" stroke="#263238" stroke-width="0.7" stroke-linecap="round" stroke-linejoin="round"></path>
                                <path d="M64.3421739,106.71789 L97.9923913,106.71789" id="Path" stroke="#263238" stroke-width="0.7" stroke-linecap="round" stroke-linejoin="round"></path>
                                <rect id="Rectangle" fill="#000000" fill-rule="nonzero" opacity="0.2" x="16.9804174" y="156.775596" width="96.084313" height="72.3170642" rx="5.985"></rect>
                                <rect id="Rectangle" stroke="#263238" stroke-width="0.7" fill="#FFFFFF" fill-rule="nonzero" stroke-linecap="round" stroke-linejoin="round" x="13.7115391" y="152.979541" width="96.084313" height="72.3170642" rx="5.985"></rect>
                                <path d="M20.2936696,187.358211 L33.1103348,187.358211" id="Path" stroke="#263238" stroke-width="0.7" stroke-linecap="round" stroke-linejoin="round"></path>
                                <path d="M20.2936696,190.253257 L40.5651522,190.253257" id="Path" stroke="#263238" stroke-width="0.7" stroke-linecap="round" stroke-linejoin="round"></path>
                                <path d="M20.2936696,193.140917 L33.1103348,193.140917" id="Path" stroke="#263238" stroke-width="0.7" stroke-linecap="round" stroke-linejoin="round"></path>
                                <path d="M20.2936696,196.028578 L38.7828,196.028578" id="Path" stroke="#263238" stroke-width="0.7" stroke-linecap="round" stroke-linejoin="round"></path>
                                <path d="M20.2936696,198.923624 L33.1103348,198.923624" id="Path" stroke="#263238" stroke-width="0.7" stroke-linecap="round" stroke-linejoin="round"></path>
                                <path d="M20.2936696,201.811284 L42.9391565,201.811284" id="Path" stroke="#263238" stroke-width="0.7" stroke-linecap="round" stroke-linejoin="round"></path>
                                <path d="M52.3908,187.358211 L65.2074652,187.358211" id="Path" stroke="#263238" stroke-width="0.7" stroke-linecap="round" stroke-linejoin="round"></path>
                                <path d="M52.3908,190.253257 L72.6622826,190.253257" id="Path" stroke="#263238" stroke-width="0.7" stroke-linecap="round" stroke-linejoin="round"></path>
                                <path d="M52.3908,193.140917 L65.2074652,193.140917" id="Path" stroke="#263238" stroke-width="0.7" stroke-linecap="round" stroke-linejoin="round"></path>
                                <path d="M52.3908,196.028578 L70.8799304,196.028578" id="Path" stroke="#263238" stroke-width="0.7" stroke-linecap="round" stroke-linejoin="round"></path>
                                <path d="M52.3908,198.923624 L65.2074652,198.923624" id="Path" stroke="#263238" stroke-width="0.7" stroke-linecap="round" stroke-linejoin="round"></path>
                                <path d="M52.3908,201.811284 L75.036287,201.811284" id="Path" stroke="#263238" stroke-width="0.7" stroke-linecap="round" stroke-linejoin="round"></path>
                                <path d="M84.4879304,187.358211 L97.3045957,187.358211" id="Path" stroke="#263238" stroke-width="0.7" stroke-linecap="round" stroke-linejoin="round"></path>
                                <path d="M84.4879304,190.253257 L104.752017,190.253257" id="Path" stroke="#263238" stroke-width="0.7" stroke-linecap="round" stroke-linejoin="round"></path>
                                <path d="M84.4879304,193.140917 L97.3045957,193.140917" id="Path" stroke="#263238" stroke-width="0.7" stroke-linecap="round" stroke-linejoin="round"></path>
                                <path d="M84.4879304,196.028578 L102.969665,196.028578" id="Path" stroke="#263238" stroke-width="0.7" stroke-linecap="round" stroke-linejoin="round"></path>
                                <path d="M84.4879304,198.923624 L97.3045957,198.923624" id="Path" stroke="#263238" stroke-width="0.7" stroke-linecap="round" stroke-linejoin="round"></path>
                                <path d="M84.4879304,201.811284 L107.133417,201.811284" id="Path" stroke="#263238" stroke-width="0.7" stroke-linecap="round" stroke-linejoin="round"></path>
                                <rect id="Rectangle" fill="#263238" fill-rule="nonzero" x="19.4727522" y="177.860688" width="24.8050174" height="4.95555046"></rect>
                                <rect id="Rectangle" fill="#263238" fill-rule="nonzero" x="52.1319522" y="177.860688" width="24.8050174" height="4.95555046"></rect>
                                <rect id="Rectangle" fill="#263238" fill-rule="nonzero" x="84.7911522" y="177.860688" width="24.8050174" height="4.95555046"></rect>
                                <path d="M48.1456957,177.572661 L48.1456957,202.645826" id="Path" stroke="#263238" stroke-width="0.7" stroke-linecap="round" stroke-linejoin="round"></path>
                                <path d="M80.5386522,177.572661 L80.5386522,202.645826" id="Path" stroke="#263238" stroke-width="0.7" stroke-linecap="round" stroke-linejoin="round"></path>
                                <path d="M29.5826087,166.118028 L34.9518522,164.375092 C35.9135268,167.334544 34.2912882,170.512266 31.3280288,171.473619 C28.3647693,172.434972 25.1820416,170.816097 24.2183208,167.857309 C23.2545999,164.898521 24.8746408,161.719681 27.8372348,160.756284 C28.3999901,160.56985 28.989719,160.477522 29.5826087,160.483028 L29.5826087,166.118028 Z" id="Path" stroke="#263238" stroke-width="0.5" fill="#4788D8" fill-rule="nonzero"></path>
                                <path d="M29.5826087,166.118028 L29.5826087,160.483028 C32.0369495,160.45311 34.2199268,162.035509 34.9518522,164.375092 L29.5826087,166.118028 Z" id="Path" stroke="#263238" stroke-width="0.5" fill="#263238" fill-rule="nonzero"></path>
                                <path d="M83.9406522,166.118028 L89.3098957,164.375092 C90.015321,166.542972 89.3433626,168.921728 87.6074271,170.401891 C85.8714915,171.882054 83.4135408,172.172045 81.3799818,171.136611 C79.3464227,170.101177 78.1378463,167.944288 78.3179416,165.671933 C78.498037,163.399578 80.0313271,161.459389 82.2026739,160.756284 C82.7628843,160.569861 83.3501809,160.477522 83.9406522,160.483028 L83.9406522,166.118028 Z" id="Path" stroke="#263238" stroke-width="0.5" fill="#4788D8" fill-rule="nonzero"></path>
                                <path d="M83.9406522,166.118028 L83.9406522,160.483028 C86.3957709,160.450665 88.5800573,162.034013 89.3098957,164.375092 L83.9406522,166.118028 Z" id="Path" stroke="#263238" stroke-width="0.5" fill="#263238" fill-rule="nonzero"></path>
                                <path d="M47.7167478,166.118028 L47.7167478,171.753028 C44.6002698,171.753028 42.0738652,169.230152 42.0738652,166.118028 C42.0738652,163.005903 44.6002698,160.483028 47.7167478,160.483028 L47.7167478,160.483028 L47.7167478,166.118028 Z" id="Path" stroke="#263238" stroke-width="0.5" fill="#4788D8" fill-rule="nonzero"></path>
                                <path d="M47.7167478,166.118028 L47.7167478,160.483028 C50.8332258,160.483028 53.3596304,163.005903 53.3596304,166.118028 C53.3596304,169.230152 50.8332258,171.753028 47.7167478,171.753028 L47.7167478,171.753028 L47.7167478,166.118028 Z" id="Path" stroke="#263238" stroke-width="0.5" fill="#263238" fill-rule="nonzero"></path>
                                <path d="M65.8213043,166.118028 L71.1905478,167.860963 C70.5669858,169.77653 68.9674187,171.214384 66.9943879,171.632901 C65.0213572,172.051418 62.9746132,171.387015 61.6251445,169.889965 C60.2756758,168.392916 59.8284988,166.290658 60.4520609,164.375092 C61.1839863,162.035509 63.3669635,160.45311 65.8213043,160.483028 L65.8213043,166.118028 Z" id="Path" stroke="#263238" stroke-width="0.5" fill="#4788D8" fill-rule="nonzero"></path>
                                <path d="M65.8213043,166.118028 L65.8213043,160.483023 C67.3191708,160.481067 68.7563608,161.073887 69.8162067,162.130867 C70.8760525,163.187847 71.4715839,164.622252 71.4715826,166.118028 C71.4745772,166.71049 71.3796227,167.299384 71.1905478,167.860963 L65.8213043,166.118028 Z" id="Path" stroke="#263238" stroke-width="0.5" fill="#263238" fill-rule="nonzero"></path>
                                <path d="M102.06,166.118028 L107.429243,167.860963 C106.805681,169.77653 105.206114,171.214384 103.233084,171.632901 C101.260053,172.051418 99.2133088,171.387015 97.8638401,169.889965 C96.5143714,168.392916 96.0671945,166.290658 96.6907565,164.375092 C97.4226819,162.035509 99.6056592,160.45311 102.06,160.483028 L102.06,166.118028 Z" id="Path" stroke="#263238" stroke-width="0.5" fill="#4788D8" fill-rule="nonzero"></path>
                                <path d="M102.06,166.118028 L102.06,160.483023 C103.557187,160.481064 104.993619,161.074119 106.052292,162.131313 C107.110964,163.188506 107.704849,164.622932 107.702883,166.118028 C107.708396,166.710089 107.615939,167.298994 107.429243,167.860963 L102.06,166.118028 Z" id="Path" stroke="#263238" stroke-width="0.5" fill="#263238" fill-rule="nonzero"></path>
                                <rect id="Rectangle" stroke="#263238" stroke-width="0.525" fill="#4788D8" fill-rule="nonzero" stroke-linecap="round" stroke-linejoin="round" x="98.2290522" y="217.276147" width="4.94029565" height="1.66908257"></rect>
                                <rect id="Rectangle" stroke="#263238" stroke-width="0.525" fill="#263238" fill-rule="nonzero" stroke-linecap="round" stroke-linejoin="round" x="92.7414783" y="208.938119" width="4.94029565" height="10.0071101"></rect>
                                <rect id="Rectangle" stroke="#263238" stroke-width="0.525" fill="#FFFFFF" fill-rule="nonzero" stroke-linecap="round" stroke-linejoin="round" x="87.2613" y="212.534771" width="4.94029565" height="6.41784404"></rect>
                                <rect id="Rectangle" stroke="#263238" stroke-width="0.525" fill="#4788D8" fill-rule="nonzero" stroke-linecap="round" stroke-linejoin="round" x="81.7737261" y="207.527523" width="4.94029565" height="11.4177064"></rect>
                                <rect id="Rectangle" stroke="#263238" stroke-width="0.525" fill="#263238" fill-rule="nonzero" stroke-linecap="round" stroke-linejoin="round" x="76.2861522" y="215.998486" width="4.94029565" height="2.95412844"></rect>
                                <rect id="Rectangle" stroke="#263238" stroke-width="0.525" fill="#FFFFFF" fill-rule="nonzero" stroke-linecap="round" stroke-linejoin="round" x="70.7985783" y="215.097477" width="4.94029565" height="3.84775229"></rect>
                                <rect id="Rectangle" stroke="#263238" stroke-width="0.525" fill="#4788D8" fill-rule="nonzero" stroke-linecap="round" stroke-linejoin="round" x="65.3110043" y="211.249725" width="4.94029565" height="7.70288991"></rect>
                                <rect id="Rectangle" stroke="#263238" stroke-width="0.525" fill="#263238" fill-rule="nonzero" stroke-linecap="round" stroke-linejoin="round" x="59.8234304" y="217.667569" width="4.94029565" height="1.28504587"></rect>
                                <rect id="Rectangle" stroke="#263238" stroke-width="0.525" fill="#FFFFFF" fill-rule="nonzero" stroke-linecap="round" stroke-linejoin="round" x="54.3358565" y="208.938119" width="4.94029565" height="10.0071101"></rect>
                                <rect id="Rectangle" stroke="#263238" stroke-width="0.525" fill="#4788D8" fill-rule="nonzero" stroke-linecap="round" stroke-linejoin="round" x="48.8482826" y="210.865688" width="4.94029565" height="8.08692661"></rect>
                                <rect id="Rectangle" stroke="#263238" stroke-width="0.525" fill="#263238" fill-rule="nonzero" stroke-linecap="round" stroke-linejoin="round" x="43.3681043" y="218.561193" width="4.94029565" height="1"></rect>
                                <rect id="Rectangle" stroke="#263238" stroke-width="0.525" fill="#FFFFFF" fill-rule="nonzero" stroke-linecap="round" stroke-linejoin="round" x="37.8805304" y="218.435642" width="4.94029565" height="1"></rect>
                                <rect id="Rectangle" stroke="#263238" stroke-width="0.525" fill="#4788D8" fill-rule="nonzero" stroke-linecap="round" stroke-linejoin="round" x="32.3929565" y="212.534771" width="4.94029565" height="6.41784404"></rect>
                                <rect id="Rectangle" stroke="#263238" stroke-width="0.525" fill="#263238" fill-rule="nonzero" stroke-linecap="round" stroke-linejoin="round" x="26.9053826" y="217.667569" width="4.94029565" height="1.28504587"></rect>
                                <rect id="Rectangle" stroke="#263238" stroke-width="0.525" fill="#FFFFFF" fill-rule="nonzero" stroke-linecap="round" stroke-linejoin="round" x="21.4178087" y="216.382523" width="4.94029565" height="2.57009174"></rect>
                                <rect id="Rectangle" fill="#000000" fill-rule="nonzero" opacity="0.2" x="133.143926" y="94.162844" width="109.803248" height="82.6417431" rx="5.985"></rect>
                                <rect id="Rectangle" stroke="#263238" stroke-width="0.7" fill="#FFFFFF" fill-rule="nonzero" stroke-linecap="round" stroke-linejoin="round" x="129.335165" y="89.8202752" width="109.803248" height="82.6417431" rx="5.985"></rect>
                                <rect id="Rectangle" stroke="#263238" stroke-width="0.525" fill="#4788D8" fill-rule="nonzero" stroke-linecap="round" stroke-linejoin="round" x="226.528826" y="154.478761" width="5.69465217" height="6.30706422"></rect>
                                <rect id="Rectangle" stroke="#263238" stroke-width="0.525" fill="#263238" fill-rule="nonzero" stroke-linecap="round" stroke-linejoin="round" x="220.198148" y="122.94344" width="5.69465217" height="37.835"></rect>
                                <rect id="Rectangle" stroke="#263238" stroke-width="0.525" fill="#FFFFFF" fill-rule="nonzero" stroke-linecap="round" stroke-linejoin="round" x="213.86747" y="136.532431" width="5.69465217" height="24.2533945"></rect>
                                <rect id="Rectangle" stroke="#263238" stroke-width="0.525" fill="#4788D8" fill-rule="nonzero" stroke-linecap="round" stroke-linejoin="round" x="207.544187" y="117.611239" width="5.69465217" height="43.1745872"></rect>
                                <rect id="Rectangle" stroke="#263238" stroke-width="0.525" fill="#263238" fill-rule="nonzero" stroke-linecap="round" stroke-linejoin="round" x="201.213509" y="149.626606" width="5.69465217" height="11.1592202"></rect>
                                <rect id="Rectangle" stroke="#263238" stroke-width="0.525" fill="#FFFFFF" fill-rule="nonzero" stroke-linecap="round" stroke-linejoin="round" x="194.88283" y="146.229358" width="5.69465217" height="14.5490826"></rect>
                                <rect id="Rectangle" stroke="#263238" stroke-width="0.525" fill="#4788D8" fill-rule="nonzero" stroke-linecap="round" stroke-linejoin="round" x="188.559548" y="131.680275" width="5.69465217" height="29.1055505"></rect>
                                <rect id="Rectangle" stroke="#263238" stroke-width="0.525" fill="#263238" fill-rule="nonzero" stroke-linecap="round" stroke-linejoin="round" x="182.22887" y="155.93367" width="5.69465217" height="4.85215596"></rect>
                                <rect id="Rectangle" stroke="#263238" stroke-width="0.525" fill="#FFFFFF" fill-rule="nonzero" stroke-linecap="round" stroke-linejoin="round" x="175.898191" y="122.94344" width="5.69465217" height="37.835"></rect>
                                <rect id="Rectangle" stroke="#263238" stroke-width="0.525" fill="#4788D8" fill-rule="nonzero" stroke-linecap="round" stroke-linejoin="round" x="169.574909" y="130.225367" width="5.69465217" height="30.5604587"></rect>
                                <rect id="Rectangle" stroke="#263238" stroke-width="0.525" fill="#263238" fill-rule="nonzero" stroke-linecap="round" stroke-linejoin="round" x="163.24423" y="159.323532" width="5.69465217" height="1.45490826"></rect>
                                <rect id="Rectangle" stroke="#263238" stroke-width="0.525" fill="#FFFFFF" fill-rule="nonzero" stroke-linecap="round" stroke-linejoin="round" x="156.913552" y="158.843486" width="5.69465217" height="1.94233945"></rect>
                                <rect id="Rectangle" stroke="#263238" stroke-width="0.525" fill="#4788D8" fill-rule="nonzero" stroke-linecap="round" stroke-linejoin="round" x="150.582874" y="136.532431" width="5.69465217" height="24.2533945"></rect>
                                <rect id="Rectangle" stroke="#263238" stroke-width="0.525" fill="#263238" fill-rule="nonzero" stroke-linecap="round" stroke-linejoin="round" x="144.259591" y="155.93367" width="5.69465217" height="4.85215596"></rect>
                                <rect id="Rectangle" stroke="#263238" stroke-width="0.525" fill="#FFFFFF" fill-rule="nonzero" stroke-linecap="round" stroke-linejoin="round" x="137.928913" y="151.081514" width="5.69465217" height="9.70431193"></rect>
                                <rect id="Rectangle" stroke="#263238" stroke-width="0.7" fill="#4788D8" fill-rule="nonzero" x="138.668478" y="107.087156" width="93.9247826" height="4.80045872"></rect>
                                <rect id="Rectangle" stroke="#263238" stroke-width="0.7" fill="#263238" fill-rule="nonzero" x="163.41433" y="107.434266" width="15.2350435" height="4.09885321"></rect>
                                <rect id="Rectangle" stroke="#263238" stroke-width="0.7" fill="#FFFFFF" fill-rule="nonzero" x="179.263213" y="107.434266" width="28.6137783" height="4.09885321"></rect>
                                <rect id="Rectangle" fill="#000000" fill-rule="nonzero" opacity="0.2" x="142.114852" y="4.88169725" width="88.8513652" height="66.8740826" rx="5.985"></rect>
                                <rect id="Rectangle" stroke="#263238" stroke-width="0.7" fill="#FFFFFF" fill-rule="nonzero" stroke-linecap="round" stroke-linejoin="round" x="138.845974" y="0.53912844" width="88.8513652" height="66.8740826" rx="5.985"></rect>
                                <path d="M142.972748,61.1504587 L226.395704,61.1504587" id="Path" stroke="#263238" stroke-width="0.5"></path>
                                <path d="M142.972748,61.1504587 L142.972748,62.3838073" id="Path" stroke="#263238" stroke-width="0.5"></path>
                                <path d="M148.534278,61.1504587 L148.534278,62.3838073" id="Path" stroke="#263238" stroke-width="0.5"></path>
                                <path d="M154.095809,61.1504587 L154.095809,62.3838073" id="Path" stroke="#263238" stroke-width="0.5"></path>
                                <path d="M159.657339,61.1504587 L159.657339,62.3838073" id="Path" stroke="#263238" stroke-width="0.5"></path>
                                <path d="M165.21887,61.1504587 L165.21887,62.3838073" id="Path" stroke="#263238" stroke-width="0.5"></path>
                                <path d="M170.7804,61.1504587 L170.7804,62.3838073" id="Path" stroke="#263238" stroke-width="0.5"></path>
                                <path d="M176.34193,61.1504587 L176.34193,62.3838073" id="Path" stroke="#263238" stroke-width="0.5"></path>
                                <path d="M181.903461,61.1504587 L181.903461,62.3838073" id="Path" stroke="#263238" stroke-width="0.5"></path>
                                <path d="M187.464991,61.1504587 L187.464991,62.3838073" id="Path" stroke="#263238" stroke-width="0.5"></path>
                                <path d="M193.026522,61.1504587 L193.026522,62.3838073" id="Path" stroke="#263238" stroke-width="0.5"></path>
                                <path d="M198.588052,61.1504587 L198.588052,62.3838073" id="Path" stroke="#263238" stroke-width="0.5"></path>
                                <path d="M204.149583,61.1504587 L204.149583,62.3838073" id="Path" stroke="#263238" stroke-width="0.5"></path>
                                <path d="M209.711113,61.1504587 L209.711113,62.3838073" id="Path" stroke="#263238" stroke-width="0.5"></path>
                                <path d="M215.272643,61.1504587 L215.272643,62.3838073" id="Path" stroke="#263238" stroke-width="0.5"></path>
                                <path d="M220.834174,61.1504587 L220.834174,62.3838073" id="Path" stroke="#263238" stroke-width="0.5"></path>
                                <path d="M226.395704,61.1504587 L226.395704,62.3838073" id="Path" stroke="#263238" stroke-width="0.5"></path>
                                <path d="M145.753513,60.146055 L223.614939,60.146055 L223.614939,49.4004128 L218.105178,38.7655505 C218.069481,38.6906536 218.044582,38.6110874 218.031222,38.5292202 L213.1353,6.98651376 C213.1353,6.66020974 212.870408,6.39568807 212.543648,6.39568807 C212.216887,6.39568807 211.951996,6.66020974 211.951996,6.98651376 L206.967326,45.493578 C206.943718,45.6780579 206.85128,45.8468517 206.708478,45.9662385 L201.9087,49.6588991 C201.768443,49.7630235 201.587663,49.7960713 201.419564,49.7483167 C201.251464,49.7005621 201.115175,49.5774396 201.050804,49.4151835 L196.214048,39.4523853 C196.141278,39.2619303 195.969632,39.1267812 195.767197,39.1005477 C195.564762,39.0743142 195.364257,39.1612364 195.245217,39.3268349 L190.245757,45.7889908 L184.684226,52.9527523 L179.122696,45.7889908 L174.219378,39.4745413 C174.087917,39.2942246 173.862014,39.2087477 173.643903,39.2567932 C173.425792,39.3048387 173.256865,39.4772888 173.21357,39.6961009 L168.036613,55.8182569 L162.475083,27.0819725 L156.913552,58.6837615 L151.352022,54.3855046 L146.91463,41.9043119 C146.663178,41.1657798 145.760909,41.4021101 145.760909,42.1701835 L145.753513,60.146055 Z" id="Path" fill="#4788D8" fill-rule="nonzero"></path>
                                <path d="M223.615398,60.168211 L145.753513,60.168211 L145.753513,50.9587156 L151.255878,41.8156881 C151.294475,41.7525546 151.319649,41.6821652 151.329835,41.6088991 L156.225757,14.4826147 C156.281049,14.1979154 156.530697,13.9923216 156.821107,13.9923216 C157.111516,13.9923216 157.361164,14.1979154 157.416457,14.4826147 L162.39373,47.5983945 C162.425114,47.7636564 162.520865,47.9097376 162.659974,48.0045872 L167.459752,51.1950459 C167.599031,51.2884124 167.771131,51.3191845 167.934198,51.2798785 C168.097265,51.2405724 168.236357,51.1347898 168.317648,50.9882569 L173.147009,42.4212844 C173.242145,42.2532677 173.412618,42.1414135 173.60481,42.1209026 C173.797002,42.1003917 173.987295,42.1737446 174.115839,42.3178899 L179.122696,47.8568807 L184.684226,54.0162385 L190.245757,47.8568807 L195.141678,42.4286697 C195.283581,42.2740487 195.495496,42.2037549 195.701839,42.2428602 C195.908182,42.2819655 196.079574,42.424902 196.154883,42.6206881 L201.331839,56.4829358 L206.89337,56.4829358 L212.4549,58.949633 L218.01643,55.2569725 L222.453822,44.5261009 C222.55522,44.2495701 222.843074,44.0878655 223.132387,44.1449111 C223.421699,44.2019567 223.626403,44.4607821 223.615398,44.7550459 L223.615398,60.168211 Z" id="Path" fill="#263238" fill-rule="nonzero"></path>
                                <path d="M187.916126,9.45321101 L205.147996,9.45321101" id="Path" stroke="#263238" stroke-width="0.7" stroke-linecap="round" stroke-linejoin="round"></path>
                                <path d="M187.916126,13.4855963 L205.147996,13.4855963" id="Path" stroke="#263238" stroke-width="0.7" stroke-linecap="round" stroke-linejoin="round"></path>
                                <path d="M187.916126,17.5105963 L205.147996,17.5105963" id="Path" stroke="#263238" stroke-width="0.7" stroke-linecap="round" stroke-linejoin="round"></path>
                                <path d="M187.916126,21.5429817 L205.147996,21.5429817" id="Path" stroke="#263238" stroke-width="0.7" stroke-linecap="round" stroke-linejoin="round"></path>
                                <path d="M187.916126,25.5679817 L205.147996,25.5679817" id="Path" stroke="#263238" stroke-width="0.7" stroke-linecap="round" stroke-linejoin="round"></path>
                                <path d="M187.916126,29.600367 L205.147996,29.600367" id="Path" stroke="#263238" stroke-width="0.7" stroke-linecap="round" stroke-linejoin="round"></path>
                                <path d="M183.99643,9.45321101 L186.155961,9.45321101" id="Path" stroke="#263238" stroke-width="0.7" stroke-linecap="round" stroke-linejoin="round"></path>
                                <path d="M183.99643,13.4855963 L186.155961,13.4855963" id="Path" stroke="#263238" stroke-width="0.7" stroke-linecap="round" stroke-linejoin="round"></path>
                                <path d="M183.99643,17.5105963 L186.155961,17.5105963" id="Path" stroke="#263238" stroke-width="0.7" stroke-linecap="round" stroke-linejoin="round"></path>
                                <path d="M183.99643,21.5429817 L186.155961,21.5429817" id="Path" stroke="#263238" stroke-width="0.7" stroke-linecap="round" stroke-linejoin="round"></path>
                                <path d="M183.99643,25.5679817 L186.155961,25.5679817" id="Path" stroke="#263238" stroke-width="0.7" stroke-linecap="round" stroke-linejoin="round"></path>
                                <path d="M183.99643,29.600367 L186.155961,29.600367" id="Path" stroke="#263238" stroke-width="0.7" stroke-linecap="round" stroke-linejoin="round"></path>
                            </g>
                            <g id="freepik--Shadow--inject-26" transform="translate(76.000000, 253.000000)" fill-rule="nonzero">
                                <ellipse id="Oval" fill="#4788D8" cx="44.1291667" cy="21.6333333" rx="44.0846667" ry="21.6333333"></ellipse>
                                <ellipse id="Oval" fill="#FFFFFF" opacity="0.5" cx="44.1291667" cy="21.6333333" rx="44.0846667" ry="21.6333333"></ellipse>
                            </g>
                            <g id="freepik--Character--inject-26" transform="translate(93.000000, 72.000000)" stroke-width="0.7">
                                <path d="M12.1400656,38.6092816 C12.1400656,38.6092816 0.932721311,78.9297573 0.932721311,82.0336117 C0.932721311,84.6781845 4.60485246,89.9599223 8.65888525,87.841301 C12.712918,85.7226796 13.6309508,79.129767 13.6309508,79.129767 L12.1400656,38.6092816 Z" id="Path" stroke="#263238" fill="#FFFFFF" fill-rule="nonzero" stroke-linecap="round" stroke-linejoin="round"></path>
                                <path d="M42.1193443,203.772854 C42.1193443,203.772854 36.3834754,211.588049 35.9501639,214.884505 C35.5168525,218.180961 39.9527869,218.440233 41.9063607,216.906825 C43.8599344,215.373417 47.9286557,205.372932 47.9286557,205.372932 L42.1193443,203.772854 Z" id="Path" stroke="#263238" fill="#FFFFFF" fill-rule="nonzero" stroke-linecap="round" stroke-linejoin="round"></path>
                                <path d="M10.8180984,184.957126 C10.8180984,184.957126 0.998819672,189.120291 0.998819672,191.498184 C0.998819672,193.876078 6.10308197,193.276049 9.81193443,191.890796 C13.5207869,190.505544 19.432918,188.12765 19.432918,188.12765 C19.432918,188.12765 13.7631475,184.364505 10.8180984,184.957126 Z" id="Path" stroke="#263238" fill="#FFFFFF" fill-rule="nonzero" stroke-linecap="round" stroke-linejoin="round"></path>
                                <path d="M13.8953443,90.8784854 L13.5648525,103.753184 C13.5648525,103.753184 11.0163934,127.324699 9.83396721,140.006796 C8.65154098,152.688893 12.3897705,181.801417 12.3897705,181.801417 L10.6198033,183.579282 L10.6198033,185.364553 L19.432918,188.135058 C19.8257484,186.306862 20.0883645,184.452653 20.2187541,182.586641 L20.2187541,179.623534 L29.4504918,123.968981 C29.4504918,123.968981 36.7139672,180.223563 37.8963934,186.757214 C39.0788197,193.290864 40.8340984,200.224534 40.8340984,200.224534 L40.2465574,202.202408 L41.0250492,205.772951 L47.1134426,207.358214 C48.1424327,205.755109 48.7514153,203.914912 48.8834098,202.009806 C49.2726557,198.439262 49.4709508,190.12034 49.4709508,190.12034 C49.4709508,190.12034 49.0817049,161.230049 50.455082,141.599466 C51.2728203,129.525814 51.1402081,117.40577 50.0584918,105.353262 L49.0817049,92.2859612 C37.5959344,96.304521 25.0295384,95.8018575 13.8953443,90.8784854 L13.8953443,90.8784854 Z" id="Path" stroke="#263238" fill="#263238" fill-rule="nonzero" stroke-linecap="round" stroke-linejoin="round"></path>
                                <polyline id="Path" stroke="#FFFFFF" stroke-linecap="round" stroke-linejoin="round" points="29.4725246 123.954165 28.4883934 116.627883 24.5665574 112.472126"></polyline>
                                <path d="M43.2209836,98.012165 C43.2209836,98.012165 40.4668852,103.160563 47.9286557,105.538456" id="Path" stroke="#FFFFFF" stroke-linecap="round" stroke-linejoin="round"></path>
                                <path d="M47.9286557,107.91635 L47.9286557,199.417087" id="Path" stroke="#FFFFFF" stroke-linecap="round" stroke-linejoin="round"></path>
                                <path d="M23.1858361,99.1974078 L23.9716721,103.953194 C23.9716721,103.953194 22.0107541,107.51633 22.7965902,109.101592" id="Path" stroke="#FFFFFF" stroke-linecap="round" stroke-linejoin="round"></path>
                                <path d="M27.1223607,33.4682913 C27.1223607,33.4682913 12.3971148,37.8166505 12.1400656,38.6092816 C11.8830164,39.4019126 13.8953443,90.8784854 13.8953443,90.8784854 C13.8953443,90.8784854 17.8245246,96.9528544 28.5838689,97.8788252 C39.3432131,98.8047961 49.5297049,93.1230388 49.5297049,93.1230388 L56.5508197,46.2540971 C56.5508197,46.2540971 39.6590164,34.6313107 38.4839344,34.3646311 C37.3088525,34.0979515 30.3979016,32.5423204 27.1223607,33.4682913 Z" id="Path" stroke="#263238" fill="#FFFFFF" fill-rule="nonzero" stroke-linecap="round" stroke-linejoin="round"></path>
                                <path d="M26.1088525,43.365068 L29.6047213,52.0173398 L35.5829508,45.1873786 C35.5829508,45.1873786 35.1349508,40.8612427 31.1763934,40.4093689 C29.0054544,40.054634 26.8869383,41.2902818 26.1088525,43.365068 L26.1088525,43.365068 Z" id="Path" stroke="#263238" fill="#263238" fill-rule="nonzero" stroke-linecap="round" stroke-linejoin="round"></path>
                                <path d="M27.1223607,33.4682913 L20.916459,43.365068 C20.916459,43.365068 24.5298361,42.4539126 26.2190164,43.935466 C27.9081967,45.4170194 29.8323934,47.0096893 29.8323934,47.0096893 C29.8323934,47.0096893 32.7700984,44.6169806 35.1349508,45.4170194 C36.7543623,46.018138 38.2745954,46.8622453 39.6443279,47.9208447 C39.6443279,47.9208447 41.1131803,38.1351845 39.1963279,33.697932 C37.2794754,29.2606796 31.1837377,27.6606019 27.1223607,33.4682913 Z" id="Path" stroke="#263238" fill="#FFFFFF" fill-rule="nonzero" stroke-linecap="round" stroke-linejoin="round"></path>
                                <path d="M28.701377,34.6016796 C28.5125202,37.4817574 28.4757469,40.3699316 28.5912131,43.2539515 C28.811541,46.8985728 29.9425574,47.6986117 31.2939016,45.3059029 C32.6452459,42.9131942 35.700459,35.6313592 35.700459,33.5794078 C35.7050573,32.2874024 35.7786064,30.9965834 35.9207869,29.7125534 C35.9207869,29.7125534 31.1837377,34.8165049 28.701377,34.6016796 Z" id="Path" stroke="#263238" fill="#FFFFFF" fill-rule="nonzero" stroke-linecap="round" stroke-linejoin="round"></path>
                                <polygon id="Path" stroke="#263238" fill="#263238" fill-rule="nonzero" stroke-linecap="round" stroke-linejoin="round" points="29.6047213 52.0173398 23.7366557 82.1743592 27.6878689 92.1896602 32.5424262 83.9966699"></polygon>
                                <path d="M41.1278689,79.5223786 C41.1278689,79.5223786 27.9081967,71.4701359 26.7331148,70.418233 C25.5580328,69.3663301 25.5506885,70.1515534 24.6326557,70.6775049 C23.714623,71.2034563 20.3142295,75.2999515 19.6605902,76.6037184 C19.0069508,77.9074854 17.9567213,79.7742427 19.2713443,80.0409223 C20.5859672,80.3076019 21.6288525,77.8185922 21.6288525,77.3963495 C21.6288525,76.9741068 23.5897705,74.7591845 23.5897705,74.7591845 C23.5897705,74.7591845 21.6288525,79.5075631 22.2824918,79.9075825 C22.9361311,80.3076019 27.3867541,82.1299126 28.3047869,82.1299126 C29.2228197,82.1299126 29.8691148,80.4113107 29.8691148,80.4113107 C29.8691148,80.4113107 31.1837377,82.1299126 32.4910164,81.9965728 C33.2766165,81.9090241 34.0310838,81.637604 34.6942951,81.2039417 L39.144918,84.7670777 L41.1278689,79.5223786 Z" id="Path" stroke="#263238" fill="#FFFFFF" fill-rule="nonzero" stroke-linecap="round" stroke-linejoin="round"></path>
                                <path d="M41.1278689,79.5223786 C41.1278689,79.5223786 39.4827541,78.5223301 37.3088525,77.1815243 L35.3699672,81.766932 L39.1669508,84.8041165 L41.1278689,79.5223786 Z" id="Path" stroke="#263238" fill="#FFFFFF" fill-rule="nonzero" stroke-linecap="round" stroke-linejoin="round"></path>
                                <path d="M23.9716721,80.8483689 C23.9716721,80.8483689 24.3682623,76.618534 26.0721311,74.2406408" id="Path" stroke="#263238" stroke-linecap="round" stroke-linejoin="round"></path>
                                <path d="M26.1969836,81.3743204 C26.1969836,81.3743204 27.1150164,77.6704369 28.951082,75.5666311" id="Path" stroke="#263238" stroke-linecap="round" stroke-linejoin="round"></path>
                                <path d="M51.072,48.6319903 C47.931556,51.4326485 45.7727477,55.1821673 44.9175082,59.3213981 L53.1651148,82.9669903 C53.1651148,82.9669903 43.3458361,78.8704951 42.1487213,78.7445631 C40.9516066,78.6186311 36.7800656,84.4189126 37.9624918,85.7374951 C39.144918,87.0560777 62.1985574,100.130786 63.616,98.4121845 C65.0334426,96.6935825 57.7405902,49.9579806 56.9400656,48.2393786 C56.139541,46.5207767 56.6830164,45.6022136 53.928918,45.2021942" id="Path" stroke="#263238" fill="#FFFFFF" fill-rule="nonzero" stroke-linecap="round" stroke-linejoin="round"></path>
                                <path d="M53.1651148,82.9669903 C53.1651148,82.9669903 57.8801311,84.026301 59.1874098,86.5301262" id="Path" stroke="#263238" fill="#FFFFFF" fill-rule="nonzero" stroke-linecap="round" stroke-linejoin="round"></path>
                                <path d="M0.462688525,63.4919709 L10.9796721,87.1968252 C11.0889078,87.4321543 11.2795479,87.6191747 11.5158033,87.7227767 L26.5641967,93.945301 C26.931957,94.1043333 27.3581909,94.0284532 27.6497554,93.7520448 C27.9413199,93.4756365 28.0427943,93.0512397 27.9081967,92.671165 L19.4843279,69.7070874 C19.1852993,68.8915337 18.5462075,68.2496243 17.7363934,67.9514466 L1.74059016,62.1067184 C1.35488983,61.9517235 0.914408939,62.0516027 0.631584716,62.3581857 C0.348760494,62.6647687 0.281677374,63.1150918 0.462688525,63.4919709 L0.462688525,63.4919709 Z" id="Path" stroke="#263238" fill="#4788D8" fill-rule="nonzero" stroke-linecap="round" stroke-linejoin="round"></path>
                                <path d="M4.40655738,76.1296214 C4.10840561,76.067442 3.79866981,76.151276 3.57143467,76.3556582 C3.34419953,76.5600403 3.22628487,76.8608481 3.2535082,77.1667087 C3.25017435,77.5085046 3.37930191,77.838102 3.61337705,78.0852718 C4.19357377,78.5001068 8.54872131,78.8260485 8.37980328,77.9963786 C8.26963934,77.3519029 6.02229508,76.4481553 4.40655738,76.1296214 Z" id="Path" stroke="#263238" fill="#FFFFFF" fill-rule="nonzero" stroke-linecap="round" stroke-linejoin="round"></path>
                                <path d="M3.04786885,74.5295437 C2.69375674,74.4557548 2.32589075,74.554909 2.0554756,74.7970323 C1.78506046,75.0391557 1.64383521,75.3958297 1.6744918,75.759233 C1.67088757,76.1656504 1.82663074,76.5570438 2.10780328,76.8481748 C2.79081967,77.3370874 7.98321311,77.729699 7.76288525,76.744466 C7.60865574,75.981466 4.94268852,74.9073398 3.04786885,74.5295437 Z" id="Path" stroke="#263238" fill="#FFFFFF" fill-rule="nonzero" stroke-linecap="round" stroke-linejoin="round"></path>
                                <path d="M2.63659016,72.1738738 C2.25475437,72.1034966 1.8621866,72.2162504 1.57438734,72.4789609 C1.28658808,72.7416713 1.13629894,73.1244512 1.1677377,73.5146796 C1.16465891,73.9565687 1.3334025,74.3820754 1.63777049,74.6999223 C2.37219672,75.2332816 7.99790164,75.662932 7.78491803,74.5962136 C7.60131148,73.7591359 4.70032787,72.5961165 2.63659016,72.1738738 Z" id="Path" stroke="#263238" fill="#FFFFFF" fill-rule="nonzero" stroke-linecap="round" stroke-linejoin="round"></path>
                                <path d="M1.792,69.9293204 C1.41016421,69.8589432 1.01759644,69.971697 0.729797174,70.2344075 C0.441997911,70.4971179 0.29170878,70.8798978 0.323147541,71.2701262 C0.312659651,71.7133947 0.482503964,72.141677 0.793180328,72.4553689 C1.52760656,72.9887282 7.15331148,73.4183786 6.94032787,72.3516602 C6.74937705,71.5145825 3.8557377,70.3737864 1.792,69.9293204 Z" id="Path" stroke="#263238" fill="#FFFFFF" fill-rule="nonzero" stroke-linecap="round" stroke-linejoin="round"></path>
                                <path d="M21.5407213,17.4823301 C21.5407213,17.4823301 22.4220328,26.5494369 24.3902951,30.7496408 C26.3585574,34.9498447 27.019541,36.9351262 28.9951475,36.9351262 C30.9707541,36.9351262 34.6942951,34.0609126 36.4422295,31.408932 C37.3182384,30.127899 38.1248397,28.7999651 38.8584918,27.4309612 L39.2918033,26.3272039 C39.2918033,26.3272039 42.3617049,24.1048738 43.0226885,22.571466 C43.6836721,21.0380583 42.3617049,19.9194854 39.9527869,21.2454757 C39.9527869,21.2454757 40.8267541,14.3932913 39.0714754,10.1930874 C37.3161967,5.9928835 23.9569836,9.97085437 21.5407213,17.4823301 Z" id="Path" stroke="#263238" fill="#FFFFFF" fill-rule="nonzero"></path>
                                <path d="M19.1538361,20.9269417 L33.9598689,23.971534 C33.9598689,23.971534 34.0626885,26.290165 32.4910164,27.023534 C30.9152027,27.704105 29.0923698,27.416375 27.7980328,26.2827573 C26.6523279,25.2308544 26.6523279,23.2307573 26.6523279,23.2307573 C26.6523279,23.2307573 25.7122623,22.4899806 25.6094426,23.2307573 C25.3907676,24.65892 24.1476269,25.6964025 22.7158033,25.6456893 C21.3026458,25.5761722 20.0717688,24.6508882 19.6018361,23.304835 C19.3464234,22.5363266 19.1957118,21.7363797 19.1538361,20.9269417 L19.1538361,20.9269417 Z" id="Path" stroke="#263238" fill="#FFFFFF" fill-rule="nonzero" stroke-linecap="round" stroke-linejoin="round"></path>
                                <path d="M33.9598689,23.971534 L40.1143607,20.7121165" id="Path" stroke="#263238" stroke-linecap="round" stroke-linejoin="round"></path>
                                <path d="M19.1538361,20.9269417 L21.5480656,19.9787476" id="Path" stroke="#263238" stroke-linecap="round" stroke-linejoin="round"></path>
                                <polyline id="Path" stroke="#263238" fill="#FFFFFF" fill-rule="nonzero" stroke-linecap="round" stroke-linejoin="round" points="25.7196066 23.8678252 24.6767213 27.7643107 25.9325902 28.0754369 26.2410492 31.1274369 28.224 30.6014854"></polyline>
                                <path d="M27.9081967,2.89643689 C27.9081967,2.89643689 19.1391475,9.74862136 18.2651803,13.9488252 C17.3912131,18.1490291 23.0830164,19.9194854 26.8139016,19.2527864 C30.5447869,18.5860874 35.9868852,15.0525825 35.9868852,15.0525825 C35.9868852,15.0525825 32.9169836,19.9194854 35.3259016,20.1343107 C36.4169913,20.2931577 37.5250414,20.2931577 38.6161311,20.1343107 C38.6161311,20.1343107 37.3015082,22.793699 38.3958033,22.793699 C39.4900984,22.793699 39.9307541,21.2454757 39.9307541,21.2454757 C39.9307541,21.2454757 43.0006557,13.9488252 42.1340328,7.31887379 C41.2674098,0.68892233 33.1593443,-1.30376699 27.9081967,2.89643689 Z" id="Path" stroke="#263238" fill="#263238" fill-rule="nonzero"></path>
                            </g>
                        </g>
                        <g id="Step-3-box" transform="translate(81.000000, 441.000000)">
                            <rect id="Rectangle-Copy" fill="#FFFFFF" x="0" y="0" width="68" height="31"></rect>
                            <rect id="Rectangle-Copy" fill="#3087DF" x="6" y="5" width="58" height="21"></rect>
                            <path d="M18.554,19.608 C17.9059968,19.608 17.2980028,19.5200009 16.73,19.344 C16.1619972,19.1679991 15.682002,18.9200016 15.29,18.6 L15.806,17.472 C16.214002,17.7840016 16.6439977,18.0119993 17.096,18.156 C17.5480023,18.3000007 18.0379974,18.372 18.566,18.372 C19.1500029,18.372 19.5999984,18.270001 19.916,18.066 C20.2320016,17.861999 20.39,17.5760018 20.39,17.208 C20.39,16.8879984 20.2440015,16.6440008 19.952,16.476 C19.6599985,16.3079992 19.1740034,16.1480008 18.494,15.996 C17.79,15.8439992 17.2180022,15.668001 16.778,15.468 C16.3379978,15.267999 16.0060011,15.0120016 15.782,14.7 C15.5579989,14.3879984 15.446,13.9920024 15.446,13.512 C15.446,13.0159975 15.5819986,12.572002 15.854,12.18 C16.1260014,11.787998 16.5099975,11.4820011 17.006,11.262 C17.5020025,11.0419989 18.0739968,10.932 18.722,10.932 C19.314003,10.932 19.8779973,11.0219991 20.414,11.202 C20.9500027,11.3820009 21.3899983,11.6279984 21.734,11.94 L21.218,13.068 C20.4659962,12.467997 19.6340046,12.168 18.722,12.168 C18.1779973,12.168 17.7480016,12.2779989 17.432,12.498 C17.1159984,12.7180011 16.958,13.023998 16.958,13.416 C16.958,13.7440016 17.0979986,13.9959991 17.378,14.172 C17.6580014,14.3480009 18.1339966,14.5119992 18.806,14.664 C19.5180036,14.8240008 20.0959978,15.001999 20.54,15.198 C20.9840022,15.394001 21.3239988,15.6439985 21.56,15.948 C21.7960012,16.2520015 21.914,16.6359977 21.914,17.1 C21.914,17.6040025 21.7800013,18.0459981 21.512,18.426 C21.2439987,18.8060019 20.8560025,19.097999 20.348,19.302 C19.8399975,19.506001 19.2420034,19.608 18.554,19.608 Z M25.334,19.5 L25.334,12.312 L22.574,12.312 L22.574,11.04 L29.642,11.04 L29.642,12.312 L26.882,12.312 L26.882,19.5 L25.334,19.5 Z M30.698,19.5 L30.698,11.04 L36.362,11.04 L36.362,12.264 L32.21,12.264 L32.21,14.592 L36.122,14.592 L36.122,15.804 L32.21,15.804 L32.21,18.276 L36.362,18.276 L36.362,19.5 L30.698,19.5 Z M37.766,11.04 L41.462,11.04 C42.3660045,11.04 43.0699975,11.2659977 43.574,11.718 C44.0780025,12.1700023 44.33,12.8039959 44.33,13.62 C44.33,14.4360041 44.0780025,15.0719977 43.574,15.528 C43.0699975,15.9840023 42.3660045,16.212 41.462,16.212 L39.314,16.212 L39.314,19.5 L37.766,19.5 L37.766,11.04 Z M41.27,15.024 C42.3340053,15.024 42.866,14.5600046 42.866,13.632 C42.866,13.1599976 42.7340013,12.8100011 42.47,12.582 C42.2059987,12.3539989 41.8060027,12.24 41.27,12.24 L39.314,12.24 L39.314,15.024 L41.27,15.024 Z M52.934,15.156 C53.4300025,15.2840006 53.8119987,15.5259982 54.08,15.882 C54.3480013,16.2380018 54.482,16.6799974 54.482,17.208 C54.482,17.9440037 54.2120027,18.5259979 53.672,18.954 C53.1319973,19.3820021 52.3980046,19.596 51.47,19.596 C50.9019972,19.596 50.3560026,19.5080009 49.832,19.332 C49.3079974,19.1559991 48.8740017,18.9160015 48.53,18.612 L49.046,17.484 C49.7820037,18.0680029 50.5699958,18.36 51.41,18.36 C51.9460027,18.36 52.3459987,18.2540011 52.61,18.042 C52.8740013,17.8299989 53.006,17.5080022 53.006,17.076 C53.006,16.6519979 52.8720013,16.338001 52.604,16.134 C52.3359987,15.929999 51.9220028,15.828 51.362,15.828 L50.246,15.828 L50.246,14.604 L51.158,14.604 C52.2540055,14.604 52.802,14.1920041 52.802,13.368 C52.802,12.9839981 52.6840012,12.688001 52.448,12.48 C52.2119988,12.271999 51.8780022,12.168 51.446,12.168 C51.0699981,12.168 50.6880019,12.2419993 50.3,12.39 C49.9119981,12.5380007 49.5340018,12.7559986 49.166,13.044 L48.65,11.916 C48.9860017,11.6119985 49.4159974,11.3720009 49.94,11.196 C50.4640026,11.0199991 50.9979973,10.932 51.542,10.932 C52.3740042,10.932 53.0379975,11.133998 53.534,11.538 C54.03,11.942002 54.278,12.4879966 54.278,13.176 C54.27,13.6480024 54.1480012,14.0579983 53.912,14.406 C53.6759988,14.7540017 53.3500021,15.0039992 52.934,15.156 Z" id="STEP3" fill="#FFFFFF" fill-rule="nonzero"></path>
                        </g>
                    </g>
                </g>
            </g>
        </g>
    </g>
</svg>